<svg width="31" height="30" viewBox="0 0 31 30" fill="none" xmlns="http://www.w3.org/2000/svg">
<circle cx="15.5" cy="15" r="15" fill="#F3F3F3"/>
<mask id="mask0_1_17081" style="mask-type:alpha" maskUnits="userSpaceOnUse" x="0" y="0" width="31" height="30">
<circle cx="15.5" cy="15" r="15" fill="#FFE6E6"/>
</mask>
<g mask="url(#mask0_1_17081)">
<path d="M7.5607 11.6022V30.5968C7.5607 30.873 7.33684 31.0968 7.0607 31.0968H4.62109C4.34495 31.0968 4.12109 30.873 4.12109 30.5968V11.6022C4.12109 11.3973 4.24619 11.2131 4.43671 11.1375L5.65651 10.6535C5.77495 10.6066 5.90685 10.6066 6.02528 10.6535L7.24508 11.1375C7.4356 11.2131 7.5607 11.3973 7.5607 11.6022Z" stroke="#656565"/>
<path d="M26.881 11.6022V30.5968C26.881 30.873 26.6572 31.0968 26.381 31.0968H23.9414C23.6653 31.0968 23.4414 30.873 23.4414 30.5968V11.6022C23.4414 11.3973 23.5665 11.2131 23.757 11.1375L24.9768 10.6535C25.0953 10.6066 25.2272 10.6066 25.3456 10.6535L26.5654 11.1375C26.7559 11.2131 26.881 11.3973 26.881 11.6022Z" stroke="#656565"/>
<path d="M20.2305 13.1621L20.2305 31.2257" stroke="#656565"/>
<path d="M17.0781 13.1621L17.0781 31.2257" stroke="#656565"/>
<path d="M13.9219 13.1621L13.9219 31.2257" stroke="#656565"/>
<path d="M10.7695 13.1621L10.7695 31.2257" stroke="#656565"/>
<path d="M23.4805 13.1621L7.57248 13.1621" stroke="#656565"/>
</g>
</svg>
