<svg width="31" height="30" viewBox="0 0 31 30" fill="none" xmlns="http://www.w3.org/2000/svg">
<circle cx="15.1016" cy="15" r="15" fill="#F3F3F3"/>
<mask id="mask0_1_17067" style="mask-type:alpha" maskUnits="userSpaceOnUse" x="0" y="0" width="31" height="30">
<circle cx="15.1016" cy="15" r="15" fill="#FFE6E6"/>
</mask>
<g mask="url(#mask0_1_17067)">
<path d="M16.5842 12.2382V30.7833C16.5842 31.0595 16.3603 31.2833 16.0842 31.2833H14.1133C13.8371 31.2833 13.6133 31.0595 13.6133 30.7833V12.2382C13.6133 12.0389 13.7316 11.8587 13.9144 11.7794L14.8999 11.3523C15.0267 11.2973 15.1707 11.2973 15.2976 11.3523L16.283 11.7794C16.4658 11.8587 16.5842 12.0389 16.5842 12.2382Z" stroke="#656565"/>
<path d="M10.3224 12.2382V30.7833C10.3224 31.0595 10.0986 31.2833 9.82244 31.2833H7.85156C7.57542 31.2833 7.35156 31.0595 7.35156 30.7833V12.2382C7.35156 12.0389 7.46989 11.8587 7.65272 11.7794L8.63816 11.3523C8.76502 11.2973 8.90898 11.2973 9.03584 11.3523L10.0213 11.7794C10.2041 11.8587 10.3224 12.0389 10.3224 12.2382Z" stroke="#656565"/>
<path d="M10.832 15.4243H13.5745" stroke="#656565"/>
<path d="M17.0859 15.4243H19.8284" stroke="#656565"/>
<path d="M10.832 27.3579H13.5745" stroke="#656565"/>
<path d="M17.0859 27.3579H19.8284" stroke="#656565"/>
<path d="M22.8459 12.2382V30.7833C22.8459 31.0595 22.622 31.2833 22.3459 31.2833H20.375C20.0989 31.2833 19.875 31.0595 19.875 30.7833V12.2382C19.875 12.0389 19.9933 11.8587 20.1762 11.7794L21.1616 11.3523C21.2885 11.2973 21.4324 11.2973 21.5593 11.3523L22.5447 11.7794C22.7276 11.8587 22.8459 12.0389 22.8459 12.2382Z" stroke="#656565"/>
</g>
</svg>
