<svg width="31" height="30" viewBox="0 0 31 30" fill="none" xmlns="http://www.w3.org/2000/svg">
<circle cx="15.8984" cy="15" r="15" fill="#F3F3F3"/>
<mask id="mask0_1_17024" style="mask-type:alpha" maskUnits="userSpaceOnUse" x="0" y="0" width="31" height="30">
<circle cx="15.8984" cy="15" r="15" fill="#FFE6E6"/>
</mask>
<g mask="url(#mask0_1_17024)">
<g clip-path="url(#clip0_1_17024)">
<path d="M26.2738 11.4367C24.9441 9.96658 22.7727 9.94576 21.4241 11.4367C20.5678 12.383 19.1795 12.3822 18.3241 11.4367C16.9772 9.94753 14.8061 9.96449 13.4745 11.4367C12.6198 12.3813 11.2316 12.3841 10.3745 11.4367C9.04475 9.96658 6.87336 9.94576 5.52484 11.4367C5.40889 11.5649 5.34375 11.7388 5.34375 11.92V32.0656C5.34375 32.2008 5.38003 32.333 5.44799 32.4454C5.51595 32.5578 5.61255 32.6454 5.72557 32.6972C5.83858 32.7489 5.96294 32.7624 6.08292 32.7361C6.2029 32.7097 6.3131 32.6446 6.39959 32.549C7.25431 31.6043 8.64504 31.6043 9.49967 32.5489C10.8467 34.0382 13.0178 34.0211 14.3492 32.549C15.204 31.6043 16.5947 31.6043 17.4494 32.5489C18.7964 34.0382 20.9675 34.0211 22.2989 32.549C23.1537 31.6043 24.5444 31.6043 25.3991 32.549C25.4856 32.6445 25.5958 32.7096 25.7158 32.736C25.8357 32.7624 25.9601 32.7488 26.0731 32.6971C26.1861 32.6454 26.2827 32.5578 26.3507 32.4454C26.4186 32.333 26.4549 32.2008 26.4549 32.0656V11.92C26.4549 11.7388 26.3897 11.5649 26.2738 11.4367ZM9.31858 30.7871C8.90316 30.5879 7.81866 30.1933 6.58073 30.7871V12.2238C7.26564 11.6164 8.41806 11.4252 9.31858 12.2238V30.7871ZM13.2934 31.7618C12.6085 32.3693 11.4561 32.5604 10.5556 31.7618V13.1985C11.4262 13.6162 12.4227 13.6162 13.2934 13.1985V31.7618ZM17.2682 30.7871C16.8529 30.5879 15.7683 30.1933 14.5304 30.7871V12.2238C15.2153 11.6164 16.3677 11.4252 17.2682 12.2238V30.7871ZM21.2431 31.7618C20.326 32.5751 19.1742 32.3551 18.5052 31.7618V13.1985C19.3759 13.6162 20.3724 13.6162 21.2431 13.1985V31.7618ZM25.2179 30.7871C23.98 30.1933 22.8955 30.5879 22.48 30.7871V12.2238C23.3971 11.4105 24.5489 11.6305 25.2179 12.2238V30.7871Z" fill="#656565"/>
</g>
</g>
<defs>
<clipPath id="clip0_1_17024">
<rect width="21.1111" height="23.3333" fill="white" transform="translate(5.34375 10.3262)"/>
</clipPath>
</defs>
</svg>
