<svg width="31" height="30" viewBox="0 0 31 30" fill="none" xmlns="http://www.w3.org/2000/svg">
<circle cx="15.5" cy="15" r="15" fill="#F3F3F3"/>
<mask id="mask0_1_17014" style="mask-type:alpha" maskUnits="userSpaceOnUse" x="0" y="0" width="31" height="30">
<circle cx="15.5" cy="15" r="15" fill="#FFE6E6"/>
</mask>
<g mask="url(#mask0_1_17014)">
<g clip-path="url(#clip0_1_17014)">
<path d="M22.3803 9.41504C21.0238 9.41504 19.8885 10.5231 19.6251 11.992H18.2561C17.9927 10.5231 16.8574 9.41504 15.5009 9.41504C14.1444 9.41504 13.0091 10.5231 12.7457 11.992H11.3767C11.1133 10.523 9.97803 9.41504 8.62148 9.41504C7.07045 9.41504 5.80859 10.8635 5.80859 12.644V29.8301C5.80859 30.1902 6.06287 30.4821 6.3765 30.4821C6.69014 30.4821 6.94441 30.1902 6.94441 29.8301C6.94441 28.7686 7.69674 27.9051 8.62148 27.9051C9.54623 27.9051 10.2985 28.7687 10.2985 29.8301C10.2985 30.1902 10.5528 30.4821 10.8664 30.4821H13.2559C13.5696 30.4821 13.8238 30.1902 13.8238 29.8301C13.8238 28.7687 14.5762 27.9051 15.5009 27.9051C16.4256 27.9051 17.178 28.7687 17.178 29.8301C17.178 30.1902 17.4322 30.4821 17.7459 30.4821H20.1354C20.449 30.4821 20.7033 30.1902 20.7033 29.8301C20.7033 28.7686 21.4556 27.9051 22.3803 27.9051C23.305 27.9051 24.0574 28.7686 24.0574 29.8301C24.0574 30.1902 24.3117 30.4821 24.6253 30.4821C24.9389 30.4821 25.1932 30.1902 25.1932 29.8301V12.644C25.1932 10.8635 23.9313 9.41504 22.3803 9.41504ZM11.4343 19.0246H12.688V23.4495H11.4343V19.0246ZM13.8238 18.3727C13.8238 17.3112 14.5762 16.4476 15.5009 16.4476C16.4256 16.4476 17.178 17.3112 17.178 18.3727V21.5109C16.7094 21.1101 16.1289 20.8725 15.5009 20.8725C14.8729 20.8725 14.2924 21.1101 13.8238 21.5109V18.3727ZM18.3138 19.0246H19.5675V23.4495H18.3138V19.0246ZM20.7033 18.3727C20.7033 17.3112 21.4556 16.4476 22.3803 16.4476C23.305 16.4476 24.0574 17.3112 24.0574 18.3727V21.5106C23.5888 21.1099 23.0083 20.8725 22.3803 20.8725C21.7524 20.8725 21.1719 21.1099 20.7033 21.5106V18.3727ZM22.3803 10.7189C23.3051 10.7189 24.0574 11.5825 24.0574 12.644V15.782C23.5888 15.3812 23.0083 15.1438 22.3803 15.1438C21.7524 15.1438 21.1719 15.3812 20.7033 15.7819V12.644C20.7033 11.5825 21.4556 10.7189 22.3803 10.7189ZM19.5675 17.7208H18.3138V13.2959H19.5675V17.7208ZM15.5009 10.7189C16.4256 10.7189 17.178 11.5825 17.178 12.6439V15.7819C16.7094 15.3812 16.1289 15.1437 15.5009 15.1437C14.8729 15.1437 14.2924 15.3812 13.8238 15.7819V12.644C13.8238 11.5825 14.5762 10.7189 15.5009 10.7189ZM12.688 17.7208H11.4343V13.2959H12.688V17.7208ZM6.94441 12.644C6.94441 11.5825 7.69674 10.7189 8.62148 10.7189C9.54623 10.7189 10.2985 11.5825 10.2985 12.6439V15.7819C9.82992 15.3812 9.2494 15.1437 8.62148 15.1437C7.99356 15.1437 7.41301 15.3812 6.94441 15.7819V12.644ZM8.62148 16.4476C9.54623 16.4476 10.2985 17.3112 10.2985 18.3727V21.5106C9.82992 21.1099 9.2494 20.8725 8.62148 20.8725C7.99356 20.8725 7.41301 21.1099 6.94441 21.5107V18.3728C6.94441 17.3112 7.69674 16.4476 8.62148 16.4476ZM10.2985 27.2393C9.82992 26.8386 9.2494 26.6012 8.62148 26.6012C7.99356 26.6012 7.41301 26.8386 6.94441 27.2393V24.1014C6.94441 23.0399 7.69674 22.1763 8.62148 22.1763C9.54623 22.1763 10.2985 23.0399 10.2985 24.1014V27.2393ZM11.4343 24.7533H12.688V29.1782H11.4343V24.7533ZM17.178 27.2393C16.7094 26.8386 16.1289 26.6012 15.5009 26.6012C14.8729 26.6012 14.2924 26.8386 13.8238 27.2393V24.1014C13.8238 23.0399 14.5762 22.1763 15.5009 22.1763C16.4256 22.1763 17.178 23.0399 17.178 24.1014V27.2393ZM18.3138 24.7533H19.5675V29.1782H18.3138V24.7533ZM24.0574 27.2393C23.5888 26.8386 23.0083 26.6012 22.3803 26.6012C21.7524 26.6012 21.1719 26.8386 20.7033 27.2393V24.1014C20.7033 23.0399 21.4556 22.1763 22.3803 22.1763C23.305 22.1763 24.0574 23.0399 24.0574 24.1014V27.2393Z" fill="#656565"/>
</g>
</g>
<defs>
<clipPath id="clip0_1_17014">
<rect width="19.3846" height="22.2517" fill="white" transform="translate(5.80859 8.82324)"/>
</clipPath>
</defs>
</svg>
