<svg width="30" height="30" viewBox="0 0 30 30" fill="none" xmlns="http://www.w3.org/2000/svg">
<circle cx="15" cy="15" r="15" fill="#FAE9E9"/>
<mask id="mask0_767_6993" style="mask-type:alpha" maskUnits="userSpaceOnUse" x="0" y="0" width="30" height="30">
<circle cx="15" cy="15" r="15" fill="#FFE6E6"/>
</mask>
<g mask="url(#mask0_767_6993)">
<path d="M24.7114 14L25 9.5L14.8713 4L-1 16.5V21.4194M24.7114 14L14.8713 8.83871L12.4295 10.7742M24.7114 14L22.4895 15.7284M-1 21.4194L1.64521 19.3226M-1 21.4194L9.58084 25.7695M-1 21.4194V24.5M12.4295 10.7742L22.4895 15.7284M12.4295 10.7742L9.58084 13.0323M22.4895 15.7284L19.9501 17.7037M9.58084 13.0323L19.9501 17.7037M9.58084 13.0323L6.93563 15.129M19.9501 17.7037L17.2468 19.8064M6.93563 15.129L17.2468 19.8064M6.93563 15.129L4.29042 17.2258M17.2468 19.8064L14.8713 21.6543M4.29042 17.2258L14.8713 21.6543M4.29042 17.2258L1.64521 19.3226M14.8713 21.6543L12.4295 23.5537M1.64521 19.3226L12.4295 23.5537M12.4295 23.5537L9.58084 25.7695M9.58084 25.7695L6.93563 28M-1 24.5L6.93563 28M-1 24.5V27.1924M6.93563 28L4.71365 29.642M-1 29.8848V34L2.49168 31.284M-1 29.8848L2.49168 31.284M-1 29.8848V27.1924M2.49168 31.284L4.71365 29.642M-1 27.1924L4.71365 29.642" stroke="#D52623"/>
</g>
</svg>
