<svg width="30" height="30" viewBox="0 0 30 30" fill="none" xmlns="http://www.w3.org/2000/svg">
<circle cx="15" cy="15" r="15" fill="#FAE9E9"/>
<mask id="mask0_492_13499" style="mask-type:alpha" maskUnits="userSpaceOnUse" x="0" y="0" width="30" height="30">
<circle cx="15" cy="15" r="15" fill="#FFE6E6"/>
</mask>
<g mask="url(#mask0_492_13499)">
<g clip-path="url(#clip0_492_13499)">
<path d="M21.8803 9.41553C20.5238 9.41553 19.3885 10.5236 19.1251 11.9925H17.7561C17.4927 10.5236 16.3574 9.41553 15.0009 9.41553C13.6444 9.41553 12.5091 10.5236 12.2457 11.9925H10.8767C10.6133 10.5235 9.47803 9.41553 8.12148 9.41553C6.57045 9.41553 5.30859 10.864 5.30859 12.6445V29.8306C5.30859 30.1907 5.56287 30.4825 5.8765 30.4825C6.19014 30.4825 6.44441 30.1907 6.44441 29.8306C6.44441 28.7691 7.19674 27.9056 8.12148 27.9056C9.04623 27.9056 9.79852 28.7692 9.79852 29.8306C9.79852 30.1907 10.0528 30.4825 10.3664 30.4825H12.7559C13.0696 30.4825 13.3238 30.1907 13.3238 29.8306C13.3238 28.7692 14.0762 27.9056 15.0009 27.9056C15.9256 27.9056 16.678 28.7692 16.678 29.8306C16.678 30.1907 16.9322 30.4825 17.2459 30.4825H19.6354C19.949 30.4825 20.2033 30.1907 20.2033 29.8306C20.2033 28.7691 20.9556 27.9056 21.8803 27.9056C22.805 27.9056 23.5574 28.7691 23.5574 29.8306C23.5574 30.1907 23.8117 30.4825 24.1253 30.4825C24.4389 30.4825 24.6932 30.1907 24.6932 29.8306V12.6445C24.6932 10.864 23.4313 9.41553 21.8803 9.41553ZM10.9343 19.0251H12.188V23.45H10.9343V19.0251ZM13.3238 18.3732C13.3238 17.3117 14.0762 16.4481 15.0009 16.4481C15.9256 16.4481 16.678 17.3117 16.678 18.3732V21.5114C16.2094 21.1106 15.6289 20.873 15.0009 20.873C14.3729 20.873 13.7924 21.1106 13.3238 21.5114V18.3732ZM17.8138 19.0251H19.0675V23.45H17.8138V19.0251ZM20.2033 18.3732C20.2033 17.3117 20.9556 16.4481 21.8803 16.4481C22.805 16.4481 23.5574 17.3117 23.5574 18.3732V21.5111C23.0888 21.1104 22.5083 20.873 21.8803 20.873C21.2524 20.873 20.6719 21.1104 20.2033 21.5111V18.3732ZM21.8803 10.7193C22.8051 10.7193 23.5574 11.5829 23.5574 12.6445V15.7824C23.0888 15.3817 22.5083 15.1443 21.8803 15.1443C21.2524 15.1443 20.6719 15.3817 20.2033 15.7824V12.6445C20.2033 11.5829 20.9556 10.7193 21.8803 10.7193ZM19.0675 17.7213H17.8138V13.2964H19.0675V17.7213ZM15.0009 10.7193C15.9256 10.7193 16.678 11.5829 16.678 12.6444V15.7824C16.2094 15.3816 15.6289 15.1442 15.0009 15.1442C14.3729 15.1442 13.7924 15.3816 13.3238 15.7824V12.6445C13.3238 11.5829 14.0762 10.7193 15.0009 10.7193ZM12.188 17.7213H10.9343V13.2964H12.188V17.7213ZM6.44441 12.6445C6.44441 11.5829 7.19674 10.7193 8.12148 10.7193C9.04623 10.7193 9.79852 11.5829 9.79852 12.6444V15.7824C9.32992 15.3816 8.7494 15.1442 8.12148 15.1442C7.49356 15.1442 6.91301 15.3816 6.44441 15.7824V12.6445ZM8.12148 16.4481C9.04623 16.4481 9.79852 17.3117 9.79852 18.3732V21.5111C9.32992 21.1104 8.7494 20.873 8.12148 20.873C7.49356 20.873 6.91301 21.1104 6.44441 21.5112V18.3732C6.44441 17.3117 7.19674 16.4481 8.12148 16.4481ZM9.79852 27.2398C9.32992 26.8391 8.7494 26.6017 8.12148 26.6017C7.49356 26.6017 6.91301 26.8391 6.44441 27.2398V24.1019C6.44441 23.0404 7.19674 22.1768 8.12148 22.1768C9.04623 22.1768 9.79852 23.0404 9.79852 24.1019V27.2398ZM10.9343 24.7538H12.188V29.1787H10.9343V24.7538ZM16.678 27.2398C16.2094 26.8391 15.6289 26.6017 15.0009 26.6017C14.3729 26.6017 13.7924 26.8391 13.3238 27.2398V24.1019C13.3238 23.0404 14.0762 22.1768 15.0009 22.1768C15.9256 22.1768 16.678 23.0404 16.678 24.1019V27.2398ZM17.8138 24.7538H19.0675V29.1787H17.8138V24.7538ZM23.5574 27.2398C23.0888 26.8391 22.5083 26.6017 21.8803 26.6017C21.2524 26.6017 20.6719 26.8391 20.2033 27.2398V24.1019C20.2033 23.0404 20.9556 22.1768 21.8803 22.1768C22.805 22.1768 23.5574 23.0404 23.5574 24.1019V27.2398Z" fill="#D52623"/>
</g>
</g>
<defs>
<clipPath id="clip0_492_13499">
<rect width="19.3846" height="22.2517" fill="white" transform="translate(5.30859 8.82324)"/>
</clipPath>
</defs>
</svg>
