<svg width="30" height="30" viewBox="0 0 30 30" fill="none" xmlns="http://www.w3.org/2000/svg">
<circle cx="15" cy="15" r="15" fill="#FAE9E9"/>
<mask id="mask0_492_13417" style="mask-type:alpha" maskUnits="userSpaceOnUse" x="0" y="0" width="30" height="30">
<circle cx="15" cy="15" r="15" fill="#FFE6E6"/>
</mask>
<g mask="url(#mask0_492_13417)">
<path d="M3.62109 11.6022C3.62109 11.3973 3.74619 11.2131 3.93671 11.1375L5.15651 10.6535C5.27495 10.6066 5.40685 10.6066 5.52528 10.6535L6.74508 11.1375C6.9356 11.2131 7.0607 11.3973 7.0607 11.6022V30.5968C7.0607 30.873 6.83684 31.0968 6.5607 31.0968H4.12109C3.84495 31.0968 3.62109 30.873 3.62109 30.5968V11.6022Z" stroke="#D52623"/>
<path d="M22.9414 11.6022C22.9414 11.3973 23.0665 11.2131 23.257 11.1375L24.4768 10.6535C24.5953 10.6066 24.7272 10.6066 24.8456 10.6535L26.0654 11.1375C26.2559 11.2131 26.381 11.3973 26.381 11.6022V30.5968C26.381 30.873 26.1572 31.0968 25.881 31.0968H23.4414C23.1653 31.0968 22.9414 30.873 22.9414 30.5968V11.6022Z" stroke="#D52623"/>
<path d="M19.7305 13.1621L19.7305 31.2257" stroke="#D52623"/>
<path d="M16.5781 13.1621L16.5781 31.2257" stroke="#D52623"/>
<path d="M13.4219 13.1621L13.4219 31.2257" stroke="#D52623"/>
<path d="M10.2695 13.1621L10.2695 31.2257" stroke="#D52623"/>
<path d="M22.9805 13.1621L7.07248 13.1621" stroke="#D52623"/>
</g>
</svg>
