<svg width="30" height="30" viewBox="0 0 30 30" fill="none" xmlns="http://www.w3.org/2000/svg">
<circle cx="15" cy="15" r="15" fill="#FAE9E9"/>
<mask id="mask0_492_13487" style="mask-type:alpha" maskUnits="userSpaceOnUse" x="0" y="0" width="30" height="30">
<circle cx="15" cy="15" r="15" fill="#FFE6E6"/>
</mask>
<g mask="url(#mask0_492_13487)">
<g clip-path="url(#clip0_492_13487)">
<path d="M25.3753 11.4367C24.0456 9.96658 21.8742 9.94576 20.5257 11.4367C19.6694 12.383 18.281 12.3822 17.4257 11.4367C16.0787 9.94753 13.9076 9.96449 12.5761 11.4367C11.7214 12.3813 10.3331 12.3841 9.47602 11.4367C8.14631 9.96658 5.97492 9.94576 4.62641 11.4367C4.51045 11.5649 4.44531 11.7388 4.44531 11.92V32.0656C4.44531 32.2008 4.48159 32.333 4.54955 32.4454C4.61752 32.5578 4.71411 32.6454 4.82713 32.6972C4.94015 32.7489 5.06451 32.7624 5.18448 32.7361C5.30446 32.7097 5.41466 32.6446 5.50116 32.549C6.35587 31.6043 7.7466 31.6043 8.60123 32.5489C9.94826 34.0382 12.1194 34.0211 13.4508 32.549C14.3055 31.6043 15.6963 31.6043 16.5509 32.5489C17.898 34.0382 20.0691 34.0211 21.4005 32.549C22.2552 31.6043 23.6459 31.6043 24.5007 32.549C24.5872 32.6446 24.6974 32.7096 24.8173 32.736C24.9373 32.7624 25.0617 32.7488 25.1747 32.6971C25.2877 32.6454 25.3843 32.5578 25.4522 32.4454C25.5202 32.333 25.5565 32.2008 25.5565 32.0656V11.92C25.5564 11.7388 25.4913 11.5649 25.3753 11.4367ZM8.42014 30.7871C8.00472 30.5879 6.92022 30.1933 5.68229 30.7871V12.2238C6.36721 11.6164 7.51962 11.4252 8.42014 12.2238V30.7871ZM12.395 31.7618C11.71 32.3693 10.5576 32.5604 9.65712 31.7618V13.1985C10.5278 13.6162 11.5243 13.6162 12.395 13.1985V31.7618ZM16.3698 30.7871C15.9544 30.5879 14.8699 30.1933 13.6319 30.7871V12.2238C14.3169 11.6164 15.4693 11.4252 16.3698 12.2238V30.7871ZM20.3446 31.7618C19.4275 32.5751 18.2758 32.3551 17.6068 31.7618V13.1985C18.4775 13.6162 19.4739 13.6162 20.3446 13.1985V31.7618ZM24.3194 30.7871C23.0815 30.1933 21.997 30.5879 21.5816 30.7871V12.2238C22.4987 11.4105 23.6504 11.6305 24.3194 12.2238V30.7871Z" fill="#D52623"/>
</g>
</g>
<defs>
<clipPath id="clip0_492_13487">
<rect width="21.1111" height="23.3333" fill="white" transform="translate(4.44531 10.3262)"/>
</clipPath>
</defs>
</svg>
