<svg width="30" height="30" viewBox="0 0 30 30" fill="none" xmlns="http://www.w3.org/2000/svg">
<circle cx="15" cy="15" r="15" fill="#FAE9E9"/>
<mask id="mask0_492_13434" style="mask-type:alpha" maskUnits="userSpaceOnUse" x="0" y="0" width="30" height="30">
<circle cx="15" cy="15" r="15" fill="#FFE6E6"/>
</mask>
<g mask="url(#mask0_492_13434)">
<path d="M13.5117 12.2382C13.5117 12.0389 13.63 11.8587 13.8129 11.7794L14.7983 11.3523C14.9252 11.2973 15.0691 11.2973 15.196 11.3523L16.1814 11.7794C16.3643 11.8587 16.4826 12.0389 16.4826 12.2382V30.7833C16.4826 31.0595 16.2587 31.2833 15.9826 31.2833H14.0117C13.7356 31.2833 13.5117 31.0595 13.5117 30.7833V12.2382Z" stroke="#D52623"/>
<path d="M7.25 12.2382C7.25 12.0389 7.36833 11.8587 7.55116 11.7794L8.5366 11.3523C8.66346 11.2973 8.80742 11.2973 8.93428 11.3523L9.91972 11.7794C10.1026 11.8587 10.2209 12.0389 10.2209 12.2382V30.7833C10.2209 31.0595 9.99702 31.2833 9.72088 31.2833H7.75C7.47386 31.2833 7.25 31.0595 7.25 30.7833V12.2382Z" stroke="#D52623"/>
<path d="M10.7305 15.4243H13.473" stroke="#D52623"/>
<path d="M16.9844 15.4243H19.7269" stroke="#D52623"/>
<path d="M10.7305 27.3579H13.473" stroke="#D52623"/>
<path d="M16.9844 27.3579H19.7269" stroke="#D52623"/>
<path d="M19.7734 12.2382C19.7734 12.0389 19.8918 11.8587 20.0746 11.7794L21.06 11.3523C21.1869 11.2973 21.3309 11.2973 21.4577 11.3523L22.4432 11.7794C22.626 11.8587 22.7443 12.0389 22.7443 12.2382V30.7833C22.7443 31.0595 22.5205 31.2833 22.2443 31.2833H20.2734C19.9973 31.2833 19.7734 31.0595 19.7734 30.7833V12.2382Z" stroke="#D52623"/>
</g>
</svg>
