<svg width="44" height="44" viewBox="0 0 44 44" fill="none" xmlns="http://www.w3.org/2000/svg">
<path d="M21.9985 0.1875C21.43 0.1875 20.9688 0.648748 20.9688 1.21726C20.9688 1.78578 21.43 2.24702 21.9985 2.24702C32.7869 2.24702 41.564 11.0241 41.564 21.8125C41.564 22.381 42.0252 22.8423 42.5938 22.8423C43.1623 22.8423 43.6235 22.381 43.6235 21.8125C43.6235 9.88845 33.9239 0.1875 21.9985 0.1875Z" fill="white"/>
<path d="M22 41.3765C11.2116 41.3765 2.43452 32.5994 2.43452 21.811C2.43452 21.2425 1.97328 20.7812 1.40476 20.7812C0.836248 20.7812 0.375 21.2425 0.375 21.811C0.375 33.7351 10.0746 43.436 22 43.436C22.5685 43.436 23.0298 42.9748 23.0298 42.4062C23.0298 41.8377 22.5685 41.3765 22 41.3765Z" fill="white"/>
<path d="M22 5.67969C13.1049 5.67969 5.86707 12.9175 5.86707 21.8126C5.86707 30.7077 13.1049 37.9456 22 37.9456C30.8951 37.9456 38.1329 30.7077 38.1329 21.8126C38.1329 12.9175 30.8951 5.67969 22 5.67969ZM22 35.886C14.2392 35.886 7.92659 29.5734 7.92659 21.8126C7.92659 14.0519 14.2392 7.73921 22 7.73921C29.7608 7.73921 36.0734 14.0519 36.0734 21.8126C36.0734 29.5734 29.7608 35.886 22 35.886Z" fill="white"/>
<path d="M30.809 18.1639L25.3598 17.3715L22.9222 12.4332C22.5789 11.7306 21.4204 11.7306 21.0772 12.4332L18.6395 17.3715L13.1904 18.1639C12.8015 18.2202 12.4797 18.4924 12.3591 18.8652C12.2384 19.2379 12.3376 19.6469 12.6192 19.9204L16.5612 23.7633L15.6334 29.191C15.5663 29.5771 15.7246 29.9686 16.041 30.1979C16.3574 30.4286 16.7811 30.4594 17.1271 30.277L21.9997 27.7147L26.8723 30.277C27.0224 30.3562 27.1887 30.395 27.3523 30.395C27.5668 30.395 27.7787 30.3293 27.9583 30.1979C28.2748 29.9686 28.433 29.5771 28.366 29.191L27.4381 23.7633L31.3802 19.9204C31.6617 19.6469 31.761 19.2379 31.6403 18.8652C31.5196 18.4924 31.1978 18.2202 30.809 18.1639ZM25.6119 22.6665C25.3679 22.9024 25.2579 23.2444 25.3169 23.5782L25.9846 27.4827L22.4797 25.6391C22.3295 25.56 22.1633 25.5211 21.9997 25.5211C21.8361 25.5211 21.6698 25.56 21.5197 25.6391L18.0147 27.4827L18.6824 23.5782C18.7414 23.2444 18.6315 22.9024 18.3875 22.6665L15.5503 19.9017L19.4709 19.3318C19.8061 19.2835 20.0957 19.073 20.2459 18.7686L21.9997 15.2168L23.7535 18.7686C23.9037 19.073 24.1933 19.2835 24.5285 19.3318L28.4491 19.9017L25.6119 22.6665Z" fill="white"/>
</svg>
