<svg width="35" height="35" viewBox="0 0 35 35" fill="none" xmlns="http://www.w3.org/2000/svg">
<path d="M1.88385 0.566415C1.2545 0.564016 0.743708 1.07484 0.746102 1.70421V33.4375C0.7486 34.0634 1.25795 34.5688 1.88385 34.5664H22.2396C23.7177 34.5321 23.7177 32.3323 22.2396 32.2997H3.01277V2.83312H27.9439V24.3686C27.9764 25.8466 30.1778 25.8466 30.2105 24.3686V1.70421C30.2129 1.07831 29.7075 0.568942 29.0816 0.566415H1.88385ZM7.54831 11.902H23.4194C24.8973 11.8677 24.8973 9.6682 23.4194 9.63531H7.49408C5.96044 9.63531 6.06924 11.9394 7.54831 11.902ZM7.54831 18.7042H23.4194C24.9644 18.7385 24.9644 16.4032 23.4194 16.4375H7.49408C5.96031 16.4375 6.06912 18.7417 7.54831 18.7042ZM7.54831 25.5064H18.8838C20.3618 25.4721 20.3618 23.2725 18.8838 23.2397H7.49408C5.96031 23.2397 6.06912 25.544 7.54831 25.5064ZM32.672 24.8711L28.7651 30.7259L26.3125 29.0946C25.0566 28.2532 23.7949 30.1369 25.0508 30.9782L28.4552 33.2449C28.9772 33.591 29.681 33.4484 30.0268 32.9262L34.5624 26.1329C35.0866 25.367 34.5184 24.3318 33.5906 24.3598C33.2192 24.3727 32.8759 24.5602 32.672 24.8711Z" fill="white"/>
</svg>
