<svg width="38" height="38" viewBox="0 0 38 38" fill="none" xmlns="http://www.w3.org/2000/svg">
<path d="M15.1072 25.6044L20.3553 9.86017C20.5496 9.27688 20.2344 8.64639 19.6511 8.45194C19.0679 8.25756 18.4374 8.57277 18.2429 9.15605L12.9949 24.9003C12.8005 25.4836 13.1157 26.1141 13.699 26.3085C13.8158 26.3474 13.9345 26.3659 14.0512 26.3659C14.5173 26.366 14.9517 26.071 15.1072 25.6044Z" fill="white"/>
<path d="M22.9727 20.7227C24.8142 20.7227 26.3125 19.2244 26.3125 17.3828C26.3125 15.5412 24.8142 14.043 22.9727 14.043C21.1311 14.043 19.6328 15.5412 19.6328 17.3828C19.6328 19.2244 21.1311 20.7227 22.9727 20.7227ZM22.9727 16.2695C23.5865 16.2695 24.0859 16.7689 24.0859 17.3828C24.0859 17.9967 23.5865 18.4961 22.9727 18.4961C22.3588 18.4961 21.8594 17.9967 21.8594 17.3828C21.8594 16.7689 22.3588 16.2695 22.9727 16.2695Z" fill="white"/>
<path d="M10.3789 14.043C8.53732 14.043 7.03906 15.5412 7.03906 17.3828C7.03906 19.2244 8.53732 20.7227 10.3789 20.7227C12.2205 20.7227 13.7187 19.2244 13.7187 17.3828C13.7187 15.5412 12.2206 14.043 10.3789 14.043ZM10.3789 18.4961C9.76504 18.4961 9.26562 17.9967 9.26562 17.3828C9.26562 16.7689 9.76504 16.2695 10.3789 16.2695C10.9928 16.2695 11.4922 16.7689 11.4922 17.3828C11.4922 17.9967 10.9928 18.4961 10.3789 18.4961Z" fill="white"/>
<path d="M37.7773 13.8047L33.8952 8.62843L34.0466 7.56836C34.0961 7.22147 33.9796 6.87145 33.7317 6.62371L31.3701 4.26207L33.7317 1.90043C34.1664 1.46573 34.1664 0.760798 33.7317 0.326024C33.297 -0.108675 32.592 -0.108675 32.1573 0.326024L29.7957 2.68766L27.4341 0.326024C27.1863 0.078208 26.8363 -0.0380186 26.4894 0.0111142L15.4684 1.58552C15.23 1.61958 15.009 1.73009 14.8387 1.90043L1.19372 15.5454C-0.397905 17.1369 -0.397905 19.7267 1.19372 21.3183L12.7394 32.864C12.9756 33.1002 13.2341 33.3005 13.5078 33.4666V33.9179C13.5078 36.1688 15.339 38 17.5898 38H33.9179C36.1688 38 38 36.1688 38 33.9179V14.4726C38 14.2318 37.9218 13.9973 37.7773 13.8047ZM2.76812 19.7439C2.04463 19.0204 2.04463 17.8433 2.76812 17.1198L16.1507 3.73727L26.2532 2.29408L28.2212 4.26214L26.6468 5.83654L25.8596 5.04931C25.4249 4.61461 24.7199 4.61461 24.2852 5.04931C23.8504 5.484 23.8504 6.18893 24.2852 6.62371L27.4341 9.77259C27.6514 9.98997 27.9364 10.0987 28.2212 10.0987C28.5061 10.0987 28.7911 9.98997 29.0084 9.77259C29.4432 9.33789 29.4432 8.63296 29.0084 8.19818L28.2211 7.41095L29.7955 5.83654L31.7636 7.8046L30.3203 17.9071L16.9379 31.2896C16.5874 31.6401 16.1215 31.8331 15.6258 31.8331C15.1302 31.8331 14.6643 31.64 14.3138 31.2896L2.76812 19.7439ZM35.7734 33.9179C35.7734 34.9411 34.9411 35.7734 33.9179 35.7734H17.5898C16.6128 35.7734 15.8104 35.0143 15.7399 34.055C16.7468 34.0271 17.7455 33.6309 18.5122 32.864L32.1572 19.2191C32.3275 19.0487 32.438 18.8278 32.4721 18.5893L33.4498 11.7456L35.7734 14.8437V33.9179Z" fill="white"/>
</svg>
