<svg width="39" height="39" viewBox="0 0 39 39" fill="none" xmlns="http://www.w3.org/2000/svg">
<g clip-path="url(#clip0_3122_25041)">
<g clip-path="url(#clip1_3122_25041)">
<path d="M34.605 18.0985L24.9424 2.58517C23.9436 0.981379 21.8259 0.489165 20.222 1.48816C18.7803 2.3861 18.2649 4.14684 18.8327 5.62161L18.7949 5.70516C16.8327 10.0324 13.6638 13.6474 9.6306 16.1594L2.51505 20.5913C0.907386 21.5927 0.416506 23.7039 1.41804 25.3117L3.83359 29.1899C4.83485 30.7976 6.94626 31.2883 8.554 30.2869L9.5236 29.683L13.7509 36.47C14.7522 38.0778 16.8635 38.5685 18.4712 37.567C20.0751 36.5681 20.5672 34.4505 19.5682 32.8467L17.7565 29.938L18.7261 29.3341C20.3338 28.3328 20.8246 26.2216 19.8231 24.6138L19.4127 23.9548C22.4708 22.7246 25.7557 22.1368 29.0939 22.2401L29.1867 22.243C30.2847 23.4249 32.0976 23.6972 33.508 22.8187C35.1116 21.8198 35.6038 19.7023 34.605 18.0985ZM7.34622 28.3478C6.81041 28.6815 6.10644 28.518 5.77272 27.9821L3.35716 24.1039C3.02339 23.5679 3.18692 22.8642 3.72283 22.5304L10.5098 18.3031L14.1332 24.1205C13.4691 24.5341 8.02662 27.924 7.34622 28.3478ZM17.6291 34.0544C17.962 34.5889 17.798 35.2948 17.2634 35.6278C16.7289 35.9608 16.0229 35.7967 15.69 35.2622L11.4626 28.4752L13.4018 27.2674L17.6291 34.0544ZM15.3409 26.0596C15.7531 25.8029 16.3729 25.4069 17.3199 24.9157L17.884 25.8214C18.2178 26.3574 18.0542 27.061 17.5183 27.3949L16.5487 27.9988L15.3409 26.0596ZM16.1085 22.9711L12.4125 17.037C15.6853 14.6571 18.3506 11.5693 20.2272 7.97807L27.6852 19.9519C23.6344 20.0525 19.6879 21.083 16.1085 22.9711ZM32.3 20.8795C31.7641 21.2132 31.0604 21.0497 30.7265 20.5138L21.0642 5.00071C20.7304 4.46472 20.8939 3.76106 21.4298 3.42726C21.9657 3.09347 22.6695 3.25703 23.0033 3.79295L32.6657 19.306C32.9986 19.8406 32.8346 20.5464 32.3 20.8795Z" fill="white"/>
<path d="M10.3814 22.4181C10.048 21.8826 9.34341 21.7189 8.80795 22.0524L6.86884 23.2602C6.33339 23.5937 6.16967 24.2982 6.50318 24.8336C6.83661 25.3691 7.54124 25.5328 8.07662 25.1993L10.0157 23.9915C10.5512 23.658 10.7149 22.9535 10.3814 22.4181Z" fill="white"/>
<path d="M30.6087 1.37966C29.9942 1.23686 29.3803 1.61924 29.2375 2.23371L28.7204 4.45896C28.5776 5.07343 28.96 5.68734 29.5744 5.83015C30.1889 5.97295 30.8028 5.59058 30.9456 4.9761L31.4628 2.75086C31.6056 2.13638 31.2232 1.52247 30.6087 1.37966Z" fill="white"/>
<path d="M37.4394 12.3499L35.2142 11.8328C34.5997 11.69 33.9858 12.0724 33.843 12.6868C33.7002 13.3013 34.0826 13.9152 34.697 14.058L36.9223 14.5752C37.5368 14.718 38.1507 14.3356 38.2935 13.7211C38.4363 13.1066 38.0538 12.4927 37.4394 12.3499Z" fill="white"/>
<path d="M37.4785 5.6633C37.1451 5.12787 36.4405 4.96413 35.9051 5.29764L33.1627 7.00574C32.6272 7.33925 32.4635 8.04373 32.797 8.57918C33.1304 9.11462 33.835 9.27843 34.3705 8.94485L37.1128 7.23675C37.6483 6.90324 37.812 6.19883 37.4785 5.6633Z" fill="white"/>
</g>
</g>
<defs>
<clipPath id="clip0_3122_25041">
<rect width="39" height="39" fill="white"/>
</clipPath>
<clipPath id="clip1_3122_25041">
<rect width="39" height="39" fill="white" transform="translate(4.92188 -4.58984) rotate(13.0832)"/>
</clipPath>
</defs>
</svg>
