<svg width="31" height="30" viewBox="0 0 31 30" fill="none" xmlns="http://www.w3.org/2000/svg">
<path fill-rule="evenodd" clip-rule="evenodd" d="M27.3435 13.3757V3.40234C27.3435 1.90322 26.1239 0.683594 24.6247 0.683594H2.75391C1.25479 0.683594 0.0351562 1.90322 0.0351562 3.40234V19.7148C0.0351562 21.214 1.25479 22.4336 2.75391 22.4336H13.0257C13.8677 26.5651 17.5295 29.6836 21.906 29.6836C26.9031 29.6836 30.9685 25.6182 30.9685 20.6211C30.9685 17.6625 29.5433 15.0307 27.3435 13.3757ZM1.84766 3.40234C1.84766 2.90264 2.2542 2.49609 2.75391 2.49609H24.6247C25.1244 2.49609 25.531 2.90264 25.531 3.40234V4.30859H1.84766V3.40234ZM1.84766 6.12109H25.531V7.93359H1.84766V6.12109ZM12.8435 20.6211H2.75391C2.2542 20.6211 1.84766 20.2146 1.84766 19.7148V9.74609H25.531V12.3161C24.4203 11.8294 23.1943 11.5586 21.906 11.5586C16.9089 11.5586 12.8435 15.624 12.8435 20.6211ZM21.906 27.8711C17.9083 27.8711 14.656 24.6187 14.656 20.6211C14.656 16.6234 17.9083 13.3711 21.906 13.3711C25.9036 13.3711 29.156 16.6234 29.156 20.6211C29.156 24.6187 25.9036 27.8711 21.906 27.8711ZM10.1247 13.3711H4.56641C4.06591 13.3711 3.66016 13.7769 3.66016 14.2773C3.66016 14.7778 4.06591 15.1836 4.56641 15.1836H10.1247C10.6252 15.1836 11.031 14.7778 11.031 14.2773C11.031 13.7769 10.6252 13.3711 10.1247 13.3711ZM10.1247 16.9961H4.56641C4.06591 16.9961 3.66016 17.4019 3.66016 17.9023C3.66016 18.4028 4.06591 18.8086 4.56641 18.8086H10.1247C10.6252 18.8086 11.031 18.4028 11.031 17.9023C11.031 17.4019 10.6252 16.9961 10.1247 16.9961ZM24.8905 18.1678C25.2444 17.8139 25.8182 17.8139 26.1721 18.1678C26.526 18.5217 26.526 19.0955 26.1721 19.4494L21.6408 23.9806C21.4639 24.1577 21.232 24.2461 21 24.2461C20.7681 24.2461 20.5362 24.1577 20.3592 23.9807L17.6404 21.262C17.2865 20.908 17.2865 20.3343 17.6404 19.9803C17.9944 19.6264 18.5682 19.6264 18.9221 19.9803L21 22.0582L24.8905 18.1678Z" fill="white"/>
</svg>
