<svg width="29" height="30" viewBox="0 0 29 30" fill="none" xmlns="http://www.w3.org/2000/svg">
<g clip-path="url(#clip0_1_913)">
<path d="M5.40167 1.5332H3.12665C2.52325 1.53329 1.94457 1.77288 1.51771 2.19935C1.09126 2.62622 0.851671 3.2049 0.851562 3.80829V26.559V26.5581C0.851578 25.9549 1.09118 25.3765 1.51767 24.95C1.94416 24.5235 2.5226 24.2839 3.12574 24.2839H5.40173L5.40167 1.5332Z" stroke="white" stroke-width="1.99219" stroke-miterlimit="10" stroke-linecap="round" stroke-linejoin="round"/>
<path d="M23.1472 10.4066V18.1419M17.9146 23.8295H10.1793M28.1523 28.8347V6.08398H5.40167V24.2845H3.12665C2.52325 24.2846 1.94457 24.5242 1.51771 24.9506C1.09127 25.3775 0.851683 25.9562 0.851562 26.5596C0.851563 27.8159 1.87036 28.8347 3.12665 28.8347H28.1523Z" stroke="white" stroke-width="1.99219" stroke-miterlimit="10" stroke-linecap="round" stroke-linejoin="round"/>
<path d="M21.7814 11.0877L23.1465 9.72266L24.5115 11.0877M17.2313 22.463L18.5964 23.828L17.2313 25.1931M21.7814 17.4579L23.1465 18.8229L24.5115 17.4579M10.8611 22.463L9.49609 23.828L10.8611 25.1931M18.5964 14.2728L14.0463 9.72266L9.49609 14.2728V18.8229H18.5964V14.2728Z" stroke="white" stroke-width="1.99219" stroke-miterlimit="10" stroke-linecap="round" stroke-linejoin="round"/>
</g>
<defs>
<clipPath id="clip0_1_913">
<rect width="29" height="29" fill="white" transform="translate(0 0.683594)"/>
</clipPath>
</defs>
</svg>
