<svg width="30" height="31" viewBox="0 0 30 31" fill="none" xmlns="http://www.w3.org/2000/svg">
<g clip-path="url(#clip0_1_902)">
<path d="M27.0652 0.683594H2.93479C1.31654 0.683594 0 2.00014 0 3.61838V27.7488C0 29.3671 1.31654 30.6836 2.93479 30.6836H27.0652C28.6835 30.6836 30 29.3671 30 27.7488V3.61838C30 2.00014 28.6835 0.683594 27.0652 0.683594ZM28.0435 27.7488C28.0435 28.2882 27.6046 28.7271 27.0652 28.7271H2.93479C2.39537 28.7271 1.9565 28.2882 1.9565 27.7488V10.4662H28.0434V27.7488H28.0435ZM28.0435 8.50967H1.9565V3.61838C1.9565 3.07896 2.39537 2.6401 2.93479 2.6401H27.0652C27.6046 2.6401 28.0435 3.07896 28.0435 3.61838V8.50967Z" fill="white"/>
<path d="M25.1101 4.5957H16.6318C16.0916 4.5957 15.6536 5.03369 15.6536 5.57398C15.6536 6.11428 16.0915 6.55227 16.6318 6.55227H25.1101C25.6504 6.55227 26.0884 6.11428 26.0884 5.57398C26.0884 5.03369 25.6504 4.5957 25.1101 4.5957ZM20.871 15.0438H9.82734L9.3951 13.7471C9.33105 13.5549 9.20818 13.3878 9.04389 13.2694C8.87959 13.151 8.68221 13.0873 8.47969 13.0873H5.21883C4.68592 13.0873 4.25391 13.5193 4.25391 14.0521C4.25391 14.5851 4.68592 15.017 5.21883 15.017H7.78424L8.21648 16.3138L10.173 22.1834C10.3045 22.5778 10.6753 22.8434 11.0882 22.8434C11.0904 22.8434 11.0924 22.8431 11.0946 22.8431H18.9144C19.1169 22.8431 19.3143 22.7794 19.4786 22.661C19.6429 22.5426 19.7658 22.3755 19.8298 22.1834L21.7863 16.3138C21.9943 15.69 21.5294 15.0438 20.871 15.0438ZM19.5322 16.9736L18.219 20.9134H11.7838L10.4705 16.9736H19.5322Z" fill="white"/>
<path d="M12.0642 25.7925C12.6045 25.7925 13.0425 25.3545 13.0425 24.8142C13.0425 24.2739 12.6045 23.8359 12.0642 23.8359C11.5239 23.8359 11.0859 24.2739 11.0859 24.8142C11.0859 25.3545 11.5239 25.7925 12.0642 25.7925Z" fill="white"/>
<path d="M17.9353 25.7925C18.4756 25.7925 18.9136 25.3545 18.9136 24.8142C18.9136 24.2739 18.4756 23.8359 17.9353 23.8359C17.395 23.8359 16.957 24.2739 16.957 24.8142C16.957 25.3545 17.395 25.7925 17.9353 25.7925Z" fill="white"/>
<path d="M8.80541 4.5957C8.26641 4.5957 7.82713 5.03381 7.82713 5.57398C7.82713 6.11275 8.265 6.55227 8.80541 6.55227C9.34248 6.55227 9.78369 6.11586 9.78369 5.57398C9.78369 5.03316 9.3433 4.5957 8.80541 4.5957ZM4.89234 4.5957C4.35334 4.5957 3.91406 5.03381 3.91406 5.57398C3.91406 6.11275 4.35193 6.55227 4.89234 6.55227C5.42941 6.55227 5.87063 6.11586 5.87063 5.57398C5.87063 5.03316 5.43029 4.5957 4.89234 4.5957ZM12.7184 4.5957C12.1794 4.5957 11.7401 5.03381 11.7401 5.57398C11.7401 6.11275 12.178 6.55227 12.7184 6.55227C13.2555 6.55227 13.6967 6.11586 13.6967 5.57398C13.6967 5.03316 13.2564 4.5957 12.7184 4.5957Z" fill="white"/>
</g>
<defs>
<clipPath id="clip0_1_902">
<rect width="30" height="30" fill="white" transform="translate(0 0.683594)"/>
</clipPath>
</defs>
</svg>
