<svg width="32" height="29" viewBox="0 0 32 29" fill="none" xmlns="http://www.w3.org/2000/svg">
<path d="M30.8026 0.683594H8.42887C7.91546 0.683594 7.49922 1.10146 7.49922 1.61689V13.811C6.25515 14.025 5.10796 14.662 4.26743 15.6164H3.7806V14.6831C3.7806 14.1677 3.36436 13.7498 2.85094 13.7498H0.929655C0.416238 13.7498 0 14.1677 0 14.6831C0 15.1985 0.416238 15.6164 0.929655 15.6164H1.92129V26.816H0.929655C0.416238 26.816 0 27.2339 0 27.7493C0 28.2647 0.416238 28.6826 0.929655 28.6826H2.85094C3.36436 28.6826 3.7806 28.2647 3.7806 27.7493V26.816H4.56554C10.4944 28.6998 10.2704 28.6826 10.5361 28.6826H23.3034C25.2266 28.6826 26.5739 26.7651 25.9324 24.9494H30.8026C31.316 24.9494 31.7322 24.5315 31.7322 24.0161V1.61689C31.7322 1.10146 31.316 0.683594 30.8026 0.683594ZM17.7254 2.55019H21.444V7.2167H17.7254V2.55019ZM24.233 25.8827C24.233 26.3973 23.816 26.816 23.3034 26.816H10.6808C4.75196 24.9322 4.97601 24.9494 4.71025 24.9494H3.7806V17.483H4.71025C5.00551 17.483 5.28323 17.3422 5.45844 17.1037C6.93083 15.0994 9.92574 15.0978 11.3992 17.1037C11.4857 17.2213 11.5984 17.3169 11.7284 17.3828C11.8583 17.4487 12.0019 17.483 12.1475 17.483H16.7958C17.3084 17.483 17.7254 17.9017 17.7254 18.4163C17.7254 18.9309 17.3084 19.3496 16.7958 19.3496H11.2178C10.7044 19.3496 10.2882 19.7675 10.2882 20.2829C10.2882 22.856 12.3734 24.9494 14.9365 24.9494H23.3034C23.816 24.9494 24.233 25.3681 24.233 25.8827ZM29.8729 23.0828H14.9365C13.7244 23.0828 12.6905 22.3026 12.3068 21.2162H16.7958C18.3336 21.2162 19.5847 19.9602 19.5847 18.4163C19.5847 16.8724 18.3336 15.6164 16.7958 15.6164H12.5903C11.7498 14.662 10.6026 14.025 9.35853 13.811V2.55019H15.8661V8.15C15.8661 8.66543 16.2824 9.0833 16.7958 9.0833H22.3737C22.8871 9.0833 23.3034 8.66543 23.3034 8.15V2.55019H29.8729V23.0828Z" fill="white"/>
</svg>
