<svg width="52" height="52" viewBox="0 0 52 52" fill="none" xmlns="http://www.w3.org/2000/svg">
<path d="M20.5765 22.7772C19.7734 22.7772 19.0119 22.294 18.6966 21.5066C18.3575 20.6594 18.6193 19.7169 19.2915 19.168C19.4462 19.0129 19.6306 18.8757 19.8389 18.7505C20.0471 18.6311 20.2731 18.5357 20.4932 18.4462C22.6884 17.5454 24.8836 16.6565 27.0728 15.7557C30.2556 14.4493 33.4383 13.1309 36.6567 11.8065C31.9034 7.46953 21.4153 5.72161 13.8541 12.6715C6.26321 19.6513 6.55472 30.6876 11.8612 36.9932C12.5335 36.7188 13.2355 36.4325 13.9374 36.1461C19.1428 34.0104 24.3363 31.8688 29.5476 29.745C30.9635 29.1664 32.1533 29.5541 32.6352 30.6697C33.1289 31.8032 32.5816 32.865 31.1301 33.4795C28.6136 34.5354 26.0794 35.5615 23.557 36.5995C20.7491 37.7568 17.9411 38.9082 14.9607 40.1371C15.4247 40.4831 15.7221 40.7337 16.0434 40.9425C18.6193 42.6188 21.4213 43.6687 24.4969 43.8417C31.9213 44.2593 37.7275 41.2944 41.404 34.8575C45.0805 28.4207 44.6462 21.9122 40.6128 15.6662C40.3986 15.3322 40.2618 15.1174 40.0179 15.0458L21.344 22.6221C21.0941 22.7235 20.8383 22.7713 20.5825 22.7713L20.5765 22.7772Z" fill="white"/>
<circle cx="26" cy="26" r="25.5" stroke="white" stroke-opacity="0.3"/>
</svg>
