<svg width="136" height="109" viewBox="0 0 136 109" fill="none" xmlns="http://www.w3.org/2000/svg">
<path d="M94.063 86.0378C93.3012 86.0378 92.7031 85.4397 92.7031 84.6779V66.5376C92.7031 65.7761 93.3012 65.1777 94.063 65.1777C94.8234 65.1777 95.4229 65.7761 95.4229 66.5376V84.6782C95.4229 85.4397 94.797 86.0381 94.063 86.0381V86.0378Z" fill="#E9E8E8"/>
<path d="M109.51 86.0387H78.5873C77.8257 86.0387 77.2274 85.4406 77.2274 84.6788C77.2274 83.917 77.8257 83.319 78.5873 83.319H109.511C110.272 83.319 110.87 83.9173 110.87 84.6788C110.87 85.4403 110.272 86.0387 109.511 86.0387H109.51ZM134.641 53.266H73.6654C72.9036 53.266 72.3055 52.6679 72.3055 51.9061C72.3055 51.1443 72.9036 50.5462 73.6654 50.5462H133.281V5.53472C133.281 3.98475 132.003 2.7334 130.452 2.7334H57.6454C56.0954 2.7334 54.8174 3.98475 54.8174 5.53472V45.2428C54.8174 46.0046 54.219 46.6026 53.4575 46.6026C52.696 46.6026 52.0977 46.0046 52.0977 45.2428V5.53472C52.0977 2.4889 54.5718 0.0136719 57.6454 0.0136719H130.452C133.499 0.0136719 136.001 2.4889 136.001 5.53472V51.9061C136.001 52.6679 135.403 53.266 134.641 53.266H134.641Z" fill="#E9E8E8"/>
<path d="M130.452 67.7629H65.6687C64.9072 67.7629 64.3089 67.1646 64.3089 66.403C64.3089 65.6415 64.9072 65.0432 65.6687 65.0432H130.453C132.004 65.0432 133.282 63.7916 133.282 62.2419V53.2939H73.6653C72.9037 53.2939 72.3054 52.6962 72.3054 51.9341C72.3054 51.172 72.9037 50.5742 73.6653 50.5742H134.642C135.403 50.5742 136.001 51.1726 136.001 51.9341V62.2419C136.001 65.2607 133.526 67.7629 130.452 67.7629ZM48.888 108.803C45.434 108.803 42.6326 106.003 42.6326 102.548C42.6326 99.0939 45.434 96.2923 48.888 96.2923C52.3421 96.2923 55.1711 99.0939 55.1711 102.548C55.1711 106.003 52.3418 108.803 48.888 108.803ZM48.888 99.012C46.9298 99.012 45.3524 100.59 45.3524 102.548C45.3524 104.507 46.9565 106.083 48.888 106.083C50.8462 106.083 52.4514 104.507 52.4514 102.548C52.4514 100.59 50.8459 99.012 48.888 99.012ZM8.9896 108.803C5.53609 108.803 2.70703 106.003 2.70703 102.548C2.70703 99.0939 5.50835 96.2923 8.9896 96.2923C12.4709 96.2923 15.245 99.0939 15.245 102.548C15.245 106.003 12.4437 108.803 8.9896 108.803ZM8.9896 99.012C7.03194 99.012 5.42676 100.59 5.42676 102.548C5.42676 104.507 7.03194 106.083 8.9896 106.083C10.9473 106.083 12.5252 104.507 12.5252 102.548C12.5252 100.59 10.9478 99.012 8.9896 99.012Z" fill="#E9E8E8"/>
<path d="M47.4736 91.206H3.98486C3.22443 91.206 2.625 90.6079 2.625 89.8461C2.625 89.0844 3.22443 88.4863 3.98486 88.4863H47.4741C49.6499 88.4863 52.7232 87.2901 53.8655 85.3586L79.1046 39.3688C79.1046 39.3688 79.1046 39.3411 79.1312 39.3411C80.8727 36.4038 84.8427 34.8535 87.8887 34.8535H104.724C105.486 34.8535 106.084 35.4519 106.084 36.2134C106.084 36.9749 105.486 37.5732 104.724 37.5732H87.8885C85.7127 37.5732 82.6405 38.7694 81.4971 40.7009L56.2591 86.6921C56.2591 86.6921 56.2591 86.7185 56.2314 86.7185C54.4913 89.656 50.5197 91.206 47.4736 91.206Z" fill="#E9E8E8"/>
<path d="M57.8073 82.0135H8.52662C5.39893 82.0135 2.84157 79.6753 2.5696 76.5476L0.013599 47.2562C-0.122387 45.8147 0.801776 44.7268 0.991885 44.5364C1.2916 44.2092 1.64544 44.0469 2.0534 44.0469H77.1995C77.9602 44.0469 78.5593 44.6449 78.5593 45.4067C78.5593 46.1685 77.9602 46.7666 77.1995 46.7666H2.78718C2.75944 46.8482 2.73278 46.9567 2.73278 47.0386L5.26267 76.3573C5.39866 78.0435 6.81265 79.3215 8.52635 79.3215H57.8339C58.5957 79.3215 59.1938 79.9198 59.1938 80.6813C59.1938 81.4429 58.5691 82.0135 57.8073 82.0135Z" fill="#E9E8E8"/>
<path d="M30.0029 63.2369C29.5557 63.2369 29.1317 62.9676 28.9562 62.5287C28.7674 62.0565 28.9131 61.5311 29.2874 61.2252C29.3736 61.1387 29.4762 61.0622 29.5922 60.9924C29.7081 60.9259 29.834 60.8727 29.9566 60.8228C31.1789 60.3207 32.4012 59.8252 33.6203 59.3231C35.3925 58.5949 37.1647 57.86 38.9568 57.1218C36.3101 54.7043 30.47 53.73 26.2597 57.6039C22.0329 61.4945 22.1952 67.6462 25.15 71.1611C25.5244 71.0081 25.9152 70.8485 26.3061 70.6889C29.2046 69.4984 32.0965 68.3046 34.9983 67.1209C35.7867 66.7983 36.4492 67.0144 36.7175 67.6363C36.9925 68.2681 36.6877 68.86 35.8794 69.2025C34.4782 69.791 33.0671 70.363 31.6625 70.9416C30.099 71.5867 28.5355 72.2285 26.8759 72.9135C27.1343 73.1063 27.2999 73.246 27.4788 73.3624C28.9131 74.2968 30.4733 74.882 32.1859 74.9785C36.32 75.2112 39.5531 73.5586 41.6002 69.9706C43.6474 66.3826 43.4056 62.7548 41.1597 59.2732C41.0404 59.087 40.9642 58.9673 40.8284 58.9274L30.4303 63.1505C30.2911 63.207 30.1487 63.2336 30.0063 63.2336L30.0029 63.2369Z" fill="#E9E7E7"/>
</svg>
