<svg width="46" height="74" viewBox="0 0 46 74" fill="none" xmlns="http://www.w3.org/2000/svg">
<circle cx="23" cy="23.6328" r="23" fill="#D52623"/>
<path d="M17.6431 20.4882C16.8357 20.4882 16.0702 20.0025 15.7532 19.2108C15.4124 18.3592 15.6755 17.4117 16.3513 16.86C16.5068 16.704 16.6922 16.5661 16.9015 16.4402C17.1108 16.3202 17.3381 16.2243 17.5593 16.1343C19.7661 15.2287 21.9729 14.3352 24.1738 13.4296C27.3733 12.1162 30.5729 10.7908 33.8083 9.45946C29.0299 5.09953 18.4863 3.34237 10.8851 10.3291C3.25402 17.3457 3.54707 28.4405 8.88166 34.7794C9.55746 34.5036 10.2632 34.2157 10.9689 33.9279C16.2018 31.7809 21.4227 29.6279 26.6616 27.4929C28.085 26.9112 29.2811 27.301 29.7655 28.4225C30.2619 29.5619 29.7117 30.6294 28.2525 31.2471C25.7227 32.3086 23.175 33.3401 20.6393 34.3836C17.8165 35.5471 14.9937 36.7045 11.9975 37.94C12.464 38.2878 12.763 38.5397 13.0859 38.7496C15.6755 40.4348 18.4923 41.4903 21.5842 41.6642C29.0479 42.084 34.8848 39.1034 38.5807 32.6325C42.2767 26.1615 41.8401 19.6186 37.7853 13.3396C37.57 13.0038 37.4325 12.7879 37.1873 12.7159L18.4146 20.3323C18.1634 20.4343 17.9062 20.4822 17.6491 20.4822L17.6431 20.4882Z" fill="white"/>
<path d="M23 46.6328L23 67.6328" stroke="#D52623" stroke-width="2"/>
<circle cx="23" cy="69.6328" r="4" fill="#D52623"/>
</svg>
