<svg width="46" height="73" viewBox="0 0 46 73" fill="none" xmlns="http://www.w3.org/2000/svg">
<circle cx="23" cy="23" r="23" fill="#4D9A29"/>
<path d="M17.6431 19.8554C16.8357 19.8554 16.0702 19.3696 15.7532 18.578C15.4124 17.7264 15.6755 16.7789 16.3513 16.2271C16.5068 16.0712 16.6922 15.9333 16.9015 15.8073C17.1108 15.6874 17.3381 15.5914 17.5593 15.5015C19.7661 14.5959 21.9729 13.7023 24.1738 12.7968C27.3733 11.4834 30.5729 10.158 33.8083 8.82665C29.0299 4.46672 18.4863 2.70955 10.8851 9.69624C3.25402 16.7129 3.54707 27.8076 8.88166 34.1466C9.55746 33.8708 10.2632 33.5829 10.9689 33.295C16.2018 31.1481 21.4227 28.9951 26.6616 26.8601C28.085 26.2784 29.2811 26.6682 29.7655 27.7897C30.2619 28.9291 29.7117 29.9966 28.2525 30.6143C25.7227 31.6758 23.175 32.7073 20.6393 33.7508C17.8165 34.9143 14.9937 36.0717 11.9975 37.3071C12.464 37.655 12.763 37.9069 13.0859 38.1168C15.6755 39.802 18.4923 40.8575 21.5842 41.0314C29.0479 41.4512 34.8848 38.4706 38.5807 31.9997C42.2767 25.5287 41.8401 18.9858 37.7853 12.7068C37.57 12.371 37.4325 12.1551 37.1873 12.0831L18.4146 19.6995C18.1634 19.8014 17.9062 19.8494 17.6491 19.8494L17.6431 19.8554Z" fill="white"/>
<path d="M23 46L23 67" stroke="#4D9A29" stroke-width="2"/>
<circle cx="23" cy="69" r="4" fill="#4D9A29"/>
</svg>
