<svg width="66" height="39" viewBox="0 0 66 39" fill="none" xmlns="http://www.w3.org/2000/svg">
<path d="M46.1936 38.9145C56.8597 38.9145 65.5063 30.2679 65.5063 19.6018C65.5063 8.93567 56.8597 0.289062 46.1936 0.289062C35.5275 0.289062 26.8809 8.93567 26.8809 19.6018C26.8809 30.2679 35.5275 38.9145 46.1936 38.9145Z" fill="#FF8000"/>
<path d="M20.2424 38.9145C30.9086 38.9145 39.5552 30.2679 39.5552 19.6018C39.5552 8.93567 30.9086 0.289062 20.2424 0.289062C9.57629 0.289062 0.929688 8.93567 0.929688 19.6018C0.929688 30.2679 9.57629 38.9145 20.2424 38.9145Z" fill="#FF0000"/>
<path d="M7.26617 14.7739C7.26617 16.5845 7.26617 18.3951 7.26617 20.2056C7.41705 20.2056 7.41705 20.2056 7.41705 20.2056C7.56793 19.9039 7.71881 19.6021 7.71881 19.3003C8.17146 17.9424 8.6241 16.5845 9.07674 15.2266C9.22762 14.9248 9.37851 14.623 9.83115 14.623C10.7364 14.623 11.4908 14.623 12.547 14.623C12.2452 15.8301 12.2452 16.8863 12.0944 18.0933C11.7926 20.0548 11.4908 22.0162 11.1891 23.9776C11.0382 24.2794 11.0382 24.5812 10.5856 24.4303C10.1329 24.4303 9.68026 24.4303 8.92585 24.4303C9.22762 22.1671 9.68026 20.0548 9.98203 17.7915H9.83115C9.68027 17.9424 9.68026 18.0933 9.52938 18.3951C8.92586 20.2056 8.17146 22.0162 7.56794 23.9776C7.26617 24.4303 6.36088 24.7321 5.90824 24.4303C5.75736 24.2794 5.75736 24.1285 5.75736 23.8268C5.75736 22.0162 5.60648 20.2056 5.60648 18.3951C5.60648 18.0933 5.60648 18.0933 5.4556 17.7915C5.15384 19.753 4.7012 21.8653 4.55032 23.9776C4.39944 24.4303 4.24856 24.5812 3.79592 24.5812C3.34327 24.5812 2.89063 24.5812 2.28711 24.5812C2.58887 22.9215 2.73975 21.5636 3.04151 20.0548C3.34327 18.3951 3.64503 16.8863 3.9468 15.2266C3.9468 14.7739 4.09767 14.623 4.39943 14.623C5.4556 14.7739 6.36088 14.7739 7.26617 14.7739Z" fill="white"/>
<path d="M60.0742 24.5799C60.0742 24.2781 60.0742 24.2781 60.0742 24.1273H59.9233C57.9618 25.4852 56.0004 24.5799 55.6986 22.1658C55.5477 20.8079 55.8495 19.6008 56.453 18.5447C57.5092 16.4323 59.3198 16.2815 61.1303 17.6394C61.2812 16.885 61.4321 16.2815 61.4321 15.6779C61.4321 15.2253 61.7338 14.9235 62.1865 15.0744C62.6391 15.0744 63.0918 15.0744 63.6953 15.0744C63.3935 17.3376 62.9409 19.4499 62.6391 21.7132C62.4882 22.6184 62.3374 23.3729 62.3374 24.2781C62.3374 24.5799 62.0356 24.8817 61.7338 24.7308C60.9794 24.5799 60.5268 24.5799 60.0742 24.5799ZM57.6601 20.8079C57.8109 20.9588 57.8109 21.1096 57.8109 21.1096C57.8109 21.864 58.1127 22.3167 58.7162 22.4676C59.3197 22.6184 59.9233 22.3167 60.225 21.5623C60.5268 20.9588 60.5268 20.0535 60.5268 19.2991C60.5268 18.8464 60.3759 18.2429 59.7724 18.092C59.1689 17.9411 58.7162 18.2429 58.4145 18.6955C57.9618 19.6008 57.8109 20.3552 57.6601 20.8079Z" fill="white"/>
<path d="M13.0007 18.548C13.1515 18.0953 13.1515 17.6427 13.3024 17.1901C13.3024 17.0392 13.6042 16.8883 13.6042 16.8883C14.6603 16.5865 15.7165 16.4357 16.7727 16.5865C17.9797 16.8883 18.7341 17.7936 18.5832 19.0006C18.2815 20.6603 18.1306 22.4709 17.8288 24.1306C17.8288 24.4323 17.678 24.5832 17.3762 24.5832C16.9236 24.5832 16.4709 24.5832 16.0183 24.5832C16.0183 24.2815 16.0183 24.2815 16.0183 24.1306C15.4148 24.4323 14.6603 24.5832 14.0568 24.7341C13.0007 24.885 12.0954 24.1306 11.9445 23.0744C11.6427 21.2638 12.8498 19.9059 14.8112 19.6042C15.113 19.6042 15.5656 19.6042 16.0183 19.6042C16.32 19.6042 16.32 19.4533 16.6218 19.3024C16.4709 19.0006 16.4709 18.6989 16.32 18.3971C16.0183 18.2462 15.7165 18.2462 15.4147 18.2462C14.3586 18.2462 13.7551 18.3971 13.0007 18.548ZM16.1692 20.8112C15.5656 20.9621 15.113 20.9621 14.5095 21.113C14.2077 21.2638 14.0568 21.7165 13.9059 22.0182C13.9059 22.32 14.2077 22.6218 14.3586 22.7726C14.6603 22.7726 15.2639 22.7726 15.4147 22.4709C15.8674 22.32 16.1692 21.7165 16.1692 20.8112Z" fill="white"/>
<path d="M49.362 24.5832C49.362 24.2815 49.362 24.2815 49.362 24.1306C48.7585 24.4323 48.155 24.5832 47.5514 24.7341C46.3444 24.885 45.59 24.2815 45.2882 23.0744C44.9865 21.2638 46.1935 19.755 48.155 19.4533C48.4567 19.4533 48.9094 19.4533 49.2111 19.4533C49.5129 19.4533 49.8147 19.6042 49.8147 19.1515C49.8147 18.8497 49.6638 18.3971 49.362 18.2462C49.0603 18.0953 48.7585 18.0953 48.4567 18.2462C47.7023 18.2462 47.0988 18.3971 46.3444 18.548C46.4953 18.0953 46.4953 17.6427 46.6462 17.1901C46.6462 17.0392 46.9479 16.8883 46.9479 16.8883C47.8532 16.5865 49.0603 16.4357 50.1164 16.5865C51.3235 16.8883 52.0779 17.4918 51.927 18.8497C51.7761 20.8112 51.4743 22.7726 51.1726 24.7341C50.5691 24.5832 49.9655 24.5832 49.362 24.5832ZM49.6638 21.113C49.6638 20.9621 49.5129 20.9621 49.362 20.8112C48.9094 20.9621 48.4567 20.9621 47.8532 21.113C47.4006 21.2638 47.0988 21.5656 47.2497 22.0182C47.2497 22.32 47.5514 22.6218 47.7023 22.6218C48.0041 22.6218 48.6076 22.6218 48.7585 22.32C49.2111 22.1691 49.362 21.5656 49.6638 21.113Z" fill="white"/>
<path d="M33.9726 21.2606C32.4638 21.2606 31.1059 21.2606 29.748 21.2606C29.5971 22.015 29.8988 22.6186 30.5024 22.7695C31.2568 22.9203 32.1621 22.7695 32.9165 22.7695C33.2182 22.7695 33.3691 22.6186 33.6709 22.4677C33.52 23.0712 33.3691 23.6747 33.3691 24.1274C33.3691 24.2783 33.0673 24.4291 33.0673 24.4291C31.8603 24.7309 30.8041 24.7309 29.5971 24.4291C28.8427 24.1274 28.39 23.6747 27.9374 22.9203C27.0321 21.1098 27.6356 18.0921 29.4462 16.8851C30.3515 16.1307 31.5585 15.9798 32.6147 16.5833C33.6709 17.036 34.1235 18.0921 34.1235 19.1483C34.2744 19.9027 34.1235 20.6571 33.9726 21.2606ZM32.1621 19.601C32.3129 18.6957 32.0112 18.243 31.4077 18.243C30.6532 18.0921 30.0497 18.6957 30.0497 19.601C30.8041 19.601 31.4077 19.601 32.1621 19.601Z" fill="white"/>
<path d="M45.4392 17.0352C44.8356 16.8844 44.383 16.7335 43.7795 16.5826C42.8742 16.4317 42.1198 16.8844 41.6671 17.4879C40.9127 18.5441 40.7619 19.7511 40.9127 21.109C41.2145 22.3161 42.1198 22.9196 43.4777 22.6178C43.7795 22.467 44.2321 22.3161 44.5339 22.3161C44.383 23.0705 44.2321 23.674 44.2321 24.2775C44.2321 24.4284 43.9304 24.5793 43.9304 24.5793C41.0636 25.4846 38.9513 23.9758 38.8004 21.109C38.6495 18.8458 39.1022 16.8844 40.9127 15.5264C42.4215 14.4703 43.9303 14.4703 45.59 15.0738C45.7409 15.0738 45.8918 15.3756 45.8918 15.3756C45.7409 15.9791 45.59 16.5826 45.4392 17.0352Z" fill="white"/>
<path d="M18.1309 24.5813C18.2817 23.8269 18.4326 23.2234 18.4326 22.7708C19.187 22.7708 19.9414 22.9216 20.6958 22.9216C20.9976 22.9216 21.6011 22.7707 21.6011 22.3181C21.6011 22.0163 21.2993 21.7146 20.9976 21.4128C20.8467 21.2619 20.545 21.1111 20.3941 21.1111C19.3379 20.5075 18.8853 19.7531 19.187 18.5461C19.3379 17.4899 20.0923 16.7355 21.1485 16.5846C22.0538 16.4338 23.1099 16.5846 24.0152 16.5846C24.0152 17.339 23.8643 17.7917 23.8643 18.2443C23.8643 18.3952 23.5626 18.5461 23.5626 18.5461C23.1099 18.5461 22.6573 18.3952 22.2046 18.5461C21.9029 18.5461 21.6011 18.8479 21.4502 18.9987C21.4502 19.3005 21.752 19.4514 21.9029 19.7531C22.0538 19.904 22.2046 19.904 22.2046 20.0549C23.4117 20.6584 23.8643 21.5637 23.8643 22.9216C23.5626 24.1287 22.959 24.8831 21.6011 25.034C20.2432 24.5813 19.187 24.5813 18.1309 24.5813Z" fill="white"/>
<path d="M27.1827 15.3757C27.1827 15.8283 27.0318 16.1301 27.0318 16.4318C27.3335 16.4318 27.6353 16.4318 27.9371 16.5827C27.9371 17.1862 27.7862 17.6389 27.6353 18.2424C27.6353 18.3933 27.3335 18.5442 27.1827 18.5442C26.73 18.5442 26.4283 18.695 26.4283 19.2986C26.2774 20.2039 26.1265 20.9583 26.1265 21.7127C25.9756 22.6179 26.1265 22.7688 27.0318 22.7688C27.1827 22.7688 27.1827 22.7688 27.3335 22.7688C27.1827 23.2215 27.1827 23.6741 27.0318 24.2776C27.0318 24.4285 26.8809 24.4285 26.8809 24.5794C26.4283 24.8812 24.9194 24.8812 24.4668 24.5794C24.0142 24.2776 23.8633 23.6741 23.8633 22.9197C24.0142 21.7127 24.165 20.6565 24.3159 19.2986C24.4668 18.2424 24.6177 17.0354 24.9195 15.8283C25.0703 15.3757 25.2212 15.0739 25.6739 15.2248C26.1265 15.5266 26.73 15.3757 27.1827 15.3757Z" fill="white"/>
<path d="M38.65 13.417C35.0289 13.417 31.5586 13.417 27.9375 13.417C28.2393 12.6626 28.541 12.0591 28.8428 11.4556C28.8428 11.3047 29.1445 11.3047 29.2954 11.3047C32.0113 11.3047 34.7271 11.3047 37.2921 11.3047C37.443 11.3047 37.5939 11.4556 37.7447 11.6065C38.1974 12.21 38.3483 12.8135 38.65 13.417Z" fill="#FF8000"/>
<path d="M37.292 17.4912C38.3482 16.5859 38.3482 16.5859 39.1026 16.5859C38.8008 17.3403 38.65 18.0947 38.3482 18.8491C37.5938 18.6983 37.292 19.3018 37.1411 19.9053C36.8394 21.2632 36.6885 22.4703 36.3867 23.8282C36.2359 24.2809 36.085 24.5826 35.4815 24.5826C35.0288 24.5826 34.5762 24.5826 33.9727 24.5826C34.1235 23.5265 34.2744 22.3194 34.4253 21.4141C34.7271 19.9053 34.8779 18.5474 35.1797 17.1895C35.1797 16.7368 35.4815 16.5859 35.7832 16.7368C36.085 16.7368 36.6885 16.7368 37.1411 16.7368C37.292 16.8877 37.292 17.1895 37.292 17.4912Z" fill="white"/>
<path d="M51.4746 24.5828C51.7764 22.9231 51.9273 21.4143 52.229 19.9055C52.3799 19.0002 52.5308 17.9441 52.6816 17.0388C52.6816 16.737 52.9834 16.5861 53.1343 16.5861C53.5869 16.5861 54.0396 16.5861 54.6431 16.5861C54.6431 16.8879 54.6431 17.1897 54.4922 17.4914C55.0957 17.0388 55.3975 16.4352 56.3028 16.5861C56.001 17.3405 55.8501 18.0949 55.5484 18.8493C54.6431 18.8493 54.3413 19.4529 54.1905 20.2073C53.8887 21.4143 53.7378 22.7722 53.4361 24.1302C53.4361 24.4319 53.1343 24.5828 52.8325 24.5828C52.5308 24.5828 52.0781 24.5828 51.4746 24.5828Z" fill="white"/>
<path d="M37.8946 27.7485C37.5929 28.3521 37.2911 28.9556 36.9894 29.4082C36.8385 29.5591 36.6876 29.71 36.3858 29.71C34.4244 29.71 32.3121 29.71 30.1997 29.71C30.0488 29.71 29.7471 29.5591 29.7471 29.4082C29.4453 28.8047 29.1436 28.3521 28.8418 27.5977C31.8594 27.7485 34.7261 27.7485 37.8946 27.7485Z" fill="#FF8000"/>
<path d="M36.6895 9.34085C34.4263 9.34085 32.4649 9.34085 30.0508 9.34085C30.5034 8.58644 30.9561 7.98292 31.4087 7.3794C31.5596 7.22852 31.7105 7.22852 31.8614 7.22852C32.7666 7.22852 33.6719 7.22852 34.7281 7.22852C35.0299 7.22852 35.3316 7.3794 35.4825 7.53028C35.9351 8.1338 36.3878 8.58644 36.6895 9.34085Z" fill="#FF8000"/>
<path d="M31.2578 31.8242C32.7666 31.8242 33.9737 31.8242 35.3316 31.8242C34.5772 32.5786 33.9737 33.1821 33.3701 33.9366C32.6157 33.333 32.0122 32.7295 31.2578 31.8242Z" fill="#FF8000"/>
</svg>
