<svg width="86" height="24" viewBox="0 0 86 24" fill="none" xmlns="http://www.w3.org/2000/svg">
<path d="M0.979913 0C3.68293 0 6.27783 0 8.98084 0C10.4945 0 11.9001 0.973086 12.2245 2.48678C13.4138 6.271 14.6031 10.0552 15.6843 13.8394C15.7924 13.9476 15.7924 14.1638 15.9006 14.2719C16.0087 14.4882 16.2249 14.4882 16.3331 14.2719C16.4412 14.1638 16.4412 14.0557 16.4412 13.9476C17.6305 10.1633 18.8198 6.37912 19.901 2.5949C20.3335 1.08121 21.7391 0.108121 23.2528 0.108121C25.8477 0.108121 28.3344 0.108121 30.9293 0.108121C31.0375 0.108121 31.1456 0.108121 31.2537 0.108121C31.2537 8.10905 31.2537 16.0019 31.2537 23.8947C28.8751 23.8947 26.3883 23.8947 23.9015 23.8947C23.9015 23.7866 23.9015 23.6784 23.9015 23.5703C23.9015 19.1374 23.9015 14.7044 23.9015 10.2715C23.9015 10.1633 23.9015 10.0552 23.9015 10.0552C23.9015 9.83898 23.6853 9.62274 23.469 9.62274C23.2528 9.51462 23.0365 9.73086 22.9284 9.9471C22.6041 11.1364 22.1716 12.3258 21.8472 13.5151C20.8741 16.9749 19.7929 20.3267 18.7117 23.6784C18.7117 23.7866 18.6036 23.7866 18.6036 23.8947C18.4955 23.8947 18.4955 23.8947 18.4955 23.8947C16.8737 23.8947 15.2518 23.8947 13.5219 23.8947C13.3057 23.8947 13.3057 23.7866 13.3057 23.6784C11.9001 19.1374 10.4945 14.4882 9.08896 9.9471C8.98084 9.62274 8.7646 9.51462 8.54836 9.51462C8.33212 9.62274 8.11588 9.73086 8.11588 10.0552C8.11588 11.8933 8.11588 13.6232 8.11588 15.3531C8.11588 18.0562 8.11588 20.7592 8.11588 23.4622C8.11588 23.5703 8.11588 23.6784 8.11588 23.7866C5.6291 23.7866 3.25045 23.7866 0.763672 23.7866C0.979913 15.8937 0.979913 8.00093 0.979913 0Z" fill="#3CA439"/>
<path d="M62.0684 24.0025C62.0684 23.8944 62.0684 23.7863 62.0684 23.7863C62.0684 19.5696 62.0684 15.3529 62.0684 11.1362C62.0684 11.028 62.0684 10.9199 62.0684 10.9199C69.7449 10.9199 77.4215 10.9199 85.2062 10.9199C85.0981 11.028 85.0981 11.1362 85.0981 11.1362C83.8006 13.9473 81.7463 15.5691 78.7189 16.1097C78.2865 16.2178 77.854 16.2178 77.5296 16.2178C74.9347 16.2178 72.3398 16.2178 69.7449 16.2178C69.6368 16.2178 69.5287 16.2178 69.4206 16.2178C69.4206 18.8127 69.4206 21.4076 69.4206 24.0025C66.9338 24.0025 64.447 24.0025 62.0684 24.0025Z" fill="#3CA439"/>
<path d="M34.7129 23.8947C34.7129 15.8937 34.7129 8.00093 34.7129 0.108121C37.1997 0.108121 39.5783 0.108121 42.0651 0.108121C42.0651 0.216242 42.0651 0.324362 42.0651 0.432482C42.0651 4.86543 42.0651 9.29838 42.0651 13.7313C42.0651 13.8394 42.0651 13.9476 42.0651 13.9476C42.0651 14.1638 42.2813 14.3801 42.4976 14.3801C42.7138 14.4882 42.9301 14.2719 43.0382 14.0557C43.4707 13.0826 43.9031 12.1095 44.3356 11.1364C45.8493 8.00093 47.2549 4.75731 48.7686 1.62181C49.3092 0.540603 50.1741 0 51.3635 0C53.634 0 55.9045 0 58.2832 0C58.3913 0 58.4994 0 58.4994 0C58.4994 8.00093 58.4994 15.8937 58.4994 23.7866C56.1208 23.7866 53.634 23.7866 51.1472 23.7866C51.1472 23.6784 51.1472 23.5703 51.1472 23.5703C51.1472 19.0292 51.1472 14.4882 51.1472 9.9471C51.1472 9.83898 51.1472 9.83898 51.1472 9.73086C51.1472 9.51462 51.0391 9.29838 50.8229 9.29838C50.6066 9.19026 50.3904 9.4065 50.3904 9.51462C50.066 10.2715 49.7417 10.9202 49.4173 11.677C47.7955 15.1369 46.1737 18.7049 44.5519 22.1647C44.0113 23.2459 43.1463 23.7866 41.957 23.7866C39.6864 23.7866 37.524 23.7866 35.1454 23.7866C34.821 23.8947 34.821 23.8947 34.7129 23.8947Z" fill="#3CA439"/>
<path d="M85.4229 9.62274C85.3147 9.62274 85.2066 9.62274 85.2066 9.62274C81.098 9.62274 76.9894 9.62274 72.8809 9.62274C70.6103 9.62274 68.4479 9.19026 66.5017 8.00093C64.015 6.59536 62.285 4.54107 61.4201 1.83805C61.2038 1.40557 61.2038 0.864966 61.0957 0.324362C61.0957 0.216242 61.0957 0.108121 61.0957 0C61.2038 0 61.3119 0 61.3119 0C66.718 0 72.124 0 77.4219 0C81.098 0 84.3417 2.48678 85.2066 6.05476C85.6391 7.24409 85.7472 8.75778 85.4229 9.62274Z" fill="#0191D4"/>
</svg>
