<svg width="45" height="45" viewBox="0 0 45 45" fill="none" xmlns="http://www.w3.org/2000/svg">
<circle opacity="0.2" cx="22.5" cy="22.5" r="22.5" fill="#D84645"/>
<circle opacity="0.9" cx="22.5" cy="22.5" r="20" fill="#D84645"/>
<path d="M29.7161 25.5022C28.7365 25.5022 27.7747 25.349 26.8633 25.0478C26.4166 24.8954 25.8676 25.0352 25.595 25.3151L23.796 26.6732C21.7096 25.5595 20.4244 24.2748 19.3259 22.204L20.6441 20.4519C20.9865 20.1099 21.1094 19.6103 20.9622 19.1415C20.6597 18.2253 20.506 17.2639 20.506 16.2839C20.5061 15.576 19.9301 15 19.2222 15H16.2839C15.576 15 15 15.576 15 16.2839C15 24.3985 21.6016 31 29.7161 31C30.424 31 31 30.424 31 29.7161V26.786C31 26.0781 30.424 25.5022 29.7161 25.5022Z" fill="white"/>
</svg>
