<svg width="45" height="45" viewBox="0 0 45 45" fill="none" xmlns="http://www.w3.org/2000/svg">
<circle opacity="0.2" cx="22.5" cy="22.5" r="22.5" fill="#ABB0B3"/>
<circle opacity="0.9" cx="22.5" cy="22.5" r="20" fill="#43A2DC"/>
<path fill-rule="evenodd" clip-rule="evenodd" d="M10.5119 22.7489C16.4155 20.2087 20.3522 18.534 22.3219 17.7249C27.9458 15.4147 29.1144 15.0134 29.8761 15.0001C30.0436 14.9972 30.4182 15.0383 30.6608 15.2327C31.0207 15.5212 31.0228 16.1472 30.9828 16.5616C30.6781 19.7241 29.3594 27.3986 28.6885 30.9406C28.4045 32.4394 27.8456 32.9419 27.3045 32.9911C26.1285 33.098 25.2355 32.2235 24.0964 31.4862C22.3141 30.3323 21.3072 29.614 19.577 28.488C17.5776 27.1868 18.8738 26.4716 20.0132 25.3028C20.3115 24.9969 25.493 20.3423 25.5933 19.9201C25.6059 19.8673 25.6175 19.6704 25.4991 19.5665C25.3806 19.4626 25.2059 19.498 25.0798 19.5263C24.901 19.5664 22.0537 21.4251 16.5378 25.1023C15.7296 25.6504 14.9975 25.9174 14.3417 25.9034C13.6186 25.888 12.2277 25.4997 11.1937 25.1677C9.92549 24.7606 8.91752 24.5453 9.00533 23.8539C9.05106 23.4937 9.55322 23.1254 10.5119 22.7489Z" fill="white"/>
</svg>
