<svg width="83" height="27" viewBox="0 0 83 27" fill="none" xmlns="http://www.w3.org/2000/svg">
<path d="M82.4856 26.2014C82.2687 26.2014 82.0517 26.3098 81.9433 26.3098C80.208 26.3098 78.4726 26.3098 76.7373 26.3098C76.4119 26.3098 76.3035 26.2014 76.3035 25.876C76.0866 24.7914 75.8696 23.5984 75.5443 22.5138C75.3274 22.5138 75.2189 22.5138 75.1104 22.5138C72.6159 22.5138 70.1214 22.5138 67.6269 22.5138C67.3015 22.5138 67.0846 22.6222 67.0846 22.9476C66.7592 23.9237 66.3254 25.0083 66 25.9844C65.8915 26.0929 65.7831 26.3098 65.5662 26.3098C63.397 26.3098 61.1194 26.3098 58.8418 26.3098C58.9503 26.0929 58.9503 25.9844 58.9503 25.876C62.204 18.1755 65.3493 10.5835 68.603 2.88296C69.1453 1.47301 70.2299 0.822266 71.7483 0.822266C73.3751 0.930723 75.002 0.822266 76.7373 0.822266C77.0627 0.822266 77.1711 0.930725 77.2796 1.2561C78.9065 9.28196 80.6418 17.4163 82.3771 25.5506C82.3771 25.6591 82.4856 25.9844 82.4856 26.2014ZM74.4597 17.1994C73.809 14.0541 73.1582 11.0173 72.5075 7.87201C72.399 7.87201 72.399 7.87201 72.399 7.87201C71.3144 11.0173 70.1214 14.0541 69.0368 17.1994C70.8806 17.1994 72.7244 17.1994 74.4597 17.1994Z" fill="#0057A0"/>
<path d="M18.0601 18.0652C18.6024 16.6552 19.1447 15.4622 19.687 14.1607C21.4223 9.82241 23.1576 5.59257 24.7845 1.25426C24.893 1.03735 24.893 0.820432 25.2183 0.820432C27.3875 0.820432 29.5566 0.820432 31.7258 0.820432C31.8343 0.820432 31.8343 0.820432 31.9427 0.820432C31.8343 1.03735 31.8343 1.1458 31.7258 1.36272C28.2552 9.49704 24.893 17.6314 21.5308 25.7657C21.4223 26.1995 21.097 26.308 20.7716 26.308C18.8193 26.308 16.8671 26.308 14.9149 26.308C14.481 26.308 14.3726 26.1995 14.1557 25.7657C12.5288 19.2582 10.7935 12.7508 9.16661 6.24331C9.05815 5.91794 8.94969 5.70103 8.94969 5.2672C8.73278 4.50799 8.29895 3.96571 7.6482 3.64033C6.1298 2.88113 4.50293 2.33884 2.87607 1.90501C2.11686 1.68809 1.57457 1.47118 0.923828 1.36272C1.03229 0.603516 1.03229 0.603516 1.68303 0.603516C5.15368 0.603516 8.73278 0.603516 12.2034 0.603516C13.8303 0.603516 15.0233 1.47118 15.3487 3.09804C15.891 6.24332 16.5417 9.38858 17.084 12.5339C17.4094 14.1607 17.6263 15.7876 18.0601 17.4144C17.9517 17.7398 17.9517 17.8483 18.0601 18.0652Z" fill="#0057A0"/>
<path d="M40.2949 25.3326C40.7288 23.4888 41.0541 21.645 41.488 19.8012C41.7049 19.9097 41.8133 19.9097 41.9218 20.0181C43.7656 20.9943 45.7178 21.4281 47.7785 21.4281C48.8631 21.4281 49.9477 21.3196 50.9238 20.7773C52.4422 19.9097 52.5506 18.3913 51.1407 17.3067C50.273 16.656 49.2969 16.2221 48.3208 15.6798C47.0193 15.0291 45.8263 14.2699 44.7417 13.1853C41.9218 10.4739 42.4641 6.35248 44.5248 3.96641C46.1516 2.12263 48.2123 1.14651 50.5984 0.60422C52.0083 0.387305 53.4183 0.170391 54.9367 0.278848C56.672 0.387306 58.2989 0.712679 59.9258 1.36342C60.0342 1.47188 60.1427 1.58034 60.1427 1.6888C59.8173 3.31566 59.3835 5.05099 59.0581 6.67785L58.9496 6.78631C58.7327 6.67785 58.5158 6.56939 58.4073 6.56939C56.4551 5.81019 54.6113 5.48482 52.5506 5.70173C51.7914 5.81019 51.0322 6.0271 50.3815 6.67785C49.6223 7.43705 49.6223 8.30471 50.273 8.95546C50.5984 9.28083 51.0322 9.6062 51.3576 9.82312C52.5506 10.4739 53.7437 11.1246 54.9367 11.7754C56.3467 12.5346 57.5397 13.5107 58.2989 14.9206C59.6004 17.1982 59.0581 20.6689 57.2143 22.838C55.6959 24.6818 53.6352 25.6579 51.3576 26.0918C47.67 26.851 44.0909 26.5256 40.6203 25.3326C40.6203 25.5495 40.5118 25.441 40.2949 25.3326Z" fill="#0057A0"/>
<path d="M41.2703 0.822266C41.0534 2.0153 40.8365 3.09988 40.5111 4.18446C38.9927 11.3427 37.3658 18.6093 35.8474 25.7675C35.739 26.0929 35.6305 26.3098 35.3051 26.3098C33.4614 26.3098 31.5091 26.3098 29.6653 26.3098C29.4484 26.3098 29.34 26.3098 29.123 26.2014C29.6653 23.5984 30.2076 21.2123 30.7499 18.7178C32.0514 12.8611 33.2444 7.11281 34.5459 1.2561C34.6544 1.03918 34.5459 0.822266 34.8713 0.822266C36.932 0.822266 39.1011 0.822266 41.2703 0.822266Z" fill="#0057A0"/>
<path d="M17.4104 15.0292L16.1089 7.87097C15.892 6.35257 15.5666 4.83416 15.2413 3.42421C14.9159 1.79735 13.8313 0.929688 12.096 0.929688C8.62536 0.929688 5.04625 0.929688 1.57561 0.929688C0.924864 0.929688 0.924864 0.929684 0.816406 1.68889C1.46715 1.79735 2.1179 1.9058 2.66019 2.12272C4.28705 2.55655 5.91392 3.09884 7.43232 3.85804C9.05919 4.61724 13.0721 7.76252 14.8074 9.93167C16.4343 12.1008 17.4104 15.0292 17.4104 15.0292Z" fill="#FAA61A"/>
</svg>
