<svg width="45" height="45" viewBox="0 0 45 45" fill="none" xmlns="http://www.w3.org/2000/svg">
<circle opacity="0.2" cx="22.5" cy="22.5" r="22.5" fill="#ABB0B2"/>
<circle opacity="0.9" cx="22.5" cy="22.5" r="20" fill="#5FD16C"/>
<path d="M22.5029 11H22.4971C16.1563 11 11 16.1577 11 22.5C11 25.0156 11.8108 27.3472 13.1893 29.2404L11.7561 33.5127L16.1764 32.0996C17.9949 33.3043 20.1641 34 22.5029 34C28.8437 34 34 28.8408 34 22.5C34 16.1592 28.8437 11 22.5029 11ZM29.1944 27.2394C28.917 28.0229 27.8159 28.6726 26.9376 28.8624C26.3367 28.9903 25.5518 29.0924 22.9097 27.997C19.5301 26.5969 17.3538 23.1627 17.1841 22.9399C17.0217 22.7171 15.8185 21.1214 15.8185 19.4712C15.8185 17.8209 16.6566 17.0174 16.9944 16.6724C17.2718 16.3892 17.7304 16.2598 18.1702 16.2598C18.3126 16.2598 18.4405 16.267 18.5555 16.2727C18.8933 16.2871 19.0629 16.3073 19.2857 16.8406C19.5632 17.509 20.2388 19.1593 20.3193 19.3289C20.4012 19.4985 20.4832 19.7285 20.3682 19.9513C20.2604 20.1813 20.1655 20.2834 19.9959 20.4789C19.8263 20.6744 19.6652 20.8239 19.4956 21.0337C19.3404 21.2163 19.165 21.4118 19.3605 21.7496C19.556 22.0802 20.2316 23.1828 21.2264 24.0683C22.5101 25.2111 23.5508 25.5763 23.9231 25.7315C24.2006 25.8465 24.5312 25.8192 24.7339 25.6036C24.9912 25.3261 25.3089 24.8661 25.6323 24.4133C25.8623 24.0884 26.1527 24.0482 26.4574 24.1632C26.7679 24.271 28.411 25.0832 28.7488 25.2514C29.0866 25.421 29.3094 25.5015 29.3914 25.6438C29.4719 25.7861 29.4719 26.4546 29.1944 27.2394Z" fill="white"/>
</svg>
