<?xml version="1.0" encoding="UTF-8"?> <svg xmlns="http://www.w3.org/2000/svg" viewBox="1950 2450 100 100" width="100" height="100"><path fill="#ffffff" stroke="none" fill-opacity="1" stroke-width="1" stroke-opacity="1" color="rgb(51, 51, 51)" fill-rule="evenodd" font-size-adjust="none" id="tSvg871b59cb2e" d="M 2040.653 2506.587 C 2033.942 2502.134 2027.231 2497.681 2020.52 2493.228 C 2020.0072817814864 2492.8879819756244 2019.338925466848 2492.8955138673796 2018.834 2493.247 C 2010.545 2499.0176666666666 2002.256 2504.7883333333334 1993.967 2510.559 C 1993.564 2510.839 1993.324 2511.299 1993.324 2511.79 C 1993.324 2517.74 1993.324 2523.69 1993.324 2529.64 C 1993.324 2530.131 1993.564 2530.59 1993.967 2530.87 C 2000.3573333333334 2535.3236666666667 2006.7476666666666 2539.7773333333334 2013.138 2544.231 C 2013.6346784182176 2544.5802818013076 2014.2934846714681 2544.5937268275966 2014.804 2544.265 C 2023.4133333333334 2538.755 2032.0226666666667 2533.245 2040.632 2527.735 C 2041.062816982333 2527.4590755668955 2041.3232937588252 2526.9826028525686 2041.323 2526.471 C 2041.323 2520.259666666667 2041.323 2514.048333333333 2041.323 2507.837C 2041.3235478181193 2507.3343087954427 2041.0719210591428 2506.8648558861187 2040.653 2506.587Z M 2019.711 2496.292 C 2025.3766666666666 2500.0513333333333 2031.0423333333333 2503.8106666666667 2036.708 2507.57 C 2033.5529999999999 2509.6673333333333 2030.398 2511.7646666666665 2027.243 2513.862 C 2021.9613333333334 2509.934333333333 2016.6796666666667 2506.0066666666667 2011.398 2502.079C 2014.169 2500.15 2016.94 2498.221 2019.711 2496.292Z M 2014.234 2522.508 C 2008.7113333333334 2518.884666666667 2003.1886666666667 2515.2613333333334 1997.666 2511.638 C 2001.378 2509.054 2005.09 2506.47 2008.802 2503.886 C 2014.0643333333333 2507.7993333333334 2019.3266666666666 2511.712666666667 2024.589 2515.626C 2021.1373333333333 2517.92 2017.6856666666667 2520.214 2014.234 2522.508Z M 1996.324 2514.346 C 2001.6573333333333 2517.844666666667 2006.9906666666666 2521.3433333333332 2012.324 2524.842 C 2012.324 2529.8966666666665 2012.324 2534.9513333333334 2012.324 2540.006 C 2006.9906666666666 2536.289 2001.6573333333333 2532.572 1996.324 2528.855C 1996.324 2524.018666666667 1996.324 2519.182333333333 1996.324 2514.346Z M 2015.324 2540.369 C 2015.324 2535.3746666666666 2015.324 2530.3803333333335 2015.324 2525.386 C 2022.9906666666666 2520.29 2030.6573333333333 2515.194 2038.324 2510.098 C 2038.324 2515.282 2038.324 2520.466 2038.324 2525.65C 2030.6573333333333 2530.5563333333334 2022.9906666666666 2535.462666666667 2015.324 2540.369Z"></path><path fill="#ffffff" stroke="none" fill-opacity="1" stroke-width="1" stroke-opacity="1" color="rgb(51, 51, 51)" fill-rule="evenodd" font-size-adjust="none" id="tSvg933d91d0f6" d="M 1987.824 2525.739 C 1977.8376666666666 2525.739 1967.8513333333333 2525.739 1957.865 2525.739 C 1958.641 2511.523 1970.38 2500.197 1984.698 2500.197 C 1988.769 2500.197 1992.68 2501.09 1996.323 2502.852 C 1997.3692585901529 2503.3405450806886 1998.5520357711032 2502.513277607985 1998.451998926797 2501.3629185496407 C 1998.4067975073215 2500.8431314381587 1998.094746118109 2500.384173477942 1997.628 2500.151 C 1993.5982562392055 2498.1961726906543 1989.1758459917353 2497.185901831489 1984.6970000000001 2497.197 C 1968.225 2497.197 1954.823 2510.674 1954.823 2527.239 C 1954.823 2528.0674271247462 1955.4945728752539 2528.739 1956.323 2528.739 C 1966.823 2528.739 1977.323 2528.739 1987.823 2528.739 C 1988.977700537866 2528.739386436729 1989.6998047426405 2527.4896279595855 1989.1227891377318 2526.4894347416653C 1988.8549952635342 2526.025243453779 1988.359898384624 2525.73917934591 1987.824 2525.739Z M 1985.295 2494.241 C 1994.9470000000001 2494.241 2002.8 2486.39 2002.8 2476.74 C 2002.8 2467.09 1994.947 2459.24 1985.295 2459.24 C 1975.647 2459.24 1967.797 2467.091 1967.797 2476.74C 1967.797 2486.39 1975.647 2494.241 1985.295 2494.241Z M 1985.295 2462.239 C 1993.293 2462.239 1999.8 2468.744 1999.8 2476.739 C 1999.8 2484.735 1993.2930000000001 2491.24 1985.295 2491.24 C 1977.301 2491.24 1970.797 2484.735 1970.797 2476.739C 1970.797 2468.744 1977.301 2462.239 1985.295 2462.239Z"></path><defs> </defs></svg> 