<?xml version="1.0" encoding="UTF-8"?> <svg xmlns="http://www.w3.org/2000/svg" viewBox="1950 2450 100 100" width="100" height="100"><path fill="#ffffff" stroke="none" fill-opacity="1" stroke-width="1" stroke-opacity="1" color="rgb(51, 51, 51)" fill-rule="evenodd" font-size-adjust="none" id="tSvg8fbb0befbd" d="M 2037.25 2511.525 C 2020.9916666666668 2511.525 2004.7333333333333 2511.525 1988.475 2511.525 C 1988.475 2495.267 1988.475 2479.009 1988.475 2462.751 C 1988.475 2461.922572875254 1987.8034271247461 2461.251 1986.975 2461.251 C 1978.9 2461.251 1970.825 2461.251 1962.75 2461.251 C 1961.9215728752538 2461.251 1961.25 2461.922572875254 1961.25 2462.751 C 1961.25 2487.5843333333332 1961.25 2512.4176666666667 1961.25 2537.251 C 1961.25 2538.079427124746 1961.9215728752538 2538.751 1962.75 2538.751 C 1987.5833333333333 2538.751 2012.4166666666667 2538.751 2037.25 2538.751 C 2038.0784271247462 2538.751 2038.75 2538.079427124746 2038.75 2537.251 C 2038.75 2529.1756666666665 2038.75 2521.1003333333333 2038.75 2513.025C 2038.75 2512.196572875254 2038.0784271247462 2511.525 2037.25 2511.525Z M 1985.475 2464.251 C 1985.475 2480.009 1985.475 2495.767 1985.475 2511.525 C 1978.4 2511.525 1971.325 2511.525 1964.25 2511.525 C 1964.25 2508.183666666667 1964.25 2504.8423333333335 1964.25 2501.501 C 1966.6763333333333 2501.501 1969.1026666666667 2501.501 1971.529 2501.501 C 1972.6837005383793 2501.501 1973.4053883748663 2500.251 1972.8280381056766 2499.251 C 1972.5600889132456 2498.786898384862 1972.0648983848623 2498.501 1971.529 2498.501 C 1969.1026666666667 2498.501 1966.6763333333333 2498.501 1964.25 2498.501 C 1964.25 2495.261 1964.25 2492.021 1964.25 2488.781 C 1968.6973333333333 2488.781 1973.1446666666666 2488.781 1977.592 2488.781 C 1978.7467005383792 2488.781 1979.4683883748662 2487.531 1978.8910381056767 2486.531 C 1978.6230889132455 2486.0668983848623 1978.1278983848622 2485.781 1977.592 2485.781 C 1973.1446666666666 2485.781 1968.6973333333333 2485.781 1964.25 2485.781 C 1964.25 2482.541 1964.25 2479.301 1964.25 2476.061 C 1966.6763333333333 2476.061 1969.1026666666667 2476.061 1971.529 2476.061 C 1972.6837005383793 2476.061 1973.4053883748663 2474.811 1972.8280381056766 2473.811 C 1972.5600889132456 2473.3468983848625 1972.0648983848623 2473.061 1971.529 2473.061 C 1969.1026666666667 2473.061 1966.6763333333333 2473.061 1964.25 2473.061 C 1964.25 2470.124333333333 1964.25 2467.1876666666667 1964.25 2464.251C 1971.325 2464.251 1978.4 2464.251 1985.475 2464.251Z M 2035.75 2535.751 C 2011.9166666666667 2535.751 1988.0833333333333 2535.751 1964.25 2535.751 C 1964.25 2528.6756666666665 1964.25 2521.6003333333333 1964.25 2514.525 C 1988.0833333333333 2514.525 2011.9166666666667 2514.525 2035.75 2514.525C 2035.75 2521.6003333333333 2035.75 2528.6756666666665 2035.75 2535.751Z"></path><path fill="#ffffff" stroke="none" fill-opacity="1" stroke-width="1" stroke-opacity="1" color="rgb(51, 51, 51)" fill-rule="evenodd" font-size-adjust="none" id="tSvg98c6cce10f" d="M 2025.134 2531.484 C 2028.634 2531.484 2031.481 2528.636 2031.481 2525.136 C 2031.481 2521.636 2028.633 2518.789 2025.134 2518.789 C 2021.6300860147735 2518.792857491198 2018.790408784924 2521.632086665067 2018.786 2525.136C 2018.786 2528.636 2021.634 2531.484 2025.134 2531.484Z M 2025.134 2521.7889999999998 C 2026.981810955329 2521.790654797486 2028.4793459849466 2523.2881890439703 2028.481 2525.136 C 2028.4787971072205 2526.9837453239534 2026.9817445824096 2528.481244441146 2025.134 2528.484 C 2023.2858653233054 2528.4817945925242 2021.7882040980735 2526.984134678257 2021.786 2525.136C 2021.7887548721762 2523.2882552850374 2023.2862545451153 2521.7912033940506 2025.134 2521.7889999999998Z"></path><defs></defs></svg> 