<?xml version="1.0" encoding="UTF-8"?> <svg xmlns="http://www.w3.org/2000/svg" viewBox="1950 2450 100 100" width="100" height="100"><path fill="#ffffff" stroke="none" fill-opacity="1" stroke-width="1" stroke-opacity="1" color="rgb(51, 51, 51)" fill-rule="evenodd" font-size-adjust="none" id="tSvgb4d6db6cef" d="M 2018.152 2512.067 C 2017.636 2511.793 2016.807 2511.353 2016.61 2511.272 C 2011.8805788355444 2508.9838965094377 2006.6938374563001 2507.798159015294 2001.44 2507.804 C 1982.159 2507.804 1966.476 2523.498 1966.493 2542.782 C 1966.494 2543.598 1967.177 2544.25 1967.993 2544.25 C 1990.2916666666667 2544.25 2012.5903333333333 2544.25 2034.889 2544.25 C 2035.705 2544.25 2036.388 2543.598 2036.389 2542.782C 2036.399 2529.5480000000002 2029.016 2518.008 2018.152 2512.067Z M 1986 2527.25 C 1995.6666666666667 2527.25 2005.3333333333333 2527.25 2015 2527.25 C 2015 2531.9166666666665 2015 2536.5833333333335 2015 2541.25 C 2005.3333333333333 2541.25 1995.6666666666667 2541.25 1986 2541.25C 1986 2536.5833333333335 1986 2531.9166666666665 1986 2527.25Z M 2015 2513.99 C 2015 2517.41 2015 2520.83 2015 2524.25 C 2005.3333333333333 2524.25 1995.6666666666667 2524.25 1986 2524.25 C 1986 2521.0833333333335 1986 2517.9166666666665 1986 2514.75 C 1986 2514.707 1985.991 2514.667 1985.987 2514.625 C 1990.6331333004275 2512.1122797108465 1995.8329272896922 2510.798922610141 2001.115 2510.804C 2006.09 2510.804 2010.799 2511.954 2015 2513.99Z M 1983 2516.459 C 1983 2524.7226666666666 1983 2532.9863333333333 1983 2541.25 C 1978.401 2541.25 1973.802 2541.25 1969.203 2541.25C 1969.681 2530.977 1975.039 2521.962 1983 2516.459Z M 2018 2541.25 C 2018 2532.7166666666667 2018 2524.1833333333334 2018 2515.65 C 2026.638 2521.051 2032.527 2530.456 2033.028 2541.25C 2028.0186666666666 2541.25 2023.0093333333334 2541.25 2018 2541.25Z M 1980.325 2485.25 C 1980.4836666666667 2485.25 1980.6423333333332 2485.25 1980.801 2485.25 C 1981.548 2495.675 1990.243 2503.934 2000.852 2503.934 C 2011.465 2503.934 2020.164 2495.675 2020.912 2485.25 C 2021.0706666666667 2485.25 2021.2293333333334 2485.25 2021.388 2485.25 C 2023.44 2485.25 2025.047 2483.209 2025.047 2480.603 C 2025.047 2478.631 2024.125 2476.987 2022.788 2476.302 C 2022.1965250927674 2467.0187725785854 2015.8064647582332 2459.121512847836 2006.851 2456.606 C 2005.887 2454.221 2003.551 2452.531 2000.825 2452.531 C 1998.091 2452.531 1995.75 2454.231 1994.791 2456.627 C 1985.8715459764464 2459.1663688575054 1979.517435661989 2467.046923555053 1978.927 2476.302 C 1977.59 2476.987 1976.668 2478.632 1976.668 2480.603C 1976.666 2483.209 1978.2740000000001 2485.25 1980.325 2485.25Z M 2000.852 2500.934 C 1991.898 2500.934 1984.54 2494.02 1983.801 2485.25 C 1995.171 2485.25 2006.541 2485.25 2017.911 2485.25C 2017.173 2494.02 2009.811 2500.934 2000.852 2500.934Z M 2021.394 2482.25 C 2007.7023333333334 2482.25 1994.0106666666666 2482.25 1980.319 2482.25 C 1980.166 2482.227 1979.659 2481.666 1979.659 2480.602 C 1979.659 2479.927 1979.862 2479.478 1980.051 2479.218 C 1980.15 2479.239 1980.252 2479.25 1980.358 2479.25 C 1994.0236666666667 2479.25 2007.6893333333333 2479.25 2021.355 2479.25 C 2021.46 2479.25 2021.563 2479.239 2021.661 2479.218 C 2021.85 2479.479 2022.0529999999999 2479.927 2022.0529999999999 2480.602C 2022.0529999999999 2481.666 2021.546 2482.226 2021.394 2482.25Z M 2019.466 2476.25 C 2015.3106666666667 2476.25 2011.1553333333334 2476.25 2007 2476.25 C 2007 2470.799666666667 2007 2465.3493333333336 2007 2459.899C 2014.0120762426482 2462.4197358347847 2018.8921925173897 2468.820729015955 2019.466 2476.25Z M 2004 2459.11 C 2004 2464.8233333333333 2004 2470.536666666667 2004 2476.25 C 2001.6666666666667 2476.25 1999.3333333333333 2476.25 1997 2476.25 C 1997 2470.51 1997 2464.77 1997 2459.03 C 1997.0061477952413 2456.6310433369567 1999.3616838949633 2454.943798490522 2001.635 2455.71C 2003.08 2456.17 2004 2457.594 2004 2459.11Z M 1994 2459.924 C 1994 2465.366 1994 2470.808 1994 2476.25 C 1989.8666666666666 2476.25 1985.7333333333333 2476.25 1981.6 2476.25C 1982.1722779250783 2468.8465047552054 1987.0215698257864 2462.461864489458 1994 2459.924Z"></path><defs> </defs></svg> 