<svg width="256" height="256" viewBox="0 0 256 256" fill="none" xmlns="http://www.w3.org/2000/svg">
<path d="M89.6377 105.22C83.9135 105.22 78.4862 101.779 76.239 96.1722C73.8221 90.1404 75.6878 83.429 80.4791 79.521C81.5815 78.4166 82.8959 77.4397 84.3799 76.5476C85.864 75.6981 87.4752 75.0184 89.044 74.3813C104.69 67.9672 120.336 61.638 135.939 55.224C158.624 45.9214 181.308 36.5339 204.247 27.1039C170.369 -3.77719 95.6162 -16.2231 41.7247 33.2631C-12.3787 82.9617 -10.3011 161.545 27.5204 206.444C32.3117 204.49 37.315 202.451 42.3183 200.412C79.4191 185.205 116.435 169.955 153.578 154.834C163.669 150.713 172.15 153.474 175.584 161.418C179.103 169.488 175.203 177.049 164.857 181.424C146.921 188.943 128.858 196.249 110.88 203.64C90.8673 211.881 70.8541 220.079 49.6113 228.829C52.9185 231.293 55.0386 233.077 57.3282 234.564C75.6878 246.5 95.6586 253.976 117.58 255.208C170.496 258.181 211.879 237.07 238.083 191.237C264.287 145.404 261.191 99.0607 232.444 54.5868C230.917 52.2081 229.942 50.6789 228.204 50.1691L95.1074 104.115C93.3265 104.838 91.5033 105.177 89.6801 105.177L89.6377 105.22Z" fill="#D52623"/>
</svg>
