<svg width="250" height="250" viewBox="0 0 250 250" fill="none" xmlns="http://www.w3.org/2000/svg">
<path d="M87.5368 102.754C81.9468 102.754 76.6467 99.3938 74.4521 93.9182C72.0919 88.0277 73.9138 81.4736 78.5928 77.6573C79.6694 76.5787 80.953 75.6247 82.4023 74.7535C83.8515 73.9239 85.425 73.2602 86.9571 72.638C102.236 66.3742 117.515 60.1934 132.753 53.9296C154.906 44.8451 177.059 35.6776 199.46 26.4687C166.376 -3.68866 93.3752 -15.8428 40.7468 32.4835C-12.0886 81.0173 -10.0597 157.759 26.8754 201.605C31.5544 199.697 36.4405 197.706 41.3265 195.715C77.5577 180.864 113.706 165.972 149.979 151.205C159.833 147.181 168.115 149.877 171.469 157.634C174.906 165.516 171.096 172.9 160.993 177.172C143.478 184.515 125.838 191.649 108.282 198.867C88.7376 206.915 69.1934 214.921 48.4485 223.466C51.6783 225.872 53.7486 227.614 55.9846 229.066C73.9139 240.722 93.4166 248.023 114.824 249.226C166.5 252.13 206.913 231.513 232.503 186.755C258.092 141.996 255.07 96.7389 226.996 53.3074C225.505 50.9844 224.553 49.4911 222.855 48.9933L92.8783 101.675C91.1392 102.38 89.3587 102.712 87.5782 102.712L87.5368 102.754Z" fill="#D52623"/>
</svg>
