<svg xmlns="http://www.w3.org/2000/svg" width="11" fill="#656565" height="15" viewBox="0 0 11 15">
    <path
        d="M10.2759 4.70871C10.0201 2.14205 7.83537 0.0898438 5.15138 0.0898438C2.31091 0.0898438 0 2.40075 0 5.24123C0 6.36396 0.352872 7.42802 1.02069 8.31937L4.77442 13.8893C4.81603 13.9511 4.87216 14.0016 4.93788 14.0366C5.00361 14.0716 5.07692 14.0898 5.15136 14.0898C5.22581 14.0898 5.29911 14.0716 5.36484 14.0366C5.43056 14.0016 5.48669 13.951 5.52829 13.8893L9.27907 8.32315C10.0519 7.29177 10.4059 6.00855 10.2759 4.70871ZM8.5456 7.78614C8.54081 7.79249 8.53616 7.79897 8.53176 7.80556L5.15136 12.822L1.76805 7.8017C1.76362 7.79514 1.75903 7.78866 1.75427 7.78234C1.20135 7.04789 0.909072 6.16917 0.909072 5.24123C0.909072 2.90202 2.81217 0.998916 5.15138 0.998916C7.30536 0.998916 9.15897 2.66809 9.37138 4.79905C9.47895 5.87522 9.18566 6.93608 8.5456 7.78614Z"
           fill="#656565" />
    <path
        d="M5.15156 2.96875C3.89842 2.96875 2.87891 3.98826 2.87891 5.2414C2.87891 6.49454 3.89842 7.51406 5.15156 7.51406C6.4047 7.51406 7.42421 6.49454 7.42421 5.2414C7.42421 3.98826 6.4047 2.96875 5.15156 2.96875ZM5.15156 6.60501C4.39966 6.60501 3.78795 5.9933 3.78795 5.2414C3.78795 4.4895 4.39966 3.87779 5.15156 3.87779C5.90346 3.87779 6.51517 4.4895 6.51517 5.2414C6.51514 5.9933 5.90343 6.60501 5.15156 6.60501Z"
        fill="#656565"/>
</svg>