<svg width="21" height="22" viewBox="0 0 21 22" fill="none" xmlns="http://www.w3.org/2000/svg">
<path d="M7.35309 9.14879C6.88353 9.14879 6.43832 8.86598 6.25398 8.40509C6.05572 7.9093 6.20876 7.35764 6.6018 7.03642C6.69223 6.94564 6.80006 6.86533 6.92179 6.79201C7.04353 6.72218 7.1757 6.66631 7.30439 6.61394C8.58785 6.08672 9.8713 5.56648 11.1513 5.03926C13.0121 4.27462 14.8729 3.50299 16.7546 2.72787C13.9756 0.189525 7.84351 -0.833493 3.42273 3.23414C-1.01544 7.31923 -0.845011 13.7786 2.25754 17.4691C2.65057 17.3085 3.061 17.1409 3.47143 16.9733C6.51484 15.7233 9.55131 14.4699 12.5982 13.2269C13.426 12.8882 14.1217 13.1152 14.4034 13.7681C14.6921 14.4315 14.3721 15.053 13.5234 15.4126C12.0521 16.0306 10.5704 16.6311 9.09566 17.2387C7.45396 17.916 5.81225 18.5899 4.06967 19.3091C4.34097 19.5117 4.51488 19.6583 4.70271 19.7805C6.20876 20.7616 7.84699 21.3761 9.64522 21.4774C13.986 21.7218 17.3807 19.9865 19.5302 16.2191C21.6798 12.4518 21.4259 8.64252 19.0676 4.98689C18.9424 4.79136 18.8624 4.66567 18.7198 4.62377L7.80177 9.05801C7.65569 9.11737 7.50613 9.1453 7.35657 9.1453L7.35309 9.14879Z" fill="white"/>
</svg>
