<svg width="69" height="12" viewBox="0 0 69 12" fill="none" xmlns="http://www.w3.org/2000/svg">
<path d="M6.5 0L8.15755 3.71857L12.2063 4.1459L9.18198 6.87143L10.0267 10.8541L6.5 8.82L2.97329 10.8541L3.81802 6.87143L0.793661 4.1459L4.84245 3.71857L6.5 0Z" fill="#E03B2F"/>
<path d="M20.5 0L22.1576 3.71857L26.2063 4.1459L23.182 6.87143L24.0267 10.8541L20.5 8.82L16.9733 10.8541L17.818 6.87143L14.7937 4.1459L18.8424 3.71857L20.5 0Z" fill="#E03B2F"/>
<path d="M34.5 0L36.1576 3.71857L40.2063 4.1459L37.182 6.87143L38.0267 10.8541L34.5 8.82L30.9733 10.8541L31.818 6.87143L28.7937 4.1459L32.8424 3.71857L34.5 0Z" fill="#E03B2F"/>
<path d="M48.5 0L50.1576 3.71857L54.2063 4.1459L51.182 6.87143L52.0267 10.8541L48.5 8.82L44.9733 10.8541L45.818 6.87143L42.7937 4.1459L46.8424 3.71857L48.5 0Z" fill="#E03B2F"/>
<path d="M62.5 0L64.1576 3.71857L68.2063 4.1459L65.182 6.87143L66.0267 10.8541L62.5 8.82L58.9733 10.8541L59.818 6.87143L56.7937 4.1459L60.8424 3.71857L62.5 0Z" fill="#E03B2F"/>
</svg>
