<svg width="68" height="68" viewBox="0 0 68 68" fill="none" xmlns="http://www.w3.org/2000/svg">
<rect width="68" height="68" rx="5" fill="#D52623"/>
<g clip-path="url(#clip0_474_5100)">
<path d="M49.605 33.0985L39.9424 17.5852C38.9436 15.9814 36.8259 15.4892 35.222 16.4882C33.7803 17.3861 33.2649 19.1468 33.8327 20.6216L33.7949 20.7052C31.8327 25.0324 28.6638 28.6474 24.6306 31.1594L17.5151 35.5913C15.9074 36.5927 15.4165 38.7039 16.418 40.3117L18.8336 44.1899C19.8348 45.7976 21.9463 46.2883 23.554 45.2869L24.5236 44.683L28.7509 51.47C29.7522 53.0778 31.8635 53.5685 33.4712 52.567C35.0751 51.5681 35.5672 49.4505 34.5682 47.8467L32.7565 44.938L33.7261 44.3341C35.3338 43.3328 35.8246 41.2216 34.8231 39.6138L34.4127 38.9548C37.4708 37.7246 40.7557 37.1368 44.0939 37.2401L44.1867 37.243C45.2847 38.4249 47.0976 38.6972 48.508 37.8187L48.508 37.8188C50.1117 36.8199 50.6038 34.7023 49.605 33.0985ZM22.3462 43.3478C21.8104 43.6815 21.1064 43.518 20.7727 42.9821L18.3572 39.1039C18.0234 38.5679 18.1869 37.8642 18.7228 37.5304L25.5098 33.3031L29.1332 39.1205C28.4691 39.5341 23.0266 42.924 22.3462 43.3478ZM32.6291 49.0544C32.962 49.5889 32.798 50.2948 32.2634 50.6278C31.7289 50.9608 31.0229 50.7967 30.69 50.2622L26.4626 43.4752L28.4018 42.2674L32.6291 49.0544ZM30.3409 41.0596C30.7531 40.8029 31.3729 40.4069 32.3199 39.9157L32.884 40.8214C33.2178 41.3574 33.0542 42.061 32.5183 42.3949L31.5487 42.9988L30.3409 41.0596ZM31.1085 37.9711L27.4125 32.037C30.6853 29.6571 33.3506 26.5693 35.2272 22.9781L42.6852 34.9519C38.6344 35.0525 34.6879 36.083 31.1085 37.9711ZM47.3 35.8795C46.7641 36.2132 46.0604 36.0497 45.7265 35.5138L36.0642 20.0007C35.7304 19.4647 35.8939 18.7611 36.4298 18.4273C36.9657 18.0935 37.6695 18.257 38.0033 18.7929L47.6657 34.306C47.9986 34.8406 47.8346 35.5464 47.3 35.8795Z" fill="white"/>
<path d="M25.3814 37.4181C25.048 36.8826 24.3434 36.7189 23.808 37.0524L21.8688 38.2602C21.3334 38.5937 21.1697 39.2982 21.5032 39.8336C21.8366 40.3691 22.5412 40.5328 23.0766 40.1993L25.0157 38.9915C25.5512 38.658 25.7149 37.9535 25.3814 37.4181Z" fill="white"/>
<path d="M45.6087 16.3797C44.9942 16.2369 44.3803 16.6192 44.2375 17.2337L43.7204 19.459C43.5776 20.0734 43.96 20.6873 44.5744 20.8301C45.1889 20.973 45.8028 20.5906 45.9456 19.9761L46.4628 17.7509C46.6056 17.1364 46.2232 16.5225 45.6087 16.3797Z" fill="white"/>
<path d="M52.4394 27.3499L50.2142 26.8328C49.5997 26.69 48.9858 27.0724 48.843 27.6868C48.7002 28.3013 49.0826 28.9152 49.697 29.058L51.9223 29.5752C52.5368 29.718 53.1507 29.3356 53.2935 28.7211C53.4363 28.1066 53.0538 27.4927 52.4394 27.3499Z" fill="white"/>
<path d="M52.4785 20.6633C52.1451 20.1279 51.4405 19.9641 50.9051 20.2976L48.1627 22.0057C47.6272 22.3392 47.4635 23.0437 47.797 23.5792C48.1304 24.1146 48.835 24.2784 49.3705 23.9448L52.1128 22.2367C52.6483 21.9032 52.812 21.1988 52.4785 20.6633Z" fill="white"/>
</g>
<defs>
<clipPath id="clip0_474_5100">
<rect width="39" height="39" fill="white" transform="translate(19.9219 10.4102) rotate(13.0832)"/>
</clipPath>
</defs>
</svg>
