<svg width="68" height="68" viewBox="0 0 68 68" fill="none" xmlns="http://www.w3.org/2000/svg">
<rect width="68" height="68" rx="5" fill="#D52623"/>
<g clip-path="url(#clip0_3125_25103)">
<path d="M28.1072 40.6044L33.3553 24.8602C33.5496 24.2769 33.2344 23.6464 32.6511 23.4519C32.0679 23.2576 31.4374 23.5728 31.2429 24.1561L25.9949 39.9003C25.8005 40.4836 26.1157 41.1141 26.699 41.3085C26.8158 41.3474 26.9345 41.3659 27.0512 41.3659C27.5173 41.366 27.9517 41.071 28.1072 40.6044Z" fill="white"/>
<path d="M35.9727 35.7227C37.8142 35.7227 39.3125 34.2244 39.3125 32.3828C39.3125 30.5412 37.8142 29.043 35.9727 29.043C34.1311 29.043 32.6328 30.5412 32.6328 32.3828C32.6328 34.2244 34.1311 35.7227 35.9727 35.7227ZM35.9727 31.2695C36.5865 31.2695 37.0859 31.7689 37.0859 32.3828C37.0859 32.9967 36.5865 33.4961 35.9727 33.4961C35.3588 33.4961 34.8594 32.9967 34.8594 32.3828C34.8594 31.7689 35.3588 31.2695 35.9727 31.2695Z" fill="white"/>
<path d="M23.3789 29.043C21.5373 29.043 20.0391 30.5412 20.0391 32.3828C20.0391 34.2244 21.5373 35.7227 23.3789 35.7227C25.2205 35.7227 26.7187 34.2244 26.7187 32.3828C26.7187 30.5412 25.2206 29.043 23.3789 29.043ZM23.3789 33.4961C22.765 33.4961 22.2656 32.9967 22.2656 32.3828C22.2656 31.7689 22.765 31.2695 23.3789 31.2695C23.9928 31.2695 24.4922 31.7689 24.4922 32.3828C24.4922 32.9967 23.9928 33.4961 23.3789 33.4961Z" fill="white"/>
<path d="M50.7773 28.8047L46.8952 23.6284L47.0466 22.5684C47.0961 22.2215 46.9796 21.8715 46.7317 21.6237L44.3701 19.2621L46.7317 16.9004C47.1664 16.4657 47.1664 15.7608 46.7317 15.326C46.297 14.8913 45.592 14.8913 45.1573 15.326L42.7957 17.6877L40.4341 15.326C40.1863 15.0782 39.8363 14.962 39.4894 15.0111L28.4684 16.5855C28.23 16.6196 28.009 16.7301 27.8387 16.9004L14.1937 30.5454C12.6021 32.1369 12.6021 34.7267 14.1937 36.3183L25.7394 47.864C25.9756 48.1002 26.2341 48.3005 26.5078 48.4666V48.9179C26.5078 51.1688 28.339 53 30.5898 53H46.9179C49.1688 53 51 51.1688 51 48.9179V29.4726C51 29.2318 50.9218 28.9973 50.7773 28.8047ZM15.7681 34.7439C15.0446 34.0204 15.0446 32.8433 15.7681 32.1198L29.1507 18.7373L39.2532 17.2941L41.2212 19.2621L39.6468 20.8365L38.8596 20.0493C38.4249 19.6146 37.7199 19.6146 37.2852 20.0493C36.8504 20.484 36.8504 21.1889 37.2852 21.6237L40.4341 24.7726C40.6514 24.99 40.9364 25.0987 41.2212 25.0987C41.5061 25.0987 41.7911 24.99 42.0084 24.7726C42.4432 24.3379 42.4432 23.633 42.0084 23.1982L41.2211 22.4109L42.7955 20.8365L44.7636 22.8046L43.3203 32.9071L29.9379 46.2896C29.5874 46.6401 29.1215 46.8331 28.6258 46.8331C28.1302 46.8331 27.6643 46.64 27.3138 46.2896L15.7681 34.7439ZM48.7734 48.9179C48.7734 49.9411 47.9411 50.7734 46.9179 50.7734H30.5898C29.6128 50.7734 28.8104 50.0143 28.7399 49.055C29.7468 49.0271 30.7455 48.6309 31.5122 47.864L45.1572 34.2191C45.3275 34.0487 45.438 33.8278 45.4721 33.5893L46.4498 26.7456L48.7734 29.8437V48.9179Z" fill="white"/>
</g>
<defs>
<clipPath id="clip0_3125_25103">
<rect width="38" height="38" fill="white" transform="translate(13 15)"/>
</clipPath>
</defs>
</svg>
