<svg width="68" height="68" viewBox="0 0 68 68" fill="none" xmlns="http://www.w3.org/2000/svg">
<rect width="68" height="68" rx="5" fill="#D52623"/>
<path d="M33.9985 12.1875C33.43 12.1875 32.9688 12.6487 32.9688 13.2173C32.9688 13.7858 33.43 14.247 33.9985 14.247C44.7869 14.247 53.564 23.0241 53.564 33.8125C53.564 34.381 54.0252 34.8423 54.5938 34.8423C55.1623 34.8423 55.6235 34.381 55.6235 33.8125C55.6235 21.8884 45.9239 12.1875 33.9985 12.1875Z" fill="white"/>
<path d="M34 53.3765C23.2116 53.3765 14.4345 44.5994 14.4345 33.811C14.4345 33.2425 13.9733 32.7812 13.4048 32.7812C12.8362 32.7812 12.375 33.2425 12.375 33.811C12.375 45.7351 22.0746 55.436 34 55.436C34.5685 55.436 35.0298 54.9748 35.0298 54.4062C35.0298 53.8377 34.5685 53.3765 34 53.3765Z" fill="white"/>
<path d="M34 17.6797C25.1049 17.6797 17.8671 24.9175 17.8671 33.8126C17.8671 42.7077 25.1049 49.9456 34 49.9456C42.8951 49.9456 50.1329 42.7077 50.1329 33.8126C50.1329 24.9175 42.8951 17.6797 34 17.6797ZM34 47.886C26.2392 47.886 19.9266 41.5734 19.9266 33.8126C19.9266 26.0519 26.2392 19.7392 34 19.7392C41.7608 19.7392 48.0734 26.0519 48.0734 33.8126C48.0734 41.5734 41.7608 47.886 34 47.886Z" fill="white"/>
<path d="M42.809 30.1639L37.3598 29.3715L34.9222 24.4332C34.5789 23.7306 33.4204 23.7306 33.0772 24.4332L30.6395 29.3715L25.1904 30.1639C24.8015 30.2202 24.4797 30.4924 24.3591 30.8652C24.2384 31.2379 24.3376 31.6469 24.6192 31.9204L28.5612 35.7633L27.6334 41.191C27.5663 41.5771 27.7246 41.9686 28.041 42.1979C28.3574 42.4286 28.7811 42.4594 29.1271 42.277L33.9997 39.7147L38.8723 42.277C39.0224 42.3562 39.1887 42.395 39.3523 42.395C39.5668 42.395 39.7787 42.3293 39.9583 42.1979C40.2748 41.9686 40.433 41.5771 40.366 41.191L39.4381 35.7633L43.3802 31.9204C43.6617 31.6469 43.761 31.2379 43.6403 30.8652C43.5196 30.4924 43.1978 30.2202 42.809 30.1639ZM37.6119 34.6665C37.3679 34.9024 37.2579 35.2444 37.3169 35.5782L37.9846 39.4827L34.4797 37.6391C34.3295 37.56 34.1633 37.5211 33.9997 37.5211C33.8361 37.5211 33.6698 37.56 33.5197 37.6391L30.0147 39.4827L30.6824 35.5782C30.7414 35.2444 30.6315 34.9024 30.3875 34.6665L27.5503 31.9017L31.4709 31.3318C31.8061 31.2835 32.0957 31.073 32.2459 30.7686L33.9997 27.2168L35.7535 30.7686C35.9037 31.073 36.1933 31.2835 36.5285 31.3318L40.4491 31.9017L37.6119 34.6665Z" fill="white"/>
</svg>
