<svg width="68" height="69" viewBox="0 0 68 69" fill="none" xmlns="http://www.w3.org/2000/svg">
<rect y="0.316406" width="68" height="68" rx="5" fill="#D52623"/>
<path d="M19.8839 17.5664C19.2545 17.564 18.7437 18.0748 18.7461 18.7042V50.4375C18.7486 51.0634 19.258 51.5688 19.8839 51.5664H40.2396C41.7177 51.5321 41.7177 49.3323 40.2396 49.2997H21.0128V19.8331H45.9439V41.3686C45.9764 42.8466 48.1778 42.8466 48.2105 41.3686V18.7042C48.2129 18.0783 47.7075 17.5689 47.0816 17.5664H19.8839ZM25.5483 28.902H41.4194C42.8973 28.8677 42.8973 26.6682 41.4194 26.6353H25.4941C23.9604 26.6353 24.0692 28.9394 25.5483 28.902ZM25.5483 35.7042H41.4194C42.9644 35.7385 42.9644 33.4032 41.4194 33.4375H25.4941C23.9603 33.4375 24.0691 35.7417 25.5483 35.7042ZM25.5483 42.5064H36.8838C38.3618 42.4721 38.3618 40.2725 36.8838 40.2397H25.4941C23.9603 40.2397 24.0691 42.544 25.5483 42.5064ZM50.672 41.8711L46.7651 47.7259L44.3125 46.0946C43.0566 45.2532 41.7949 47.1369 43.0508 47.9782L46.4552 50.2449C46.9772 50.591 47.681 50.4484 48.0268 49.9262L52.5624 43.1329C53.0866 42.367 52.5184 41.3318 51.5906 41.3598C51.2192 41.3727 50.8759 41.5602 50.672 41.8711Z" fill="white"/>
</svg>
