<svg width="176" height="41" viewBox="0 0 176 41" fill="none" xmlns="http://www.w3.org/2000/svg">
<g clip-path="url(#clip0_3003_791)">
<path d="M11.7115 13.9428C10.9636 13.9428 10.2545 13.494 9.96089 12.7627C9.64512 11.9759 9.88888 11.1005 10.5149 10.5908C10.6589 10.4468 10.8306 10.3193 11.0245 10.203C11.2184 10.0922 11.4289 10.0035 11.6339 9.92043C13.6781 9.08383 15.7223 8.25831 17.761 7.42171C20.7248 6.20836 23.6886 4.98393 26.6856 3.75396C22.2593 -0.273915 12.4926 -1.89725 5.45148 4.55732C-1.61732 11.0396 -1.34587 21.2893 3.59564 27.1455C4.22164 26.8907 4.87534 26.6248 5.52904 26.3588C10.3764 24.3753 15.2126 22.3863 20.0655 20.414C21.384 19.8765 22.492 20.2367 22.9407 21.2727C23.4005 22.3254 22.8908 23.3116 21.5391 23.8823C19.1958 24.8629 16.8358 25.8159 14.4869 26.7799C11.8721 27.8547 9.25734 28.924 6.48189 30.0653C6.91399 30.3867 7.19099 30.6194 7.49014 30.8133C9.88888 32.3702 12.4981 33.3453 15.3622 33.5059C22.2759 33.8938 27.6828 31.1402 31.1064 25.1621C34.53 19.184 34.1256 13.1394 30.3696 7.3386C30.1701 7.02834 30.0427 6.82889 29.8156 6.7624L12.4261 13.7987C12.1934 13.8929 11.9552 13.9372 11.717 13.9372L11.7115 13.9428Z" fill="white"/>
<path d="M46.3785 25.5683C43.7083 25.5683 41.5312 25.089 39.7695 23.3079L42.5117 20.6119C43.4203 21.5051 45.0102 21.8156 46.4062 21.8156C48.0959 21.8156 48.9047 21.26 48.9047 20.2742C48.9047 19.8657 48.805 19.528 48.5612 19.2611C48.3396 19.0432 47.974 18.8744 47.4089 18.8036L45.3038 18.5149C43.7637 18.297 42.5838 17.7905 41.8026 17.0007C40.9938 16.1837 40.6005 15.0291 40.6005 13.5585C40.6005 10.4321 42.9992 8.14453 46.9658 8.14453C49.4642 8.14453 51.3477 8.72187 52.8435 10.1925L50.1511 12.8395C49.2482 11.9463 48.2399 11.8264 46.8439 11.8264C45.3481 11.8264 44.7387 12.6707 44.7387 13.4169C44.7387 13.6347 44.8108 13.9452 45.0822 14.2121C45.3038 14.4299 45.6694 14.6478 46.2844 14.7186L48.3895 15.0073C49.9573 15.2251 51.0818 15.7044 51.8186 16.4288C52.7493 17.3166 53.1149 18.5966 53.1149 20.1816C53.1149 23.6729 50.057 25.5737 46.3841 25.5737L46.3785 25.5683Z" fill="white"/>
<path d="M65.545 12.0457V25.428H61.2627V12.0457H56.9805V8.29297H69.8328V12.0457H65.5506H65.545Z" fill="white"/>
<path d="M82.4357 18.4431V25.4202H78.1535V18.4431L72.8906 8.28516H77.5662L80.3084 14.4453L83.0229 8.28516H87.6986L82.4357 18.4431Z" fill="white"/>
<path d="M101.409 25.4257L95.8252 16.8091V25.4257H91.543V8.28516H95.2879L100.872 16.9017V8.28516H105.154V25.4202H101.409V25.4257Z" fill="white"/>
<path d="M110.762 25.4257V8.28516H122.611V12.0379H115.05V14.9028H121.515V18.6555H115.05V21.6621H122.611V25.4148H110.762V25.4257Z" fill="white"/>
<path d="M136.54 25.4257L133.455 19.0477H132.009V25.4257H127.727V8.28516H134.629C138.496 8.28516 140.579 10.9812 140.579 13.7971C140.579 16.1337 139.111 17.5989 137.737 18.2743L141.504 25.4202H136.535L136.54 25.4257ZM134.435 12.0706H132.009V15.5346H134.435C135.61 15.5346 136.297 14.6904 136.297 13.8026C136.297 12.9148 135.61 12.0706 134.435 12.0706Z" fill="white"/>
<path d="M156.637 23.6456C155.141 25.1598 153.479 25.5737 151.568 25.5737C149.463 25.5737 147.994 24.9256 146.742 23.6946C144.953 21.9354 144.953 19.7458 144.953 16.8591C144.953 13.9724 144.953 11.7829 146.742 10.0236C147.989 8.79813 149.463 8.14453 151.568 8.14453C156.049 8.14453 157.955 11.0095 158.376 13.8254H154.066C153.723 12.5236 153.036 11.8973 151.568 11.8973C150.787 11.8973 150.199 12.2349 149.878 12.6434C149.485 13.15 149.241 13.7273 149.241 16.8537C149.241 19.98 149.485 20.5846 149.878 21.0912C150.194 21.4997 150.781 21.8156 151.568 21.8156C152.476 21.8156 153.086 21.5487 153.479 21.1402C153.966 20.6609 154.138 19.9583 154.138 19.3101V19.0705H151.568V15.5574H158.398V17.943C158.398 20.7099 157.955 22.3221 156.637 23.6456Z" fill="white"/>
<path d="M170.737 18.4431V25.4202H166.454V18.4431L161.191 8.28516H165.867L168.609 14.4453L171.324 8.28516H175.999L170.737 18.4431Z" fill="white"/>
<path d="M79.518 39.5269C79.0028 40.0552 78.4322 40.2186 77.773 40.2186C77.0694 40.2186 76.5487 39.9899 76.1221 39.5759C75.5072 38.9713 75.4961 38.2851 75.4961 37.1249C75.4961 35.9648 75.5072 35.2785 76.1221 34.6739C76.5487 34.2655 77.0694 34.0312 77.773 34.0312C79.2133 34.0312 79.939 34.9517 80.0997 35.9811H78.8809C78.7424 35.3984 78.3879 35.0933 77.7674 35.0933C77.435 35.0933 77.1747 35.2241 76.9918 35.4201C76.7647 35.6761 76.6982 35.9648 76.6982 37.1304C76.6982 38.296 76.7702 38.5901 76.9918 38.8461C77.1747 39.0421 77.435 39.162 77.7674 39.162C78.1386 39.162 78.4377 39.0313 78.6261 38.8188C78.8255 38.5955 78.9031 38.3232 78.9031 38.0073V37.784H77.7674V36.7818H80.1052V37.6696C80.1052 38.5519 79.9667 39.0639 79.5125 39.5214L79.518 39.5269Z" fill="#9A9998"/>
<path d="M94.9648 40.1698L93.7571 37.7406H92.8874V40.1698H91.6797V34.0859H94.1061C95.3637 34.0859 96.1115 34.9302 96.1115 35.9487C96.1115 36.8038 95.5797 37.3321 94.9814 37.5445L96.3608 40.1698H94.9593H94.9648ZM94.0286 35.148H92.8929V36.7548H94.0286C94.5604 36.7548 94.9039 36.4225 94.9039 35.9541C94.9039 35.4857 94.5548 35.1535 94.0286 35.1535V35.148Z" fill="#9A9998"/>
<path d="M111.337 39.5837C110.922 39.9922 110.401 40.2264 109.686 40.2264C108.972 40.2264 108.445 39.9977 108.024 39.5837C107.41 38.9791 107.398 38.2929 107.398 37.1327C107.398 35.9726 107.41 35.2863 108.024 34.6818C108.44 34.2733 108.972 34.0391 109.686 34.0391C110.401 34.0391 110.922 34.2678 111.337 34.6818C111.952 35.2863 111.974 35.9726 111.974 37.1327C111.974 38.2929 111.958 38.9791 111.337 39.5837ZM110.462 35.4225C110.29 35.2264 110.019 35.0957 109.686 35.0957C109.354 35.0957 109.088 35.2264 108.905 35.4225C108.678 35.6785 108.612 35.9672 108.612 37.1327C108.612 38.2983 108.684 38.5761 108.905 38.8321C109.088 39.0282 109.36 39.1643 109.686 39.1643C110.013 39.1643 110.285 39.0282 110.462 38.8321C110.689 38.5761 110.767 38.2929 110.767 37.1327C110.767 35.9726 110.689 35.6785 110.462 35.4225Z" fill="#9A9998"/>
<path d="M125.718 40.2188C124.45 40.2188 123.441 39.3746 123.441 38.0838V34.0859H124.649V38.0402C124.649 38.7428 125.065 39.1622 125.718 39.1622C126.372 39.1622 126.793 38.7428 126.793 38.0402V34.0859H127.995V38.0838C127.995 39.3746 126.987 40.2188 125.718 40.2188Z" fill="#9A9998"/>
<path d="M142.078 37.8783H140.887V40.1659H139.68V34.082H142.078C143.364 34.082 144.123 34.9426 144.123 35.9775C144.123 37.0123 143.369 37.8729 142.078 37.8729V37.8783ZM142.017 35.1441H140.887V36.8108H142.017C142.566 36.8108 142.915 36.4785 142.915 35.9829C142.915 35.4873 142.566 35.1441 142.017 35.1441Z" fill="#9A9998"/>
</g>
<defs>
<clipPath id="clip0_3003_791">
<rect width="176" height="40" fill="white" transform="translate(0 0.21875)"/>
</clipPath>
</defs>
</svg>
