<svg width="104" height="74" viewBox="0 0 104 74" fill="none" xmlns="http://www.w3.org/2000/svg">
<path d="M101.857 11.8422C100.659 7.37957 97.146 3.86174 92.6912 2.66005C84.5528 0.429687 51.9988 0.429688 51.9988 0.429688C51.9988 0.429688 19.4461 0.429688 11.3077 2.57557C6.9386 3.77596 3.34019 7.38038 2.14175 11.8422C0 19.9932 0 36.8974 0 36.8974C0 36.8974 0 53.8866 2.14175 61.9522C3.34133 66.4142 6.85296 69.9322 11.3084 71.1337C19.5317 73.3648 52.0001 73.3648 52.0001 73.3648C52.0001 73.3648 84.5528 73.3648 92.6912 71.2189C97.1466 70.0178 100.659 66.5 101.858 62.038C104 53.8864 104 36.983 104 36.983C104 36.983 104.085 19.993 101.857 11.8422ZM41.6342 52.5138V21.2805L68.7045 36.8971L41.6342 52.5138Z" fill="#D52623"/>
</svg>
