<svg width="190" height="44" viewBox="0 0 190 44" fill="none" xmlns="http://www.w3.org/2000/svg">
<g clip-path="url(#clip0_5044_11575)">
<path d="M13.0765 14.7753C12.2734 14.7753 11.5119 14.2921 11.1966 13.5046C10.8575 12.6575 11.1193 11.7149 11.7915 11.1661C11.9462 11.011 12.1306 10.8738 12.3389 10.7485C12.5471 10.6292 12.7731 10.5337 12.9932 10.4443C15.1884 9.54346 17.3836 8.65458 19.5728 7.75378C22.7556 6.44731 25.9383 5.12892 29.1567 3.80456C24.4034 -0.532427 13.9153 -2.28034 6.35415 4.66957C-1.23679 11.6493 -0.945285 22.6856 4.36123 28.9913C5.03347 28.7169 5.73545 28.4305 6.43744 28.1442C11.6428 26.0085 16.8363 23.8668 22.0476 21.7431C23.4635 21.1644 24.6533 21.5522 25.1352 22.6678C25.6289 23.8012 25.0816 24.8631 23.6301 25.4775C21.1136 26.5335 18.5794 27.5595 16.057 28.5975C13.2491 29.7549 10.4411 30.9062 7.46066 32.1351C7.92469 32.4811 8.22214 32.7317 8.54339 32.9405C11.1193 34.6168 13.9213 35.6668 16.9969 35.8398C24.4213 36.2574 30.2275 33.2925 33.904 26.8556C37.5805 20.4187 37.1462 13.9103 33.1128 7.66429C32.8986 7.33022 32.7618 7.11546 32.5179 7.04387L13.844 14.6202C13.5941 14.7216 13.3383 14.7693 13.0825 14.7693L13.0765 14.7753Z" fill="#D52623"/>
<path d="M50.3042 27.2941C47.4368 27.2941 45.0988 26.778 43.207 24.8603L46.1518 21.9573C47.1274 22.9191 48.8348 23.2534 50.3339 23.2534C52.1484 23.2534 53.0169 22.6552 53.0169 21.5937C53.0169 21.1538 52.9099 20.7902 52.6481 20.5029C52.4101 20.2683 52.0175 20.0865 51.4107 20.0102L49.1501 19.6994C47.4963 19.4648 46.2291 18.9194 45.3903 18.0691C44.5218 17.1894 44.0994 15.9461 44.0994 14.3626C44.0994 10.9963 46.6753 8.5332 50.9348 8.5332C53.6178 8.5332 55.6405 9.15485 57.2467 10.7383L54.3555 13.5885C53.3858 12.6267 52.3031 12.4977 50.8039 12.4977C49.1977 12.4977 48.5433 13.4067 48.5433 14.2101C48.5433 14.4447 48.6206 14.779 48.9121 15.0664C49.1501 15.301 49.5427 15.5355 50.2031 15.6118L52.4637 15.9226C54.1473 16.1572 55.3549 16.6733 56.1461 17.4533C57.1456 18.4092 57.5382 19.7874 57.5382 21.494C57.5382 25.2532 54.2543 27.3 50.3101 27.3L50.3042 27.2941Z" fill="#222222"/>
<path d="M70.8886 12.7321V27.1415H66.29V12.7321H61.6914V8.69141H75.4931V12.7321H70.8945H70.8886Z" fill="#D52623"/>
<path d="M89.0275 19.623V27.1356H84.4289V19.623L78.7773 8.68555H83.7983L86.7431 15.3184L89.6581 8.68555H94.679L89.0275 19.623Z" fill="#222222"/>
<path d="M109.4 27.1415L103.403 17.8637V27.1415H98.8047V8.68555H102.826L108.823 17.9634V8.68555H113.421V27.1356H109.4V27.1415Z" fill="#222222"/>
<path d="M119.445 27.1415V8.68555H132.17V12.7263H124.05V15.811H130.992V19.8518H124.05V23.089H132.17V27.1297H119.445V27.1415Z" fill="#222222"/>
<path d="M147.125 27.1415L143.811 20.274H142.259V27.1415H137.66V8.68555H145.073C149.225 8.68555 151.462 11.5885 151.462 14.6205C151.462 17.1365 149.885 18.714 148.41 19.4412L152.455 27.1356H147.119L147.125 27.1415ZM144.864 12.7615H142.259V16.4913H144.864C146.126 16.4913 146.863 15.5823 146.863 14.6264C146.863 13.6705 146.126 12.7615 144.864 12.7615Z" fill="#222222"/>
<path d="M168.707 25.2239C167.1 26.8542 165.316 27.3 163.263 27.3C161.003 27.3 159.426 26.6021 158.082 25.2767C156.16 23.3824 156.16 21.0248 156.16 17.9166C156.16 14.8083 156.16 12.4508 158.082 10.5565C159.42 9.23696 161.003 8.5332 163.263 8.5332C168.076 8.5332 170.122 11.618 170.575 14.65H165.946C165.577 13.2484 164.84 12.5739 163.263 12.5739C162.424 12.5739 161.794 12.9375 161.449 13.3774C161.026 13.9228 160.765 14.5444 160.765 17.9107C160.765 21.277 161.026 21.928 161.449 22.4734C161.788 22.9132 162.419 23.2534 163.263 23.2534C164.239 23.2534 164.893 22.966 165.316 22.5262C165.839 22.0101 166.024 21.2535 166.024 20.5557V20.2976H163.263V16.5149H170.598V19.0836C170.598 22.0629 170.122 23.7988 168.707 25.2239Z" fill="#222222"/>
<path d="M183.848 19.623V27.1356H179.249V19.623L173.598 8.68555H178.619L181.563 15.3184L184.478 8.68555H189.499L183.848 19.623Z" fill="#222222"/>
<path d="M85.8932 42.3256C85.3399 42.8945 84.7272 43.0704 84.0193 43.0704C83.2637 43.0704 82.7045 42.8241 82.2465 42.3784C81.5861 41.7274 81.5742 40.9885 81.5742 39.7393C81.5742 38.4901 81.5861 37.7512 82.2465 37.1002C82.7045 36.6604 83.2637 36.4082 84.0193 36.4082C85.566 36.4082 86.3453 37.3993 86.5178 38.5077H85.2091C85.0603 37.8802 84.6796 37.5518 84.0133 37.5518C83.6564 37.5518 83.3768 37.6926 83.1804 37.9037C82.9365 38.1793 82.8652 38.4901 82.8652 39.7452C82.8652 41.0002 82.9425 41.3169 83.1804 41.5925C83.3768 41.8036 83.6564 41.9327 84.0133 41.9327C84.4119 41.9327 84.7331 41.7919 84.9354 41.5632C85.1496 41.3227 85.2329 41.0295 85.2329 40.6894V40.4489H84.0133V39.3698H86.5238V40.3258C86.5238 41.2758 86.3751 41.8271 85.8872 42.3197L85.8932 42.3256Z" fill="#9A9998"/>
<path d="M102.481 43.0176L101.184 40.402H100.25V43.0176H98.9531V36.4668H101.559C102.909 36.4668 103.712 37.3758 103.712 38.4725C103.712 39.3932 103.141 39.9621 102.499 40.1908L103.98 43.0176H102.475H102.481ZM101.475 37.6104H100.256V39.3405H101.475C102.047 39.3405 102.415 38.9827 102.415 38.4784C102.415 37.974 102.041 37.6163 101.475 37.6163V37.6104Z" fill="#9A9998"/>
<path d="M120.066 42.3842C119.62 42.8241 119.06 43.0763 118.293 43.0763C117.525 43.0763 116.96 42.8299 116.508 42.3842C115.848 41.7333 115.836 40.9943 115.836 39.7452C115.836 38.496 115.848 37.7571 116.508 37.1061C116.954 36.6662 117.525 36.4141 118.293 36.4141C119.06 36.4141 119.62 36.6604 120.066 37.1061C120.726 37.7571 120.75 38.496 120.75 39.7452C120.75 40.9943 120.732 41.7333 120.066 42.3842ZM119.126 37.9037C118.941 37.6925 118.65 37.5518 118.293 37.5518C117.936 37.5518 117.65 37.6925 117.454 37.9037C117.21 38.1793 117.139 38.4901 117.139 39.7452C117.139 41.0002 117.216 41.2993 117.454 41.5749C117.65 41.786 117.942 41.9327 118.293 41.9327C118.644 41.9327 118.935 41.786 119.126 41.5749C119.37 41.2993 119.453 40.9943 119.453 39.7452C119.453 38.496 119.37 38.1793 119.126 37.9037Z" fill="#9A9998"/>
<path d="M135.508 43.0704C134.145 43.0704 133.062 42.1613 133.062 40.7714V36.4668H134.359V40.7245C134.359 41.481 134.806 41.9326 135.508 41.9326C136.21 41.9326 136.662 41.481 136.662 40.7245V36.4668H137.953V40.7714C137.953 42.1613 136.87 43.0704 135.508 43.0704Z" fill="#9A9998"/>
<path d="M153.076 40.5486H151.797V43.0117H150.5V36.4609H153.076C154.456 36.4609 155.271 37.3875 155.271 38.5018C155.271 39.6161 154.462 40.5427 153.076 40.5427V40.5486ZM153.01 37.6045H151.797V39.3991H153.01C153.599 39.3991 153.974 39.0414 153.974 38.5077C153.974 37.974 153.599 37.6045 153.01 37.6045Z" fill="#9A9998"/>
</g>
<defs>
<clipPath id="clip0_5044_11575">
<rect width="189" height="43.0697" fill="white" transform="translate(0.5)"/>
</clipPath>
</defs>
</svg>
