<svg width="114" height="52" viewBox="0 0 114 52" fill="none" xmlns="http://www.w3.org/2000/svg">
<g style="mix-blend-mode:luminosity">
<path fill-rule="evenodd" clip-rule="evenodd" d="M2.59001 19.9126C7.78394 10.2841 26.2849 2.54915 48.1222 0.880202C57.9413 0.142013 72.3478 1.04068 81.2951 2.96639C108.212 8.71142 120.761 22.6086 110.298 34.9974C104.838 41.4806 92.1378 47.2898 78.2242 49.6328C50.2073 54.3507 20.4844 49.2476 7.13944 37.4045C0.883978 31.8841 -0.670409 25.9144 2.59001 19.9126ZM110.828 24.0208C108.667 13.5899 92.062 5.27724 68.7462 2.96639C63.0215 2.38867 51.6101 2.38867 45.8095 2.96639C26.0954 4.92419 10.3999 11.7284 5.47131 20.4262C4.18231 22.737 4.10649 23.058 4.10649 26.0749C4.10649 28.9956 4.22022 29.477 5.28175 31.3706C12.5987 44.4975 42.6629 52.3288 71.855 48.702C86.4511 46.8726 97.7109 42.8286 104.8 36.8589C109.881 32.5581 111.776 28.5462 110.828 24.0208ZM17.9443 33.9701V25.9142V17.8904H20.5602H23.214L23.1761 20.6827V23.5071L26.4365 23.6034L29.697 23.6996V20.779V17.8904H32.3508H35.0046V25.9142V33.938H32.3508H29.7349L29.6211 30.6322L29.5074 27.3585L26.3986 27.2622L23.2899 27.1659L23.1761 30.4717L23.0624 33.7775L20.5223 33.8738L17.9443 33.9701ZM40.6916 23.5073C40.6916 28.7068 40.6157 29.1882 39.9333 29.7659C39.5163 30.1189 38.6822 30.4078 38.0377 30.4078C36.9004 30.4078 36.9004 30.4399 36.9004 32.173V33.9383H39.2888C41.9806 33.9383 43.8383 33.2964 45.0135 31.9163C45.6959 31.1139 45.8476 30.4078 45.9992 26.2996L46.1888 21.5816H48.0844H49.98L50.0937 27.7439L50.1695 33.9383H52.6338H55.0981V25.9145V17.8907H47.8948H40.6916V23.5073ZM59.8213 21.4984C60.1716 19.4183 60.406 18.0269 60.406 17.987C60.406 17.9229 61.6191 17.8908 63.1356 17.9549L65.8274 18.0512L67.3438 22.6087C68.2158 25.1443 68.974 27.1984 69.1257 27.1984C69.2773 27.1984 70.0356 25.1443 70.9076 22.6087L72.424 18.0512L75.1158 17.9549C76.6322 17.8908 77.8454 17.9229 77.8454 17.987C77.8454 18.0268 78.0784 19.4104 78.4271 21.4807L78.4288 21.4907L78.43 21.4979L78.4301 21.4985L78.4424 21.5713C78.6532 22.8232 78.9049 24.318 79.1723 25.9145C79.4998 27.87 79.8038 29.6661 80.038 31.0497L80.0383 31.0516C80.319 32.7099 80.4993 33.775 80.4993 33.81C80.4993 33.8741 79.3998 33.9383 78.0729 33.9383C77.8663 33.9383 77.6763 33.9408 77.5013 33.943H77.501C76.734 33.9529 76.2557 33.959 75.9284 33.7398C75.3864 33.3769 75.2581 32.3961 74.9175 29.7915L74.9174 29.7908C74.8737 29.4569 74.8265 29.0963 74.7746 28.7068C74.5092 26.8132 74.168 25.2726 74.0542 25.2726C73.9026 25.2726 73.1064 27.1984 72.3103 29.5092L70.8317 33.7779H69.1257H67.4576L66.5856 31.3707C66.1307 30.0548 65.4862 28.1291 65.145 27.1021C64.8037 26.1071 64.3867 25.2726 64.2351 25.2726C64.0834 25.2726 63.7422 26.9095 63.4768 28.8673C63.426 29.252 63.3801 29.6077 63.3377 29.9365C63.0202 32.3973 62.8968 33.3538 62.3659 33.721C62.0282 33.9544 61.5258 33.9496 60.704 33.9416C60.5417 33.94 60.3669 33.9383 60.1785 33.9383C58.8516 33.9383 57.7521 33.8741 57.7521 33.81C57.7521 33.775 57.9324 32.7101 58.213 31.0519L58.2136 31.0482L58.2152 31.0392C58.4491 29.6571 58.7524 27.865 59.0791 25.9145C59.3514 24.2887 59.6074 22.7684 59.8206 21.5027L59.8213 21.4984ZM83.153 25.9142V33.9701L85.731 33.8738L88.2711 33.7775L88.4606 30.568L88.6502 27.3585L91.2661 30.6322L93.882 33.938H97.0666C99.5309 33.938 100.175 33.8417 99.9858 33.5208C99.8921 33.4017 99.2192 32.633 98.2891 31.5706C97.7144 30.914 97.0414 30.1452 96.3463 29.3484L92.9721 25.5933L96.4221 21.9344C98.2798 19.9124 99.8342 18.1793 99.8342 18.083C99.8342 17.9867 98.5073 17.8904 96.915 17.8904H93.9578L91.3419 21.0999C89.9013 22.8652 88.6123 24.2453 88.5365 24.149C88.4227 24.0848 88.3848 22.6405 88.4227 20.9395L88.4985 17.8904H85.8447H83.153V25.9142ZM106.17 25.9143C106.17 28.2623 105.074 30.6641 102.751 33.0291C100.42 35.403 96.9483 37.6325 92.5009 39.548C83.6129 43.3761 71.1948 45.793 57.373 45.793C43.5513 45.793 31.1331 43.3761 22.2452 39.548C17.7978 37.6325 14.3259 35.403 11.9947 33.0291C9.67225 30.6641 8.57587 28.2623 8.57587 25.9143C8.57587 23.5663 9.67225 21.1645 11.9947 18.7994C14.3259 16.4256 17.7978 14.1961 22.2452 12.2806C31.1331 8.45247 43.5513 6.03559 57.373 6.03559C71.1948 6.03559 83.6129 8.45247 92.5009 12.2806C96.9483 14.1961 100.42 16.4256 102.751 18.7994C105.074 21.1645 106.17 23.5663 106.17 25.9143ZM108.17 25.9143C108.17 37.9976 85.4275 47.793 57.373 47.793C29.3185 47.793 6.57587 37.9976 6.57587 25.9143C6.57587 13.831 29.3185 4.03559 57.373 4.03559C85.4275 4.03559 108.17 13.831 108.17 25.9143Z" fill="#0E51A2"/>
</g>
</svg>
