<svg width="140" height="56" viewBox="0 0 140 56" fill="none" xmlns="http://www.w3.org/2000/svg">
<g style="mix-blend-mode:luminosity">
<path d="M136.295 26.5014C135.447 26.5006 134.579 26.1791 134.087 25.9123C124.067 20.4761 112.696 17.2628 101.656 17.2628C100.272 17.2628 99.2469 17.32 97.9574 17.4555C100.042 20.9029 103.629 25.9198 106.086 28.9943C106.727 29.793 106.915 30.2745 106.915 31.0437C106.915 32.3836 105.56 33.6822 104.121 33.6822C103.159 33.6822 102.583 33.2875 101.694 32.1976C98.7007 28.539 94.206 22.055 92.0762 18.3763C81.5976 20.3061 69.9152 26.7531 63.0127 32.4476C62.2233 33.1066 61.6747 33.3767 60.8837 33.3767C59.4164 33.3767 58.1406 32.0612 58.1406 30.5572C58.1406 29.6887 58.4485 29.0339 59.5263 28.0971C70.0614 18.9637 86.4244 11.7492 100.321 11.7492C105.829 11.7492 111.143 12.5446 116.281 13.855C119.402 14.6487 124.03 16.2638 127.972 18.0548C117.639 11.5514 104.688 5.6095 96.499 5.6095C94.4096 5.6095 93.1314 6.33835 93.1314 7.80364C93.1314 8.66632 93.5935 9.82188 94.2835 10.9825C92.6442 11.155 90.4853 11.5018 88.8515 11.9571C87.9975 10.3277 87.4045 8.5872 87.4045 6.71961C87.4045 2.55941 90.0053 0 95.2458 0C107.116 0 127.064 11.5245 137.019 19.9434C138.158 20.9079 139.28 22.103 139.28 23.5043C139.28 24.8914 138.127 26.5006 136.295 26.5014Z" fill="#D52623"/>
<path d="M17.5781 43.2936C17.5781 42.5522 18.0088 42.0918 18.6721 42.0918C19.3355 42.0918 19.7467 42.5522 19.7467 43.2936V44.5443C20.326 43.3113 21.6059 42.0918 22.7596 42.0918C23.5014 42.0918 23.8609 42.5454 23.8609 43.1472C23.8609 43.7338 23.5531 44.1765 22.598 44.4509C20.6193 45.0257 19.7516 46.1788 19.7516 48.3914V54.7937C19.7516 55.5352 19.3347 55.9964 18.6721 55.9964C18.0096 55.9964 17.5781 55.5352 17.5781 54.7937V43.2936Z" fill="#555658"/>
<path d="M66.2617 43.2936C66.2617 42.5522 66.6908 42.0918 67.3557 42.0918C68.0166 42.0918 68.4319 42.5522 68.4319 43.2936V44.5443C69.008 43.3113 70.2878 42.0918 71.4432 42.0918C72.1849 42.0918 72.5461 42.5454 72.5461 43.1472C72.5461 43.7338 72.235 44.1765 71.2824 44.4509C69.3021 45.0257 68.436 46.1788 68.436 48.3914V54.7937C68.436 55.5352 68.0174 55.9964 67.3565 55.9964C66.6924 55.9964 66.2625 55.5352 66.2625 54.7937L66.2617 43.2936Z" fill="#555658"/>
<path d="M30.0463 42.0918C32.1689 42.0918 33.5319 42.9797 33.5319 43.7767C33.5319 44.2548 33.191 44.732 32.6747 44.732C31.8796 44.732 31.5055 44.0646 30.0455 44.0646C27.5804 44.0646 26.3151 46.3614 26.3151 49.0445C26.3151 51.9524 27.7388 54.0253 30.0455 54.0253C31.6518 54.0253 32.0041 53.3335 32.7595 53.3335C33.2516 53.3335 33.5473 53.6794 33.5473 54.2088C33.5473 54.7205 33.1417 55.138 32.4097 55.4898C31.7705 55.7961 30.9246 55.9964 30.0455 55.9964C26.3515 55.9964 24.1328 53.1063 24.1328 49.0445C24.1336 45.067 26.3717 42.0918 30.0463 42.0918Z" fill="#555658"/>
<path d="M36.7081 49.9128C36.7493 52.1373 38.1333 54.0242 40.5629 54.0242C43.1161 54.0242 43.7188 52.5354 44.6407 52.5354C45.157 52.5354 45.5198 52.8998 45.5198 53.4704C45.5198 54.5696 43.1904 55.9953 40.5823 55.9953C38.6302 55.9953 37.3221 55.3498 36.3485 54.3196C35.1083 53.0092 34.5273 51.0751 34.5273 49.0443C34.5273 45.3293 36.7363 42.0898 40.3916 42.0898C43.7923 42.0898 45.9957 45.2174 45.9957 48.7101C45.9957 49.5021 45.6878 49.912 44.795 49.912L36.7081 49.9128ZM43.8238 48.2254C43.8238 46.2829 42.7622 44.0643 40.3819 44.0643C38.0428 44.0643 36.7905 45.9757 36.7081 48.2254H43.8238Z" fill="#555658"/>
<path d="M50.4469 54.7943C50.4469 55.5349 50.0259 55.9953 49.3626 55.9953C48.6992 55.9953 48.2734 55.5349 48.2734 54.7943V38.6921C48.2734 37.9515 48.6992 37.4902 49.3626 37.4902C50.0259 37.4902 50.4469 37.9515 50.4469 38.6921V54.7943Z" fill="#555658"/>
<path d="M58.3519 55.9991C54.8962 55.9991 52.6016 53.1317 52.6016 49.0439C52.6016 44.9544 54.8962 42.0869 58.3519 42.0869C61.8027 42.0869 64.1022 44.9535 64.1022 49.0439C64.1022 53.1317 61.8027 55.9991 58.3519 55.9991ZM58.3519 54.0238C60.4663 54.0238 61.9183 52.1007 61.9183 49.0447C61.9183 45.9854 60.4663 44.0639 58.3519 44.0639C56.2342 44.0639 54.7823 45.9854 54.7823 49.0447C54.7823 52.0998 56.2334 54.0238 58.3519 54.0238Z" fill="#555658"/>
<path d="M87.6144 43.0292C86.404 47.3636 84.4156 54.488 84.2532 55.0755C84.0698 55.7236 83.6917 55.9954 83.0994 55.9954C82.5048 55.9954 82.1371 55.7665 81.9424 55.0755C81.7752 54.4653 79.689 46.9992 78.494 42.7093C78.292 42.0015 78.1086 41.1649 77.9704 40.4563C77.888 41.149 77.7814 41.9595 77.6658 42.7169C77.0453 46.7702 76.083 53.0892 75.8164 54.8727C75.6984 55.6579 75.3146 55.9954 74.6836 55.9954C74.0938 55.9954 73.7148 55.5805 73.7148 54.9223C73.7148 54.6673 73.7657 54.3349 73.836 53.8997C73.836 53.8997 76.0151 40.2476 76.1889 39.2039C76.3747 38.0879 76.9306 37.4912 77.8331 37.4912C78.6394 37.4912 79.2753 37.9836 79.5314 38.9119C79.689 39.4893 81.4455 45.9017 82.5613 49.955C82.7681 50.7032 82.9734 51.5844 83.1325 52.3797C83.2796 51.5987 83.4735 50.7587 83.6739 50.0274C84.7865 45.9783 86.5777 39.4901 86.7353 38.9119C86.9906 37.9827 87.5594 37.4912 88.3641 37.4912C89.2117 37.4912 89.833 38.0694 90.0067 39.2039C90.1675 40.2501 92.3612 53.8997 92.3612 53.8997C92.4323 54.3349 92.4791 54.6673 92.4791 54.9223C92.4791 55.5805 92.1018 55.9954 91.512 55.9954C90.881 55.9954 90.4956 55.6579 90.3808 54.8727C90.1207 53.1389 89.2052 47.1254 88.5847 43.0679C88.4587 42.2397 88.3383 41.2996 88.2421 40.4395C88.083 41.1902 87.8753 42.1118 87.6144 43.0292Z" fill="#555658"/>
<path d="M96.3024 38.1055C97.0377 38.1055 97.6283 38.719 97.6283 39.4857C97.6283 40.2525 97.0385 40.866 96.3024 40.866C95.5664 40.866 94.9766 40.2525 94.9766 39.4857C94.9774 38.719 95.5672 38.1055 96.3024 38.1055ZM97.39 43.2933C97.39 42.5518 96.9658 42.0915 96.3024 42.0915C95.6391 42.0915 95.2181 42.5518 95.2181 43.2933V54.7934C95.2181 55.5349 95.6391 55.9961 96.3024 55.9961C96.9658 55.9961 97.39 55.5349 97.39 54.7934V43.2933Z" fill="#555658"/>
<path d="M101.168 39.3063C101.168 38.5649 101.589 38.1045 102.251 38.1045C102.915 38.1045 103.341 38.5649 103.341 39.3063V42.2445H104.225C104.936 42.2445 105.305 42.6072 105.305 43.2208C105.305 43.8343 104.936 44.2013 104.225 44.2013H103.341V54.7933C103.341 55.5339 102.916 55.9951 102.251 55.9951C101.59 55.9951 101.168 55.5339 101.168 54.7933V44.2021H100.379C99.67 44.2021 99.3008 43.8352 99.3008 43.2216C99.3008 42.6081 99.67 42.2453 100.379 42.2453H101.168V39.3063Z" fill="#555658"/>
<path d="M108.012 39.3063C108.012 38.5649 108.436 38.1045 109.101 38.1045C109.764 38.1045 110.185 38.5649 110.185 39.3063V42.2445H111.068C111.783 42.2445 112.147 42.6072 112.147 43.2208C112.147 43.8343 111.783 44.2013 111.068 44.2013H110.185V54.7933C110.185 55.5339 109.764 55.9951 109.101 55.9951C108.437 55.9951 108.012 55.5339 108.012 54.7933V44.2021H107.22C106.51 44.2021 106.141 43.8352 106.141 43.2216C106.141 42.6081 106.51 42.2453 107.22 42.2453H108.012V39.3063Z" fill="#555658"/>
<path d="M15.2438 53.925C14.7889 52.6558 10.5471 40.7795 9.88777 38.9464C9.55489 38.0265 9.04829 37.4912 8.20881 37.4912C7.35156 37.4912 6.89586 38.0282 6.56136 38.9464C6.25999 39.7704 1.64244 52.6592 1.1819 53.925C0.979909 54.4813 0.902344 54.7801 0.902344 55.0208C0.902344 55.5872 1.36935 55.9946 1.93412 55.9946C2.51667 55.9946 2.85117 55.6806 3.03377 55.1512C3.14446 54.8339 3.74397 53.0783 4.50912 50.8429H11.9085C12.6316 52.9537 13.2134 54.6496 13.3855 55.1512C13.5511 55.6276 13.8525 55.9946 14.4415 55.9946C15.0063 55.9946 15.5363 55.636 15.5363 55.0477C15.5371 54.7893 15.4773 54.5848 15.2438 53.925ZM5.19589 48.844C6.09678 46.2173 7.0817 43.3414 7.73777 41.4191C7.92279 40.883 8.08519 40.3755 8.20962 39.9513C8.34698 40.4083 8.51584 40.9318 8.67986 41.4149C9.33916 43.3414 10.3225 46.2106 11.2217 48.844H5.19589Z" fill="#555658"/>
<path d="M129.888 54.7943C129.888 55.5349 129.46 55.9953 128.797 55.9953C128.136 55.9953 127.711 55.5349 127.711 54.7943V38.6921C127.711 37.9515 128.135 37.4902 128.797 37.4902C129.459 37.4902 129.888 37.9515 129.888 38.6921V54.7943Z" fill="#555658"/>
<path d="M123.558 42.0913C122.896 42.0913 122.476 42.5516 122.476 43.2931V44.309C121.674 42.9363 120.368 42.0879 118.757 42.0879C115.449 42.0879 113.176 44.9545 113.176 49.0448C113.176 53.1318 115.449 56.0001 118.757 56.0001C120.367 56.0001 121.673 55.1509 122.476 53.7757V54.7949C122.476 55.5347 122.896 55.9959 123.558 55.9959C124.222 55.9959 124.646 55.5347 124.646 54.7949V43.2931C124.645 42.5516 124.222 42.0913 123.558 42.0913ZM118.926 54.0273C116.812 54.0273 115.36 52.1008 115.36 49.0448C115.36 45.9855 116.812 44.059 118.926 44.059C121.044 44.059 122.494 45.9855 122.494 49.0448C122.494 52.1 121.044 54.0273 118.926 54.0273Z" fill="#555658"/>
</g>
</svg>
