<svg width="164" height="40" viewBox="0 0 164 40" fill="none" xmlns="http://www.w3.org/2000/svg">
<g style="mix-blend-mode:luminosity">
<path d="M10.3479 0.924179C10.3479 1.02405 0.345954 37.6977 0.210793 38.1371C0.152867 38.3169 0.751437 38.3768 2.8754 38.3768H5.61723L9.18935 23.5755L12.7808 8.75427L18.7085 13.8878C24.0378 18.5219 24.6556 19.0013 24.9839 18.7616C25.177 18.6218 27.5326 16.3447 30.2165 13.708C32.9005 11.0713 35.1596 8.89409 35.2175 8.87412C35.2947 8.83417 37.0904 15.6456 39.2144 23.995L43.0568 39.1758H45.4318H47.7875L47.5172 38.217C47.3627 37.6977 45.0649 29.0885 42.4003 19.1012C39.7164 9.09384 37.4959 0.884228 37.4573 0.824306C37.3994 0.784355 34.5224 3.68069 31.0468 7.27614L24.7329 13.8079L17.6852 7.31609C11.3133 1.44352 10.3479 0.604584 10.3479 0.924179Z" fill="#0354AD"/>
<path d="M145.703 3.70069C145.703 3.84052 145.877 4.20006 146.109 4.49968C146.862 5.47845 148.735 5.09893 149.082 3.86049C149.179 3.52092 149.121 3.42105 148.85 3.42105C148.657 3.42105 148.387 3.60082 148.252 3.82054C148.097 4.08021 147.808 4.22004 147.441 4.22004C147.074 4.22004 146.784 4.08021 146.63 3.82054C146.36 3.36112 145.703 3.28123 145.703 3.70069Z" fill="#0354AD"/>
<path d="M94.6288 5.07909C94.0688 5.39868 93.702 5.83813 93.3158 6.61714C92.8524 7.55595 92.7752 7.89552 92.8331 9.01411C92.9296 10.5921 93.393 11.6508 94.3006 12.3699C94.9184 12.8493 95.1501 12.9092 96.5404 12.9092C97.892 12.9092 98.2009 12.8493 98.7609 12.4298C100.962 10.7919 100.75 6.29755 98.394 5.05911C97.2355 4.45987 95.6908 4.45987 94.6288 5.07909ZM98.1623 6.37744C99.7456 7.89552 99.2436 11.1115 97.332 11.7706C95.2467 12.4897 93.4896 10.3125 94.1461 7.79565C94.2812 7.31626 94.6288 6.69704 94.957 6.37744C95.4398 5.91803 95.7101 5.81815 96.5597 5.81815C97.4093 5.81815 97.6796 5.91803 98.1623 6.37744Z" fill="#0354AD"/>
<path d="M108.434 4.839C105.692 6.01751 105.383 10.9513 107.932 12.5093C108.84 13.0486 110.462 13.1884 111.466 12.7889C114.034 11.7902 114.478 7.09615 112.161 5.25847C111.601 4.81903 111.234 4.71915 110.191 4.6792C109.496 4.63925 108.704 4.71915 108.434 4.839ZM111.62 6.47693C113.165 8.07491 112.547 11.2509 110.597 11.7902C108.801 12.3095 107.469 11.0511 107.469 8.81397C107.469 6.8165 108.299 5.83774 110.056 5.81776C110.848 5.81776 111.079 5.91764 111.62 6.47693Z" fill="#0354AD"/>
<path d="M123.594 4.89977C122.281 5.49901 121.567 6.93719 121.586 8.85476C121.606 10.7723 122.088 11.811 123.305 12.59C124.135 13.1094 125.757 13.1493 126.722 12.6699C127.437 12.3304 128.209 11.2717 128.402 10.3529C128.518 9.8535 128.48 9.81355 127.842 9.81355C127.321 9.81355 127.167 9.89345 127.167 10.1731C127.167 10.7324 126.587 11.4315 125.873 11.7311C124.946 12.1506 123.807 11.811 123.305 10.9721C122.455 9.5339 122.59 7.51646 123.594 6.47777C124.154 5.8985 124.367 5.81861 125.216 5.81861C126.027 5.81861 126.317 5.91848 126.684 6.31797C126.954 6.57764 127.167 6.93719 127.167 7.11696C127.167 7.31671 127.36 7.41658 127.746 7.41658C128.229 7.41658 128.325 7.33668 128.325 6.93719C128.325 6.298 127.456 5.23934 126.645 4.89977C125.854 4.54022 124.347 4.5602 123.594 4.89977Z" fill="#0354AD"/>
<path d="M50.125 8.81365V12.8086H50.7043H51.2642L51.3221 9.97218L51.3801 7.13577L52.3262 9.97218L53.253 12.8086H53.8709H54.4888L55.377 10.0521L56.2652 7.31554L56.2845 10.0521L56.3038 12.8086H56.9796H57.6554V8.81365V4.8187H56.8058H55.9562L54.9522 7.91479C54.3922 9.63261 53.8709 10.9509 53.7937 10.871C53.7164 10.7911 53.2337 9.39292 52.7124 7.75499L51.7855 4.8187H50.9553H50.125V8.81365Z" fill="#0354AD"/>
<path d="M60.9571 5.25815C60.8799 5.51782 60.4744 6.61643 60.0689 7.71504C59.6828 8.81365 59.1035 10.4116 58.7946 11.2506L58.2539 12.8086H58.9104C59.5283 12.8086 59.5862 12.7686 59.8951 11.71L60.2427 10.6114H61.7295H63.2356L63.5638 11.71C63.8921 12.7487 63.9307 12.8086 64.5485 12.8086C64.8961 12.8086 65.1857 12.7487 65.1857 12.6488C65.1857 12.5689 64.5872 10.7911 63.8534 8.71378L62.5211 4.91858L61.826 4.85865C61.2468 4.79873 61.1116 4.87863 60.9571 5.25815ZM62.2701 7.85486C62.5018 8.534 62.6756 9.17319 62.6756 9.25309C62.6756 9.33299 62.2508 9.41289 61.7102 9.41289C61.1888 9.41289 60.7447 9.37294 60.7447 9.33299C60.7447 9.25309 61.1695 8.01466 61.4978 7.15575C61.6136 6.85613 61.7295 6.61643 61.7874 6.61643C61.826 6.61643 62.0577 7.17572 62.2701 7.85486Z" fill="#0354AD"/>
<path d="M65.957 8.81365V12.8086H66.6328H67.3086V9.41289V6.01719H69.2395H71.1704V5.41794V4.8187H68.5637H65.957V8.81365Z" fill="#0354AD"/>
<path d="M71.9414 8.81365V12.8086H72.5207H73.0999V11.0109V9.21314H75.0308H76.9617V11.0109V12.8086H77.5409H78.1202V8.81365V4.8187H77.5409H76.9617V6.41668V8.01466H75.0308H73.0999V6.41668V4.8187H72.5207H71.9414V8.81365Z" fill="#0354AD"/>
<path d="M79.6641 8.81365V12.8086H80.3013C80.9191 12.8086 81.0157 12.7087 82.6376 10.0121C83.5644 8.49405 84.3947 7.17572 84.4912 7.1158C84.6071 7.0359 84.6843 8.09456 84.6843 9.89228V12.8086H85.2636H85.8429V8.81365V4.8187H85.1284H84.3947L82.6569 7.75499L80.9191 10.6913L80.8612 7.75499L80.8033 4.8187H80.2433H79.6641V8.81365Z" fill="#0354AD"/>
<path d="M86.6172 5.41794V6.01719H87.8723H89.1273V9.41289V12.8086H89.8031H90.4789V9.41289V6.01719H91.734H92.9891V5.41794V4.8187H89.8031H86.6172V5.41794Z" fill="#0354AD"/>
<path d="M101.484 8.81365V12.8086H102.064H102.643V9.41289V6.01719H104.574H106.505V5.41794V4.8187H103.995H101.484V8.81365Z" fill="#0354AD"/>
<path d="M114.809 8.81365V12.8086H115.388H115.967V11.2106V9.61264H117.435C119.211 9.61264 120.061 9.25309 120.485 8.31428C120.872 7.47534 120.872 6.75625 120.505 6.01719C120.022 5.03842 119.346 4.8187 116.933 4.8187H114.809V8.81365ZM119.153 6.21693C119.539 6.5565 119.52 7.59519 119.114 8.05461C118.863 8.33425 118.516 8.41415 117.377 8.41415H115.967V7.25562C115.967 6.61643 116.025 6.01719 116.122 5.93729C116.334 5.69759 118.825 5.93729 119.153 6.21693Z" fill="#0354AD"/>
<path d="M129.484 8.81365V12.8086H130.16H130.836V11.3504C130.836 10.0521 130.894 9.83236 131.319 9.41289C131.589 9.15322 131.821 8.97345 131.859 9.03337C131.898 9.07332 132.477 9.95221 133.153 10.9509C134.35 12.7487 134.408 12.8086 135.123 12.8086C135.528 12.8086 135.856 12.7487 135.856 12.6887C135.856 12.6288 135.161 11.5702 134.312 10.3517L132.767 8.11453L134.35 6.47661L135.953 4.8187H135.084C134.254 4.8187 134.157 4.8986 132.535 6.5565L130.836 8.31428V6.5565V4.8187H130.16H129.484V8.81365Z" fill="#0354AD"/>
<path d="M136.629 8.81365V12.8086H137.285C137.942 12.8086 138 12.7287 139.757 9.87231L141.553 6.91605L141.611 9.87231L141.668 12.8086H142.228H142.808V8.79367V4.79873L142.093 4.85865C141.417 4.91858 141.34 4.99848 139.776 7.61517C138.888 9.09329 138.077 10.3917 137.981 10.4915C137.845 10.6313 137.787 9.63261 137.787 7.75499V4.8187H137.208H136.629V8.81365Z" fill="#0354AD"/>
<path d="M144.352 8.81365V12.8086H144.989C145.607 12.8086 145.703 12.6887 147.325 10.0121C148.271 8.47408 149.102 7.15575 149.198 7.09582C149.295 7.0359 149.372 8.25436 149.372 9.89228V12.8086H149.951H150.53V8.81365V4.8187H149.816H149.082L147.344 7.75499L145.607 10.6913L145.549 7.75499L145.491 4.8187H144.931H144.352V8.81365Z" fill="#0354AD"/>
<path d="M14.2298 12.949C14.1139 13.3684 12.7044 19.261 11.0632 26.0524L8.07031 38.3768H10.0398H11.99L14.307 29.1684C15.5814 24.1148 16.682 19.8802 16.7399 19.7603C16.8172 19.6405 18.5549 20.9588 20.7754 22.7965C22.9187 24.5743 24.7724 25.9725 24.8882 25.9325C25.0234 25.8726 26.626 24.4145 28.4796 22.6966C30.8546 20.4794 31.878 19.6405 31.9745 19.8203C32.0517 19.9801 33.1523 24.3945 34.4074 29.6279L36.7051 39.1758H38.6553H40.6248L40.2773 37.7176C40.0649 36.9386 38.6939 31.0261 37.1879 24.5942C35.6818 18.1624 34.4074 12.7492 34.3688 12.5495C34.2915 12.2698 33.5964 12.8491 31.2408 15.1662C27.2825 19.0413 24.9654 21.1985 24.7337 21.1985C24.5213 21.1985 21.5092 18.6018 17.1261 14.6468L14.4229 12.2099L14.2298 12.949Z" fill="#0354AD"/>
<path d="M158.832 15.8057C158.832 16.3051 159.315 17.0042 159.817 17.204C160.917 17.6834 162.308 16.9842 162.308 15.9655C162.308 15.4662 161.941 15.5261 161.419 16.1054C161.168 16.385 160.84 16.6047 160.666 16.6047C160.493 16.6047 160.145 16.385 159.875 16.1054C159.392 15.606 158.832 15.4462 158.832 15.8057Z" fill="#0354AD"/>
<path d="M137.496 16.9834C135.565 17.4828 134.542 19.2206 134.754 21.6176C134.947 23.9346 136.048 25.213 137.94 25.3528C139.465 25.4527 140.605 24.8335 141.223 23.5951C141.821 22.3766 141.783 21.9971 141.087 21.9971C140.605 21.9971 140.489 22.1169 140.296 22.6962C139.987 23.655 139.272 24.1943 138.288 24.1943C136.782 24.1943 136.048 23.1956 136.048 21.1382C136.048 19.1008 137.071 17.8823 138.616 18.082C139.388 18.1619 140.296 18.8611 140.296 19.3405C140.296 19.5002 140.527 19.6001 140.952 19.6001C141.532 19.6001 141.609 19.5602 141.512 19.1407C141.338 18.4616 140.721 17.6226 140.141 17.323C139.446 16.9635 138.21 16.8037 137.496 16.9834Z" fill="#0354AD"/>
<path d="M50.125 21.0791V25.1939H50.7043H51.2642L51.3221 22.3375L51.3801 19.5011L52.3262 22.3575L53.253 25.2139L53.8516 25.1539C54.4308 25.094 54.4502 25.0341 55.3577 22.2976L56.2652 19.5011L56.2845 22.3375L56.3038 25.1939H56.9796H57.6554L57.6168 21.139L57.5589 17.1041L56.7479 17.0442L55.9562 16.9843L54.9329 20.1802C54.1798 22.5173 53.8516 23.2963 53.7357 23.0766C53.6392 22.8968 53.1565 21.4786 52.6544 19.9206L51.7276 17.1041L50.936 17.0442L50.125 16.9843V21.0791Z" fill="#0354AD"/>
<path d="M59.0039 21.0985V25.1934H61.9002H64.7965V24.5941V23.9949H62.4795H60.1624V22.7964V21.5979H62.2864H64.4103V20.9987V20.3994H62.2864H60.1624V19.3008V18.2022H62.3829H64.6034V17.603V17.0037H61.8037H59.0039V21.0985Z" fill="#0354AD"/>
<path d="M65.3789 17.603V18.2022H66.634H67.889V21.6978V25.1934H68.5648H69.2406V21.6978V18.2022H70.4957H71.7508V17.603V17.0037H68.5648H65.3789V17.603Z" fill="#0354AD"/>
<path d="M72.5786 19.7404C72.0187 21.2585 71.3429 23.0962 71.0726 23.8353L70.5898 25.1935H71.2656C71.9028 25.1935 71.9415 25.1536 72.2504 24.0949L72.598 22.9764L74.1426 23.0363L75.668 23.0962L75.9963 24.0949C76.3245 25.0937 76.3245 25.0937 77.3093 25.2335C79.5105 25.5731 79.9353 24.9139 80.0125 21.0588L80.0897 18.1824L81.4607 18.2423L82.8509 18.3023L82.9088 21.7379L82.9474 25.1935H83.5267H84.1059V21.0987V16.9839L81.4607 17.0439L78.7961 17.1038L78.6995 20.4995C78.603 23.7554 78.5837 23.8952 78.1782 24.0949C77.9465 24.1948 77.7341 24.4545 77.6955 24.6742C77.6568 24.874 77.1741 23.7154 76.5949 22.0775C74.664 16.5445 74.8957 17.0039 74.2006 17.0039C73.5827 17.0039 73.5634 17.0039 72.5786 19.7404ZM75.0308 21.638C75.0308 21.7179 74.6061 21.7978 74.0654 21.7978C73.5441 21.7978 73.1 21.7579 73.1 21.7179C73.1 21.658 73.3317 20.9789 73.6213 20.1799L74.1426 18.7217L74.5867 20.1C74.8378 20.859 75.0308 21.5581 75.0308 21.638Z" fill="#0354AD"/>
<path d="M85.8057 20.4393C85.7478 23.8151 85.7285 23.895 85.323 24.0947C85.0141 24.2345 84.8789 24.4543 84.8789 24.8737C84.8789 25.413 84.9175 25.433 85.4968 25.3132C86.7905 25.0535 86.9063 24.7339 86.9642 21.2983L87.0222 18.2022H88.4703H89.8992V21.6977V25.1933H90.575H91.2508L91.2122 21.1385L91.1542 17.1036L88.5089 17.0436L85.8443 16.9837L85.8057 20.4393Z" fill="#0354AD"/>
<path d="M91.89 17.1431C91.9286 17.2429 92.643 18.5213 93.454 20.0194C94.2649 21.5175 94.9214 22.8758 94.9214 23.0356C94.9214 23.555 94.3229 24.2341 93.9174 24.1342C93.6085 24.0344 93.5505 24.1143 93.6085 24.6536C93.6471 25.1729 93.7629 25.3127 94.1684 25.3527C94.4967 25.3926 94.8635 25.2528 95.1725 24.9532C95.5586 24.6136 97.9336 19.6799 98.9184 17.2429C98.9956 17.0432 98.8411 16.9833 98.3005 17.0432L97.5667 17.1031L96.6785 19.2404C96.1958 20.4189 95.7517 21.3977 95.6938 21.3977C95.6359 21.3977 95.0952 20.399 94.4773 19.2005L93.3574 17.0033H92.5851C92.1603 17.0033 91.8514 17.0632 91.89 17.1431Z" fill="#0354AD"/>
<path d="M99.7092 17.1236C99.6126 17.2035 99.5547 19.0611 99.5547 21.2384V25.1934H100.23H100.906V23.4955V21.7977H102.663C104.363 21.7977 104.44 21.7777 104.961 21.1984C105.907 20.1398 105.791 18.362 104.729 17.543C104.285 17.2035 103.822 17.1236 102.026 17.0437C100.829 17.0037 99.7864 17.0237 99.7092 17.1236ZM103.957 18.5218C104.44 18.8813 104.517 19.7203 104.112 20.2996C103.899 20.6191 103.532 20.699 102.374 20.759L100.906 20.8389V19.5205V18.2022H102.219C103.088 18.2022 103.667 18.3021 103.957 18.5218Z" fill="#0354AD"/>
<path d="M106.699 21.0985V25.1934H107.278H107.858L107.896 21.7377L107.954 18.3021L109.943 18.2422L111.913 18.1822V17.603V17.0037H109.306H106.699V21.0985Z" fill="#0354AD"/>
<path d="M112.684 21.0985V25.1934H113.321C113.958 25.1934 114.035 25.0935 115.792 22.1572L117.607 19.141L117.665 22.1572L117.723 25.1934H118.283H118.862V21.0985V17.0037H118.206C117.549 17.0037 117.491 17.0836 115.734 20.0199L113.939 23.0361L113.881 20.0199L113.823 17.0037H113.263H112.684V21.0985Z" fill="#0354AD"/>
<path d="M120.349 17.1435C120.098 17.3832 120.214 20.1997 120.503 20.9188C120.986 22.0973 122.28 22.4568 124.23 21.9175L125.234 21.6379V23.4156V25.1934H125.91H126.585V21.0786V16.9837L125.968 17.0437L125.33 17.1036L125.234 18.8014C125.137 20.3795 125.118 20.4993 124.655 20.6191C123.844 20.8588 122.048 20.8189 121.797 20.5592C121.662 20.4194 121.565 19.6803 121.565 18.6616V17.0037H121.025C120.716 17.0037 120.407 17.0636 120.349 17.1435Z" fill="#0354AD"/>
<path d="M127.938 21.0985V25.1934H130.834H133.73V24.5941V23.9949H131.413H129.077L129.135 22.8363L129.193 21.6978L131.278 21.6379L133.344 21.5779V20.9987V20.3994H131.201H129.077L129.135 19.3408L129.193 18.3021L131.471 18.2422L133.73 18.1822V17.603V17.0037H130.834H127.938V21.0985Z" fill="#0354AD"/>
<path d="M142.748 17.1435C142.671 17.2034 142.613 19.0611 142.613 21.2383V25.1933H143.289H143.965V23.7352C143.965 22.4168 144.023 22.2171 144.467 21.7776L144.969 21.2982L145.278 21.7177C145.471 21.9574 146.07 22.8363 146.629 23.6752C147.614 25.1534 147.653 25.1933 148.425 25.1933C149.333 25.1933 149.41 25.413 147.421 22.5766L145.934 20.4593L147.595 18.7415L149.275 17.0037H148.406C147.576 17.0037 147.479 17.0636 145.761 18.8413L143.965 20.699V18.8413V17.0037H143.424C143.115 17.0037 142.806 17.0636 142.748 17.1435Z" fill="#0354AD"/>
<path d="M149.758 21.119V25.2139L150.472 25.1539C151.167 25.094 151.245 25.0141 152.944 22.1977L154.682 19.3213L154.739 22.2576L154.797 25.1939H155.454H156.13L156.091 21.139L156.033 17.1041L155.357 17.0442L154.682 16.9843L152.963 19.9006C152.017 21.4986 151.167 22.8568 151.071 22.9168C150.994 22.9767 150.916 21.6584 150.916 20.0204V17.0043H150.337H149.758V21.119Z" fill="#0354AD"/>
<path d="M157.48 21.0985V25.1934H158.137C158.774 25.1934 158.851 25.0935 160.589 22.2171L162.404 19.2409L162.462 22.2171L162.52 25.1934H163.08H163.659V21.0985V17.0037H163.003C162.366 17.0037 162.288 17.0836 160.551 20.0399L158.736 23.076L158.678 20.0399L158.62 17.0037H158.06H157.48V21.0985Z" fill="#0354AD"/>
<path d="M16.0249 31.0857L14.4609 38.3765L17.28 38.3565L20.0991 38.3366L21.8176 36.3391L23.536 34.3616L25.5055 36.379L27.4557 38.3965L30.3327 38.3366L33.2097 38.2766L30.1589 35.5001L27.1081 32.7237L29.4831 30.2668L31.8581 27.8099L31.2981 25.7924C30.9892 24.6938 30.7189 23.795 30.6803 23.795C30.6416 23.795 28.4404 25.6726 25.7952 27.9897C23.1499 30.3067 20.9294 32.1843 20.8714 32.1843C20.8135 32.1843 20.7749 30.9259 20.7749 29.4079V26.6314L19.2495 25.2132C18.4192 24.4341 17.7048 23.795 17.6662 23.795C17.6276 23.795 16.8938 27.0708 16.0249 31.0857Z" fill="#0354AD"/>
<path d="M58.2919 29.5682C55.5694 30.8665 55.5694 36.0999 58.2919 37.3983C60.6283 38.4769 62.9646 37.2584 63.6404 34.6018C64.0266 33.1237 63.5052 31.0463 62.5398 30.1474C61.5165 29.1687 59.6628 28.929 58.2919 29.5682ZM61.2847 30.7866C62.9839 31.8653 62.8681 35.3409 61.111 36.1998C60.3193 36.5993 58.7553 36.8789 59.1994 36.5593C59.4311 36.3795 59.4118 36.3596 59.0642 36.4395C58.8325 36.4994 58.6588 36.4395 58.6781 36.3396C58.6974 36.2197 58.6008 36.0799 58.4464 36.02C58.2533 35.9601 58.234 36.02 58.3498 36.1998C58.485 36.4395 58.4464 36.4395 58.176 36.1998C57.8285 35.9001 57.7319 35.6804 58.0409 35.8802C58.3112 36.0599 58.2919 35.98 57.8478 35.0812C56.4769 32.2847 58.8905 29.2885 61.2847 30.7866Z" fill="#0354AD"/>
<path d="M50.125 33.4833V37.5781H50.7043H51.2835V36.12C51.2835 34.8416 51.3414 34.6019 51.7276 34.2224C51.9786 33.9827 52.249 33.7829 52.3648 33.7829C52.4614 33.8029 53.0985 34.6418 53.7743 35.6805C54.9715 37.5182 55.0294 37.5781 55.7438 37.5781C56.1686 37.5781 56.4969 37.5182 56.4969 37.4583C56.4969 37.3984 55.7825 36.2997 54.9329 35.0413L53.3496 32.7442L54.9715 31.0664L56.5934 29.3885H55.7245C54.8943 29.3885 54.7977 29.4684 53.0792 31.2262L51.2835 33.0838V31.2262V29.3885H50.7043H50.125V33.4833Z" fill="#0354AD"/>
<path d="M64.7969 33.4829V37.5777H65.3761H65.9361L65.994 34.6214L66.0519 31.6851L67.0174 34.5815C67.9635 37.3979 68.0021 37.4778 68.5621 37.5377L69.1413 37.5977L70.1068 34.6414L71.0722 31.6851L71.1301 34.6214L71.1881 37.5777H71.748H72.3273V33.4829V29.388H71.497H70.6667L69.7399 32.3243C69.2186 33.9623 68.7359 35.3605 68.6586 35.4404C68.5814 35.5403 68.06 34.2219 67.5001 32.5041L66.496 29.388H65.6465H64.7969V33.4829Z" fill="#0354AD"/>
<path d="M73.6797 33.5034V37.6182L76.016 37.5383L78.3524 37.4783L79.0089 36.7393C79.5302 36.14 79.6654 35.8204 79.6654 35.2012C79.6654 33.4035 79.0475 32.9241 76.6725 32.7843L74.9348 32.6844L74.8768 31.6257L74.8189 30.5871H77.0394H79.2792V29.9878V29.3886H76.4795H73.6797V33.5034ZM78.1979 34.4222C78.6034 35.0214 78.5841 35.5008 78.14 35.9603C77.9276 36.18 77.7924 36.3797 77.8311 36.4197C77.8697 36.4397 77.2132 36.4596 76.3636 36.4197L74.8382 36.3398V35.1613V33.9828H76.3636C77.7345 33.9828 77.9469 34.0227 78.1979 34.4222ZM76.7112 36.7193C76.325 36.7593 75.7071 36.7593 75.3595 36.7193C75.0313 36.6794 75.3595 36.6394 76.0933 36.6394C76.8463 36.6394 77.1166 36.6794 76.7112 36.7193Z" fill="#0354AD"/>
<path d="M80.8242 33.4833V37.5781H81.4614C82.06 37.5781 82.1565 37.4383 83.9136 34.522L85.7479 31.4858L85.8059 34.522L85.8638 37.5781H86.4237H87.003V33.4633V29.3685L86.2886 29.4284C85.5935 29.4884 85.5162 29.5683 83.7785 32.4846L81.9827 35.4808V32.4246V29.3885H81.4035H80.8242V33.4833Z" fill="#0354AD"/>
<path d="M88.3555 33.4833V37.5781H89.0313H89.7071V35.6805V33.7829H91.5414H93.3757V35.6805V37.5781H94.0515H94.7273V33.4833V29.3885H94.0515H93.3757V30.9865V32.5844H91.5414H89.7071V30.9865V29.3885H89.0313H88.3555V33.4833Z" fill="#0354AD"/>
<path d="M96.9095 33.2436C96.1372 35.3609 95.5 37.1986 95.5 37.3384C95.5 37.4783 95.751 37.5781 96.06 37.5781C96.562 37.5781 96.6585 37.4583 97.0447 36.3796L97.4888 35.1612L98.937 35.2211L100.385 35.281L100.771 36.4196C101.119 37.5382 101.157 37.5781 101.814 37.5781C102.181 37.5781 102.451 37.4982 102.413 37.3984C102.393 37.2985 101.756 35.4608 101.003 33.3035L99.6514 29.3885H98.9756H98.2998L96.9095 33.2436ZM99.5162 32.7243L99.9217 33.9827H98.8983H97.875L98.3577 32.5844C98.628 31.8054 98.8983 31.2461 98.9756 31.326C99.0528 31.4059 99.3038 32.0451 99.5162 32.7243ZM99.5162 34.3222C99.2266 34.3622 98.7052 34.3622 98.3577 34.3222C98.0101 34.2823 98.2418 34.2423 98.879 34.2423C99.5162 34.2423 99.8058 34.2823 99.5162 34.3222Z" fill="#0354AD"/>
<path d="M101.293 29.9877V30.587H102.645H103.996V34.0825V37.5781H104.575H105.155V34.0825V30.587H106.41H107.665V29.9877V29.3885H104.479H101.293V29.9877Z" fill="#0354AD"/>
</g>
</svg>
