<svg width="146" height="50" viewBox="0 0 146 50" fill="none" xmlns="http://www.w3.org/2000/svg">
<g style="mix-blend-mode:luminosity">
<path d="M29.918 26.6615H35.7829C36.6159 26.6258 37.4502 26.6537 38.2793 26.7453C40.1233 27.0074 41.9913 27.8702 41.9913 30.2401C41.9913 32.2241 40.889 33.1524 39.5567 33.4545V33.5747C41.4831 33.9387 42.5887 35.0309 42.5887 37.1823C42.5887 40.7135 39.4091 41.6891 36.8302 41.8202C36.2019 41.8202 35.3949 41.8202 34.8524 41.8202H29.918V26.6615ZM34.0386 38.9552H35.7108C37.1256 38.9552 38.5162 38.5038 38.5162 37.0622C38.5162 35.708 37.4655 35.242 35.5082 35.242H34.0282L34.0386 38.9552ZM34.1243 32.5517H35.3674C37.0843 32.5517 38.087 32.1877 38.087 31.0191C38.087 30.0908 37.4655 29.563 35.7897 29.563H34.1141L34.1243 32.5517Z" fill="#00578D"/>
<path d="M9.58035 42.1374C3.37544 42.1374 0 37.4048 0 31.4346C0 25.4242 3.9695 20.4951 10.4903 20.4951C12.2072 20.4951 13.7181 20.7354 15.0264 21.4562V25.3332C13.7122 24.4679 12.1918 24.0194 10.6448 24.0409C6.22208 24.0409 4.49487 27.4956 4.49487 31.136C4.49487 35.1915 6.6513 38.4169 10.2465 38.4169C11.8003 38.419 13.3267 37.9829 14.6693 37.1536L15.7475 40.2189C13.9255 41.5019 11.7811 42.1729 9.59412 42.1446L9.58035 42.1374ZM79.6063 42.1374C75.0152 42.1374 72.663 38.5589 72.663 34.2923C72.663 29.5125 75.781 26.3562 79.9496 26.3562C81.7901 26.3562 82.7585 26.7457 83.5204 27.2262V30.6555C82.677 29.9452 81.6241 29.5728 80.5471 29.6034C78.195 29.6034 76.7493 31.4237 76.7493 34.0811C76.7493 36.4547 77.8515 38.77 80.4853 38.77C81.4625 38.7037 82.4131 38.4051 83.2666 37.8963L84.228 40.6921C82.833 41.5951 81.2401 42.097 79.6063 42.1483V42.1374ZM92.3111 30.084V41.8352H88.2289V30.084H84.2587V26.6583H96.789L95.7587 30.084H92.3111ZM111.942 28.4385C111.942 33.7281 111.743 36.4911 110.837 37.7543C110.368 38.3875 109.688 38.8068 108.938 38.9266L110.071 42.1446C111.328 42.0847 112.525 41.5502 113.443 40.6375C114.748 39.287 115.178 37.5759 115.372 35.7703C115.555 34.1342 115.65 32.4886 115.658 30.8411V30.084H118.848V41.8352H122.93V26.6583H111.942V28.4385ZM19.3633 35.4318C19.4491 37.4776 21.2657 38.7372 23.1645 38.7372C24.5381 38.7372 25.5991 38.4679 27.2199 37.6451L28.1264 40.3827C26.4431 41.527 24.4843 42.1324 22.4846 42.1265C17.3786 42.1265 15.2736 38.2785 15.2736 34.2813C15.2736 30.0148 17.6773 26.3453 21.9627 26.3453C25.8773 26.3453 28.6003 29.4105 28.6003 34.0994V35.4208L19.3633 35.4318ZM21.8597 29.5306C20.2149 29.5306 19.2775 31.0923 19.2775 32.4757H24.4282C24.3424 31.0196 23.5766 29.5306 21.8494 29.5306H21.8597ZM47.4863 35.4499C47.5722 37.4959 49.3886 38.7554 51.2875 38.7554C52.661 38.7554 53.7256 38.486 55.3429 37.6633L56.2494 40.4009C54.5664 41.5459 52.6074 42.1515 50.6076 42.1446C45.5049 42.1446 43.3966 38.2967 43.3966 34.2996C43.3966 30.033 45.8003 26.3634 50.0857 26.3634C53.9968 26.3634 56.7198 29.4287 56.7198 34.1175V35.439L47.4863 35.4499ZM49.9827 29.5306C48.3378 29.5306 47.3867 31.0742 47.3867 32.443H52.5374C52.4516 30.9868 51.6824 29.4978 49.9552 29.4978L49.9827 29.5306ZM104.615 40.5028C104.096 41.0442 103.479 41.4694 102.802 41.7534C102.125 42.0373 101.4 42.1741 100.673 42.1555C97.9529 42.1555 95.9097 40.2298 95.9097 37.2229C95.9097 34.0083 98.3519 32.3556 101.978 32.2355L104.381 32.1445V31.8459C104.381 30.2514 103.166 29.6217 101.751 29.6217C100.472 29.6153 99.2162 29.979 98.1179 30.6737L96.8711 28.0272C98.8289 26.6765 100.697 26.3744 102.654 26.3744C106.432 26.3744 108.44 27.9653 108.44 31.966V41.8352H105.264L104.615 40.5028ZM102.554 35.0422C100.797 35.1041 99.9794 35.7339 99.9794 36.8625C99.9794 37.9909 100.742 38.7554 102.129 38.7554C102.919 38.7949 103.699 38.5513 104.344 38.0638V34.9912L102.554 35.0422ZM62.1178 41.504V47.9074L58.0315 49.2289V26.6583H61.4653L61.9186 28.0381C62.966 27.168 64.1884 26.3562 65.7748 26.3562C69.0644 26.3562 71.6432 28.9992 71.6432 33.8117C71.6432 38.3186 69.0919 42.1374 64.8683 42.1374C63.9178 42.1642 62.9754 41.9468 62.1213 41.504H62.1178ZM62.1178 31.2234V38.4096C62.6306 38.7917 63.2422 38.9965 63.869 38.9957C66.647 38.9957 67.5535 36.32 67.5535 33.7353C67.5604 30.6227 66.6161 29.5306 64.9507 29.5306C63.8759 29.5306 62.602 30.4626 62.1178 31.2416V31.2234Z" fill="#00578D"/>
<path d="M128.712 31.5985V26.0068L124.629 27.3465V41.8609H129.845C133.643 41.8609 137.187 40.7687 137.187 36.6004C137.187 33.0547 134.326 31.6131 130.81 31.6131L128.712 31.5985ZM128.712 38.843V34.6055H130.086C131.534 34.6055 133.121 34.8458 133.121 36.6478C133.121 38.4498 131.747 38.832 130.144 38.832L128.712 38.843Z" fill="#00578D"/>
<path d="M143.371 16.7381C143.638 16.6406 143.89 16.502 144.119 16.3267C144.524 15.214 144.868 14.0775 145.149 12.923C145.517 11.4445 145.773 9.9375 145.915 8.41614C146.027 7.20553 146.027 5.98633 145.915 4.77573C145.806 3.65448 145.531 2.51503 144.886 1.8634C144.239 1.21177 143.189 0.916894 142.159 0.818603C141.014 0.7348 139.864 0.762828 138.725 0.902332C138.976 1.02273 139.207 1.18361 139.411 1.37923C140.044 1.99081 140.336 3.03561 140.462 4.05856C140.563 4.8718 140.598 5.69261 140.569 6.51221C140.502 8.19031 140.262 9.85555 139.851 11.4777C139.542 12.7711 139.132 14.035 138.625 15.2564C139.272 15.6824 139.95 16.0536 140.652 16.3668C141.562 16.76 142.56 17.0111 143.371 16.7381Z" fill="#06587E"/>
<path d="M128.48 13.6405C128.424 13.9364 128.411 14.2397 128.442 14.5397C129.149 15.4552 129.903 16.3278 130.702 17.1535C131.732 18.2362 132.842 19.2295 134.022 20.1241C134.956 20.8245 135.948 21.4337 136.986 21.9443C137.95 22.4139 139.021 22.716 139.873 22.4685C140.725 22.221 141.488 21.3764 142.095 20.4408C142.746 19.436 143.302 18.3654 143.754 17.2445C143.522 17.4274 143.265 17.57 142.992 17.6668C142.181 17.9434 141.181 17.6886 140.282 17.3028C139.567 16.985 138.879 16.6065 138.222 16.1706C136.888 15.2684 135.65 14.2149 134.53 13.0289C133.628 12.098 132.801 11.0899 132.055 10.0146C131.385 10.3984 130.746 10.8379 130.142 11.3289C129.37 11.9659 128.662 12.7596 128.48 13.6405Z" fill="#BDBEC1"/>
<path d="M138.446 1.49971C138.24 1.31125 138.009 1.15663 137.759 1.04102C136.641 1.22442 135.535 1.47849 134.446 1.80186C133.057 2.19427 131.7 2.70185 130.387 3.31991C129.345 3.82398 128.351 4.43354 127.419 5.14011C126.551 5.80267 125.744 6.63632 125.524 7.55007C125.305 8.46381 125.623 9.59966 126.08 10.6299C126.576 11.7205 127.169 12.758 127.852 13.7279C127.819 13.4243 127.833 13.117 127.89 12.8177C128.072 11.9331 128.78 11.1395 129.549 10.5097C130.169 10.0115 130.827 9.56833 131.517 9.18461C132.92 8.40712 134.402 7.79667 135.932 7.36441C137.135 7.00173 138.364 6.74481 139.606 6.59628C139.634 5.78516 139.599 4.973 139.5 4.16812C139.373 3.14517 139.07 2.10037 138.446 1.49971Z" fill="#D52623"/>
</g>
</svg>
