<svg width="89" height="74" viewBox="0 0 89 74" fill="none" xmlns="http://www.w3.org/2000/svg">
<g style="mix-blend-mode:luminosity">
<path d="M66.8526 1.05479C66.227 1.3837 65.8516 1.73316 65.8516 1.97984C65.8516 2.53487 66.1018 2.43209 67.1029 1.42481C67.6034 0.910891 67.9788 0.499756 67.9371 0.499756C67.8745 0.499756 67.3949 0.746437 66.8526 1.05479Z" fill="#024EA4"/>
<path d="M64.3705 2.41176C63.8491 2.76122 63.6405 3.04902 63.5988 3.54238C63.5571 3.9124 63.6197 4.2002 63.7448 4.2002C64.2036 4.2002 65.4341 2.90512 65.4341 2.43232C65.4341 1.81561 65.2672 1.81561 64.3705 2.41176Z" fill="#024EA4"/>
<path d="M28.5395 3.80953C28.9566 4.22066 28.9775 4.40567 28.8524 5.78297C28.6438 8.31145 29.2486 9.21595 31.2507 9.27762C31.9181 9.27762 32.6481 9.35984 32.8775 9.44207C33.3154 9.56541 33.6491 10.3671 33.5657 11.0044C33.5031 11.3127 33.6491 11.3127 35.0673 11.0249C36.7566 10.696 36.7983 10.6549 35.9641 9.46263C35.3384 8.57869 34.0871 8.10588 32.3352 8.10588C30.5625 8.10588 29.9786 7.73586 29.9786 6.60524V5.94743L30.3748 6.58469C30.9171 7.44807 31.7721 7.71531 33.2529 7.48918C35.4427 7.13972 36.9652 7.94143 37.5074 9.72986L37.7785 10.6138L38.8839 10.5316C39.4887 10.4699 40.0518 10.3671 40.1352 10.3055C40.3646 10.0588 39.5095 8.51702 38.8004 7.90032C37.9662 7.16027 37.132 6.72858 36.0892 6.46135C35.3384 6.27634 35.3384 6.27634 36.3812 6.35856C37.9454 6.4819 39.4261 7.18083 40.448 8.29089C40.9486 8.82537 41.4491 9.42151 41.5534 9.62708C41.7619 9.97655 41.8036 9.97655 42.5544 9.54485L43.3261 9.09261L42.909 8.51702C41.6785 6.81081 39.0507 5.31017 36.9652 5.1046C36.0267 5.02237 35.3176 5.1046 34.1497 5.43351C31.7096 6.11188 31.647 6.11188 31.3133 4.98126C30.9379 3.78897 30.3957 3.37784 29.1026 3.37784H28.1016L28.5395 3.80953Z" fill="#024EA4"/>
<path d="M62.4118 3.62455C61.3273 4.20014 60.8477 4.87851 60.8477 5.783V6.6875L61.4316 6.37915C62.3284 5.9269 62.8706 5.18686 63.0166 4.24125C63.1626 3.33675 63.0792 3.25453 62.4118 3.62455Z" fill="#024EA4"/>
<path d="M59.4899 5.6807C59.2605 5.80404 58.8226 6.13295 58.5097 6.42074C58.0092 6.87299 57.9258 7.09911 57.9258 8.1475V9.36035L58.5306 9.052C59.6359 8.47641 60.2199 7.57192 60.2199 6.4413C60.2199 5.37235 60.1573 5.31068 59.4899 5.6807Z" fill="#024EA4"/>
<path d="M23.326 7.50964C22.8047 7.73576 21.9079 8.37302 21.3031 8.92805C20.0517 10.0792 19.5929 10.182 17.7993 9.62698C16.9443 9.35975 16.6106 9.35975 16.11 9.54476L15.4844 9.79144L16.2769 10.0587C17.2154 10.3876 17.9453 11.0043 18.5501 12.0116C18.8004 12.4021 19.1341 12.8544 19.3009 12.9777C19.7806 13.3683 21.0528 13.3066 22.0747 12.8338C23.618 12.1555 24.8902 12.4021 25.7453 13.5739L26.1624 14.1289L27.1843 13.5533C27.7474 13.2244 28.248 12.9366 28.2897 12.9161C28.4774 12.7516 25.7244 9.997 25.2865 9.91478C24.6608 9.79144 23.5137 10.182 22.7838 10.737C22.0956 11.2715 21.0111 11.4976 20.2394 11.2715C19.6972 11.1276 19.7389 11.1071 20.6565 10.9632C21.2196 10.8809 22.0539 10.552 22.5127 10.2231C25.0988 8.43469 25.641 8.49636 27.8934 10.8398L29.4993 12.5049L30.834 12.1143C32.8153 11.5388 32.9404 11.4771 32.857 10.7165C32.7945 10.0792 32.7736 10.0587 31.8768 10.1203C30.5421 10.2231 29.3741 9.70921 28.4357 8.59915C27.9768 8.08523 27.3095 7.5302 26.9341 7.36574C25.9538 6.95461 24.3897 7.01628 23.326 7.50964Z" fill="#024EA4"/>
<path d="M56.1516 7.8803C55.7971 8.08587 55.2548 8.55868 54.942 8.90814C54.4623 9.48373 54.3789 9.77152 54.3789 10.9021C54.3789 11.6216 54.4623 12.2178 54.5458 12.2178C54.8586 12.2178 56.4436 11.0049 56.7564 10.5321C56.9233 10.2649 57.1318 9.48373 57.2153 8.76424C57.3612 7.32527 57.2361 7.22249 56.1516 7.8803Z" fill="#024EA4"/>
<path d="M48.3329 8.20916C48.0409 8.37362 46.9773 8.78475 45.9345 9.13422C43.1816 10.0593 41.68 10.9227 40.8875 12.0944C40.5121 12.6494 40.1992 13.1633 40.1992 13.2661C40.1992 13.3689 40.7206 13.04 41.3463 12.5261C41.9928 12.0122 42.8687 11.416 43.2858 11.2104C44.266 10.7171 46.4559 10.0798 46.6019 10.2443C46.6853 10.3059 46.2056 10.9021 45.5799 11.5394C44.3703 12.8139 44.0158 13.3483 43.7238 14.3556C43.5778 14.8901 43.9324 14.6023 45.9136 12.6083C48.2286 10.2648 49.5425 8.53807 49.2714 8.10638C49.1045 7.83914 48.9585 7.8597 48.3329 8.20916Z" fill="#024EA4"/>
<path d="M52.816 10.3471C52.4823 10.5527 51.9192 11.0049 51.5855 11.3544C51.0015 11.9711 51.0015 12.0122 51.1475 13.5334C51.2309 14.3968 51.3769 15.0957 51.4812 15.0957C51.794 15.0957 53.1288 13.8212 53.4625 13.225C53.7545 12.6289 53.8796 9.95652 53.6085 9.95652C53.5042 9.95652 53.1705 10.121 52.816 10.3471Z" fill="#024EA4"/>
<path d="M35.5884 11.806C24.6601 13.7178 17.8195 20.337 16.0885 30.6771C15.8382 32.1777 15.7756 33.5139 15.8591 36.1657C15.9842 40.0509 16.4639 42.6205 17.6735 45.6629C18.3826 47.4925 18.5077 47.5542 19.4045 46.588C19.759 46.1974 19.759 46.1357 19.4462 45.3957C18.9874 44.3062 17.9655 40.421 17.6526 38.5298C17.2772 36.3096 17.3398 31.7871 17.7778 29.7931C18.5494 26.2574 19.8216 23.5439 21.9489 20.8921C25.4526 16.5957 31.2921 13.5944 37.5905 12.8338C38.6124 12.7105 39.4675 12.5872 39.4675 12.5666C39.4884 12.546 39.6552 12.2788 39.8429 11.9499L40.1974 11.3949L39.0087 11.4154C38.3413 11.4154 36.8189 11.6004 35.5884 11.806Z" fill="#024EA4"/>
<path d="M49.062 12.8758C48.6032 13.1019 47.915 13.5336 47.5396 13.8214C46.9139 14.2942 46.8305 14.3147 46.476 13.9858C45.9963 13.5541 45.7669 13.5747 45.454 14.0886C45.2038 14.4792 45.2246 14.5614 45.6626 14.8287C46.6637 15.4865 49.1455 18.2205 49.6668 19.2484C50.084 20.0501 50.2091 20.6257 50.2091 21.6124C50.2091 22.8869 50.2299 22.9075 51.669 24.7781C53.4417 27.0599 54.9016 29.3212 55.277 30.4107C55.4438 30.8629 55.8818 31.6852 56.2572 32.2197C57.0706 33.4325 57.008 33.9053 55.7775 35.1593L54.9016 36.0638L53.3583 34.7276C51.7733 33.3708 51.1893 33.1242 50.9599 33.7409C50.793 34.1314 50.7096 34.0286 53.2123 36.0843L55.0684 37.585L55.7775 36.7832C58.4053 33.8025 58.5513 33.4119 57.446 31.8291C57.0497 31.2535 56.424 30.1845 56.0486 29.4651C55.2353 27.8822 53.4 25.0865 52.1695 23.5036C51.2727 22.3935 51.2519 22.3319 51.2519 20.8723C51.2519 19.3717 51.0225 18.6933 50.1465 17.5216C49.7503 16.9871 49.7503 16.9254 50.0631 16.576C50.4385 16.1854 50.5428 14.3559 50.2925 13.0608C50.1257 12.3207 50.1465 12.3207 49.062 12.8758Z" fill="#024EA4"/>
<path d="M22.0543 13.5324C21.0949 14.0463 20.2398 14.108 19.4682 13.7585C18.5714 13.3268 17.1324 13.5118 16.1522 14.1491C15.7976 14.3958 15.1719 15.0536 14.8174 15.6086C14.442 16.1637 13.9206 16.7392 13.6703 16.8831C12.6067 17.4587 11.5222 17.0682 10.7714 15.8347L10.3752 15.1975V16.0198C10.3752 16.472 10.1875 17.3559 9.95806 17.9726C9.35325 19.6789 9.41582 20.5011 10.1875 21.1384C11.1677 21.9607 12.2313 21.8784 14.0249 20.83C16.6944 19.2883 17.4869 19.1238 18.634 19.8022L19.2805 20.1928L20.3441 18.8771L21.4077 17.5615L20.9489 17.2737C19.635 16.4514 18.3211 16.6776 15.9227 18.1577C13.6912 19.5555 12.565 19.7405 12.0436 18.8155C11.8768 18.4866 11.9393 18.4455 12.857 18.5482C14.0249 18.651 14.1709 18.5893 16.1104 17.0682C16.9029 16.4309 17.8623 15.8553 18.2377 15.7936C19.2596 15.6086 20.6778 15.8759 21.4703 16.4103L22.1585 16.8626L23.8687 15.5881L25.5788 14.293L24.9532 13.7791C24.2232 13.1829 22.9302 13.0596 22.0543 13.5324Z" fill="#024EA4"/>
<path d="M37.6569 18.3431C36.6767 19.3504 35.4254 21.5088 34.9457 22.9273C34.4035 24.6129 34.5077 25.1063 35.8842 27.1208C37.7612 29.8343 39.6173 31.335 41.1189 31.335C41.9323 31.335 44.7687 30.2249 44.5392 29.9782C44.4767 29.9371 43.7259 29.9577 42.8917 30.0604C41.7655 30.2043 41.1815 30.1838 40.7227 29.9988C39.9927 29.711 37.8029 27.4703 36.7601 25.9285C35.6339 24.284 35.8008 22.9478 37.5735 19.4326C37.9906 18.5898 38.3034 17.8909 38.2617 17.8497C38.22 17.8086 37.9489 18.0348 37.6569 18.3431Z" fill="#024EA4"/>
<path d="M33.5264 20.2756C31.7119 21.3034 29.1676 23.9552 28.2708 25.7848C27.082 28.1694 26.7692 29.6083 26.79 32.5685C26.79 34.5214 26.9152 35.5287 27.2488 36.7621C27.4783 37.6666 27.7285 38.4477 27.7911 38.5094C27.8537 38.5711 28.1873 38.345 28.521 37.9955L29.1467 37.3788L28.7087 35.7548C27.2697 30.3484 29.0633 24.7775 33.5681 20.769C34.2772 20.1317 34.8194 19.6178 34.7568 19.6178C34.7151 19.6178 34.152 19.9261 33.5264 20.2756Z" fill="#024EA4"/>
<path d="M44.556 20.6462C45.2025 21.0574 46.0993 21.818 46.5372 22.3113L47.3297 23.2158L47.2046 22.5374C47.142 22.188 47.1837 21.8796 47.288 21.8796C47.3923 21.8796 47.5383 21.6946 47.6009 21.4479C47.726 21.0574 47.7677 21.0574 48.2474 21.3657C48.8313 21.7357 48.873 21.633 48.4142 20.9546C47.9345 20.2145 46.6832 19.824 44.9105 19.8651L43.3672 19.8856L44.556 20.6462ZM46.7666 20.8724C46.996 21.2218 46.8083 21.2424 46.3704 20.934C46.0158 20.6873 46.0158 20.6462 46.287 20.6462C46.4747 20.6462 46.7041 20.749 46.7666 20.8724Z" fill="#024EA4"/>
<path d="M14.9238 21.2832C12.9425 22.4138 12.004 22.6605 11.0238 22.3316C9.56394 21.8177 8.16663 22.8455 7.58267 24.8601C7.06128 26.6074 6.10193 26.8335 4.55862 25.559C3.5367 24.7367 3.11959 24.7779 3.76611 25.6207C4.05809 25.9907 4.43349 26.7513 4.62119 27.3269C5.01744 28.5192 5.28856 28.9098 5.93509 29.2387C7.01957 29.8142 9.35539 29.2798 10.273 28.2519C10.8153 27.6352 12.6089 26.813 13.4014 26.813C13.7559 26.813 14.4024 26.998 14.8612 27.2241C15.2992 27.4502 15.6955 27.6147 15.7163 27.5736C15.758 27.5119 16.4254 25.2301 16.4254 25.0862C16.4254 24.9217 14.9238 24.5517 14.173 24.5517C13.1719 24.5517 12.2126 25.004 10.3565 26.3813C8.62545 27.6763 7.5201 28.1286 6.76931 27.8614C6.41476 27.7175 6.49818 27.6558 7.29069 27.4708C8.02064 27.2858 8.66716 26.8541 10.0436 25.6001C11.3575 24.4284 12.1083 23.9145 12.7757 23.7295C13.6516 23.4828 15.1741 23.5239 16.4463 23.8322C16.9468 23.9556 17.0511 23.8528 17.8644 22.3727C18.6987 20.8721 18.7195 20.7487 18.3858 20.5021C17.6976 20.0087 16.78 20.2143 14.9238 21.2832Z" fill="#024EA4"/>
<path d="M49.4783 25.4146C51.7724 28.3954 52.2938 29.0943 52.7943 29.9371C53.1071 30.4921 53.3991 30.9238 53.4408 30.9238C53.4825 30.9238 53.42 30.5744 53.2948 30.1427C52.7526 28.2309 51.2301 26.1341 49.7703 25.2913L49.082 24.8802L49.4783 25.4146Z" fill="#024EA4"/>
<path d="M11.8983 28.0455C11.3978 28.251 10.647 28.7238 10.209 29.0733C9.68762 29.4639 8.95768 29.7928 8.16517 29.9572C7.49779 30.1011 6.70528 30.3273 6.45502 30.4917C5.72507 30.8823 5.16197 32.2596 5.16197 33.6986C5.16197 35.4048 4.82829 36.4326 4.01492 37.2343C3.28498 37.9538 2.72188 38.0772 1.97108 37.666C1.53311 37.4399 1.53311 37.4604 1.84595 37.9333C2.993 39.6806 5.78764 39.3722 7.45608 37.296C8.97853 35.4048 10.5427 35.1581 12.5657 36.4737C13.2539 36.926 14.0047 37.296 14.2341 37.296C14.6304 37.296 14.6512 37.1727 14.6095 34.9936L14.547 32.6707L13.7753 32.4035C13.2748 32.239 12.3363 32.1568 11.2935 32.1979C9.16623 32.2802 8.43629 32.753 7.33095 34.8497C6.91384 35.6309 6.39245 36.3709 6.18389 36.4737C5.85021 36.6587 5.85021 36.6176 6.22561 35.6926C6.43416 35.1581 6.70528 34.3358 6.83042 33.8836C7.12239 32.7118 8.33201 31.6635 9.89618 31.2112C10.939 30.9029 11.2935 30.9029 12.5657 31.1084C15.0058 31.5401 14.7972 31.6223 15.0892 29.9984C15.3395 28.5799 15.3395 28.5594 14.8389 28.0866C14.1924 27.511 13.1079 27.4904 11.8983 28.0455Z" fill="#024EA4"/>
<path d="M35.3595 29.4227C34.9632 30.3066 35.0258 33.9452 35.4429 34.8702C35.7558 35.5691 35.8809 35.6514 36.5483 35.6514H37.2991L36.882 35.0758C36.2771 34.2535 35.8392 32.4651 35.7766 30.5739C35.7349 29.6282 35.6932 28.8676 35.6515 28.8676C35.6306 28.8676 35.4846 29.1143 35.3595 29.4227Z" fill="#024EA4"/>
<path d="M43.2866 31.4785C42.8487 31.5812 42.8487 31.6429 43.1198 32.1774C43.5369 32.9174 45.393 34.1714 46.9155 34.7264C48.8134 35.4459 49.6267 36.0215 50.3358 37.2138C50.6278 37.7071 51.0449 38.2211 51.2534 38.3238C51.8791 38.6527 52.7759 38.55 53.3181 38.0977C53.777 37.7277 53.7978 37.666 53.5058 37.3782C53.2556 37.111 53.0887 37.0904 52.755 37.2754C52.1919 37.5632 51.7123 37.3782 51.3577 36.6999C50.878 35.7748 49.7518 34.8086 48.5422 34.2742C47.9166 34.0069 46.9572 33.5752 46.415 33.3491C45.8727 33.123 45.0802 32.568 44.6631 32.1363C44.2251 31.684 43.808 31.3551 43.7455 31.3551C43.6829 31.3757 43.4743 31.4168 43.2866 31.4785Z" fill="#024EA4"/>
<path d="M54.7354 32.3221C54.2766 32.8155 54.2974 33.1238 54.798 33.3911C55.1317 33.5761 55.1942 33.5555 55.0899 33.2472C54.9857 32.9183 55.0065 32.9183 55.2985 33.2677C55.5279 33.535 55.5488 33.7816 55.4028 34.1517C55.1108 34.9123 55.1734 34.9945 55.6322 34.4189C56.1327 33.8022 56.1536 33.021 55.7156 32.4043C55.3402 31.8493 55.1734 31.8493 54.7354 32.3221Z" fill="#024EA4"/>
<path d="M8.18613 37.7903C7.22678 38.7565 6.64283 39.1882 5.97545 39.3732C5.47492 39.5171 4.87011 39.8049 4.6407 40.0104C4.03589 40.5655 4.09845 41.7783 4.80754 42.8062C5.80861 44.3068 5.66262 44.5124 3.05568 45.3963C2.09632 45.7252 1.59579 46.0336 1.13697 46.5886C0.782425 47.0203 0.553014 47.4109 0.594725 47.4725C0.657292 47.5136 1.15782 47.3286 1.72092 47.0614C3.01397 46.4036 3.28509 46.4241 4.93267 47.2053C6.07973 47.7603 6.62197 47.8837 8.31127 47.9865C11.4396 48.1715 12.1487 48.8498 12.1487 51.6044V53.2695L14.7139 50.9055C16.1112 49.6104 17.2583 48.4593 17.2583 48.377C17.2583 48.2948 17.154 47.9659 17.008 47.6781C16.8203 47.2464 16.6326 47.1642 15.8818 47.1642C15.3813 47.1642 14.5054 47.3492 13.9214 47.5548C12.8995 47.9453 12.8995 47.9453 13.108 47.5548C13.4 46.9997 14.0674 46.6092 15.2353 46.3214C16.1529 46.0952 16.2364 46.0336 16.1738 45.5402C16.0904 44.8207 14.5262 44.0396 13.108 44.019C12.2738 43.9984 11.8359 44.1629 10.6679 44.8413C8.97864 45.8486 7.89416 46.1775 7.10165 45.9308C6.76796 45.828 6.66368 45.7458 6.83053 45.7458C7.72731 45.6841 8.8118 45.2113 9.66688 44.4713C10.1883 44.0396 10.8765 43.5256 11.2102 43.3612C11.9818 42.9706 13.4209 42.9706 14.5471 43.3612C15.0267 43.5256 15.4856 43.6695 15.5273 43.6695C15.6316 43.6695 15.4647 42.4567 15.2562 41.7989C15.131 41.3466 12.8995 40.3805 12.0236 40.3805C11.6273 40.3805 10.6679 40.7094 9.87543 41.0999C8.4364 41.8194 7.53961 41.9633 6.72625 41.6139C6.35085 41.4494 6.3717 41.4289 6.89309 41.4289C7.66475 41.4083 8.64496 40.9766 9.95885 40.0927C11.2936 39.1882 12.2738 39.1265 13.9005 39.8665L15.0267 40.3805L14.8808 39.7432C14.8182 39.3937 14.7556 38.9415 14.7556 38.7359C14.7556 38.5098 14.4845 38.3042 13.9423 38.1398C13.4834 38.0164 12.6492 37.5847 12.0653 37.1942C10.4177 36.0636 9.81287 36.1663 8.18613 37.7903Z" fill="#024EA4"/>
<path d="M23.7232 45.7872L14.6719 54.2565L17.5291 54.3182L20.3863 54.3799L27.1226 48.3156L33.8381 42.272L33.9007 48.3156L33.9424 54.3593H36.1322H38.322V45.8283V37.2972H35.5691L32.7953 37.3178L23.7232 45.7872Z" fill="#024EA4"/>
<path d="M41.1772 37.4402C41.0938 37.5019 41.0312 41.346 41.0312 45.9713V54.3584H43.2211H45.4109L45.4526 48.4997L45.5152 42.6411L49.2692 47.3486C51.3339 49.9593 53.0857 52.0766 53.1483 52.0972C53.2109 52.0972 55.0044 49.9593 57.1109 47.3486L60.9483 42.5794L61.0108 48.4792L61.0525 54.3584H63.1381H65.2237V45.8274V37.2963H62.9504H60.6771L57.0691 41.7571C55.0879 44.2239 53.4194 46.3002 53.336 46.4029C53.2734 46.4852 51.5424 44.4706 49.4777 41.9216L45.7655 37.2963H43.5339C42.3034 37.2963 41.2398 37.358 41.1772 37.4402Z" fill="#024EA4"/>
<path d="M68.1445 45.8274V54.3584H70.3344H72.5242V51.8299V49.3014L73.9424 48.2942C74.714 47.7391 75.6317 47.0813 75.9862 46.8141L76.6327 46.3413L80.3242 50.3498L84.0156 54.3584H86.5182C87.8739 54.3584 89.0001 54.3173 89.0001 54.2351C89.0001 54.1734 86.9354 51.9121 84.4118 49.1781C81.8883 46.4646 79.8236 44.1623 79.8236 44.1006C79.8236 44.0184 81.8466 42.4766 84.3284 40.6676L88.8124 37.3991L85.8926 37.3374L82.9728 37.2758L77.8006 41.0788L72.6285 44.8612L72.5659 41.0788L72.5242 37.2963H70.3344H68.1445V45.8274Z" fill="#024EA4"/>
<path d="M14.9629 59.1691C14.9629 59.8886 14.8586 60.3614 14.65 60.5259C14.1704 60.9165 14.2746 61.1837 14.9212 61.1015C15.4634 61.0398 15.4843 60.9781 15.5468 59.8475L15.6094 58.6758H16.527H17.4655V59.9092C17.4655 60.9987 17.5072 61.1426 17.8826 61.1426C18.258 61.1426 18.2997 60.9987 18.2997 59.6008V58.0591H16.6313H14.9629V59.1691Z" fill="#024EA4"/>
<path d="M19.3438 59.6008V61.1631L20.9705 61.1014L22.5764 61.0397V60.2175V59.3952L21.3876 59.3335C20.1988 59.2719 20.178 59.2513 20.178 58.6757C20.178 58.2029 20.0737 58.059 19.7609 58.059C19.3855 58.059 19.3438 58.2029 19.3438 59.6008ZM21.8464 60.2175C21.8464 60.4436 21.617 60.5258 21.0122 60.5258C20.4074 60.5258 20.178 60.4436 20.178 60.2175C20.178 59.9914 20.4074 59.9091 21.0122 59.9091C21.617 59.9091 21.8464 59.9914 21.8464 60.2175Z" fill="#024EA4"/>
<path d="M23.5156 59.6008C23.5156 60.9987 23.5573 61.1426 23.9327 61.1426C24.3081 61.1426 24.3498 60.9987 24.3498 59.6008C24.3498 58.203 24.3081 58.0591 23.9327 58.0591C23.5573 58.0591 23.5156 58.203 23.5156 59.6008Z" fill="#024EA4"/>
<path d="M25.4736 58.3461C25.411 58.49 25.3901 59.1684 25.4319 59.8262L25.4944 61.0391H27.2671C28.9564 61.0391 29.0399 61.0185 29.1024 60.5663C29.165 60.2168 29.0607 60.114 28.7479 60.114C28.4976 60.114 28.3099 60.1962 28.3099 60.3196C28.3099 60.4224 27.8511 60.5251 27.2671 60.5251C26.3495 60.5251 26.2244 60.4635 26.0992 60.0318C25.849 59.0039 26.0367 58.7778 27.2254 58.7162C27.8928 58.675 28.3099 58.7367 28.3099 58.86C28.3099 58.9834 28.4976 59.0862 28.727 59.0862C29.1858 59.0862 29.2693 58.675 28.8939 58.305C28.5393 57.9556 25.6196 57.9761 25.4736 58.3461Z" fill="#024EA4"/>
<path d="M30.1875 59.6008V61.1426H31.7517C33.2533 61.1426 33.3158 61.122 33.441 60.5875C33.6704 59.7447 33.295 59.4158 32.0436 59.2925C31.0009 59.1897 30.9174 59.1486 30.8549 58.6141C30.8132 58.3057 30.6672 58.0591 30.4795 58.0591C30.2501 58.0591 30.1875 58.4085 30.1875 59.6008ZM32.6902 60.2175C32.6902 60.4436 32.4399 60.5259 31.7517 60.5259C31.0634 60.5259 30.8132 60.4436 30.8132 60.2175C30.8132 59.9914 31.0634 59.9092 31.7517 59.9092C32.4399 59.9092 32.6902 59.9914 32.6902 60.2175Z" fill="#024EA4"/>
<path d="M34.3594 59.6008V61.1631L36.0487 61.1014C37.884 61.0397 38.3428 60.7725 38.0091 59.9914C37.9048 59.7652 37.8214 59.2719 37.8214 58.8813L37.8005 58.1618L36.0904 58.1001L34.3594 58.0385V59.6008ZM37.0706 58.9841C37.0706 59.2102 36.8203 59.2924 36.1321 59.2924C35.4439 59.2924 35.1936 59.2102 35.1936 58.9841C35.1936 58.7579 35.4439 58.6757 36.1321 58.6757C36.8203 58.6757 37.0706 58.7579 37.0706 58.9841ZM37.2791 60.2175C37.2791 60.4436 37.0289 60.5258 36.2364 60.5258C35.4439 60.5258 35.1936 60.4436 35.1936 60.2175C35.1936 59.9914 35.4439 59.9091 36.2364 59.9091C37.0289 59.9091 37.2791 59.9914 37.2791 60.2175Z" fill="#024EA4"/>
<path d="M39.1562 59.6008V61.1426H40.8247C42.1594 61.1426 42.4931 61.0809 42.4931 60.8342C42.4931 60.5875 42.222 60.5259 41.2418 60.5259C40.2616 60.5259 39.9905 60.4642 39.9905 60.2175C39.9905 59.9708 40.2616 59.9092 41.1375 59.9092C42.0135 59.9092 42.2846 59.8475 42.2846 59.6008C42.2846 59.3541 42.0135 59.2925 41.1375 59.2925C40.2616 59.2925 39.9905 59.2308 39.9905 58.9841C39.9905 58.7374 40.2616 58.6758 41.2418 58.6758C42.222 58.6758 42.4931 58.6141 42.4931 58.3674C42.4931 58.1207 42.1594 58.0591 40.8247 58.0591H39.1562V59.6008Z" fill="#024EA4"/>
<path d="M43.5352 59.6008C43.5352 60.8342 43.5977 61.1426 43.848 61.1426C44.0565 61.1426 44.1608 60.937 44.1608 60.5259C44.1608 59.9297 44.1817 59.9092 45.2036 59.9092C46.2255 59.9092 46.2464 59.9297 46.2464 60.5259C46.2464 60.9987 46.3298 61.1426 46.6635 61.1426C47.0389 61.1426 47.0806 60.9987 47.0806 59.6008C47.0806 58.203 47.0389 58.0591 46.6635 58.0591C46.3298 58.0591 46.2464 58.203 46.2464 58.6963C46.2464 59.313 46.2255 59.313 45.2662 59.2514C44.3485 59.1897 44.2651 59.1486 44.2025 58.6141C44.1608 58.3057 44.0148 58.0591 43.8271 58.0591C43.5977 58.0591 43.5352 58.4085 43.5352 59.6008Z" fill="#024EA4"/>
<path d="M48.1245 58.4496C47.8325 59.0047 47.8534 60.5875 48.1662 60.8959C48.3122 61.0398 49.0213 61.1426 49.939 61.1426C51.2111 61.1426 51.4823 61.0809 51.67 60.752C51.7742 60.5259 51.8785 60.2998 51.8785 60.2381C51.8785 60.0325 51.1277 60.1147 50.8983 60.3409C50.794 60.4436 50.2726 60.5259 49.7721 60.4848L48.8545 60.4231V59.6008V58.7786L49.7721 58.7169C50.2726 58.6758 50.794 58.758 50.8983 58.8608C51.1277 59.0869 51.8785 59.1691 51.8785 58.9636C51.8785 58.9019 51.7742 58.6758 51.67 58.4496C51.4823 58.1207 51.2111 58.0591 49.8972 58.0591C48.5833 58.0591 48.3122 58.1207 48.1245 58.4496Z" fill="#024EA4"/>
<path d="M52.7109 59.6008C52.7109 60.9987 52.7526 61.1426 53.128 61.1426C53.4617 61.1426 53.5452 60.9987 53.5452 60.5259C53.5452 60.1559 53.6494 59.9092 53.8163 59.9092C53.9623 59.9092 54.3585 60.1764 54.6922 60.5259C55.1093 60.9576 55.4847 61.1426 55.9227 61.1426L56.5692 61.122L55.6724 60.3409L54.7548 59.5597L55.6724 58.8197L56.5692 58.0591L55.9435 58.0796C55.5681 58.0796 55.0468 58.3057 54.6088 58.6758C53.8163 59.3336 53.5452 59.313 53.5452 58.5524C53.5452 58.203 53.4409 58.0591 53.128 58.0591C52.7526 58.0591 52.7109 58.203 52.7109 59.6008Z" fill="#024EA4"/>
<path d="M58.177 59.5392C57.3637 60.9781 57.3428 61.0398 57.7599 61.1015C58.0102 61.1426 58.2813 61.0398 58.3856 60.8548C58.6359 60.4025 60.5337 60.382 60.7214 60.8342C60.784 60.9987 61.076 61.1426 61.3679 61.1426H61.9102L61.076 59.6419C60.3669 58.388 60.1375 58.1619 59.6161 58.1002C59.053 58.0385 58.9487 58.1619 58.177 59.5392ZM59.8872 59.2102C60.0958 59.7653 60.0332 59.9092 59.4909 59.9092C59.0113 59.9092 58.9904 59.8681 59.2198 59.3953C59.4909 58.7991 59.6995 58.7374 59.8872 59.2102Z" fill="#024EA4"/>
<path d="M62.9745 58.3057C62.62 58.6552 62.6617 59.6008 63.0371 59.9092C63.3291 60.1559 63.3082 60.2381 62.9119 60.6698L62.4531 61.1426H62.9745C63.2456 61.1426 63.7045 60.9165 63.9756 60.6287C64.6221 59.9503 65.498 59.9914 65.6023 60.6698C65.644 60.937 65.8109 61.1426 65.9777 61.1426C66.2071 61.1426 66.2697 60.7931 66.2697 59.6008V58.0591H64.7472C63.8504 58.0591 63.1205 58.1619 62.9745 58.3057ZM65.6023 59.128C65.498 59.9297 63.5585 59.8886 63.5585 59.0869C63.5585 58.7374 63.7045 58.6758 64.6221 58.6758C65.6023 58.6758 65.6649 58.7169 65.6023 59.128Z" fill="#024EA4"/>
<path d="M70.9827 64.2877C70.5239 64.6166 70.3362 65.9939 70.6281 66.734C70.8367 67.289 70.8993 67.3096 72.38 67.3096C73.8816 67.3096 74.403 67.104 74.403 66.549C74.403 66.2201 73.7356 66.1995 73.4228 66.5079C73.3185 66.6106 72.7971 66.6929 72.2966 66.6518C71.3998 66.5901 71.3789 66.5695 71.3164 65.8295C71.2538 65.2333 71.3372 65.0278 71.6918 64.8428C72.1923 64.5755 73.5688 64.74 73.5688 65.0483C73.5688 65.1717 73.7565 65.2539 73.9859 65.2539C74.549 65.2539 74.5073 64.74 73.9442 64.3494C73.3811 63.9588 71.5041 63.9177 70.9827 64.2877Z" fill="#024EA4"/>
<path d="M14.7578 65.7473C14.7578 67.0012 14.8204 67.3096 15.0706 67.3096C15.3209 67.3096 15.3835 67.0218 15.3835 66.0351C15.3835 64.6166 15.4878 64.6166 16.1343 66.1378C16.5305 67.0423 16.6974 67.2068 17.2188 67.2685C17.7819 67.3301 17.8653 67.2479 18.3658 66.1378L18.9081 64.9455V66.1173C18.9289 67.1657 18.9706 67.3096 19.346 67.3096C19.7214 67.3096 19.7631 67.1657 19.7631 65.7473V64.2055L18.9915 64.2672C18.2615 64.3288 18.1781 64.3905 17.7819 65.3978C17.5525 65.9939 17.3022 66.4873 17.2396 66.4873C17.1562 66.4873 16.9268 65.9939 16.6974 65.3978C16.3011 64.4111 16.2177 64.3288 15.5086 64.2672L14.7578 64.2055V65.7473Z" fill="#024EA4"/>
<path d="M20.8047 65.7678V67.3096H22.4731C23.8079 67.3096 24.1416 67.2479 24.1416 67.0012C24.1416 66.7545 23.8704 66.6929 22.8902 66.6929C21.91 66.6929 21.6389 66.6312 21.6389 66.3845C21.6389 66.1378 21.91 66.0762 22.8902 66.0762C23.8704 66.0762 24.1416 66.0145 24.1416 65.7678C24.1416 65.5211 23.8704 65.4595 22.8902 65.4595C21.91 65.4595 21.6389 65.3978 21.6389 65.1511C21.6389 64.9044 21.91 64.8428 22.8902 64.8428C23.8704 64.8428 24.1416 64.7811 24.1416 64.5344C24.1416 64.2877 23.8079 64.2261 22.4731 64.2261H20.8047V65.7678Z" fill="#024EA4"/>
<path d="M25.1836 64.5344C25.1836 64.74 25.3921 64.8428 25.8093 64.8428H26.4349V66.0762C26.4349 67.1657 26.4766 67.3096 26.852 67.3096C27.2274 67.3096 27.2691 67.1657 27.2691 66.0967C27.2691 64.8633 27.2691 64.8633 27.9365 64.8016C28.2911 64.7605 28.6248 64.6166 28.6873 64.4727C28.7499 64.2877 28.3119 64.2261 26.9772 64.2261C25.5173 64.2261 25.1836 64.2877 25.1836 64.5344Z" fill="#024EA4"/>
<path d="M30.1063 65.6446C29.6892 66.4258 29.3555 67.1247 29.3555 67.1864C29.3555 67.4947 30.1897 67.2686 30.3982 66.8986C30.5651 66.5902 30.8362 66.4874 31.5453 66.4874C32.2544 66.4874 32.5255 66.5902 32.6924 66.8986C32.9009 67.2686 33.7351 67.4947 33.7351 67.1864C33.7351 67.1247 33.3806 66.4258 32.9635 65.6446C32.2544 64.3701 32.1084 64.2262 31.5244 64.2262C30.9196 64.2262 30.7945 64.3495 30.1063 65.6446ZM31.6079 65.8296C31.0448 65.9324 30.9405 65.7885 31.2325 65.2335L31.5036 64.7812L31.7747 65.2746C32.0041 65.7268 32.0041 65.7679 31.6079 65.8296Z" fill="#024EA4"/>
<path d="M34.7765 65.4595C34.7765 66.1378 34.6931 66.6929 34.5679 66.6929C34.4637 66.6929 34.3594 66.8368 34.3594 67.0012C34.3594 67.3712 35.0059 67.4124 35.3604 67.0629C35.5064 66.919 35.6107 66.364 35.6107 65.8295V64.8428H36.5492H37.4877V66.0762C37.4877 67.1657 37.5294 67.3096 37.9048 67.3096C38.2802 67.3096 38.3219 67.1657 38.3219 65.7678V64.2261H36.5492H34.7765V65.4595Z" fill="#024EA4"/>
<path d="M39.5744 65.3567C39.5744 66.179 39.491 66.5284 39.2616 66.6106C38.6985 66.8368 38.9071 67.3507 39.5327 67.2685C40.075 67.2068 40.0958 67.1451 40.1584 66.0145L40.221 64.8428H41.1386H42.0771V66.0762C42.0771 67.1657 42.1188 67.3096 42.4942 67.3096C42.8696 67.3096 42.9113 67.1657 42.9113 65.7678V64.2261H41.2429H39.5744V65.3567Z" fill="#024EA4"/>
<path d="M43.8708 64.4727C43.9542 64.6166 44.2879 65.1306 44.6216 65.6034C45.289 66.5901 45.3307 66.6929 44.8927 66.6929C44.7259 66.6929 44.5799 66.8368 44.5799 67.0012C44.5799 67.1862 44.7676 67.3096 45.1013 67.3096C45.5184 67.3096 45.8104 67.0218 46.5612 65.8706C47.0826 65.0689 47.4997 64.37 47.4997 64.3083C47.4997 64.2466 47.2911 64.2261 47.0409 64.2672C46.7489 64.3083 46.3943 64.6372 46.1232 65.1306L45.6644 65.9323L45.1847 65.0689C44.8302 64.4727 44.5382 64.2261 44.2045 64.2261C43.8708 64.2261 43.7665 64.3083 43.8708 64.4727Z" fill="#024EA4"/>
<path d="M48.543 65.7678C48.543 67.1657 48.5847 67.3096 48.9601 67.3096C49.2312 67.3096 49.3772 67.1657 49.3772 66.919C49.3772 66.6106 49.5857 66.5284 50.4408 66.4462C51.567 66.3228 51.8799 66.0762 51.8799 65.2333C51.8799 64.4316 51.5045 64.2261 49.9611 64.2261H48.543V65.7678ZM51.0456 65.2539C51.0456 65.6034 50.8996 65.665 50.2114 65.665C49.5232 65.665 49.3772 65.6034 49.3772 65.2539C49.3772 64.9044 49.5232 64.8428 50.2114 64.8428C50.8996 64.8428 51.0456 64.9044 51.0456 65.2539Z" fill="#024EA4"/>
<path d="M52.7109 65.7678C52.7109 67.1657 52.7526 67.3096 53.128 67.3096C53.5034 67.3096 53.5452 67.1657 53.5452 66.0967V64.8633L54.5254 64.8016C55.0676 64.7605 55.5264 64.6166 55.589 64.4727C55.6516 64.2877 55.2762 64.2261 54.1917 64.2261H52.7109V65.7678Z" fill="#024EA4"/>
<path d="M56.4688 65.7678V67.3096H57.2613C57.9703 67.289 58.1163 67.1862 58.9714 66.0145L59.9099 64.74L59.9725 66.0351C60.035 67.1451 60.0976 67.3096 60.4313 67.3096C60.8067 67.3096 60.8484 67.1657 60.8484 65.7678V64.2261H60.0768C59.3468 64.2466 59.2008 64.3494 58.3457 65.5211L57.4072 66.7957L57.3447 65.5006C57.2821 64.3905 57.2195 64.2261 56.8859 64.2261C56.5105 64.2261 56.4688 64.37 56.4688 65.7678Z" fill="#024EA4"/>
<path d="M61.6797 64.8222C61.6797 65.7473 62.2011 66.1173 63.3898 66.0351L64.3909 65.9734V66.6312C64.3909 67.1657 64.4743 67.3096 64.808 67.3096C65.1834 67.3096 65.2251 67.1657 65.2251 65.7678C65.2251 64.3905 65.1834 64.2261 64.8289 64.2261C64.5369 64.2261 64.3909 64.3905 64.3492 64.7811C64.2866 65.295 64.2032 65.3567 63.4524 65.3567C62.7016 65.3567 62.6182 65.295 62.5556 64.7811C62.4513 63.9588 61.6797 63.9999 61.6797 64.8222Z" fill="#024EA4"/>
<path d="M66.2695 65.7678V67.3096H67.938C69.2727 67.3096 69.6064 67.2479 69.6064 67.0012C69.6064 66.7545 69.3353 66.6929 68.3551 66.6929C67.3749 66.6929 67.1038 66.6312 67.1038 66.3845C67.1038 66.1378 67.3749 66.0762 68.2508 66.0762C69.1267 66.0762 69.3979 66.0145 69.3979 65.7678C69.3979 65.5211 69.1267 65.4595 68.2508 65.4595C67.3749 65.4595 67.1038 65.3978 67.1038 65.1511C67.1038 64.9044 67.3749 64.8428 68.3551 64.8428C69.3353 64.8428 69.6064 64.7811 69.6064 64.5344C69.6064 64.2877 69.2727 64.2261 67.938 64.2261H66.2695V65.7678Z" fill="#024EA4"/>
<path d="M75.4453 65.7678C75.4453 67.0012 75.5079 67.3096 75.7581 67.3096C75.9667 67.3096 76.071 67.104 76.071 66.6929C76.071 65.9117 76.4047 65.9117 77.3223 66.6929C77.7603 67.0423 78.3025 67.289 78.6571 67.3096C79.2619 67.3096 79.2619 67.3096 78.2817 66.4667L77.3015 65.6239L78.1565 64.9661C79.0116 64.3494 79.0116 64.3288 78.4694 64.2672C78.1357 64.2261 77.7186 64.3905 77.3015 64.7194C76.4881 65.3978 76.071 65.3978 76.071 64.74C76.071 64.4111 75.9458 64.2261 75.7581 64.2261C75.5079 64.2261 75.4453 64.5344 75.4453 65.7678Z" fill="#024EA4"/>
<path d="M80.7028 65.7061C79.9311 67.104 79.8894 67.2068 80.2857 67.2685C80.5359 67.3096 80.8279 67.1657 81.0156 66.919C81.4327 66.3023 83.0803 66.3023 83.268 66.8984C83.3514 67.1657 83.5808 67.3096 83.9145 67.3096H84.4151L83.6434 65.7678C82.9135 64.3288 82.8092 64.2261 82.2044 64.2261C81.5996 64.2261 81.4744 64.3494 80.7028 65.7061ZM82.2878 65.8295C81.7247 65.9323 81.6204 65.7884 81.9124 65.2333L82.1835 64.7811L82.4546 65.2745C82.684 65.7267 82.684 65.7678 82.2878 65.8295Z" fill="#024EA4"/>
<path d="M85.498 64.4727C85.1434 64.8222 85.1851 65.5828 85.5814 65.9734C85.8942 66.2817 85.8942 66.3434 85.4562 66.8162L84.9766 67.3096H85.498C85.7691 67.3096 86.2279 67.0834 86.499 66.7957C87.1455 66.1173 88.0215 66.1584 88.1257 66.8368C88.1675 67.104 88.3343 67.3096 88.5011 67.3096C88.7306 67.3096 88.7931 66.9601 88.7931 65.7678V64.2261H87.2707C86.3739 64.2261 85.6439 64.3288 85.498 64.4727ZM88.1675 65.2539C88.1675 65.6034 88.0215 65.665 87.1247 65.665C86.2279 65.665 86.0819 65.6034 86.0819 65.2539C86.0819 64.9044 86.2279 64.8428 87.1247 64.8428C88.0215 64.8428 88.1675 64.9044 88.1675 65.2539Z" fill="#024EA4"/>
<path d="M14.6929 70.3314C14.6094 70.3931 14.5469 71.1331 14.5469 71.9759C14.5469 73.3327 14.5886 73.4766 14.964 73.4766C15.2768 73.4766 15.3811 73.3327 15.3811 72.8804C15.3811 71.9759 15.6939 71.9348 16.5907 72.7571C17.133 73.2299 17.6126 73.4766 18.0089 73.4766C18.5928 73.4766 18.5928 73.4766 17.5918 72.5926L16.5907 71.7292L17.4458 71.1125C17.9046 70.7631 18.3009 70.4342 18.3009 70.3314C18.3009 69.9614 17.2789 70.2492 16.6324 70.8042C15.6939 71.5853 15.3811 71.5853 15.3811 70.8042C15.3811 70.2286 15.0266 69.9819 14.6929 70.3314Z" fill="#024EA4"/>
<path d="M19.7191 70.4134C19.4272 70.5779 19.3438 70.8862 19.3438 71.7907C19.3438 72.4485 19.448 73.0858 19.594 73.2297C19.8443 73.4764 22.1801 73.5792 22.7641 73.353C23.1812 73.1886 23.2437 70.8246 22.8475 70.434C22.5346 70.1256 20.2197 70.1256 19.7191 70.4134ZM22.2218 71.0507C22.5138 71.3385 22.5555 72.2224 22.2844 72.613C22.1801 72.798 21.7838 72.8597 21.1999 72.8186C20.324 72.7569 20.2822 72.7158 20.2197 72.0785C20.178 71.6879 20.1988 71.2563 20.2614 71.0918C20.4074 70.7423 21.8673 70.7012 22.2218 71.0507Z" fill="#024EA4"/>
<path d="M24.2866 70.3314C24.2032 70.3931 24.1406 71.1331 24.1406 71.9759C24.1406 73.3327 24.1823 73.4766 24.5577 73.4766C24.9331 73.4766 24.9748 73.3327 24.9957 72.1815L25.0166 70.907L25.6214 72.202C26.1428 73.3121 26.3096 73.4766 26.8101 73.4766C27.3107 73.4766 27.4358 73.3327 27.8946 72.1815L28.416 70.907L28.4786 72.1815C28.5411 73.3121 28.6037 73.4766 28.9374 73.4766C29.3128 73.4766 29.3545 73.3327 29.3545 71.832V70.1875H28.6246C27.8529 70.1875 27.8946 70.1464 27.0187 72.2432C26.8101 72.7365 26.7684 72.6954 26.2053 71.462C25.6839 70.3314 25.5588 70.1875 25.0166 70.1875C24.6829 70.1875 24.3492 70.2492 24.2866 70.3314Z" fill="#024EA4"/>
<path d="M30.3984 71.832C30.3984 73.1271 30.461 73.4766 30.7113 73.4766C30.9198 73.4766 31.0241 73.1477 31.0658 72.1815L31.1284 70.907L32.1294 70.8453L33.1097 70.7836V72.1198C33.1097 73.3327 33.1514 73.4766 33.5268 73.4766C33.9022 73.4766 33.9439 73.3327 33.9439 71.832V70.1875H32.1712H30.3984V71.832Z" fill="#024EA4"/>
<path d="M36.2998 70.434C36.0495 70.7218 34.7773 73.1886 34.7773 73.3736C34.7773 73.6614 35.6324 73.4147 35.8201 73.0652C36.133 72.4691 37.8014 72.4691 38.1142 73.0652C38.3228 73.4558 39.157 73.6614 39.157 73.3119C39.157 73.2297 38.8025 72.5102 38.3645 71.729C37.7388 70.5779 37.4886 70.2695 37.0506 70.2284C36.7586 70.1873 36.4249 70.2901 36.2998 70.434ZM37.4886 71.8729C37.4886 71.9552 37.2592 72.0374 36.9672 72.0374C36.3832 72.0374 36.3415 71.9757 36.6752 71.3796C36.9046 70.9479 36.9255 70.9479 37.1966 71.3179C37.3634 71.5235 37.4886 71.7701 37.4886 71.8729Z" fill="#024EA4"/>
<path d="M39.9922 71.8115C39.9922 73.3327 40.0339 73.4766 40.4093 73.4766C40.743 73.4766 40.8264 73.3327 40.8264 72.7571C40.8264 72.0376 40.8264 72.0376 41.7649 72.0376C42.7034 72.0376 42.7034 72.0376 42.7034 72.7571C42.7034 73.3327 42.7868 73.4766 43.1205 73.4766C43.4959 73.4766 43.5376 73.3327 43.5376 71.8115C43.5376 70.3519 43.4959 70.1669 43.1831 70.2286C42.9537 70.2697 42.7868 70.5164 42.7451 70.8659C42.6825 71.3798 42.5991 71.4209 41.7649 71.4209C40.9307 71.4209 40.8473 71.3798 40.7847 70.8659C40.743 70.5164 40.5761 70.2697 40.3676 70.2286C40.0339 70.1669 39.9922 70.3519 39.9922 71.8115Z" fill="#024EA4"/>
<path d="M44.5781 71.8115V73.4766H45.2664C45.892 73.4766 46.0797 73.3327 46.8931 72.2226L47.8107 70.9686L47.8733 72.2226C47.9359 73.3121 47.9984 73.4766 48.3321 73.4766C48.7075 73.4766 48.7492 73.3327 48.7492 71.832V70.1875H48.1236C47.6022 70.1875 47.3311 70.3931 46.4968 71.4414L45.5166 72.716L45.4123 71.5031C45.3289 70.5575 45.2246 70.2697 44.9535 70.2286C44.6198 70.1669 44.5781 70.3519 44.5781 71.8115Z" fill="#024EA4"/>
<path d="M50.2111 70.5986C49.7106 71.092 49.6898 71.3798 50.1277 71.9965C50.4406 72.4282 50.4406 72.5104 50.1277 72.8393C49.6898 73.3327 49.7106 73.4766 50.232 73.4766C50.4823 73.4766 50.8577 73.2504 51.0871 72.9626C51.3582 72.6337 51.6919 72.4487 52.109 72.4487C52.6095 72.4487 52.7138 72.531 52.7138 72.9626C52.7138 73.3327 52.8181 73.4766 53.1309 73.4766C53.5063 73.4766 53.548 73.3327 53.548 71.832V70.1875H52.0881C50.8994 70.1875 50.5448 70.2697 50.2111 70.5986ZM52.7138 71.3181C52.7138 71.7909 52.6304 71.832 51.7962 71.832C50.8368 71.832 50.5031 71.6059 50.7117 71.1125C50.7951 70.907 51.1288 70.8042 51.7753 70.8042C52.6304 70.8042 52.7138 70.8453 52.7138 71.3181Z" fill="#024EA4"/>
</g>
</svg>
