<svg width="40" height="42" viewBox="0 0 40 42" fill="none" xmlns="http://www.w3.org/2000/svg">
<path d="M18.0626 8.89235H10.1268C8.74951 8.89235 7.62891 7.76495 7.62891 6.37934V2.63411C7.62891 1.2485 8.74951 0.121094 10.1268 0.121094H18.0626C18.4539 0.121094 18.7716 0.440653 18.7716 0.83435V8.18165C18.7716 8.57535 18.4539 8.89491 18.0626 8.89491V8.89235ZM10.1268 1.54505C9.52963 1.54505 9.04428 2.03334 9.04428 2.63411V6.37934C9.04428 6.98011 9.52963 7.4684 10.1268 7.4684H17.3562V1.54505H10.1268Z" fill="black"/>
<path d="M31.8323 8.89295H23.8965C23.5051 8.89295 23.1875 8.5734 23.1875 8.1797V0.832397C23.1875 0.4387 23.5051 0.119141 23.8965 0.119141H31.8323C33.2095 0.119141 34.3302 1.24655 34.3302 2.63215V6.37739C34.3302 7.76299 33.2095 8.8904 31.8323 8.8904V8.89295ZM24.6029 7.469H31.8323C32.4294 7.469 32.9148 6.98071 32.9148 6.37994V2.63471C32.9148 2.03394 32.4294 1.54565 31.8323 1.54565H24.6029V7.46644V7.469Z" fill="black"/>
<path d="M18.0629 22.3557H12.5462C11.113 22.3557 9.94922 21.1823 9.94922 19.743V8.18005C9.94922 7.78636 10.2668 7.4668 10.6582 7.4668H18.0654C18.4568 7.4668 18.7744 7.78636 18.7744 8.18005V21.6424C18.7744 22.0361 18.4568 22.3557 18.0654 22.3557H18.0629ZM11.3621 8.89331V19.743C11.3621 20.4 11.8931 20.9317 12.5437 20.9317H17.3539V8.89331H11.3621Z" fill="black"/>
<path d="M29.4132 22.3557H23.8965C23.5051 22.3557 23.1875 22.0361 23.1875 21.6424V8.18005C23.1875 7.78636 23.5051 7.4668 23.8965 7.4668H31.3037C31.6951 7.4668 32.0127 7.78636 32.0127 8.18005V19.7404C32.0127 21.1823 30.8463 22.3531 29.4157 22.3531L29.4132 22.3557ZM24.6029 20.9317H29.4132C30.0662 20.9317 30.5948 20.3974 30.5948 19.743V8.89331H24.6029V20.9317Z" fill="black"/>
<path d="M23.8937 22.3553H18.0644C17.6731 22.3553 17.3555 22.0358 17.3555 21.6421V0.832397C17.3555 0.4387 17.6731 0.119141 18.0644 0.119141H23.8937C24.285 0.119141 24.6026 0.4387 24.6026 0.832397V21.6421C24.6026 22.0358 24.285 22.3553 23.8937 22.3553ZM18.7734 20.9314H23.1847V1.54565H18.7734V20.9314Z" fill="black"/>
<path d="M27.0053 29.5951H23.6307C23.2394 29.5951 22.9218 29.2756 22.9218 28.8819C22.9218 28.4882 23.2394 28.1686 23.6307 28.1686H27.0053C27.295 28.1686 27.5643 28.0561 27.7625 27.8542C27.9709 27.6445 28.0827 27.3736 28.0827 27.0847C28.0827 26.4865 27.5999 26.0007 27.0053 26.0007H20.0605C19.6692 26.0007 19.3516 25.6812 19.3516 25.2875C19.3516 24.8938 19.6692 24.5742 20.0605 24.5742H27.0053C28.38 24.5742 29.4981 25.6991 29.4981 27.0821C29.4981 27.7494 29.2389 28.3808 28.7663 28.8538C28.3038 29.3267 27.6762 29.59 27.0053 29.59V29.5951Z" fill="#D52623"/>
<path d="M15.9555 37.3973C15.775 37.3973 15.5921 37.3283 15.4549 37.1877L9.72726 31.4254C9.45029 31.1467 9.45029 30.6968 9.72726 30.4181L13.793 26.3278C14.8958 25.2157 16.4256 24.5766 17.9883 24.5766H20.0593C20.4506 24.5766 20.7683 24.8961 20.7683 25.2898C20.7683 25.6835 20.4506 26.0031 20.0593 26.0031H17.9883C16.7991 26.0031 15.6353 26.4888 14.7942 27.335L11.229 30.9243L15.9555 35.6793L17.2209 34.4062C17.9883 33.6342 19.0098 33.2072 20.0949 33.2072H27.06C27.6826 33.2072 28.2645 32.9644 28.7041 32.5221L37.8901 23.2804C38.0629 23.1066 38.1569 22.8791 38.1569 22.6413C38.1569 22.4036 38.0629 22.1735 37.8926 22.0048C37.7402 21.8514 37.5471 21.7568 37.2803 21.698C36.6018 21.5523 35.8471 21.7977 35.3084 22.3397L28.2645 29.4262C28.1323 29.5591 27.9519 29.6358 27.7639 29.6358H23.6651C23.2738 29.6358 22.9562 29.3163 22.9562 28.9226C22.9562 28.5289 23.2738 28.2093 23.6651 28.2093H27.4691L34.3046 21.3324C35.194 20.4376 36.4137 20.0567 37.575 20.3047C38.1086 20.4198 38.5508 20.6524 38.8887 20.995C39.3284 21.4296 39.5698 22.015 39.5698 22.6413C39.5698 23.2677 39.3284 23.8454 38.8862 24.2877L29.7002 33.5293C28.9938 34.24 28.0536 34.6337 27.0524 34.6337H20.0873C19.3808 34.6337 18.7151 34.9098 18.2145 35.4135L16.4484 37.1902C16.3112 37.3283 16.1283 37.3998 15.9478 37.3998L15.9555 37.3973Z" fill="#D52623"/>
<path d="M0.707368 41.3118C0.526951 41.3118 0.344001 41.2427 0.206782 41.1021C-0.0701964 40.8235 -0.0676553 40.371 0.206782 40.0949L6.78057 33.5069C7.05755 33.2282 7.50478 33.2308 7.78176 33.5069C8.05874 33.7855 8.05619 34.238 7.78176 34.5141L1.20797 41.1021C1.07075 41.2402 0.887785 41.3092 0.707368 41.3092V41.3118Z" fill="black"/>
</svg>
