<svg width="42" height="41" viewBox="0 0 42 41" fill="none" xmlns="http://www.w3.org/2000/svg">
<path d="M36.3538 34.7117H5.05271C4.66139 34.7117 4.34375 34.3921 4.34375 33.9985V15.3464C4.34375 14.3877 5.11878 13.6055 6.07423 13.6055H11.2148C11.6062 13.6055 11.9238 13.925 11.9238 14.3187C11.9238 14.7124 11.6062 15.032 11.2148 15.032H6.07423C5.90144 15.032 5.76168 15.1726 5.76168 15.349V33.2878H35.6448V15.3924C35.6448 15.193 35.4848 15.032 35.2865 15.032H30.1917C29.8003 15.032 29.4827 14.7124 29.4827 14.3187C29.4827 13.925 29.8003 13.6055 30.1917 13.6055H35.2865C36.2649 13.6055 37.0628 14.4056 37.0628 15.3924V33.9985C37.0628 34.3921 36.7451 34.7117 36.3538 34.7117Z" fill="black"/>
<path d="M40.1624 40.6344H1.24314C0.755251 40.6344 0.323267 40.3583 0.117439 39.9109C-0.0883892 39.4661 -0.0197799 38.9548 0.292774 38.579L4.50843 33.5402C4.64311 33.3791 4.84132 33.2871 5.04969 33.2871H36.3508C36.5591 33.2871 36.7574 33.3791 36.892 33.5402L41.1077 38.579C41.4228 38.9548 41.4889 39.4635 41.283 39.9084C41.0772 40.3532 40.6452 40.6319 40.1573 40.6319L40.1624 40.6344ZM1.62176 39.2105H39.7863L36.023 34.7136H5.38257L1.61922 39.2105H1.62176Z" fill="black"/>
<path d="M23.5803 37.6726H17.8222C17.4309 37.6726 17.1133 37.353 17.1133 36.9594C17.1133 36.5657 17.4309 36.2461 17.8222 36.2461H23.5803C23.9717 36.2461 24.2893 36.5657 24.2893 36.9594C24.2893 37.353 23.9717 37.6726 23.5803 37.6726Z" fill="#D52623"/>
<path d="M29.4541 28.4935H11.5827C10.9881 28.4935 10.5078 28.0078 10.5078 27.4121V5.49292C10.5078 5.30374 10.5815 5.12223 10.7162 4.9893L14.787 0.891271C14.9191 0.758335 15.0996 0.681641 15.2876 0.681641H29.4567C30.252 0.681641 30.9 1.33354 30.9 2.13372V27.0389C30.9 27.8391 30.252 28.4909 29.4567 28.4909L29.4541 28.4935ZM11.9232 27.0696H29.4541L29.4821 2.13883L15.5798 2.11071L11.9232 5.78947V27.067V27.0696Z" fill="black"/>
<path d="M15.2892 6.20387H11.2184C10.9313 6.20387 10.6746 6.03003 10.5654 5.76416C10.4561 5.49828 10.5171 5.19151 10.7178 4.98699L14.7887 0.89152C14.9919 0.687002 15.2969 0.628204 15.5611 0.738132C15.8254 0.84806 15.9982 1.10882 15.9982 1.39515V5.49317C15.9982 5.88687 15.6806 6.20643 15.2892 6.20643V6.20387ZM12.926 4.77991H14.5803V3.11565L12.926 4.77991Z" fill="black"/>
<path d="M26.6704 12.0124H14.7324C14.3411 12.0124 14.0234 11.6929 14.0234 11.2992C14.0234 10.9055 14.3411 10.5859 14.7324 10.5859H26.6704C27.0617 10.5859 27.3794 10.9055 27.3794 11.2992C27.3794 11.6929 27.0617 12.0124 26.6704 12.0124Z" fill="#D52623"/>
<path d="M26.6704 15.032H14.7324C14.3411 15.032 14.0234 14.7124 14.0234 14.3187C14.0234 13.925 14.3411 13.6055 14.7324 13.6055H26.6704C27.0617 13.6055 27.3794 13.925 27.3794 14.3187C27.3794 14.7124 27.0617 15.032 26.6704 15.032Z" fill="#D52623"/>
</svg>
