<svg width="39" height="42" viewBox="0 0 39 42" fill="none" xmlns="http://www.w3.org/2000/svg">
<path d="M19.7742 38.7111L3.62048 38.6779C3.22916 38.6779 2.91406 38.3583 2.91406 37.9646C2.91406 37.5709 3.23169 37.2539 3.62302 37.2539L19.7767 37.2871C20.168 37.2871 20.4857 37.6067 20.4831 38.0004C20.4831 38.3941 20.1655 38.7111 19.7742 38.7111Z" fill="black"/>
<path d="M19.7747 41.644H3.65407C1.63899 41.644 0 39.9951 0 37.9678V31.0321L0.0482812 12.0733L0 4.3604C0 2.33057 1.63899 0.681641 3.65407 0.681641H19.7747C21.7898 0.681641 23.4288 2.33057 23.4288 4.35785V8.70897C23.4288 9.10266 23.1112 9.42222 22.7198 9.42222C22.3285 9.42222 22.0109 9.10266 22.0109 8.70897V4.35785C22.0109 3.11796 21.0071 2.10815 19.7747 2.10815H3.65407C2.42165 2.10815 1.41792 3.11796 1.41792 4.35785L1.4662 12.0707L1.41792 31.0346V37.9678C1.41792 39.2077 2.42165 40.2175 3.65407 40.2175H19.7747C21.0071 40.2175 22.0109 39.2077 22.0109 37.9678V32.3257C22.0109 31.932 22.3285 31.6124 22.7198 31.6124C23.1112 31.6124 23.4288 31.932 23.4288 32.3257V37.9678C23.4288 39.9951 21.7898 41.644 19.7747 41.644Z" fill="black"/>
<path d="M12.5726 4.42456H10.8574C10.4661 4.42456 10.1484 4.105 10.1484 3.7113C10.1484 3.31761 10.4661 2.99805 10.8574 2.99805H12.5726C12.964 2.99805 13.2816 3.31761 13.2816 3.7113C13.2816 4.105 12.964 4.42456 12.5726 4.42456Z" fill="black"/>
<path d="M35.8486 30.1887H6.91585C5.68342 30.1887 4.67969 29.1789 4.67969 27.939V12.9606C4.67969 11.7207 5.68342 10.7109 6.91585 10.7109H35.8486C37.0811 10.7109 38.0848 11.7207 38.0848 12.9606V27.939C38.0848 29.1789 37.0811 30.1887 35.8486 30.1887ZM6.91585 12.1374C6.46353 12.1374 6.09762 12.5081 6.09762 12.9606V27.939C6.09762 28.3941 6.46608 28.7622 6.91585 28.7622H35.8486C36.301 28.7622 36.6669 28.3915 36.6669 27.939V12.9606C36.6669 12.5056 36.2984 12.1374 35.8486 12.1374H6.91585Z" fill="black"/>
<path d="M10.4985 27.6074C8.81632 27.6074 7.44922 26.2321 7.44922 24.5397C7.44922 22.8473 8.81632 21.4668 10.4985 21.4668C11.1973 21.4668 11.8555 21.6994 12.3993 22.1366C12.567 22.2721 12.6661 22.4766 12.6661 22.6939C12.6661 22.9112 12.567 23.1157 12.3967 23.2512C12.0003 23.5657 11.7742 24.0361 11.7742 24.5397C11.7742 25.0433 12.0003 25.5137 12.3967 25.8281C12.567 25.9636 12.6661 26.1707 12.6661 26.388C12.6661 26.6053 12.567 26.8124 12.3967 26.9479C11.8504 27.3799 11.1948 27.61 10.5011 27.61L10.4985 27.6074ZM10.4985 22.8908C9.59898 22.8908 8.86461 23.6296 8.86461 24.5397C8.86461 25.4498 9.59644 26.1835 10.4985 26.1835C10.6052 26.1835 10.7094 26.1733 10.8136 26.1528C10.5189 25.6747 10.3588 25.12 10.3588 24.5397C10.3588 23.9594 10.5214 23.402 10.8162 22.9214C10.7145 22.901 10.6078 22.8908 10.4985 22.8908Z" fill="black"/>
<path d="M13.4138 27.6074C12.7302 27.6074 12.0594 27.3722 11.5207 26.9453C10.7812 26.3573 10.3594 25.4805 10.3594 24.5397C10.3594 23.5989 10.7837 22.7195 11.5207 22.134C12.0543 21.7045 12.7277 21.4668 13.4138 21.4668C15.096 21.4668 16.4631 22.8447 16.4631 24.5397C16.4631 26.2346 15.096 27.6074 13.4138 27.6074ZM13.4138 22.8908C13.0428 22.8908 12.6921 23.0135 12.4024 23.2461C12.0035 23.5631 11.7748 24.0335 11.7748 24.5371C11.7748 25.0407 12.0009 25.5111 12.3973 25.8256C12.6895 26.0582 13.0402 26.1809 13.4112 26.1809C14.3108 26.1809 15.0451 25.4447 15.0451 24.5371C15.0451 23.6296 14.3133 22.8882 13.4112 22.8882L13.4138 22.8908Z" fill="black"/>
<path d="M19.6378 14.9304H8.1699C7.77858 14.9304 7.46094 14.6109 7.46094 14.2172C7.46094 13.8235 7.77858 13.5039 8.1699 13.5039H19.6378C20.0292 13.5039 20.3468 13.8235 20.3468 14.2172C20.3468 14.6109 20.0292 14.9304 19.6378 14.9304Z" fill="black"/>
<path d="M15.1477 17.5906H8.1699C7.77858 17.5906 7.46094 17.271 7.46094 16.8773C7.46094 16.4836 7.77858 16.1641 8.1699 16.1641H15.1477C15.539 16.1641 15.8567 16.4836 15.8567 16.8773C15.8567 17.271 15.539 17.5906 15.1477 17.5906Z" fill="black"/>
<path d="M33.5551 24.0249H29.0421C27.8935 24.0249 26.9609 23.0866 26.9609 21.9311V18.9707C26.9609 17.8152 27.8935 16.877 29.0421 16.877H33.5551C34.7036 16.877 35.6362 17.8152 35.6362 18.9707V21.9311C35.6362 23.0866 34.7036 24.0249 33.5551 24.0249ZM29.0421 18.3009C28.6762 18.3009 28.3763 18.6 28.3763 18.9707V21.9311C28.3763 22.2992 28.6736 22.6009 29.0421 22.6009H33.5551C33.921 22.6009 34.2208 22.3018 34.2208 21.9311V18.9707C34.2208 18.6026 33.9235 18.3009 33.5551 18.3009H29.0421Z" fill="#D52623"/>
<path d="M30.4004 23.952C30.009 23.952 29.6914 23.6325 29.6914 23.2388V20.35C29.6914 19.9563 30.009 19.6367 30.4004 19.6367H32.0572C32.4485 19.6367 32.7661 19.9563 32.7661 20.35C32.7661 20.7437 32.4485 21.0632 32.0572 21.0632H31.1093V23.2413C31.1093 23.635 30.7917 23.9546 30.4004 23.9546V23.952Z" fill="#D52623"/>
</svg>
