<svg width="95" height="95" viewBox="0 0 95 95" fill="none" xmlns="http://www.w3.org/2000/svg">
<path fill-rule="evenodd" clip-rule="evenodd" d="M94.8724 45.593C93.9839 20.6411 73.8276 -0.00989249 47.2339 0.0592552C21.0722 0.149147 -0.69165 21.5988 0.169226 48.9709C0.978241 74.6143 21.6012 94.8607 47.628 94.8192C74.1768 94.7812 95.8577 73.297 94.8724 45.593ZM2.49947 47.6985C2.35426 22.4354 23.4129 2.01268 47.666 2.52783C71.9261 2.17172 92.473 22.6394 92.5111 46.9033C92.5491 72.4603 72.5208 92.4786 47.1405 92.4198C22.8009 92.3645 2.63776 72.201 2.49947 47.6985ZM50.1173 39.3062C54.0788 40.9959 54.6968 42.2757 53.6772 46.499C53.5729 46.9314 53.4754 47.3663 53.3778 47.8014L53.3778 47.8016L53.3778 47.8016C53.136 48.88 52.894 49.9595 52.5467 51.004C51.3332 54.6412 48.4359 56.3111 44.8991 56.4286C40.2983 56.5818 35.6907 56.5503 30.986 56.5181H30.9859H30.9859H30.9858H30.9857C29.0015 56.5045 27 56.4909 24.9745 56.4909C25.0586 56.0536 25.139 55.6186 25.219 55.1855L25.2191 55.185L25.2191 55.185C25.4054 54.1766 25.5897 53.179 25.8146 52.1899C26.56 48.8941 27.3102 45.5997 28.0604 42.3053L28.0606 42.3047L28.0607 42.3041L28.0608 42.3036L28.061 42.303L28.0611 42.3023C29.4892 36.0315 30.9172 29.7611 32.3109 23.4832C32.5737 22.3043 32.9748 21.8997 34.2229 21.917C36.8124 21.9568 39.4019 21.9525 41.9915 21.9481C44.581 21.9438 47.1705 21.9395 49.7601 21.9793C51.4127 22.0035 53.0895 22.2455 54.7006 22.6258C57.1311 23.1963 58.2824 24.7071 57.9159 27.1653C57.5287 29.7618 56.8926 32.3479 56.0905 34.8511C55.4267 36.9255 53.8467 38.2774 51.6616 38.8167C51.3205 38.9002 50.9877 39.0133 50.6244 39.1367L50.6239 39.1369C50.4622 39.1919 50.2945 39.2488 50.1173 39.3062ZM32.679 35.017C33.5473 35.017 34.4107 35.0174 35.2699 35.0178H35.2706H35.2712H35.2719H35.2726C38.9756 35.0194 42.6029 35.0209 46.2302 34.9928C46.5344 34.9928 47.0115 34.6817 47.1118 34.4086C47.4195 33.5511 47.703 32.6453 47.7514 31.7464C47.7721 31.3764 47.1671 30.6469 46.8352 30.64C42.8074 30.5639 38.7762 30.5743 34.7449 30.6296C34.3335 30.6365 33.6835 30.9892 33.5694 31.328C33.2939 32.1348 33.1163 32.9755 32.9217 33.8974C32.8457 34.2573 32.7671 34.6296 32.679 35.017ZM32.7039 48.0948H32.7085H32.713H32.7137C36.2622 48.0983 39.6288 48.1016 42.9976 48.0583C43.3813 48.0548 43.9829 47.6261 44.1004 47.27C44.3568 46.4815 44.5218 45.6636 44.7049 44.7556C44.7811 44.3777 44.8605 43.9842 44.951 43.5706C44.0147 43.5706 43.0879 43.5699 42.1687 43.5692C38.5287 43.5665 35.0067 43.5638 31.4846 43.6052C31.1458 43.6086 30.6099 44.0235 30.5131 44.352C30.2751 45.1677 30.1153 46.0048 29.9369 46.9397L29.9368 46.9398C29.8667 47.3075 29.7936 47.6903 29.7117 48.0929C30.7225 48.0929 31.7155 48.0938 32.6947 48.0948H32.6993H32.7039ZM72.6125 75.0605H63.257C65.2692 66.3548 67.2537 57.7701 69.3073 48.9019C68.872 48.9019 68.4494 48.8869 68.0378 48.8723H68.0378H68.0377H68.0376C67.0535 48.8373 66.1329 48.8045 65.2554 48.9849C64.7437 49.0886 64.2043 50.0636 64.0453 50.7274C62.5552 56.9231 61.1135 63.1291 59.7478 69.3558C59.5266 70.3585 59.1981 70.6869 58.192 70.6627C56.367 70.6187 54.5402 70.6265 52.5848 70.6349H52.5847H52.5845H52.5844L52.5815 70.6349C51.7709 70.6384 50.9381 70.642 50.0742 70.642C50.2192 69.9937 50.361 69.358 50.5007 68.7316L50.5011 68.7298L50.5015 68.728L50.5018 68.7263C50.8579 67.1295 51.2006 65.5925 51.5505 64.0591C51.9461 62.3221 52.3481 60.5865 52.7501 58.8509L52.7502 58.8506C53.7854 54.3819 54.8204 49.9136 55.7442 45.4238C55.9543 44.4062 55.8398 43.3208 55.7177 42.1634V42.1634L55.7176 42.1633C55.6589 41.6063 55.5983 41.0326 55.5714 40.4417C55.8183 40.4417 56.0829 40.4414 56.3594 40.441H56.3612H56.363H56.3649C56.962 40.4402 57.6151 40.4394 58.2681 40.4417C59.7336 40.4504 61.1993 40.4553 62.6651 40.4603L62.6691 40.4603H62.6696C66.4415 40.4729 70.2142 40.4856 73.9851 40.5627C77.2869 40.6319 79.0501 41.9249 79.2714 44.397C79.3751 45.5759 79.216 46.8241 78.9464 47.9892C77.3303 55.003 75.6828 62.0062 74.0251 69.0529L74.0248 69.0541L74.0245 69.0553C73.5545 71.0531 73.0837 73.0544 72.6125 75.0605ZM46.6242 64.4927C47.1324 62.2912 47.6356 60.1111 48.1342 57.95V57.9465C47.2901 57.9465 46.4787 57.9556 45.6904 57.9644C43.9054 57.9844 42.2384 58.0031 40.5764 57.9119C39.0898 57.8324 38.4951 58.4651 38.2324 59.7893C37.9301 61.3206 37.5831 62.8425 37.2361 64.3648C37.1624 64.6881 37.0887 65.0115 37.0154 65.3349C36.4731 67.7303 35.9232 70.1237 35.3727 72.5195C35.1827 73.3466 34.9926 74.174 34.8027 75.0018H44.1997C45.0205 71.4401 45.8284 67.9402 46.6242 64.4927ZM26.1845 39.9751L26.1835 39.9793L26.183 39.9817C25.885 41.2959 25.5855 42.6096 25.2859 43.9231L25.2859 43.9234C24.5011 47.3648 23.7164 50.8057 22.9608 54.2537L22.9357 54.3681C22.4014 56.8089 22.401 56.8105 19.5 56.4734C19.673 55.7099 19.8449 54.9471 20.0166 54.185C20.3839 52.5555 20.7504 50.9293 21.1249 49.3062C22.9012 41.593 24.6843 33.8797 26.4675 26.1664L26.4685 26.162L26.47 26.1556C26.5437 25.8397 26.6325 25.5271 26.7212 25.2146C26.8364 24.8088 26.9515 24.4034 27.0335 23.9913C27.4691 21.7958 27.7734 21.6022 30.197 22.2591H30.2004C28.8457 28.2451 27.5151 34.1101 26.1845 39.9751ZM24.7702 22.0346C24.7702 22.0345 24.7702 22.0345 24.7702 22.0345H24.7736C24.7725 22.0345 24.7713 22.0345 24.7702 22.0346ZM23.6096 27.162C23.9924 25.4695 24.3782 23.7635 24.7702 22.0346C24.4625 22.0391 24.1513 22.0013 23.8494 21.9646C22.8735 21.8461 21.9963 21.7395 21.6586 23.1167C20.9326 26.0624 20.2445 29.0184 19.5634 31.978C18.2116 37.8382 16.8736 43.7019 15.5391 49.5657C15.167 51.1977 14.8085 52.8315 14.4481 54.4742C14.2962 55.1665 14.144 55.8604 13.9902 56.5565C17.0462 56.7387 17.0466 56.7363 17.5087 53.8782L17.5167 53.8286C17.6073 53.2658 17.7557 52.7124 17.904 52.1591C17.9935 51.8254 18.083 51.4917 18.1598 51.1561C19.4597 45.4479 20.7562 39.7432 22.0527 34.0351C22.5713 31.7532 23.0876 29.4701 23.6096 27.162Z" fill="white"/>
</svg>
