<svg width="19" height="24" viewBox="0 0 19 24" xmlns="http://www.w3.org/2000/svg">
<path d="M16.1145 7.2117H13.7126C13.2269 7.2117 12.8326 7.60536 12.8326 8.09172C12.8326 8.57807 13.2269 8.97173 13.7126 8.97173H16.1151C16.6003 8.97173 16.9951 9.36656 16.9951 9.85174V21.36C16.9951 21.8451 16.6003 22.24 16.1151 22.24H2.88613C2.40095 22.24 2.00612 21.8451 2.00612 21.36V9.85174C2.00612 9.36656 2.40095 8.97173 2.88613 8.97173H5.28857C5.77492 8.97173 6.16858 8.57807 6.16858 8.09172C6.16858 7.60536 5.77492 7.2117 5.28857 7.2117H2.88613C1.43059 7.2117 0.246094 8.3962 0.246094 9.85174V21.36C0.246094 22.8155 1.43059 24 2.88613 24H16.1151C17.5706 24 18.7551 22.8155 18.7551 21.36V9.85174C18.7545 8.39561 17.5706 7.2117 16.1145 7.2117ZM6.21903 5.43525L8.64963 3.00466V14.5903C8.64963 15.0761 9.04329 15.4703 9.52964 15.4703C10.016 15.4703 10.4097 15.0761 10.4097 14.5903V3.00466L12.8403 5.43525C13.0121 5.60715 13.2374 5.6928 13.4627 5.6928C13.688 5.6928 13.9133 5.60715 14.0852 5.43525C14.429 5.09205 14.429 4.53412 14.0852 4.19091L10.1527 0.257844C9.80831 -0.0859479 9.25156 -0.0859479 8.90777 0.257844L4.9747 4.19091C4.6309 4.53412 4.6309 5.09205 4.9747 5.43525C5.31849 5.77904 5.87524 5.77904 6.21903 5.43525Z" />
</svg>
