<svg xmlns="http://www.w3.org/2000/svg" width="16" height="17" viewBox="0 0 16 17" >
  <g clip-path="url(#clip0_598_3094)">
    <path d="M7.99983 0.0767822C4.77442 0.0767822 2.15039 2.74797 2.15039 6.03131C2.15039 7.86788 3.07927 10.097 4.9113 12.6568C6.25198 14.5302 7.57311 15.8663 7.6287 15.9223C7.67728 15.9713 7.73511 16.0102 7.79883 16.0367C7.86255 16.0632 7.9309 16.0768 7.99992 16.0767C8.13061 16.0767 8.26139 16.0281 8.36277 15.9304C8.41848 15.8767 9.74295 14.5948 11.0862 12.7473C12.9197 10.2254 13.8493 7.96581 13.8493 6.03128C13.8493 2.74797 11.2252 0.0767822 7.99983 0.0767822ZM8.00695 14.8001C6.82864 13.5218 3.19664 9.3145 3.19664 6.03131C3.19664 3.32488 5.35133 1.123 7.99983 1.123C10.6483 1.123 12.803 3.32484 12.803 6.03131C12.803 9.49153 9.19042 13.5603 8.00695 14.8001Z" />
    <path d="M8.00034 2.88245C6.42347 2.88245 5.14062 4.16532 5.14062 5.74217C5.14062 7.31901 6.4235 8.60188 8.00034 8.60188C9.57719 8.60188 10.8601 7.31901 10.8601 5.74217C10.8601 4.16532 9.57716 2.88245 8.00034 2.88245ZM8.00034 7.55567C7.00037 7.55567 6.18684 6.74213 6.18684 5.74217C6.18684 4.7422 7.00037 3.92867 8.00034 3.92867C9.00031 3.92867 9.81384 4.7422 9.81384 5.74217C9.81384 6.74213 9.00028 7.55567 8.00034 7.55567Z" />
  </g>
  <defs>
    <clipPath id="clip0_598_3094">
      <rect width="16" height="16"  transform="translate(0 0.0767822)"/>
    </clipPath>
  </defs>
</svg>