<svg width="30" height="27" viewBox="0 0 30 27" xmlns="http://www.w3.org/2000/svg">
<path d="M28.8447 9.24085H24.8464L19.0359 0.524375C18.8662 0.269781 18.6023 0.0930379 18.3023 0.0330293C18.0022 -0.0269792 17.6906 0.0346616 17.436 0.204391C17.1814 0.374121 17.0047 0.638037 16.9447 0.93808C16.8847 1.23812 16.9463 1.54971 17.116 1.80431L22.0743 9.24085H7.92421L12.8824 1.80431C12.9684 1.67829 13.0286 1.53646 13.0595 1.38702C13.0903 1.23759 13.0912 1.08352 13.0621 0.933734C13.033 0.78395 12.9745 0.641426 12.8899 0.514412C12.8054 0.387398 12.6965 0.278417 12.5695 0.193778C12.4425 0.109139 12.3001 0.0505233 12.1503 0.0213236C12.0005 -0.00787616 11.8465 -0.00707955 11.697 0.0236669C11.5476 0.0544134 11.4057 0.114499 11.2796 0.200446C11.1535 0.286393 11.0458 0.396494 10.9625 0.524375L5.15204 9.24085H1.15379C0.847784 9.24085 0.554313 9.36241 0.337936 9.57879C0.121559 9.79517 0 10.0886 0 10.3946C0 10.7006 0.121559 10.9941 0.337936 11.2105C0.554313 11.4269 0.847784 11.5484 1.15379 11.5484H1.74606L4.14286 23.5309C4.33647 24.4892 4.85519 25.3511 5.61124 25.9709C6.36729 26.5907 7.31425 26.9303 8.29188 26.9323H21.7081C23.7188 26.9323 25.4618 25.5016 25.8571 23.5309L28.2539 11.5484H28.8462C29.1522 11.5484 29.4457 11.4269 29.6621 11.2105C29.8784 10.9941 30 10.7006 30 10.3946C30 10.0886 29.8784 9.79517 29.6621 9.57879C29.4457 9.36241 29.1507 9.24085 28.8447 9.24085ZM23.5926 23.0786C23.5044 23.5141 23.2685 23.9058 22.9249 24.1875C22.5813 24.4692 22.1509 24.6236 21.7066 24.6247H8.29188C7.84754 24.6236 7.41719 24.4692 7.07355 24.1875C6.72992 23.9058 6.49405 23.5141 6.40583 23.0786L4.09979 11.5484H25.8987L23.5926 23.0786Z" />
<path d="M19.2306 16.5483V19.6251C19.2306 19.9311 19.1091 20.2246 18.8927 20.4409C18.6763 20.6573 18.3829 20.7789 18.0768 20.7789C17.7708 20.7789 17.4774 20.6573 17.261 20.4409C17.0446 20.2246 16.9231 19.9311 16.9231 19.6251V16.5483C16.9231 16.2423 17.0446 15.9488 17.261 15.7325C17.4774 15.5161 17.7708 15.3945 18.0768 15.3945C18.3829 15.3945 18.6763 15.5161 18.8927 15.7325C19.1091 15.9488 19.2306 16.2423 19.2306 16.5483ZM11.9233 15.3945C11.6173 15.3945 11.3238 15.5161 11.1075 15.7325C10.8911 15.9488 10.7695 16.2423 10.7695 16.5483V19.6251C10.7695 19.9311 10.8911 20.2246 11.1075 20.4409C11.3238 20.6573 11.6173 20.7789 11.9233 20.7789C12.2293 20.7789 12.5228 20.6573 12.7392 20.4409C12.9555 20.2246 13.0771 19.9311 13.0771 19.6251V16.5483C13.0771 16.2423 12.9555 15.9488 12.7392 15.7325C12.5228 15.5161 12.2293 15.3945 11.9233 15.3945Z" />
</svg>
