<svg width="22" height="20" viewBox="0 0 22 20" xmlns="http://www.w3.org/2000/svg">
<path d="M21.1528 6.77662H18.2207L13.9597 0.384542C13.8352 0.197839 13.6417 0.0682278 13.4217 0.0242215C13.2016 -0.0197848 12.9731 0.0254185 12.7864 0.149887C12.5997 0.274356 12.4701 0.467894 12.4261 0.687925C12.3821 0.907957 12.4273 1.13646 12.5518 1.32316L16.1878 6.77662H5.81109L9.44711 1.32316C9.51019 1.23075 9.55433 1.12674 9.57695 1.01715C9.59956 0.907564 9.60022 0.79458 9.57888 0.684738C9.55754 0.574897 9.51463 0.470379 9.45262 0.377235C9.39061 0.284092 9.31074 0.204173 9.21764 0.142104C9.12454 0.0800356 9.02005 0.0370504 8.91022 0.0156373C8.80039 -0.00577585 8.68741 -0.00519167 8.57781 0.0173557C8.46821 0.0399032 8.36417 0.083966 8.27171 0.146994C8.17926 0.210021 8.10022 0.290762 8.03918 0.384542L3.77817 6.77662H0.846111C0.621708 6.77662 0.406496 6.86577 0.24782 7.02445C0.0891434 7.18312 0 7.39833 0 7.62274C0 7.84714 0.0891434 8.06235 0.24782 8.22103C0.406496 8.3797 0.621708 8.46885 0.846111 8.46885H1.28045L3.0381 17.256C3.18008 17.9587 3.56047 18.5908 4.11491 19.0454C4.66935 19.4999 5.36378 19.7489 6.08071 19.7503H15.9193C17.3938 19.7503 18.672 18.7011 18.9619 17.256L20.7196 8.46885H21.1539C21.3783 8.46885 21.5935 8.3797 21.7522 8.22103C21.9109 8.06235 22 7.84714 22 7.62274C22 7.39833 21.9109 7.18312 21.7522 7.02445C21.5935 6.86577 21.3772 6.77662 21.1528 6.77662ZM17.3013 16.9243C17.2366 17.2437 17.0636 17.5309 16.8116 17.7375C16.5596 17.9441 16.244 18.0573 15.9182 18.0581H6.08071C5.75486 18.0573 5.43928 17.9441 5.18727 17.7375C4.93527 17.5309 4.76231 17.2437 4.69761 16.9243L3.00651 8.46885H18.9924L17.3013 16.9243Z" />
<path d="M14.1025 12.1343V14.3906C14.1025 14.615 14.0134 14.8302 13.8547 14.9889C13.696 15.1476 13.4808 15.2367 13.2564 15.2367C13.032 15.2367 12.8168 15.1476 12.6581 14.9889C12.4994 14.8302 12.4103 14.615 12.4103 14.3906V12.1343C12.4103 11.9099 12.4994 11.6947 12.6581 11.536C12.8168 11.3774 13.032 11.2882 13.2564 11.2882C13.4808 11.2882 13.696 11.3774 13.8547 11.536C14.0134 11.6947 14.1025 11.9099 14.1025 12.1343ZM8.7438 11.2882C8.5194 11.2882 8.30419 11.3774 8.14551 11.536C7.98684 11.6947 7.89769 11.9099 7.89769 12.1343V14.3906C7.89769 14.615 7.98684 14.8302 8.14551 14.9889C8.30419 15.1476 8.5194 15.2367 8.7438 15.2367C8.9682 15.2367 9.18342 15.1476 9.34209 14.9889C9.50077 14.8302 9.58991 14.615 9.58991 14.3906V12.1343C9.58991 11.9099 9.50077 11.6947 9.34209 11.536C9.18342 11.3774 8.9682 11.2882 8.7438 11.2882Z" />
</svg>
