<svg xmlns="http://www.w3.org/2000/svg" width="7" height="12" viewBox="0 0 7 12" >
    <path
        d="M6.8303 5.50582L2.09606 0.77765C1.98656 0.668204 1.84039 0.60791 1.68453 0.60791C1.52868 0.60791 1.38251 0.668204 1.27301 0.77765L0.924365 1.12577C0.6975 1.3526 0.6975 1.72128 0.924365 1.94777L4.89983 5.91821L0.919954 9.89305C0.810457 10.0025 0.75 10.1484 0.75 10.304C0.75 10.4597 0.810457 10.6056 0.919954 10.7151L1.2686 11.0632C1.37818 11.1726 1.52427 11.2329 1.68012 11.2329C1.83598 11.2329 1.98215 11.1726 2.09165 11.0632L6.8303 6.33068C6.94006 6.22089 7.00034 6.0743 7 5.91847C7.00034 5.76203 6.94006 5.61553 6.8303 5.50582Z"
            />
</svg>