<svg width="20" height="15" viewBox="0 0 20 15" xmlns="http://www.w3.org/2000/svg">
<path d="M-2.27387e-06 13.4449C-2.37003e-06 13.9949 0.445999 14.4399 0.994998 14.4399L9.005 14.4399C9.26889 14.4399 9.52197 14.3351 9.70857 14.1485C9.89517 13.9619 10 13.7088 10 13.4449C10 13.181 9.89517 12.928 9.70857 12.7414C9.52197 12.5548 9.26889 12.4499 9.005 12.4499L0.994999 12.4499C0.445 12.4499 -2.1777e-06 12.8949 -2.27387e-06 13.4449ZM-1.22392e-06 7.43994C-1.32008e-06 7.98994 0.446 8.43494 0.994999 8.43494L19.005 8.43494C19.2689 8.43494 19.522 8.33011 19.7086 8.14351C19.8952 7.95691 20 7.70383 20 7.43994C20 7.17605 19.8952 6.92297 19.7086 6.73637C19.522 6.54977 19.2689 6.44494 19.005 6.44494L0.995 6.44494C0.445001 6.44494 -1.12793e-06 6.89094 -1.22392e-06 7.43994ZM0.995 2.42994C0.731109 2.42994 0.478027 2.32511 0.291429 2.13851C0.104831 1.95191 -2.20111e-07 1.69883 -1.73971e-07 1.43494C-1.27831e-07 1.17105 0.104832 0.917965 0.291429 0.731367C0.478027 0.544768 0.73111 0.439938 0.995001 0.439938L13.005 0.43994C13.1357 0.43994 13.2651 0.465677 13.3858 0.51568C13.5065 0.565684 13.6162 0.638975 13.7086 0.731369C13.801 0.823763 13.8743 0.933452 13.9243 1.05417C13.9743 1.17489 14 1.30428 14 1.43494C14 1.56561 13.9743 1.69499 13.9243 1.81571C13.8743 1.93643 13.801 2.04612 13.7086 2.13851C13.6162 2.23091 13.5065 2.3042 13.3858 2.3542C13.2651 2.4042 13.1357 2.42994 13.005 2.42994L0.995 2.42994Z" />
</svg>
