<svg width="25" height="21" viewBox="0 0 25 21" xmlns="http://www.w3.org/2000/svg">
<path fill-rule="evenodd" clip-rule="evenodd" d="M1 0C0.447715 0 0 0.447715 0 1C0 1.55228 0.447715 2 1 2H16.5461C17.0984 2 17.5461 1.55228 17.5461 1C17.5461 0.447715 17.0984 0 16.5461 0H1ZM1 5.66785C0.447715 5.66785 0 6.11557 0 6.66785C0 7.22014 0.447715 7.66785 1 7.66785H5.69799C6.25027 7.66785 6.69799 7.22014 6.69799 6.66785C6.69799 6.11557 6.25027 5.66785 5.69799 5.66785H1ZM1 11.3357C0.447715 11.3357 0 11.7834 0 12.3357C0 12.888 0.447715 13.3357 1 13.3357H5.08178C5.63406 13.3357 6.08178 12.888 6.08178 12.3357C6.08178 11.7834 5.63406 11.3357 5.08178 11.3357H1ZM18.7137 15.8378C17.563 16.6746 16.138 17.1677 14.6032 17.1677C10.8292 17.1677 7.71875 14.1858 7.71875 10.4452C7.71875 6.70463 10.8292 3.72266 14.6032 3.72266C18.3772 3.72266 21.4877 6.70463 21.4877 10.4452C21.4877 11.9462 20.9868 13.3251 20.1432 14.4382L24.6276 18.798C25.0236 19.183 25.0325 19.8161 24.6475 20.2121C24.2625 20.608 23.6294 20.617 23.2334 20.232L18.7137 15.8378ZM1 17.0036C0.447715 17.0036 0 17.4513 0 18.0036C0 18.5558 0.447715 19.0036 1 19.0036H8.77942C9.3317 19.0036 9.77942 18.5558 9.77942 18.0036C9.77942 17.4513 9.3317 17.0036 8.77942 17.0036H1ZM9.82812 10.4452C9.82812 7.92523 11.9378 5.83203 14.6032 5.83203C17.2687 5.83203 19.3783 7.92523 19.3783 10.4452C19.3783 12.9652 17.2687 15.0584 14.6032 15.0584C11.9378 15.0584 9.82812 12.9652 9.82812 10.4452Z" />
</svg>
