<svg width="29" height="29" viewBox="0 0 29 29" xmlns="http://www.w3.org/2000/svg">
<path fill-rule="evenodd" clip-rule="evenodd" d="M21.5746 7.3124C21.1857 6.92349 20.5557 6.92419 20.1675 7.3124L14.5071 12.9728L8.83961 7.30532C8.45071 6.91641 7.82067 6.91712 7.43247 7.30532C7.04356 7.69423 7.04427 8.32426 7.43247 8.71247L13.0999 14.3799L7.43247 20.0474C7.24587 20.234 7.14104 20.4871 7.14104 20.751C7.14104 21.0149 7.24587 21.2679 7.43247 21.4545C7.61907 21.6411 7.87215 21.746 8.13604 21.746C8.39993 21.746 8.65301 21.6411 8.83961 21.4545L14.5071 15.7871L20.1675 21.4475C20.3541 21.6341 20.6071 21.7389 20.871 21.7389C21.1349 21.7389 21.388 21.6341 21.5746 21.4475C21.7612 21.2609 21.866 21.0078 21.866 20.7439C21.866 20.48 21.7612 20.2269 21.5746 20.0403L15.9142 14.3799L21.5746 8.71954C21.9635 8.33063 21.9628 7.7006 21.5746 7.3124Z" />
</svg>
