<svg width="52" height="52" viewBox="0 0 52 52" fill="none" xmlns="http://www.w3.org/2000/svg">
<rect width="52" height="52" rx="10" fill="#F7F7F7"/>
<path fill-rule="evenodd" clip-rule="evenodd" d="M39.1775 23.2188H39.8789C41.5999 23.2188 43 24.6189 43 26.3398V30.5898C43 32.3108 41.5999 33.7109 39.8789 33.7109H39.0509C38.6341 34.9448 37.4664 35.8359 36.0938 35.8359C34.3728 35.8359 32.9727 34.4358 32.9727 32.7148V24.2148C32.9727 22.2054 34.8503 20.7193 36.8044 21.1764C35.4762 16.4597 31.1356 12.9922 26 12.9922C20.8644 12.9922 16.5238 16.4597 15.1956 21.1764C17.1533 20.7185 19.0273 22.2088 19.0273 24.2148V32.7148C19.0273 34.0875 18.1362 35.2553 16.9023 35.672V37.4961C16.9023 38.1186 17.4088 38.625 18.0312 38.625H22.5116C22.9284 37.3912 24.0961 36.5 25.4688 36.5H26.5312C28.2522 36.5 29.6523 37.9001 29.6523 39.6211C29.6523 41.3421 28.2522 42.7422 26.5312 42.7422H25.4688C24.0961 42.7422 22.9284 41.851 22.5116 40.6172H18.0312C16.3103 40.6172 14.9102 39.2171 14.9102 37.4961V35.6726C13.9896 35.3615 13.2602 34.6317 12.9491 33.7109H12.1211C10.4001 33.7109 9 32.3108 9 30.5898V26.3398C9 24.6189 10.4001 23.2188 12.1211 23.2188H12.8225C13.3335 16.3956 19.0484 11 26 11C32.9516 11 38.6665 16.3956 39.1775 23.2188ZM12.1211 31.7188H12.7852V25.2109H12.1211C11.4986 25.2109 10.9922 25.7174 10.9922 26.3398V30.5898C10.9922 31.2123 11.4986 31.7188 12.1211 31.7188ZM27.6602 39.6211C27.6602 38.9986 27.1537 38.4922 26.5312 38.4922H25.4688C24.8463 38.4922 24.3398 38.9986 24.3398 39.6211C24.3398 40.2436 24.8463 40.75 25.4688 40.75H26.5312C27.1537 40.75 27.6602 40.2436 27.6602 39.6211ZM17.0352 24.2148C17.0352 23.5924 16.5287 23.0859 15.9062 23.0859C15.2838 23.0859 14.7773 23.5924 14.7773 24.2148V32.7148C14.7773 33.3373 15.2838 33.8438 15.9062 33.8438C16.5287 33.8438 17.0352 33.3373 17.0352 32.7148V24.2148ZM34.9648 32.7148C34.9648 33.3373 35.4713 33.8438 36.0938 33.8438C36.7162 33.8438 37.2227 33.3373 37.2227 32.7148V24.2148C37.2227 23.5924 36.7162 23.0859 36.0938 23.0859C35.4713 23.0859 34.9648 23.5924 34.9648 24.2148V32.7148ZM39.8789 31.7188C40.5014 31.7188 41.0078 31.2123 41.0078 30.5898V26.3398C41.0078 25.7174 40.5014 25.2109 39.8789 25.2109H39.2148V31.7188H39.8789ZM23.2773 28.4648C23.2773 29.015 22.8314 29.4609 22.2812 29.4609C21.7311 29.4609 21.2852 29.015 21.2852 28.4648C21.2852 27.9147 21.7311 27.4688 22.2812 27.4688C22.8314 27.4688 23.2773 27.9147 23.2773 28.4648ZM26 29.4609C26.5501 29.4609 26.9961 29.015 26.9961 28.4648C26.9961 27.9147 26.5501 27.4688 26 27.4688C25.4499 27.4688 25.0039 27.9147 25.0039 28.4648C25.0039 29.015 25.4499 29.4609 26 29.4609ZM30.7148 28.4648C30.7148 29.015 30.2689 29.4609 29.7188 29.4609C29.1686 29.4609 28.7227 29.015 28.7227 28.4648C28.7227 27.9147 29.1686 27.4688 29.7188 27.4688C30.2689 27.4688 30.7148 27.9147 30.7148 28.4648Z" fill="#D52623"/>
</svg>
