<svg width="31" height="31" viewBox="0 0 31 31" fill="none" xmlns="http://www.w3.org/2000/svg">
<path fill-rule="evenodd" clip-rule="evenodd" d="M30.9952 9.0029C30.998 9.03235 30.9994 9.0619 30.9996 9.09148C30.9996 9.09257 30.9997 9.09363 30.9998 9.09467C30.9999 9.0957 31 9.09672 31 9.09777V13.1413C31 14.2898 30.4749 15.318 29.6522 15.9984V29.989C29.6522 30.5473 29.1996 30.9999 28.6413 30.9999H2.35872C1.80042 30.9999 1.34783 30.5472 1.34783 29.989V15.9982C0.525123 15.3178 0 14.2897 0 13.1412V9.09765C0 9.09655 9.34556e-05 9.09544 0.000185565 9.09435C0.000275059 9.09329 0.000363281 9.09225 0.000363281 9.09123C0.000544922 9.06175 0.00199805 9.0322 0.0047832 9.00278C0.00520314 8.99819 0.00574343 8.99364 0.00628266 8.98909C0.00659864 8.98642 0.00691426 8.98376 0.00720508 8.9811C0.0101113 8.95634 0.0138047 8.93151 0.0185273 8.90693C0.0190269 8.90438 0.0194629 8.90178 0.0198993 8.89919C0.0204151 8.89612 0.0209316 8.89305 0.0215547 8.89004C0.0270645 8.8637 0.0340273 8.83766 0.0417168 8.81169C0.0539045 8.77021 0.0688112 8.72957 0.0863398 8.69005C0.0928789 8.67522 0.099418 8.66044 0.106684 8.64579L2.02172 4.81572V1.68478C2.02172 0.755807 2.77753 0 3.7065 0H27.2935C28.2225 0 28.9783 0.755807 28.9782 1.68478V4.81578L30.8931 8.64579C30.8996 8.65867 30.9054 8.6718 30.9112 8.68491L30.9129 8.68866C30.9265 8.71909 30.9385 8.75021 30.9489 8.7819C30.9607 8.81735 30.9706 8.85343 30.9784 8.88998C30.9792 8.89365 30.9798 8.89736 30.9804 8.90105C30.9807 8.90314 30.9811 8.90522 30.9815 8.90729C30.9862 8.93176 30.9899 8.9564 30.9927 8.98116C30.9936 8.98843 30.9946 8.99563 30.9952 9.0029ZM26.9566 2.02172H4.0435V4.04344H26.9566V2.02172ZM27.3427 6.06522H3.65739L2.6465 8.08694H28.3536L27.3427 6.06522ZM19.5434 28.9783H23.5869V20.2174H19.5434V28.9783ZM25.6087 28.9783H27.6305H27.6306V16.8318C27.5762 16.8367 27.5215 16.8408 27.4665 16.8434C27.3399 16.8496 27.2131 16.8492 27.0866 16.842C27.0678 16.8409 27.0491 16.8392 27.0305 16.8375C27.0195 16.8365 27.0085 16.8354 26.9975 16.8346C26.9871 16.8337 26.9766 16.833 26.9661 16.8322C26.9382 16.8301 26.9102 16.8281 26.8825 16.825C26.8332 16.8195 26.7845 16.8121 26.7357 16.8047L26.7344 16.8045C26.727 16.8034 26.7195 16.8024 26.7121 16.8015C26.702 16.8002 26.6918 16.7989 26.6819 16.7972C26.6291 16.7881 26.5766 16.7779 26.5243 16.7665C26.5184 16.7652 26.5124 16.7641 26.5065 16.763C26.4991 16.7617 26.4918 16.7603 26.4845 16.7587C26.4302 16.7466 26.3766 16.7326 26.3232 16.7181C26.3185 16.7168 26.3136 16.7156 26.3088 16.7145C26.3029 16.713 26.2969 16.7116 26.2911 16.71C26.2319 16.6934 26.1734 16.675 26.1155 16.6555C26.1128 16.6545 26.11 16.6538 26.1073 16.6529C26.1055 16.6524 26.1037 16.6519 26.1019 16.6512C26.0472 16.6326 25.9934 16.6122 25.9399 16.5912C25.9361 16.5897 25.9323 16.5883 25.9284 16.587C25.9246 16.5856 25.9207 16.5842 25.9169 16.5827C25.8629 16.561 25.8097 16.5376 25.757 16.5135C25.7537 16.512 25.7504 16.5106 25.7471 16.5092C25.7437 16.5077 25.7402 16.5063 25.7368 16.5047C25.6844 16.4804 25.6329 16.4543 25.5817 16.4276C25.5752 16.4241 25.5684 16.4212 25.5619 16.4176C25.5132 16.3916 25.4651 16.3644 25.4176 16.3362C25.4134 16.3337 25.4092 16.3314 25.4049 16.329C25.4006 16.3267 25.3963 16.3243 25.3921 16.3218C25.347 16.2948 25.3031 16.2661 25.2592 16.2372C25.2554 16.2348 25.2516 16.2324 25.2478 16.23C25.2412 16.2259 25.2346 16.2218 25.2281 16.2174C25.187 16.1898 25.1471 16.1606 25.1072 16.1313C25.1013 16.127 25.0953 16.1228 25.0894 16.1186C25.0829 16.1141 25.0763 16.1095 25.07 16.1047C25.0364 16.0795 25.0039 16.0531 24.9713 16.0267L24.9604 16.0178C24.9541 16.0127 24.9477 16.0077 24.9413 16.0027C24.9335 15.9966 24.9257 15.9906 24.9181 15.9842C24.8872 15.9583 24.8573 15.9314 24.8274 15.9045L24.8186 15.8966C24.8121 15.8907 24.8055 15.8849 24.7988 15.8792C24.79 15.8716 24.7812 15.8639 24.7727 15.856C24.7458 15.831 24.7198 15.805 24.6938 15.7791C24.6893 15.7746 24.6849 15.7702 24.6804 15.7657C24.6652 15.7505 24.6493 15.736 24.6343 15.7206C24.6102 15.6956 24.5869 15.6699 24.5636 15.6441C24.5586 15.6386 24.5536 15.6331 24.5486 15.6276C24.5427 15.6211 24.5368 15.6148 24.5308 15.6084C24.5217 15.5988 24.5126 15.5891 24.5039 15.5791C23.8123 16.311 22.8509 16.7856 21.7806 16.842C21.7093 16.8458 21.6375 16.8477 21.5653 16.8477C20.3589 16.8477 19.2743 16.3166 18.5327 15.476C17.7912 16.3166 16.7065 16.8477 15.5001 16.8477C14.2937 16.8477 13.209 16.3166 12.4676 15.4761C11.7261 16.3167 10.6414 16.8478 9.43496 16.8478C9.36273 16.8478 9.29104 16.8459 9.21972 16.8421C8.14943 16.7858 7.188 16.3112 6.49644 15.5792C6.48416 15.5932 6.47142 15.6068 6.45868 15.6204C6.45176 15.6277 6.44485 15.6351 6.43801 15.6425C6.43029 15.6509 6.42264 15.6593 6.41499 15.6678C6.39886 15.6855 6.38275 15.7033 6.36608 15.7205C6.35608 15.7308 6.34576 15.7407 6.33543 15.7506C6.3282 15.7576 6.32096 15.7646 6.31383 15.7717C6.30857 15.7769 6.30332 15.7821 6.29808 15.7874C6.27481 15.8106 6.25155 15.8338 6.22749 15.8561C6.21921 15.8638 6.21067 15.8713 6.20214 15.8787C6.19627 15.8838 6.1904 15.8889 6.18462 15.894L6.17438 15.9033C6.14396 15.9307 6.11352 15.9582 6.08206 15.9845C6.07684 15.9888 6.07149 15.993 6.06613 15.9971C6.06129 16.0009 6.05643 16.0047 6.05166 16.0086C6.01179 16.0416 5.97126 16.0737 5.93008 16.105C5.92678 16.1075 5.9234 16.1098 5.92001 16.1122C5.91688 16.1144 5.91373 16.1166 5.91065 16.1189C5.86516 16.1529 5.81889 16.1858 5.77187 16.2177L5.76497 16.222C5.38537 16.4768 4.96171 16.6588 4.51559 16.7588L4.50941 16.76C4.44605 16.7741 4.38234 16.7865 4.31832 16.7972C4.31479 16.7978 4.31122 16.7982 4.30766 16.7987C4.30408 16.7992 4.3005 16.7996 4.29695 16.8002C4.23756 16.8097 4.17786 16.8184 4.11761 16.8251C4.09615 16.8274 4.07452 16.829 4.05285 16.8306C4.04138 16.8315 4.0299 16.8323 4.01844 16.8333C4.00681 16.8343 3.99522 16.8353 3.98362 16.8364C3.96035 16.8386 3.93708 16.8407 3.91357 16.842C3.84503 16.8458 3.77601 16.8478 3.7065 16.8478C3.64887 16.8478 3.59125 16.8463 3.5337 16.8434C3.47866 16.8409 3.42399 16.8367 3.36955 16.8318V28.9782H17.5217V19.2065C17.5217 18.6482 17.9744 18.1956 18.5326 18.1956H24.5978C25.1561 18.1956 25.6087 18.6483 25.6087 19.2065V28.9783ZM28.2343 14.5382C28.6828 14.2352 28.9783 13.7221 28.9783 13.1413H28.9782V10.1087H2.02172V13.1413C2.02172 13.722 2.31713 14.2351 2.7656 14.5382C2.80039 14.5534 2.83431 14.5705 2.8672 14.5894C3.1026 14.7264 3.34752 14.8044 3.59685 14.8221L3.60054 14.8224C3.63578 14.8247 3.67114 14.826 3.7065 14.826C4.63547 14.826 5.39128 14.0702 5.39128 13.1412V12.8042C5.39128 12.2459 5.84392 11.7933 6.40217 11.7933C6.95272 11.7933 7.39955 12.2336 7.41191 12.7813C7.41964 12.823 7.42475 12.8652 7.42722 12.9075C7.4753 13.8483 8.15572 14.6108 9.04195 14.7874C9.04433 14.7878 9.04672 14.7882 9.04912 14.7887C9.05093 14.789 9.05274 14.7893 9.05454 14.7896C9.08183 14.7949 9.10922 14.7996 9.13671 14.8038C9.14211 14.8046 9.14753 14.8052 9.15295 14.8059C9.15749 14.8064 9.16203 14.807 9.16655 14.8076C9.1889 14.8106 9.2113 14.8136 9.23394 14.8159C9.25053 14.8175 9.26749 14.8185 9.28426 14.8197C9.2897 14.8201 9.29513 14.8205 9.30056 14.821C9.31144 14.8219 9.32232 14.8228 9.3333 14.8233C9.40091 14.8268 9.46865 14.8268 9.53625 14.8233C9.5472 14.8227 9.55808 14.8218 9.56897 14.8209C9.57441 14.8205 9.57985 14.82 9.5853 14.8196C9.59088 14.8192 9.59648 14.8188 9.60208 14.8185C9.6133 14.8177 9.62451 14.817 9.63561 14.8158C9.65819 14.8136 9.68059 14.8106 9.70299 14.8075L9.703 14.8075C9.70651 14.8071 9.71002 14.8067 9.71352 14.8063C9.71997 14.8055 9.72641 14.8048 9.73285 14.8038C9.7604 14.7997 9.78777 14.7948 9.81501 14.7895C9.81919 14.7887 9.82343 14.7881 9.82761 14.7873C10.7138 14.6107 11.3943 13.8482 11.4423 12.9074C11.4448 12.8651 11.4499 12.823 11.4576 12.7813C11.47 12.2337 11.9169 11.7933 12.4674 11.7933C13.0179 11.7933 13.4648 12.2336 13.4771 12.7813C13.4849 12.823 13.49 12.8652 13.4924 12.9075C13.5405 13.8483 14.2209 14.6108 15.1072 14.7874C15.1113 14.7882 15.1156 14.7888 15.1198 14.7896C15.1471 14.7949 15.1744 14.7996 15.2019 14.8038C15.2119 14.8052 15.2218 14.8063 15.2318 14.8076L15.2403 14.8087C15.2599 14.8113 15.2794 14.8139 15.2992 14.8159C15.3113 14.8171 15.3236 14.8179 15.3359 14.8188C15.3405 14.8191 15.345 14.8194 15.3495 14.8197C15.3658 14.8209 15.3821 14.8225 15.3985 14.8233C15.4661 14.8268 15.5339 14.8268 15.6015 14.8233C15.6124 14.8227 15.6233 14.8218 15.6342 14.8209C15.6396 14.8205 15.6451 14.82 15.6505 14.8196C15.6561 14.8192 15.6617 14.8188 15.6673 14.8185C15.6785 14.8177 15.6897 14.817 15.7008 14.8158C15.7234 14.8136 15.7458 14.8106 15.7682 14.8075C15.7717 14.8071 15.7752 14.8067 15.7787 14.8063C15.7852 14.8055 15.7916 14.8048 15.7981 14.8038C15.8256 14.7997 15.853 14.7948 15.8802 14.7895C15.8826 14.7891 15.885 14.7887 15.8874 14.7883C15.8892 14.7879 15.891 14.7876 15.8928 14.7873C16.7791 14.6107 17.4595 13.8482 17.5076 12.9074C17.51 12.8651 17.5151 12.823 17.5229 12.7813C17.5352 12.2337 17.9821 11.7933 18.5326 11.7933C19.0832 11.7933 19.53 12.2336 19.5424 12.7813C19.5501 12.823 19.5552 12.8652 19.5577 12.9075C19.6057 13.8483 20.2862 14.6108 21.1724 14.7874C21.1748 14.7878 21.1772 14.7882 21.1796 14.7887C21.1814 14.789 21.1832 14.7893 21.185 14.7896C21.2123 14.7949 21.2397 14.7996 21.2672 14.8038C21.2726 14.8046 21.278 14.8052 21.2834 14.8059C21.2879 14.8064 21.2925 14.807 21.297 14.8076C21.3194 14.8106 21.3417 14.8136 21.3644 14.8159C21.3765 14.8171 21.3889 14.8179 21.4012 14.8188C21.4057 14.8191 21.4102 14.8194 21.4147 14.8197C21.4201 14.8201 21.4256 14.8205 21.431 14.821C21.4419 14.8219 21.4528 14.8228 21.4637 14.8233C21.5314 14.8268 21.5991 14.8268 21.6667 14.8233C21.6831 14.8225 21.6993 14.8208 21.7157 14.8196C21.7325 14.8184 21.7494 14.8175 21.7661 14.8158C21.7886 14.8136 21.811 14.8106 21.8334 14.8075C21.837 14.8071 21.8405 14.8067 21.844 14.8063C21.8504 14.8055 21.8569 14.8048 21.8633 14.8038C21.8908 14.7997 21.9182 14.7948 21.9455 14.7895C21.9478 14.7891 21.9502 14.7887 21.9526 14.7883C21.9544 14.7879 21.9562 14.7876 21.958 14.7873C22.8443 14.6107 23.5247 13.8482 23.5728 12.9074C23.5752 12.8651 23.5804 12.823 23.5881 12.7813C23.6004 12.2337 24.0473 11.7933 24.5978 11.7933C25.1561 11.7933 25.6087 12.246 25.6087 12.8042V13.1412C25.6087 14.0702 26.3645 14.826 27.2935 14.826C27.3289 14.826 27.3642 14.8247 27.3995 14.8223L27.4032 14.8221C27.6525 14.8044 27.8975 14.7264 28.1328 14.5894C28.1658 14.5702 28.1998 14.5533 28.2343 14.5382ZM6.40152 18.1953H14.4885C15.0468 18.1953 15.4993 18.6479 15.4993 19.2061V25.9453C15.4993 26.5036 15.0467 26.9562 14.4885 26.9562H6.40152C5.84321 26.9562 5.39062 26.5036 5.39062 25.9453V19.2062C5.39062 18.6479 5.84327 18.1953 6.40152 18.1953ZM7.41241 24.9344H13.4776V20.217H7.41241V24.9344Z" fill="#D52623"/>
</svg>
