<svg width="34" height="32" viewBox="0 0 34 32" fill="none" xmlns="http://www.w3.org/2000/svg">
<path d="M30.8789 12.2188H30.1775C29.6665 5.39557 23.9516 0 17 0C10.0484 0 4.33347 5.39557 3.82254 12.2188H3.12109C1.40011 12.2188 0 13.6189 0 15.3398V19.5898C0 21.3108 1.40011 22.7109 3.12109 22.7109H3.94911C4.26016 23.6317 4.98957 24.3615 5.91016 24.6726V26.4961C5.91016 28.2171 7.31027 29.6172 9.03125 29.6172H13.5116C13.9284 30.851 15.0961 31.7422 16.4688 31.7422H17.5312C19.2522 31.7422 20.6523 30.3421 20.6523 28.6211C20.6523 26.9001 19.2522 25.5 17.5312 25.5H16.4688C15.0961 25.5 13.9284 26.3912 13.5116 27.625H9.03125C8.40876 27.625 7.90234 27.1186 7.90234 26.4961V24.672C9.13617 24.2553 10.0273 23.0875 10.0273 21.7148V13.2148C10.0273 11.2088 8.15329 9.71849 6.19557 10.1764C7.52383 5.45972 11.8644 1.99219 17 1.99219C22.1356 1.99219 26.4762 5.45972 27.8044 10.1764C25.8503 9.71929 23.9727 11.2054 23.9727 13.2148V21.7148C23.9727 23.4358 25.3728 24.8359 27.0938 24.8359C28.4664 24.8359 29.6341 23.9448 30.0509 22.7109H30.8789C32.5999 22.7109 34 21.3108 34 19.5898V15.3398C34 13.6189 32.5999 12.2188 30.8789 12.2188ZM3.78516 20.7188H3.12109C2.4986 20.7188 1.99219 20.2123 1.99219 19.5898V15.3398C1.99219 14.7174 2.4986 14.2109 3.12109 14.2109H3.78516V20.7188ZM16.4688 27.4922H17.5312C18.1537 27.4922 18.6602 27.9986 18.6602 28.6211C18.6602 29.2436 18.1537 29.75 17.5312 29.75H16.4688C15.8463 29.75 15.3398 29.2436 15.3398 28.6211C15.3398 27.9986 15.8463 27.4922 16.4688 27.4922ZM6.90625 12.0859C7.52874 12.0859 8.03516 12.5924 8.03516 13.2148V21.7148C8.03516 22.3373 7.52874 22.8438 6.90625 22.8438C6.28376 22.8438 5.77734 22.3373 5.77734 21.7148V13.2148C5.77734 12.5924 6.28376 12.0859 6.90625 12.0859ZM27.0938 22.8438C26.4713 22.8438 25.9648 22.3373 25.9648 21.7148V13.2148C25.9648 12.5924 26.4713 12.0859 27.0938 12.0859C27.7162 12.0859 28.2227 12.5924 28.2227 13.2148V21.7148C28.2227 22.3373 27.7162 22.8438 27.0938 22.8438ZM32.0078 19.5898C32.0078 20.2123 31.5014 20.7188 30.8789 20.7188H30.2148V14.2109H30.8789C31.5014 14.2109 32.0078 14.7174 32.0078 15.3398V19.5898Z" fill="#D52623"/>
<path d="M13.2812 18.4609C13.8314 18.4609 14.2773 18.015 14.2773 17.4648C14.2773 16.9147 13.8314 16.4688 13.2812 16.4688C12.7311 16.4688 12.2852 16.9147 12.2852 17.4648C12.2852 18.015 12.7311 18.4609 13.2812 18.4609Z" fill="#D52623"/>
<path d="M17 18.4609C17.5501 18.4609 17.9961 18.015 17.9961 17.4648C17.9961 16.9147 17.5501 16.4688 17 16.4688C16.4499 16.4688 16.0039 16.9147 16.0039 17.4648C16.0039 18.015 16.4499 18.4609 17 18.4609Z" fill="#D52623"/>
<path d="M20.7188 18.4609C21.2689 18.4609 21.7148 18.015 21.7148 17.4648C21.7148 16.9147 21.2689 16.4688 20.7188 16.4688C20.1686 16.4688 19.7227 16.9147 19.7227 17.4648C19.7227 18.015 20.1686 18.4609 20.7188 18.4609Z" fill="#D52623"/>
</svg>
