<svg width="33" height="18" viewBox="0 0 33 18" xmlns="http://www.w3.org/2000/svg">
<path d="M16.5 14.9237L2.10875 0.373709C1.99277 0.253916 1.85508 0.15921 1.70365 0.0950717C1.55221 0.0309314 1.39004 -0.00136763 1.22651 4.38154e-05C1.06298 0.00145526 0.901348 0.0365486 0.75096 0.103294C0.600571 0.170038 0.464415 0.267107 0.350371 0.388885C0.236327 0.510664 0.146659 0.654732 0.0865569 0.812754C0.0264543 0.970776 -0.00288956 1.13961 0.000223378 1.3095C0.00333631 1.47938 0.0388443 1.64693 0.104692 1.80246C0.17054 1.95799 0.265421 2.09841 0.383844 2.21559L15.6375 17.636C15.8684 17.8694 16.1779 18 16.5 18C16.8221 18 17.1316 17.8694 17.3625 17.636L32.6162 2.21559C32.7346 2.09841 32.8295 1.95799 32.8953 1.80246C32.9612 1.64693 32.9967 1.47938 32.9998 1.3095C33.0029 1.13961 32.9735 0.970774 32.9134 0.812752C32.8533 0.65473 32.7637 0.510663 32.6496 0.388884C32.5356 0.267106 32.3994 0.170037 32.249 0.103293C32.0987 0.0365472 31.937 0.00145391 31.7735 4.24802e-05C31.61 -0.00136895 31.4478 0.0309301 31.2964 0.0950704C31.1449 0.159209 31.0072 0.253914 30.8913 0.373707L16.5 14.9237Z" />
</svg>
