<svg width="20" height="24" viewBox="0 0 20 24" xmlns="http://www.w3.org/2000/svg">
<g  >
<path d="M16.6145 7.2117H14.2126C13.7269 7.2117 13.3326 7.60536 13.3326 8.09172C13.3326 8.57807 13.7269 8.97173 14.2126 8.97173H16.6151C17.1003 8.97173 17.4951 9.36656 17.4951 9.85174V21.36C17.4951 21.8451 17.1003 22.24 16.6151 22.24H3.38613C2.90095 22.24 2.50612 21.8451 2.50612 21.36V9.85174C2.50612 9.36656 2.90095 8.97173 3.38613 8.97173H5.78857C6.27492 8.97173 6.66858 8.57807 6.66858 8.09172C6.66858 7.60536 6.27492 7.2117 5.78857 7.2117H3.38613C1.93059 7.2117 0.746094 8.3962 0.746094 9.85174V21.36C0.746094 22.8155 1.93059 24 3.38613 24H16.6151C18.0706 24 19.2551 22.8155 19.2551 21.36V9.85174C19.2545 8.39561 18.0706 7.2117 16.6145 7.2117ZM6.71903 5.43525L9.14963 3.00466V14.5903C9.14963 15.0761 9.54329 15.4703 10.0296 15.4703C10.516 15.4703 10.9097 15.0761 10.9097 14.5903V3.00466L13.3403 5.43525C13.5121 5.60715 13.7374 5.6928 13.9627 5.6928C14.188 5.6928 14.4133 5.60715 14.5852 5.43525C14.929 5.09205 14.929 4.53412 14.5852 4.19091L10.6527 0.257844C10.3083 -0.0859479 9.75156 -0.0859479 9.40777 0.257844L5.4747 4.19091C5.1309 4.53412 5.1309 5.09205 5.4747 5.43525C5.81849 5.77904 6.37524 5.77904 6.71903 5.43525Z" />
</g>
</svg>
