<svg xmlns="http://www.w3.org/2000/svg" width="16" height="17" viewBox="0 0 16 17" >
<path d="M14.5938 2.59534H1.40625C0.630844 2.59534 0 3.22618 0 4.00159V12.151C0 12.9264 0.630844 13.5573 1.40625 13.5573H14.5938C15.3692 13.5573 16 12.9264 16 12.151V4.00159C16 3.22618 15.3692 2.59534 14.5938 2.59534ZM14.4102 3.53284L14.2225 3.68912L8.55794 8.40602C8.23462 8.67521 7.76531 8.67521 7.44206 8.40602L1.77747 3.68912L1.58978 3.53284H14.4102ZM0.9375 4.20965L5.55288 8.05287L0.9375 11.1245V4.20965ZM14.5938 12.6198H1.40625C1.17975 12.6198 0.990313 12.4583 0.946906 12.2444L6.30456 8.67877L6.84219 9.12646C7.16714 9.39744 7.57692 9.54572 8.00003 9.54543C8.42314 9.54571 8.83292 9.39743 9.15788 9.12646L9.6955 8.67877L15.0531 12.2444C15.0097 12.4583 14.8202 12.6198 14.5938 12.6198ZM15.0625 11.1245L10.4471 8.0529L15.0625 4.20965V11.1245Z" />
</svg>