<svg xmlns="http://www.w3.org/2000/svg" width="13" height="19" viewBox="0 0 13 19" >
  <path d="M8.07711 0.821289C7.02344 0.821289 6.03289 1.2316 5.28785 1.97663C4.54277 2.72171 4.13246 3.71231 4.13241 4.76598V11.8667C4.13241 13.1718 5.19413 14.2335 6.49931 14.2336C7.80439 14.2335 8.86611 13.1717 8.86611 11.8666V7.76925C8.86611 7.33354 8.51287 6.9803 8.07716 6.9803C7.64145 6.9803 7.28821 7.33354 7.28821 7.76925V11.8666C7.28821 12.3017 6.93423 12.6556 6.49931 12.6557C6.06429 12.6557 5.71031 12.3018 5.71031 11.8667V4.76598C5.71031 4.13377 5.95657 3.53938 6.40359 3.09236C6.85066 2.64529 7.44495 2.39913 8.07711 2.39913C9.38224 2.39913 10.444 3.46085 10.4441 4.76588V12.6555C10.444 14.8306 8.67439 16.6003 6.49931 16.6003C5.44564 16.6003 4.45499 16.19 3.70996 15.4449C2.96487 14.6999 2.55457 13.7092 2.55457 12.6555L2.55446 4.76598C2.55446 4.33022 2.20122 3.97703 1.76551 3.97703C1.3298 3.97703 0.976562 4.33027 0.976562 4.76598L0.976668 12.6555C0.976615 14.1307 1.55108 15.5176 2.59417 16.5607C3.63727 17.6038 5.02414 18.1783 6.49931 18.1782C9.54439 18.1782 12.0219 15.7008 12.022 12.6556V4.76593C12.0219 2.59085 10.2522 0.821289 8.07711 0.821289Z" />
</svg>