<svg xmlns="http://www.w3.org/2000/svg" width="25" height="22" viewBox="0 0 25 22"><path d="M0.78125 4.33168H13.5016C13.8525 5.85375 15.1349 6.98574 16.6595 6.98574C18.184 6.98574 19.4665 5.85375 19.8173 4.33168H24.2188C24.6502 4.33168 25 3.95611 25 3.49289C25 3.02968 24.6502 2.65411 24.2188 2.65411H19.8173C19.4665 1.13204 18.184 0 16.6594 0C15.1348 0 13.8524 1.13204 13.5016 2.65411H0.78125C0.349805 2.65411 0 3.02968 0 3.49289C0 3.95611 0.349805 4.33168 0.78125 4.33168ZM16.6595 1.67756C17.5918 1.67756 18.3503 2.49191 18.3503 3.49284C18.3503 4.49382 17.5918 5.30818 16.6595 5.30818C15.7271 5.30818 14.9687 4.49382 14.9687 3.49284C14.9687 2.49191 15.7271 1.67756 16.6595 1.67756ZM0.78125 11.5865H5.18271C5.53359 13.1086 6.81597 14.2406 8.34058 14.2406C9.86519 14.2406 11.1476 13.1086 11.4984 11.5865H24.2188C24.6502 11.5865 25 11.2109 25 10.7477C25 10.2845 24.6502 9.90894 24.2188 9.90894H11.4984C11.1475 8.38687 9.86514 7.25483 8.34053 7.25483C6.81592 7.25483 5.53355 8.38687 5.18267 9.90894H0.78125C0.349805 9.90894 0 10.2845 0 10.7477C0 11.2109 0.349756 11.5865 0.78125 11.5865ZM8.34053 8.93239C9.27285 8.93239 10.0313 9.74674 10.0313 10.7477C10.0313 11.7487 9.27285 12.563 8.34053 12.563C7.4082 12.563 6.64971 11.7487 6.64971 10.7477C6.64971 9.74674 7.4082 8.93239 8.34053 8.93239ZM24.2188 17.1638H19.8173C19.4664 15.6417 18.184 14.5097 16.6594 14.5097C15.1348 14.5097 13.8524 15.6417 13.5016 17.1638H0.78125C0.349805 17.1638 0 17.5393 0 18.0026C0 18.4658 0.349805 18.8413 0.78125 18.8413H13.5016C13.8525 20.3634 15.1349 21.4954 16.6595 21.4954C18.1841 21.4954 19.4665 20.3634 19.8173 18.8413H24.2188C24.6502 18.8413 25 18.4658 25 18.0026C25 17.5393 24.6502 17.1638 24.2188 17.1638ZM16.6595 19.8179C15.7271 19.8179 14.9687 19.0035 14.9687 18.0026C14.9687 17.0016 15.7271 16.1872 16.6595 16.1872C17.5918 16.1872 18.3503 17.0016 18.3503 18.0026C18.3503 19.0035 17.5918 19.8179 16.6595 19.8179Z" /></svg>