<svg width="70" height="71" viewBox="0 0 70 71" fill="none" xmlns="http://www.w3.org/2000/svg">
<circle cx="35" cy="35.9609" r="35" fill="url(#paint0_linear_446_3553)"/>
<path fill-rule="evenodd" clip-rule="evenodd" d="M66.6443 34.7254C66.0505 18.0494 52.5789 4.24785 34.8046 4.29406C17.3193 4.35414 2.77316 18.6895 3.34854 36.9829C3.88925 54.1211 17.6728 67.6522 35.0681 67.6245C52.8122 67.5991 67.3029 53.2407 66.6443 34.7254ZM4.90597 36.1326C4.80892 19.2486 18.8836 5.59958 35.0935 5.94387C51.308 5.70587 65.0407 19.385 65.0661 35.6011C65.0915 52.6815 51.7054 66.0602 34.7423 66.0209C18.4746 65.984 4.9984 52.5082 4.90597 36.1326ZM36.7322 30.5233C39.3799 31.6526 39.7929 32.508 39.1115 35.3305C39.0419 35.6189 38.9768 35.9091 38.9118 36.1993L38.9117 36.1997L38.9116 36.2001L38.9115 36.2005L38.9114 36.2009C38.7498 36.9217 38.588 37.6432 38.3559 38.3413C37.5448 40.7721 35.6084 41.8881 33.2445 41.9667C30.1695 42.0691 27.09 42.048 23.9456 42.0265H23.9451H23.9446H23.9441H23.9436C22.618 42.0174 21.2809 42.0083 19.9277 42.0083C19.984 41.716 20.0377 41.4251 20.0912 41.1356C20.2157 40.4616 20.3389 39.7949 20.4892 39.1338C20.9873 36.9317 21.4886 34.7305 21.9899 32.5293L21.9906 32.5264L21.9908 32.5252L21.9909 32.5251L21.9909 32.5249L21.9909 32.5248C22.9453 28.3342 23.8996 24.1438 24.8311 19.9484C25.0067 19.1605 25.2748 18.8902 26.109 18.9017C27.8397 18.9283 29.5705 18.9254 31.3012 18.9225C33.0319 18.9196 34.7627 18.9167 36.4934 18.9433C37.598 18.9595 38.7187 19.1212 39.7955 19.3754C41.4199 19.7567 42.1894 20.7664 41.9445 22.4093C41.6857 24.1446 41.2605 25.873 40.7244 27.5459C40.2807 28.9323 39.2247 29.8357 37.7643 30.1962C37.5364 30.252 37.3139 30.3276 37.0711 30.4101C36.9629 30.4468 36.8507 30.485 36.7322 30.5233ZM26.7985 27.6573H26.8037H26.8089C29.2844 27.6583 31.7093 27.6594 34.1342 27.6406C34.3375 27.6406 34.6564 27.4327 34.7234 27.2501C34.9291 26.6771 35.1185 26.0717 35.1509 25.4709C35.1648 25.2237 34.7604 24.7361 34.5385 24.7315C31.8465 24.6807 29.1522 24.6876 26.4579 24.7246C26.1829 24.7292 25.7485 24.9649 25.6722 25.1913C25.4881 25.7305 25.3694 26.2924 25.2393 26.9085C25.1885 27.149 25.136 27.3978 25.0771 27.6568C25.6505 27.6568 26.2206 27.657 26.788 27.6573H26.7932H26.7985ZM23.0939 36.3957C23.7714 36.3957 24.4369 36.3963 25.0931 36.397L25.0998 36.397C27.4716 36.3993 29.7219 36.4015 31.9736 36.3726C32.2301 36.3703 32.6322 36.0838 32.7108 35.8458C32.8821 35.3188 32.9923 34.7722 33.1147 34.1654L33.1147 34.1654L33.1147 34.1653L33.1147 34.1653L33.1148 34.1653L33.1148 34.165L33.1149 34.1645C33.1658 33.9122 33.2188 33.6494 33.2792 33.3734C32.6535 33.3734 32.0342 33.3729 31.4199 33.3724H31.4198H31.4198H31.4198H31.4196H31.4195H31.4193H31.4192C28.9866 33.3706 26.6327 33.3688 24.2789 33.3965C24.0524 33.3988 23.6942 33.6761 23.6295 33.8956C23.4705 34.4407 23.3637 35 23.2444 35.6247L23.2444 35.6248L23.2444 35.6249L23.2444 35.625L23.2444 35.6251L23.2443 35.6252C23.1974 35.8709 23.1486 36.1267 23.0939 36.3957ZM51.7668 54.4189H45.514C46.8588 48.6006 48.1852 42.8633 49.5578 36.9365C49.2668 36.9365 48.9842 36.9264 48.7091 36.9166C48.0514 36.8932 47.4361 36.8713 46.8496 36.9919C46.5076 37.0612 46.1471 37.7128 46.0408 38.1565C45.0449 42.2972 44.0813 46.4448 43.1686 50.6063C43.0207 51.2764 42.8012 51.4959 42.1287 51.4797C40.9091 51.4503 39.6882 51.4556 38.3814 51.4611H38.3812H38.3811H38.3809C37.8385 51.4635 37.2812 51.4659 36.7031 51.4659C36.799 51.0374 36.8927 50.6171 36.9851 50.2029L36.9881 50.1893C37.2264 49.1208 37.4557 48.0924 37.6898 47.0664C37.9541 45.9059 38.2227 44.7464 38.4913 43.5869L38.4916 43.5855L38.4917 43.5852L38.4918 43.5848L38.4919 43.5844C39.1836 40.5982 39.8754 37.6123 40.4927 34.6119C40.6331 33.9318 40.5566 33.2064 40.475 32.4329L40.475 32.4328L40.4749 32.4326L40.4749 32.4324C40.4357 32.0603 40.3952 31.677 40.3772 31.2823C40.5433 31.2823 40.7214 31.282 40.9076 31.2818H40.9078H40.9081H40.9084C41.3073 31.2813 41.7434 31.2807 42.1796 31.2823C43.1593 31.2881 44.1391 31.2914 45.1191 31.2947L45.121 31.2947H45.1213C47.6423 31.3031 50.1638 31.3116 52.6842 31.3631C54.891 31.4094 56.0694 32.2735 56.2173 33.9257C56.2866 34.7136 56.1804 35.5477 56.0001 36.3264C54.92 41.0139 53.8189 45.6944 52.7109 50.4039C52.3966 51.7396 52.0819 53.0777 51.7668 54.4189ZM34.3969 47.3578L34.398 47.3529C34.7373 45.8829 35.0734 44.4271 35.4063 42.984V42.9817C34.8424 42.9817 34.3004 42.9877 33.7738 42.9936L33.773 42.9936C32.58 43.007 31.4658 43.0195 30.355 42.9586C29.3614 42.9054 28.964 43.3283 28.7883 44.2132C28.5863 45.2367 28.3544 46.254 28.1224 47.2714C28.0732 47.4874 28.0239 47.7034 27.975 47.9195C27.6126 49.5202 27.2451 51.1196 26.8772 52.7206L26.8769 52.7219C26.7499 53.2744 26.6229 53.8271 26.4961 54.3801H32.7767C33.323 52.0094 33.8609 49.6797 34.3907 47.3847L34.3924 47.3771L34.3969 47.3578ZM23.4213 19.1308C22.5155 23.1329 21.6258 27.0541 20.7362 30.9752C20.537 31.8537 20.3368 32.7317 20.1365 33.6098L20.1365 33.6099C19.612 35.9098 19.0876 38.2093 18.5826 40.5136L18.5658 40.5901C18.2087 42.2213 18.2085 42.2224 16.2695 41.9971C16.385 41.4875 16.4997 40.9784 16.6143 40.4698L16.6148 40.4677L16.6149 40.4675C16.8603 39.3786 17.1053 38.2917 17.3556 37.2071C18.5433 32.0497 19.7356 26.8923 20.928 21.7349C20.9772 21.5238 21.0366 21.3149 21.0959 21.106L21.0959 21.106C21.1729 20.8349 21.2498 20.5639 21.3046 20.2885C21.5958 18.8212 21.7991 18.6918 23.419 19.1308H23.4213ZM19.7908 18.9805C19.7908 18.9804 19.7908 18.9804 19.7908 18.9804H19.7931C19.7924 18.9804 19.7916 18.9804 19.7908 18.9805ZM19.0152 22.4072C19.271 21.276 19.5288 20.1359 19.7908 18.9805C19.5852 18.9835 19.3772 18.9582 19.1754 18.9337C18.5232 18.8545 17.9369 18.7832 17.7112 19.7037C17.2259 21.6723 16.7661 23.648 16.3109 25.6259C15.4074 29.5424 14.5131 33.4613 13.6211 37.3802C13.3724 38.4709 13.1329 39.5628 12.892 40.6607C12.7905 41.1234 12.6887 41.5871 12.5859 42.0523C14.6284 42.1741 14.6287 42.1725 14.9375 40.2624L14.9429 40.2292C15.0034 39.8531 15.1026 39.4832 15.2018 39.1135C15.2616 38.8904 15.3214 38.6674 15.3727 38.4431C16.2415 34.6282 17.1081 30.8156 17.9746 27.0007C18.3212 25.4756 18.6663 23.9498 19.0152 22.4072Z" fill="black"/>
<defs>
<linearGradient id="paint0_linear_446_3553" x1="35" y1="0.960937" x2="35" y2="70.9609" gradientUnits="userSpaceOnUse">
<stop stop-color="white"/>
<stop offset="0.286458" stop-color="white" stop-opacity="0.709916"/>
<stop offset="0.411458" stop-color="white" stop-opacity="0.583333"/>
<stop offset="0.510417" stop-color="#ACABAB" stop-opacity="0.489583"/>
<stop offset="0.59375" stop-color="#DDDDDD" stop-opacity="0.792052"/>
<stop offset="0.651042" stop-color="white"/>
</linearGradient>
</defs>
</svg>
