<svg width="22" height="22" viewBox="0 0 22 22" xmlns="http://www.w3.org/2000/svg">
<path d="M9.359 0.575981C9.8244 0.203153 10.4029 0 10.9992 0C11.5956 0 12.1741 0.203153 12.6395 0.575981L20.5145 6.87598C21.137 7.37398 21.5 8.12848 21.5 8.92648V19.455C21.5 20.1512 21.2234 20.8189 20.7312 21.3111C20.2389 21.8034 19.5712 22.08 18.875 22.08H13.625C13.3266 22.08 13.0405 21.9615 12.8295 21.7505C12.6185 21.5395 12.5 21.2534 12.5 20.955V13.08H9.5V20.955C9.5 21.2534 9.38147 21.5395 9.1705 21.7505C8.95952 21.9615 8.67337 22.08 8.375 22.08H3.125C2.42881 22.08 1.76113 21.8034 1.26884 21.3111C0.776562 20.8189 0.5 20.1512 0.5 19.455V8.92498C0.5 8.12848 0.863 7.37398 1.4855 6.87598L9.359 0.575981ZM11.234 2.33248C11.1676 2.27942 11.085 2.25052 11 2.25052C10.915 2.25052 10.8324 2.27942 10.766 2.33248L2.891 8.63248C2.84688 8.66771 2.81129 8.71245 2.78687 8.76336C2.76246 8.81426 2.74985 8.87002 2.75 8.92648V19.455C2.75 19.662 2.918 19.83 3.125 19.83H7.25V11.955C7.25 11.6566 7.36853 11.3705 7.5795 11.1595C7.79048 10.9485 8.07663 10.83 8.375 10.83H13.625C13.9234 10.83 14.2095 10.9485 14.4205 11.1595C14.6315 11.3705 14.75 11.6566 14.75 11.955V19.83H18.875C18.9745 19.83 19.0698 19.7905 19.1402 19.7201C19.2105 19.6498 19.25 19.5544 19.25 19.455V8.92498C19.2499 8.86878 19.2372 8.81331 19.2128 8.76268C19.1884 8.71205 19.1529 8.66755 19.109 8.63248L11.234 2.33248Z"/>
</svg>
