<svg width="23" height="24" viewBox="0 0 23 24" xmlns="http://www.w3.org/2000/svg">
<path fill-rule="evenodd" clip-rule="evenodd" d="M22.4068 4.79579C22.69 5.52399 22.8877 6.36426 22.9416 7.58661C22.9954 8.81346 23 9.20443 23 12.3277C23 15.451 22.9865 15.842 22.9326 17.0688C22.8787 18.2911 22.6808 19.1271 22.3979 19.8596C22.1022 20.6242 21.6501 21.3185 21.0704 21.8982C20.4908 22.4778 19.7964 22.9299 19.0318 23.2255C18.3038 23.5087 17.4635 23.7063 16.2412 23.7602C15.0143 23.8143 14.6234 23.8276 11.5001 23.8276C8.37683 23.8276 7.98568 23.8143 6.75901 23.7602C5.53648 23.7064 4.7007 23.5086 3.96819 23.2255C3.20422 22.938 2.50766 22.484 1.93239 21.8998C1.34818 21.3245 0.894428 20.6325 0.602322 19.8596C0.319159 19.1314 0.121336 18.2912 0.067409 17.0688C0.0135267 15.842 0 15.451 0 12.3277C0 9.20443 0.0135267 8.8135 0.0719928 7.58203C0.125875 6.35977 0.323563 5.52399 0.606681 4.79139C0.894428 4.02742 1.34818 3.33086 1.93239 2.75563C2.50766 2.16684 3.19964 1.71745 3.97277 1.42534C4.70075 1.1424 5.54107 0.944578 6.76337 0.890651C7.99026 0.836724 8.38119 0.823242 11.5045 0.823242C14.6278 0.823242 15.0187 0.836724 16.2502 0.895235C17.4725 0.949072 18.3084 1.14681 19.0408 1.42992C19.8047 1.71745 20.5013 2.17142 21.0766 2.75563C21.6653 3.3309 22.1147 4.02288 22.4068 4.79579ZM20.4745 19.1136C20.6317 18.7091 20.8204 18.1024 20.87 16.9789C20.9239 15.7656 20.9373 15.4061 20.9373 12.3367C20.9373 9.26725 20.9238 8.90338 20.8699 7.69002C20.8204 6.57089 20.6317 5.95985 20.4745 5.5554C20.2901 5.05648 19.998 4.60709 19.616 4.23405C19.2476 3.85206 18.7936 3.55996 18.2949 3.3758C17.8904 3.21851 17.2838 3.02985 16.1603 2.98033C14.9513 2.9264 14.5874 2.91292 11.5134 2.91292C8.44424 2.91292 8.08014 2.9264 6.86678 2.98033C5.74788 3.02981 5.13661 3.21855 4.73216 3.37584C4.23324 3.55996 3.78385 3.85206 3.41103 4.23405C3.02446 4.60264 2.73236 5.05648 2.54802 5.5554C2.39073 5.95985 2.20203 6.56653 2.15273 7.69002C2.09862 8.8988 2.08532 9.26725 2.08532 12.3367C2.08532 15.4061 2.09862 15.7702 2.15273 16.9835C2.20203 18.1024 2.39073 18.7137 2.54802 19.1181C2.73236 19.6169 3.02446 20.0663 3.40645 20.4393C3.77495 20.8212 4.22888 21.1134 4.72757 21.2977C5.13203 21.455 5.73871 21.6437 6.86219 21.693C8.0712 21.7471 8.43965 21.7604 11.5091 21.7604C14.5785 21.7604 14.9423 21.7471 16.1557 21.693C17.2748 21.6437 17.8859 21.455 18.2903 21.2977C19.2925 20.9111 20.0879 20.1157 20.4745 19.1136ZM5.5957 12.3274C5.5957 9.06476 8.24272 6.41792 11.5052 6.41792C14.7678 6.41792 17.4147 9.06476 17.4147 12.3274C17.4147 15.5901 14.7678 18.237 11.5052 18.237C8.24272 18.237 5.5957 15.5901 5.5957 12.3274ZM7.67181 12.3274C7.67181 14.4442 9.38867 16.1608 11.5052 16.1608C13.6219 16.1608 15.3386 14.4442 15.3386 12.3274C15.3386 10.2107 13.6219 8.49412 11.5052 8.49412C9.38867 8.49412 7.67181 10.2107 7.67181 12.3274ZM17.6483 7.56387C18.4104 7.56387 19.0282 6.94614 19.0282 6.18424C19.0282 5.4222 18.4104 4.80469 17.6484 4.80469C16.8865 4.80469 16.2688 5.42224 16.2688 6.18424C16.2688 6.94614 16.8865 7.56387 17.6483 7.56387Z" />
</svg>
