<svg width="239" height="33" viewBox="0 0 239 33" fill="none" xmlns="http://www.w3.org/2000/svg">
<path d="M59.5611 13.2314V12.1168C59.5611 10.312 58.0768 8.84857 56.2463 8.84857H41.5352V12.6741H54.5964V14.9035H41.5352V24.1507H56.2463C58.0768 24.1507 59.5611 22.6872 59.5611 20.8825V19.7678C59.5611 17.963 58.0768 16.4996 56.2463 16.4996C58.0768 16.4996 59.5611 15.0362 59.5611 13.2314ZM54.5964 20.6117H46.4239V18.3823H54.5964V20.6117Z" fill="white"/>
<path d="M75.2056 8.84897V20.6121H67.2618V8.84897H62.373V21.4855C62.373 22.9574 63.5837 24.1511 65.0766 24.1511H77.3888C78.8816 24.1511 80.0923 22.9574 80.0923 21.4855V8.84897H75.2035H75.2056Z" fill="white"/>
<path d="M97.3841 14.9039H82.8418V15.7583C82.8418 17.1574 83.9927 18.2921 85.4117 18.2921H95.8646V20.963H82.8418C82.845 22.7245 84.2929 24.1511 86.0796 24.1511H97.3841C99.1729 24.1511 100.623 22.7214 100.623 20.9577V18.0962C100.623 16.3325 99.1729 14.9028 97.3841 14.9028V14.9039Z" fill="white"/>
<path d="M97.3499 8.84897H86.7218C84.5793 8.84897 82.8418 10.5621 82.8418 12.6745H100.623V12.0761C100.623 10.2934 99.158 8.84897 97.3499 8.84897Z" fill="white"/>
<path d="M235.763 14.9039H221.221V15.7583C221.221 17.1574 222.372 18.2921 223.791 18.2921H234.244V20.963H221.221C221.224 22.7245 222.672 24.1511 224.459 24.1511H235.763C237.552 24.1511 239.002 22.7214 239.002 20.9577V18.0962C239.002 16.3325 237.552 14.9028 235.763 14.9028V14.9039Z" fill="white"/>
<path d="M235.727 8.84897H225.099C222.956 8.84897 221.219 10.5621 221.219 12.6745H239V12.0761C239 10.2934 237.535 8.84897 235.727 8.84897Z" fill="white"/>
<path d="M120.27 14.9038H115.381V24.151H120.27V14.9038Z" fill="white"/>
<path d="M132.184 8.84897H118.955C116.982 8.84897 115.381 10.4272 115.381 12.3732V12.6745H123.126V22.223H128.015V12.6745H130.871V24.1511H135.76V12.3732C135.76 10.4272 134.159 8.84897 132.185 8.84897H132.184Z" fill="white"/>
<path d="M156.106 12.1393C156.106 10.3218 154.612 8.8479 152.767 8.8479H141.479C139.636 8.8479 138.141 10.3208 138.141 12.1393V12.6734H151.098V20.4193H143.147V14.9028H138.141V20.8597C138.141 22.6771 139.635 24.151 141.479 24.151H152.767C154.611 24.151 156.106 22.6781 156.106 20.8597V12.1393Z" fill="white"/>
<path d="M197.533 12.1393C197.533 10.3218 196.039 8.8479 194.195 8.8479H182.907C181.063 8.8479 179.568 10.3208 179.568 12.1393V12.6734H192.526V20.4193H184.575V14.9028H179.568V20.8597C179.568 22.6771 181.062 24.151 182.907 24.151H194.195C196.038 24.151 197.533 22.6781 197.533 20.8597V12.1393Z" fill="white"/>
<path d="M176.927 8.84897H170.343H165.455H158.871V12.5238H165.455V24.1511H170.343V12.5238H176.927V8.84897Z" fill="white"/>
<path d="M218.279 15.28V12.6745C218.279 10.5621 216.542 8.84897 214.399 8.84897H200.33V12.6745H213.391V14.9039H200.33V24.1511H205.219V18.3669H209.395L213.544 24.1511H218.28L214.164 18.3669H215.149C216.879 18.3669 218.281 16.9847 218.281 15.2789L218.279 15.28Z" fill="white"/>
<path d="M16.7351 33C7.50785 33 0 25.5976 0 16.5C0 7.4024 7.50785 0 16.7351 0C25.9623 0 33.4701 7.40135 33.4701 16.5C33.4701 25.5987 25.9633 33 16.7351 33ZM16.7351 0.842858C7.9791 0.842858 0.854865 7.86703 0.854865 16.5C0.854865 25.133 7.9791 32.1571 16.7351 32.1571C25.491 32.1571 32.6152 25.133 32.6152 16.5C32.6152 7.86703 25.491 0.842858 16.7351 0.842858Z" fill="white"/>
<path d="M19.8387 8.16414C19.2894 7.70373 18.4399 7.67422 17.756 7.67422H11.4813L10.059 13.6648L8.63672 19.6555H15.9191C17.1416 19.6555 18.2027 18.8252 18.4805 17.6526L18.9293 15.7614C19.2093 14.2327 18.3587 13.6648 17.2431 13.6648H17.3414C18.5638 13.6648 19.6249 12.8346 19.9028 11.662C19.9797 11.3396 20.0556 11.0162 20.1325 10.6938C20.3388 9.82351 20.6476 8.84264 19.8387 8.16414ZM15.4714 16.7771H10.3037L10.6969 15.1167H15.8646L15.4714 16.7771ZM16.5656 12.1593H11.3979L11.757 10.6432H16.9246L16.5656 12.1593Z" fill="white"/>
<path d="M5.7914 19.6561L7.21368 13.6655L8.63596 7.6749H7.69027L6.26799 13.6655L4.8457 19.6561H5.7914Z" fill="white"/>
<path d="M7.72304 19.6565L9.14532 13.6659L10.5676 7.67529H9.62191L8.19963 13.6659L6.77734 19.6565H7.72304Z" fill="white"/>
<path d="M26.2947 14.1284C26.2947 14.1284 19.4013 14.1284 19.3981 14.1284C19.6054 14.3655 19.662 14.691 19.6834 14.9934C19.7197 15.4917 19.6535 15.9859 19.553 16.4737C19.4814 16.8182 19.3938 17.1585 19.3137 17.4999C19.1384 18.2437 18.9632 18.9875 18.7879 19.7313C18.571 20.6542 18.353 21.5772 18.1361 22.4991C17.9875 23.1301 17.839 23.7612 17.6905 24.3923C17.6883 24.4039 17.652 24.5883 17.6445 24.5883H20.9582L22.7438 17.0047H24.3926L22.248 26.1107H25.5617L27.9104 16.1355C28.1519 15.1093 27.3622 14.1295 26.2936 14.1295L26.2947 14.1284Z" fill="white"/>
<path d="M15.919 20.3045H13.5553L12.1875 26.1107H15.5012L16.9042 20.1548C16.5922 20.2507 16.2609 20.3045 15.919 20.3045Z" fill="white"/>
</svg>
