<svg xmlns="http://www.w3.org/2000/svg" width="22" height="22" viewBox="0 0 22 22">
<path fill-rule="evenodd" clip-rule="evenodd" d="M16.5808 21.4588C14.7359 21.1328 12.9137 20.2862 11.3238 19.3152C9.4825 18.1906 7.76556 16.7888 6.24123 15.2645C4.71689 13.7402 3.31511 12.0232 2.1905 10.1819C1.21944 8.59202 0.372901 6.76996 0.0469604 4.92494C-0.0340802 4.50978 -0.0099473 4.08094 0.11716 3.67749C0.244268 3.27404 0.47031 2.90882 0.77469 2.61508L3.20591 0.183818C3.32444 0.0660795 3.48472 0 3.65178 0C3.81884 0 3.97912 0.0660795 4.09764 0.183818L8.46536 4.55154C8.5831 4.67007 8.64918 4.83035 8.64918 4.99742C8.64918 5.16449 8.5831 5.32478 8.46536 5.44331L6.14312 7.7653C5.98172 7.92544 5.88273 8.13791 5.86396 8.36451C5.84519 8.59111 5.90787 8.81697 6.04073 9.00149C6.46999 9.60503 6.9333 10.1866 7.41577 10.7486C7.92922 11.3464 8.46539 11.924 9.02426 12.4813C9.58143 13.0385 10.159 13.5747 10.757 14.0898C11.3188 14.5723 11.9004 15.0357 12.5041 15.4649C12.6886 15.5978 12.9145 15.6605 13.1411 15.6418C13.3678 15.623 13.5803 15.524 13.7404 15.3626L16.0626 13.0405C16.1811 12.9228 16.3414 12.8567 16.5085 12.8567C16.6755 12.8567 16.8358 12.9228 16.9543 13.0405L21.322 17.4082C21.4398 17.5267 21.5059 17.687 21.5059 17.8541C21.5059 18.0212 21.4398 18.1815 21.322 18.3L18.8909 20.7311C18.5971 21.0355 18.2319 21.2616 17.8285 21.3887C17.425 21.5158 16.9962 21.5399 16.581 21.4589L16.5808 21.4588Z" />
</svg>