<svg width="11" height="19" viewBox="0 0 11 19" fill="none" xmlns="http://www.w3.org/2000/svg">
<path d="M2.48628 0H8.20605C9.57706 0 10.6924 1.11532 10.6924 2.48633V16.5137C10.6924 17.8847 9.57706 19 8.20605 19H2.48628C1.11527 19 -5.24521e-05 17.8847 -5.24521e-05 16.5137V2.48633C-5.24521e-05 1.11532 1.11527 0 2.48628 0ZM8.20605 17.8867C8.96316 17.8867 9.5791 17.2708 9.5791 16.5137V15.2354H1.11323V16.5137C1.11323 17.2708 1.72917 17.8867 2.48628 17.8867H8.20605ZM2.48628 1.11328C1.73526 1.11328 1.1234 1.71965 1.11367 2.46852H9.57869C9.56908 1.71965 8.95719 1.11328 8.20605 1.11328H2.48628ZM1.11323 3.5818V14.1222H9.5791V3.5818H1.11323Z" fill="#656565"/>
<path d="M5.34623 16.0684C5.49277 16.0684 5.63642 16.1278 5.73992 16.2313C5.84357 16.3352 5.90283 16.4784 5.90283 16.625C5.90283 16.7716 5.84357 16.9148 5.73992 17.0187C5.63602 17.1222 5.49277 17.1816 5.34619 17.1816C5.19965 17.1816 5.05644 17.1222 4.9525 17.0187C4.849 16.9148 4.78959 16.7716 4.78959 16.625C4.78959 16.4784 4.849 16.3352 4.9525 16.2313C5.05644 16.1278 5.19965 16.0684 5.34623 16.0684Z" fill="#656565"/>
</svg>
