<svg width="10" height="11" viewBox="0 0 10 11"  xmlns="http://www.w3.org/2000/svg">
<path d="M7.82896 1.25864C8.21948 0.868119 8.85264 0.868119 9.24317 1.25864C9.63369 1.64917 9.63369 2.28233 9.24317 2.67286L2.1721 9.74393C1.78158 10.1344 1.14841 10.1344 0.757888 9.74393C0.367363 9.3534 0.367364 8.72024 0.757888 8.32971L7.82896 1.25864Z" />
<path d="M9.24302 8.32881C9.63354 8.71933 9.63354 9.35249 9.24302 9.74302C8.85249 10.1335 8.21933 10.1335 7.8288 9.74302L0.757737 2.67195C0.367212 2.28143 0.367213 1.64826 0.757737 1.25774C1.14826 0.867213 1.78143 0.867213 2.17195 1.25774L9.24302 8.32881Z" />
</svg>
