<svg width="24" height="24" viewBox="0 0 24 24" fill="none" xmlns="http://www.w3.org/2000/svg">
<path d="M23.0002 22.8401L17.7525 17.5923M17.7525 17.5923C18.6501 16.6946 19.3622 15.629 19.848 14.4561C20.3338 13.2833 20.5838 12.0262 20.5838 10.7568C20.5838 9.48728 20.3338 8.23023 19.848 7.05739C19.3622 5.88455 18.6501 4.81887 17.7525 3.92122C16.8548 3.02356 15.7891 2.3115 14.6163 1.82569C13.4434 1.33989 12.1864 1.08984 10.9169 1.08984C9.64744 1.08984 8.39039 1.33989 7.21755 1.82569C6.0447 2.3115 4.97903 3.02356 4.08137 3.92122C2.26848 5.73412 1.25 8.19293 1.25 10.7568C1.25 13.3206 2.26848 15.7794 4.08137 17.5923C5.89427 19.4052 8.35309 20.4237 10.9169 20.4237C13.4807 20.4237 15.9396 19.4052 17.7525 17.5923Z" stroke-linecap="round" stroke-linejoin="round"/>
</svg>
