<svg width="26" height="26" viewBox="0 0 26 26" fill="none" xmlns="http://www.w3.org/2000/svg">
<mask id="mask0_718_5986" style="mask-type:alpha" maskUnits="userSpaceOnUse" x="0" y="0" width="26" height="26">
<rect width="26" height="26" fill="#656565"/>
</mask>
<g mask="url(#mask0_718_5986)">
<path d="M10.8865 3.90039C9.69737 3.90039 8.53491 4.25302 7.54616 4.91368C6.55741 5.57434 5.78677 6.51337 5.3317 7.61201C4.87663 8.71065 4.75756 9.91956 4.98955 11.0859C5.22155 12.2522 5.79418 13.3235 6.63505 14.1644C7.47591 15.0052 8.54724 15.5779 9.71355 15.8099C10.8799 16.0419 12.0888 15.9228 13.1874 15.4677C14.2861 15.0127 15.2251 14.242 15.8857 13.2533C16.5464 12.2645 16.899 11.1021 16.899 9.91289C16.8971 8.31886 16.2631 6.79065 15.1359 5.6635C14.0088 4.53635 12.4806 3.90228 10.8865 3.90039ZM10.8865 15.1738C9.84601 15.1738 8.82887 14.8653 7.96371 14.2872C7.09855 13.7091 6.42424 12.8875 6.02605 11.9262C5.62787 10.9649 5.52368 9.90706 5.72668 8.88654C5.92967 7.86601 6.43073 6.9286 7.16648 6.19285C7.90224 5.45709 8.83965 4.95604 9.86017 4.75304C10.8807 4.55005 11.9385 4.65423 12.8998 5.05242C13.8611 5.45061 14.6828 6.12492 15.2608 6.99007C15.8389 7.85523 16.1475 8.87238 16.1475 9.91289C16.146 11.3077 15.5912 12.645 14.6049 13.6313C13.6186 14.6176 12.2814 15.1723 10.8865 15.1738Z" fill="#656565"/>
<path d="M18.9301 8.55242L18.1531 8.23848C17.9718 7.47658 17.6734 6.74822 17.269 6.08001L17.5978 5.30048C17.662 5.15535 17.6848 4.99489 17.6634 4.83733C17.6421 4.67976 17.5776 4.53141 17.4772 4.40911C17.3405 4.24266 17.1836 4.06788 16.9751 3.85101C16.7684 3.64702 16.5954 3.48816 16.4351 3.35357C16.3142 3.25061 16.1673 3.18406 16.0109 3.16147C15.8546 3.13888 15.6951 3.16117 15.5506 3.22579L14.7804 3.55906C14.1198 3.14978 13.3998 2.8481 12.6467 2.66504L12.3359 1.87717C12.2783 1.73016 12.1822 1.60186 12.0578 1.50611C11.9335 1.41037 11.7857 1.35081 11.6304 1.33385C11.137 1.28911 10.6406 1.28911 10.1472 1.33385C9.99099 1.35008 9.84214 1.40925 9.71674 1.50494C9.59134 1.60063 9.49417 1.72922 9.43573 1.87679L9.1268 2.66504C8.37434 2.8487 7.655 3.15076 6.99501 3.5602L6.22475 3.22541C6.08148 3.16037 5.92307 3.13733 5.76751 3.15891C5.61195 3.18049 5.46549 3.24583 5.34478 3.3475C5.17964 3.48589 5.00777 3.64513 4.79358 3.85555C4.59212 4.06484 4.43485 4.24001 4.30266 4.40228C4.20055 4.52448 4.13449 4.67333 4.11204 4.83177C4.08959 4.99022 4.11166 5.15187 4.17572 5.29821L4.50487 6.07811C4.10032 6.74703 3.80175 7.47599 3.62003 8.23848L2.8419 8.55355C2.69701 8.61213 2.57066 8.70965 2.47649 8.8356C2.38233 8.96155 2.32391 9.11115 2.30755 9.26824C2.26337 9.76759 2.26337 10.2699 2.30755 10.7693C2.32334 10.9275 2.38168 11.0783 2.47622 11.2054C2.57076 11.3324 2.69789 11.4307 2.84378 11.4897L3.6204 11.804C3.80219 12.5658 4.10063 13.2941 4.50487 13.9625L4.1761 14.742C4.11212 14.8869 4.08947 15.047 4.11072 15.2043C4.13196 15.3615 4.19624 15.5096 4.2963 15.6318C4.43298 15.799 4.59025 15.9731 4.79845 16.1899C5.00477 16.3939 5.17777 16.5532 5.33804 16.6874C5.35115 16.6987 5.36725 16.7044 5.3811 16.7151L3.49084 21.1177C3.41688 21.2954 3.38749 21.4888 3.4053 21.6808C3.4231 21.8727 3.48753 22.0573 3.59286 22.2179C3.69819 22.3785 3.84113 22.5102 4.00895 22.6014C4.17677 22.6925 4.36425 22.7401 4.55467 22.7401H6.1611C6.18148 22.7398 6.20171 22.7437 6.22061 22.7514C6.23951 22.7592 6.2567 22.7707 6.27119 22.7852L7.18449 23.7076C7.31736 23.8421 7.48057 23.9417 7.66 23.9979C7.83943 24.0542 8.02969 24.0653 8.21433 24.0304C8.39897 23.9955 8.57244 23.9156 8.71974 23.7976C8.86705 23.6796 8.98375 23.5271 9.05977 23.3531L10.8868 19.2781L12.7119 23.3463C12.7868 23.5212 12.9029 23.6749 13.0501 23.7938C13.1972 23.9128 13.3709 23.9935 13.5559 24.0288C13.6265 24.0423 13.6982 24.0491 13.7701 24.0489C14.0763 24.0492 14.3702 23.9265 14.5871 23.7076L15.5019 22.7852C15.5312 22.7565 15.5705 22.7407 15.6113 22.7412H17.2177C17.4085 22.7413 17.5963 22.6935 17.7644 22.602C17.9324 22.5106 18.0755 22.3784 18.1807 22.2173C18.286 22.0562 18.3501 21.8712 18.3675 21.6789C18.3848 21.4865 18.3548 21.2928 18.28 21.115L16.3887 16.7177C16.4014 16.7078 16.4171 16.7025 16.4295 16.6919C16.5939 16.5535 16.7665 16.3947 16.9807 16.1835C17.1821 15.9742 17.339 15.799 17.472 15.6368C17.5739 15.5145 17.6398 15.3657 17.6621 15.2073C17.6844 15.049 17.6622 14.8874 17.5982 14.7412L17.269 13.9613C17.6735 13.293 17.9718 12.5645 18.1531 11.8025L18.9312 11.4878C19.0761 11.4291 19.2025 11.3316 19.2967 11.2057C19.3909 11.0797 19.4494 10.9302 19.466 10.7731C19.4897 10.5229 19.5009 10.2717 19.4993 10.0205C19.5009 9.76982 19.4898 9.51925 19.466 9.26976C19.4494 9.11218 19.3908 8.96213 19.2964 8.83574C19.202 8.70935 19.0754 8.6114 18.9301 8.55242ZM8.37526 23.043C8.34867 23.1046 8.30761 23.1587 8.25565 23.2006C8.20368 23.2425 8.1424 23.2708 8.07713 23.2833C8.01186 23.2957 7.94458 23.2917 7.88116 23.2718C7.81773 23.2519 7.76008 23.2165 7.71322 23.1689L6.80067 22.2487C6.63037 22.0783 6.40051 21.9829 6.1611 21.9833H4.55467C4.48779 21.9836 4.4219 21.967 4.36302 21.9348C4.30415 21.9027 4.25417 21.8561 4.21766 21.7994C4.18042 21.7441 4.15747 21.6803 4.15093 21.6137C4.14439 21.5471 4.15446 21.48 4.18022 21.4184L6.14687 16.8375C6.1727 16.8292 6.19892 16.8269 6.22438 16.8159L6.99464 16.4826C7.65474 16.8921 8.37421 17.1942 9.1268 17.3778L9.4376 18.166C9.49563 18.3126 9.59199 18.4405 9.71635 18.5358C9.84071 18.6311 9.98836 18.6903 10.1435 18.7071C10.1985 18.7128 10.258 18.7154 10.3153 18.7196L8.37526 23.043ZM17.5929 21.4127C17.6188 21.4751 17.6291 21.543 17.6227 21.6104C17.6164 21.6778 17.5937 21.7426 17.5566 21.7989C17.5195 21.8552 17.4692 21.9014 17.4102 21.9332C17.3512 21.9651 17.2853 21.9816 17.2185 21.9814H15.6124C15.374 21.9817 15.1453 22.0771 14.9758 22.2468L14.0614 23.1689C14.0141 23.2166 13.9559 23.2518 13.892 23.2715C13.8282 23.2912 13.7605 23.2947 13.6949 23.2817C13.6294 23.2687 13.568 23.2396 13.5161 23.197C13.4643 23.1544 13.4235 23.0996 13.3975 23.0373L11.4604 18.7188C11.5162 18.7147 11.5728 18.7124 11.6282 18.7067C11.7844 18.6905 11.9332 18.6313 12.0586 18.5356C12.184 18.4399 12.2812 18.3113 12.3396 18.1638L12.6501 17.377C13.4026 17.1934 14.1219 16.8914 14.7819 16.4819L15.5517 16.8148C15.5757 16.8254 15.6012 16.8273 15.6266 16.8356L17.5929 21.4127ZM18.7204 10.7029C18.717 10.7215 18.709 10.7388 18.697 10.7533C18.6851 10.7678 18.6697 10.7789 18.6523 10.7856L17.6929 11.1738C17.6358 11.1971 17.5851 11.2342 17.5455 11.2818C17.5058 11.3295 17.4782 11.3863 17.4652 11.4472C17.295 12.2569 16.9792 13.028 16.5336 13.7221C16.5002 13.7743 16.48 13.834 16.4748 13.8959C16.4696 13.9579 16.4795 14.0202 16.5036 14.0773L16.9099 15.0407C16.9183 15.0582 16.9217 15.0777 16.9198 15.0971C16.9179 15.1164 16.9107 15.1349 16.899 15.1503C16.7762 15.302 16.6317 15.462 16.4497 15.6489C16.258 15.8385 16.0992 15.9848 15.946 16.1126C15.9308 16.123 15.9131 16.1292 15.8948 16.1305C15.8764 16.1317 15.8581 16.128 15.8416 16.1198L14.8934 15.7077C14.837 15.6833 14.7755 15.6734 14.7144 15.6787C14.6533 15.6841 14.5944 15.7046 14.543 15.7384C13.8574 16.1895 13.0959 16.5093 12.2962 16.6817C12.236 16.6948 12.18 16.7227 12.1329 16.7629C12.0858 16.8031 12.0492 16.8544 12.0262 16.9122L11.6432 17.8824C11.6363 17.9009 11.6246 17.9172 11.6094 17.9297C11.5942 17.9421 11.576 17.9501 11.5567 17.953C11.3347 17.9742 11.1119 17.9841 10.889 17.9825H10.8845C10.6606 17.9839 10.4368 17.9737 10.2139 17.9522C10.1955 17.9488 10.1784 17.9406 10.1641 17.9285C10.1498 17.9164 10.1388 17.9008 10.1322 17.8832L9.74878 16.9118C9.72601 16.8539 9.6895 16.8026 9.64247 16.7624C9.59544 16.7222 9.53935 16.6943 9.47917 16.6813C8.67943 16.5091 7.91783 16.1893 7.23242 15.738C7.17176 15.6982 7.10101 15.677 7.02872 15.677C6.97761 15.6767 6.927 15.6872 6.88005 15.7077L5.92856 16.119C5.91142 16.1278 5.89216 16.1314 5.87305 16.1295C5.85394 16.1275 5.83579 16.1201 5.82072 16.108C5.67093 15.9833 5.51291 15.8369 5.3283 15.6531C5.14107 15.4593 4.99728 15.2989 4.86997 15.1431C4.85968 15.1277 4.85362 15.1099 4.85244 15.0913C4.85125 15.0728 4.85498 15.0543 4.86323 15.0377L5.26989 14.0773C5.29393 14.0202 5.30373 13.9579 5.29845 13.8961C5.29316 13.8342 5.27293 13.7746 5.23956 13.7225C4.79385 13.0284 4.47793 12.2573 4.30753 11.4476C4.29476 11.3866 4.26733 11.3298 4.22769 11.2821C4.18804 11.2344 4.1374 11.1973 4.08024 11.1742L3.12237 10.7852C3.10426 10.778 3.08832 10.7661 3.07611 10.7507C3.0639 10.7354 3.05584 10.7171 3.05272 10.6976C3.03288 10.4963 3.02314 10.2749 3.02314 10.0205C3.02314 9.76606 3.03288 9.54464 3.0531 9.33801C3.0566 9.31955 3.0647 9.30231 3.07662 9.28791C3.08855 9.27351 3.10391 9.26243 3.12125 9.25573L4.08061 8.86749C4.13777 8.84435 4.18841 8.8073 4.22806 8.75962C4.26771 8.71194 4.29513 8.65509 4.30791 8.59412C4.47831 7.78442 4.79423 7.01332 5.23993 6.31925C5.27338 6.26701 5.2936 6.20724 5.29883 6.14522C5.30405 6.08319 5.29411 6.02082 5.26989 5.96361L4.86435 5.00171C4.85589 4.98417 4.85243 4.9646 4.85434 4.94517C4.85626 4.92575 4.86349 4.90726 4.87521 4.89176C4.99841 4.7401 5.14257 4.58048 5.32456 4.39318C5.51591 4.20361 5.67468 4.05802 5.82858 3.92949C5.84362 3.91891 5.86123 3.91269 5.8795 3.91148C5.89778 3.91028 5.91603 3.91415 5.9323 3.92266L6.88005 4.33328C6.93654 4.35769 6.99809 4.36765 7.05928 4.36229C7.12046 4.35694 7.17941 4.33643 7.23092 4.30257C7.91633 3.85122 8.67794 3.53146 9.47767 3.35925C9.53786 3.34622 9.59395 3.31837 9.64097 3.27816C9.688 3.23796 9.72451 3.18663 9.74728 3.12873L10.13 2.15888C10.1369 2.14029 10.1486 2.12392 10.1639 2.11146C10.1792 2.09899 10.1974 2.09088 10.2168 2.08798C10.6631 2.04779 11.1119 2.04779 11.5582 2.08798C11.5765 2.09139 11.5936 2.09954 11.6079 2.11163C11.6222 2.12371 11.6332 2.13934 11.6398 2.15698L12.0232 3.12835C12.0462 3.18619 12.0828 3.23745 12.1299 3.27763C12.177 3.31782 12.233 3.34571 12.2932 3.35887C13.0929 3.53127 13.8545 3.85102 14.54 4.30219C14.5917 4.33656 14.6511 4.35739 14.7128 4.36282C14.7745 4.36824 14.8366 4.35809 14.8934 4.33328L15.8449 3.92191C15.8622 3.91342 15.8815 3.90995 15.9006 3.91189C15.9197 3.91383 15.9379 3.9211 15.9532 3.9329C16.1029 4.05726 16.261 4.20361 16.4456 4.38788C16.6328 4.582 16.7773 4.74276 16.9035 4.89783C16.914 4.91317 16.9202 4.9311 16.9215 4.94973C16.9227 4.96835 16.919 4.98697 16.9107 5.00361L16.5036 5.96361C16.4796 6.02075 16.4698 6.083 16.4751 6.14488C16.4803 6.20676 16.5006 6.26638 16.5339 6.31849C16.9795 7.01258 17.2953 7.78368 17.4656 8.59336C17.4786 8.6543 17.5061 8.71108 17.5458 8.75873C17.5855 8.80639 17.6361 8.84347 17.6933 8.86673L18.6515 9.25459C18.6692 9.26117 18.6848 9.27228 18.697 9.28684C18.7091 9.30139 18.7173 9.3189 18.7208 9.33763V9.34218C18.7421 9.56761 18.752 9.79401 18.7504 10.0205C18.7519 10.2483 18.7419 10.4761 18.7204 10.7029Z" fill="#656565"/>
<path d="M13.3909 7.88524L9.86728 11.2248L8.89609 10.1113C8.71449 9.90341 8.39003 9.87324 8.17132 10.0442C7.95284 10.2152 7.92266 10.5225 8.10425 10.7306L9.43638 12.2578C9.52894 12.3643 9.66453 12.4288 9.80946 12.4357C9.9544 12.4426 10.0953 12.3912 10.1977 12.294L14.1204 8.57668C14.2503 8.45396 14.3006 8.27452 14.2525 8.10603C14.2046 7.93756 14.0656 7.80585 13.8878 7.76032C13.7101 7.71478 13.5208 7.7623 13.3909 7.88524Z" fill="#656565"/>
</g>
</svg>
