<svg width="18" height="24" viewBox="0 0 18 24" fill="none" xmlns="http://www.w3.org/2000/svg">
<path d="M8.88653 2.90039C7.69737 2.90039 6.53491 3.25302 5.54616 3.91368C4.55741 4.57434 3.78677 5.51337 3.3317 6.61201C2.87663 7.71065 2.75756 8.91956 2.98955 10.0859C3.22155 11.2522 3.79418 12.3235 4.63505 13.1644C5.47591 14.0052 6.54724 14.5779 7.71355 14.8099C8.87986 15.0419 10.0888 14.9228 11.1874 14.4677C12.2861 14.0127 13.2251 13.242 13.8857 12.2533C14.5464 11.2645 14.899 10.1021 14.899 8.9129C14.8971 7.31886 14.2631 5.79065 13.1359 4.6635C12.0088 3.53635 10.4806 2.90228 8.88653 2.90039ZM8.88653 14.1738C7.84601 14.1738 6.82887 13.8653 5.96371 13.2872C5.09855 12.7091 4.42424 11.8875 4.02605 10.9262C3.62787 9.96486 3.52368 8.90706 3.72668 7.88654C3.92967 6.86601 4.43073 5.9286 5.16648 5.19285C5.90224 4.45709 6.83965 3.95604 7.86017 3.75304C8.88069 3.55005 9.93849 3.65423 10.8998 4.05242C11.8611 4.45061 12.6828 5.12492 13.2608 5.99007C13.8389 6.85523 14.1475 7.87238 14.1475 8.9129C14.146 10.3077 13.5912 11.645 12.6049 12.6313C11.6186 13.6176 10.2814 14.1723 8.88653 14.1738Z" fill="#656565"/>
<path d="M16.9301 7.55242L16.1531 7.23848C15.9718 6.47658 15.6734 5.74822 15.269 5.08001L15.5978 4.30048C15.662 4.15535 15.6848 3.99489 15.6634 3.83733C15.6421 3.67976 15.5776 3.53141 15.4772 3.40911C15.3405 3.24266 15.1836 3.06788 14.9751 2.85101C14.7684 2.64702 14.5954 2.48816 14.4351 2.35357C14.3142 2.25061 14.1673 2.18406 14.0109 2.16147C13.8546 2.13888 13.6951 2.16117 13.5506 2.22579L12.7804 2.55906C12.1198 2.14978 11.3998 1.8481 10.6467 1.66504L10.3359 0.877171C10.2783 0.73016 10.1822 0.601861 10.0578 0.506114C9.93351 0.410367 9.78573 0.350806 9.63042 0.333854C9.137 0.289106 8.64062 0.289106 8.1472 0.333854C7.99099 0.350084 7.84214 0.409245 7.71674 0.50494C7.59134 0.600634 7.49417 0.72922 7.43573 0.876792L7.1268 1.66504C6.37434 1.8487 5.655 2.15076 4.99501 2.5602L4.22475 2.22541C4.08148 2.16037 3.92307 2.13733 3.76751 2.15891C3.61195 2.18049 3.46549 2.24583 3.34478 2.3475C3.17964 2.48589 3.00777 2.64513 2.79358 2.85555C2.59212 3.06484 2.43485 3.24001 2.30266 3.40228C2.20055 3.52448 2.13449 3.67333 2.11204 3.83177C2.08959 3.99022 2.11166 4.15187 2.17572 4.29821L2.50487 5.07811C2.10032 5.74703 1.80175 6.47599 1.62003 7.23848L0.841905 7.55355C0.69701 7.61213 0.570663 7.70965 0.476495 7.8356C0.382326 7.96155 0.323912 8.11115 0.307554 8.26824C0.263367 8.76759 0.263367 9.26994 0.307554 9.76928C0.323341 9.92752 0.381678 10.0783 0.47622 10.2054C0.570763 10.3324 0.69789 10.4307 0.843777 10.4897L1.6204 10.804C1.80219 11.5658 2.10063 12.2941 2.50487 12.9625L2.1761 13.742C2.11212 13.8869 2.08947 14.047 2.11072 14.2043C2.13196 14.3615 2.19624 14.5096 2.2963 14.6318C2.43298 14.799 2.59025 14.9731 2.79845 15.1899C3.00477 15.3939 3.17777 15.5532 3.33804 15.6874C3.35115 15.6987 3.36725 15.7044 3.3811 15.7151L1.49084 20.1177C1.41688 20.2954 1.38749 20.4888 1.4053 20.6808C1.4231 20.8727 1.48753 21.0573 1.59286 21.2179C1.69819 21.3785 1.84113 21.5102 2.00895 21.6014C2.17677 21.6925 2.36425 21.7401 2.55467 21.7401H4.1611C4.18148 21.7398 4.20171 21.7437 4.22061 21.7514C4.23951 21.7592 4.2567 21.7707 4.27119 21.7852L5.18449 22.7076C5.31736 22.8421 5.48057 22.9417 5.66 22.9979C5.83943 23.0542 6.02969 23.0653 6.21433 23.0304C6.39897 22.9955 6.57244 22.9156 6.71974 22.7976C6.86705 22.6796 6.98375 22.5271 7.05977 22.3531L8.88675 18.2781L10.7119 22.3463C10.7868 22.5212 10.9029 22.6749 11.0501 22.7938C11.1972 22.9128 11.3709 22.9935 11.5559 23.0288C11.6265 23.0423 11.6982 23.0491 11.7701 23.0489C12.0763 23.0492 12.3702 22.9265 12.5871 22.7076L13.5019 21.7852C13.5312 21.7565 13.5705 21.7407 13.6113 21.7412H15.2177C15.4085 21.7413 15.5963 21.6935 15.7644 21.602C15.9324 21.5106 16.0755 21.3784 16.1807 21.2173C16.286 21.0562 16.3501 20.8712 16.3675 20.6789C16.3848 20.4865 16.3548 20.2928 16.28 20.115L14.3887 15.7177C14.4014 15.7078 14.4171 15.7025 14.4295 15.6919C14.5939 15.5535 14.7665 15.3947 14.9807 15.1835C15.1821 14.9742 15.339 14.799 15.472 14.6368C15.5739 14.5145 15.6398 14.3657 15.6621 14.2073C15.6844 14.049 15.6622 13.8874 15.5982 13.7412L15.269 12.9613C15.6735 12.293 15.9718 11.5645 16.1531 10.8025L16.9312 10.4878C17.0761 10.4291 17.2025 10.3316 17.2967 10.2057C17.3909 10.0797 17.4494 9.93018 17.466 9.77308C17.4897 9.52295 17.5009 9.27175 17.4993 9.02047C17.5009 8.76982 17.4898 8.51925 17.466 8.26976C17.4494 8.11218 17.3908 7.96213 17.2964 7.83574C17.202 7.70935 17.0754 7.6114 16.9301 7.55242ZM6.37526 22.043C6.34867 22.1046 6.30761 22.1587 6.25565 22.2006C6.20368 22.2425 6.1424 22.2708 6.07713 22.2833C6.01186 22.2957 5.94458 22.2917 5.88116 22.2718C5.81773 22.2519 5.76008 22.2165 5.71322 22.1689L4.80067 21.2487C4.63037 21.0783 4.40051 20.9829 4.1611 20.9833H2.55467C2.48779 20.9836 2.4219 20.967 2.36302 20.9348C2.30415 20.9027 2.25417 20.8561 2.21766 20.7994C2.18042 20.7441 2.15747 20.6803 2.15093 20.6137C2.14439 20.5471 2.15446 20.48 2.18022 20.4184L4.14687 15.8375C4.1727 15.8292 4.19892 15.8269 4.22438 15.8159L4.99464 15.4826C5.65474 15.8921 6.37421 16.1942 7.1268 16.3778L7.4376 17.166C7.49563 17.3126 7.59199 17.4405 7.71635 17.5358C7.84071 17.6311 7.98836 17.6903 8.14345 17.7071C8.1985 17.7128 8.25804 17.7154 8.31533 17.7196L6.37526 22.043ZM15.5929 20.4127C15.6188 20.4751 15.6291 20.543 15.6227 20.6104C15.6164 20.6778 15.5937 20.7426 15.5566 20.7989C15.5195 20.8552 15.4692 20.9014 15.4102 20.9332C15.3512 20.9651 15.2853 20.9816 15.2185 20.9814H13.6124C13.374 20.9817 13.1453 21.0771 12.9758 21.2468L12.0614 22.1689C12.0141 22.2166 11.9559 22.2518 11.892 22.2715C11.8282 22.2912 11.7605 22.2947 11.6949 22.2817C11.6294 22.2687 11.568 22.2396 11.5161 22.197C11.4643 22.1544 11.4235 22.0996 11.3975 22.0373L9.46042 17.7188C9.51621 17.7147 9.57276 17.7124 9.62818 17.7067C9.78438 17.6905 9.93324 17.6313 10.0586 17.5356C10.184 17.4399 10.2812 17.3113 10.3396 17.1638L10.6501 16.377C11.4026 16.1934 12.1219 15.8914 12.7819 15.4819L13.5517 15.8148C13.5757 15.8254 13.6012 15.8273 13.6266 15.8356L15.5929 20.4127ZM16.7204 9.70293C16.717 9.72148 16.709 9.73884 16.697 9.75332C16.6851 9.7678 16.6697 9.77891 16.6523 9.78559L15.6929 10.1738C15.6358 10.1971 15.5851 10.2342 15.5455 10.2818C15.5058 10.3295 15.4782 10.3863 15.4652 10.4472C15.295 11.2569 14.9792 12.028 14.5336 12.7221C14.5002 12.7743 14.48 12.834 14.4748 12.8959C14.4696 12.9579 14.4795 13.0202 14.5036 13.0773L14.9099 14.0407C14.9183 14.0582 14.9217 14.0777 14.9198 14.0971C14.9179 14.1164 14.9107 14.1349 14.899 14.1503C14.7762 14.302 14.6317 14.462 14.4497 14.6489C14.258 14.8385 14.0992 14.9848 13.946 15.1126C13.9308 15.123 13.9131 15.1292 13.8948 15.1305C13.8764 15.1317 13.8581 15.128 13.8416 15.1198L12.8934 14.7077C12.837 14.6833 12.7755 14.6734 12.7144 14.6787C12.6533 14.6841 12.5944 14.7046 12.543 14.7384C11.8574 15.1895 11.0959 15.5093 10.2962 15.6817C10.236 15.6948 10.18 15.7227 10.1329 15.7629C10.0858 15.8031 10.0492 15.8544 10.0262 15.9122L9.64316 16.8824C9.63627 16.9009 9.62462 16.9172 9.60941 16.9297C9.5942 16.9421 9.57598 16.9501 9.55666 16.953C9.33474 16.9742 9.1119 16.9841 8.889 16.9825H8.8845C8.66059 16.9839 8.43676 16.9737 8.21385 16.9522C8.19554 16.9488 8.17842 16.9406 8.16412 16.9285C8.14983 16.9164 8.13884 16.9008 8.13222 16.8832L7.74878 15.9118C7.72601 15.8539 7.6895 15.8026 7.64247 15.7624C7.59544 15.7222 7.53935 15.6943 7.47917 15.6813C6.67943 15.5091 5.91783 15.1893 5.23242 14.738C5.17176 14.6982 5.10101 14.677 5.02872 14.677C4.97761 14.6767 4.927 14.6872 4.88005 14.7077L3.92856 15.119C3.91142 15.1278 3.89216 15.1314 3.87305 15.1295C3.85394 15.1275 3.83579 15.1201 3.82072 15.108C3.67093 14.9833 3.51291 14.8369 3.3283 14.6531C3.14107 14.4593 2.99728 14.2989 2.86997 14.1431C2.85968 14.1277 2.85362 14.1099 2.85244 14.0913C2.85125 14.0728 2.85498 14.0543 2.86323 14.0377L3.26989 13.0773C3.29393 13.0202 3.30373 12.9579 3.29845 12.8961C3.29316 12.8342 3.27293 12.7746 3.23956 12.7225C2.79385 12.0284 2.47793 11.2573 2.30753 10.4476C2.29476 10.3866 2.26733 10.3298 2.22769 10.2821C2.18804 10.2344 2.1374 10.1973 2.08024 10.1742L1.12237 9.78521C1.10426 9.77797 1.08832 9.76609 1.07611 9.75074C1.0639 9.73539 1.05584 9.71708 1.05272 9.69762C1.03288 9.4963 1.02314 9.27488 1.02314 9.02047C1.02314 8.76606 1.03288 8.54464 1.0531 8.33801C1.0566 8.31955 1.0647 8.30231 1.07662 8.28791C1.08855 8.27351 1.10391 8.26243 1.12125 8.25573L2.08061 7.86749C2.13777 7.84435 2.18841 7.8073 2.22806 7.75962C2.26771 7.71194 2.29513 7.65509 2.30791 7.59412C2.47831 6.78442 2.79423 6.01332 3.23993 5.31925C3.27338 5.26701 3.2936 5.20724 3.29883 5.14522C3.30405 5.08319 3.29411 5.02082 3.26989 4.96361L2.86435 4.00171C2.85589 3.98417 2.85243 3.9646 2.85434 3.94517C2.85626 3.92575 2.86349 3.90726 2.87521 3.89176C2.99841 3.7401 3.14257 3.58048 3.32456 3.39318C3.51591 3.20361 3.67468 3.05802 3.82858 2.92949C3.84362 2.91891 3.86123 2.91269 3.8795 2.91148C3.89778 2.91028 3.91603 2.91415 3.9323 2.92266L4.88005 3.33328C4.93654 3.35769 4.99809 3.36765 5.05928 3.36229C5.12046 3.35694 5.17941 3.33643 5.23092 3.30257C5.91633 2.85122 6.67794 2.53146 7.47767 2.35925C7.53786 2.34622 7.59395 2.31837 7.64097 2.27816C7.688 2.23796 7.72451 2.18663 7.74728 2.12873L8.12997 1.15888C8.1369 1.14029 8.14861 1.12392 8.16388 1.11146C8.17915 1.09899 8.19744 1.09088 8.21685 1.08798C8.66307 1.04779 9.11193 1.04779 9.55815 1.08798C9.57648 1.09139 9.59362 1.09954 9.60792 1.11163C9.62222 1.12371 9.6332 1.13934 9.63979 1.15698L10.0232 2.12835C10.0462 2.18619 10.0828 2.23745 10.1299 2.27763C10.177 2.31782 10.233 2.34571 10.2932 2.35887C11.0929 2.53127 11.8545 2.85102 12.54 3.30219C12.5917 3.33656 12.6511 3.35739 12.7128 3.36282C12.7745 3.36824 12.8366 3.35809 12.8934 3.33328L13.8449 2.92191C13.8622 2.91342 13.8815 2.90995 13.9006 2.91189C13.9197 2.91383 13.9379 2.9211 13.9532 2.9329C14.1029 3.05726 14.261 3.20361 14.4456 3.38788C14.6328 3.582 14.7773 3.74276 14.9035 3.89783C14.914 3.91317 14.9202 3.9311 14.9215 3.94973C14.9227 3.96835 14.919 3.98697 14.9107 4.00361L14.5036 4.96361C14.4796 5.02075 14.4698 5.083 14.4751 5.14488C14.4803 5.20676 14.5006 5.26638 14.5339 5.31849C14.9795 6.01258 15.2953 6.78368 15.4656 7.59336C15.4786 7.6543 15.5061 7.71108 15.5458 7.75873C15.5855 7.80639 15.6361 7.84347 15.6933 7.86673L16.6515 8.25459C16.6692 8.26117 16.6848 8.27228 16.697 8.28684C16.7091 8.30139 16.7173 8.3189 16.7208 8.33763V8.34218C16.7421 8.56761 16.752 8.79401 16.7504 9.02047C16.7519 9.24833 16.7419 9.47611 16.7204 9.70293Z" fill="#656565"/>
<path d="M11.3909 6.88526L7.86723 10.2248L6.89603 9.11132C6.71444 8.90343 6.38998 8.87325 6.17127 9.04424C5.95279 9.21524 5.92261 9.52252 6.1042 9.73064L7.43632 11.2578C7.52889 11.3643 7.66448 11.4288 7.80941 11.4357C7.95435 11.4426 8.09521 11.3912 8.1977 11.294L12.1204 7.5767C12.2502 7.45398 12.3005 7.27453 12.2524 7.10605C12.2045 6.93757 12.0655 6.80587 11.8878 6.76034C11.71 6.7148 11.5208 6.76232 11.3909 6.88526Z" fill="#656565"/>
</svg>
