<svg xmlns="http://www.w3.org/2000/svg" width="6" height="11" viewBox="0 0 6 11" >
  <path d="M0.162908 5.92922L4.70779 10.8243C4.8129 10.9376 4.95323 11 5.10285 11C5.25247 11 5.39279 10.9376 5.49791 10.8243L5.83261 10.4639C6.0504 10.229 6.0504 9.84733 5.83261 9.61285L2.01616 5.50228L5.83684 1.38715C5.94196 1.27384 6 1.1228 6 0.961732C6 0.800489 5.94196 0.649442 5.83684 0.536044L5.50214 0.17573C5.39694 0.0624219 5.2567 6.49809e-08 5.10708 7.80613e-08C4.95746 9.11417e-08 4.81714 0.0624219 4.71202 0.17573L0.162908 5.07525C0.0575418 5.18892 -0.000330943 5.34068 9.49862e-07 5.50201C-0.000330915 5.66397 0.0575419 5.81564 0.162908 5.92922Z"/>
</svg>