<svg width="189" height="44" viewBox="0 0 189 44" fill="none" xmlns="http://www.w3.org/2000/svg">
<g clip-path="url(#clip0_3003_235)">
<path d="M12.5765 15.2064C11.7734 15.2064 11.0119 14.7232 10.6966 13.9358C10.3575 13.0886 10.6193 12.1461 11.2915 11.5972C11.4462 11.4421 11.6306 11.3049 11.8389 11.1797C12.0471 11.0603 12.2731 10.9649 12.4932 10.8754C14.6884 9.97461 16.8836 9.08573 19.0728 8.18493C22.2556 6.87847 25.4383 5.56007 28.6567 4.23571C23.9034 -0.101274 13.4153 -1.84919 5.85415 5.10072C-1.73679 12.0805 -1.44528 23.1168 3.86123 29.4224C4.53347 29.148 5.23545 28.8617 5.93744 28.5753C11.1428 26.4396 16.3363 24.298 21.5476 22.1742C22.9635 21.5956 24.1533 21.9833 24.6352 23.0989C25.1289 24.2324 24.5816 25.2942 23.1301 25.9087C20.6136 26.9646 18.0794 27.9907 15.557 29.0287C12.7491 30.186 9.94112 31.3374 6.96066 32.5663C7.42469 32.9123 7.72214 33.1629 8.04339 33.3717C10.6193 35.048 13.4213 36.0979 16.4969 36.2709C23.9213 36.6885 29.7275 33.7236 33.404 27.2867C37.0805 20.8499 36.6462 14.3414 32.6128 8.09545C32.3986 7.76137 32.2618 7.54661 32.0179 7.47503L13.344 15.0513C13.0941 15.1527 12.8383 15.2005 12.5825 15.2005L12.5765 15.2064Z" fill="#D52623"/>
<path d="M49.8042 27.7243C46.9368 27.7243 44.5988 27.2082 42.707 25.2905L45.6518 22.3875C46.6274 23.3493 48.3348 23.6836 49.8339 23.6836C51.6484 23.6836 52.5169 23.0854 52.5169 22.0239C52.5169 21.584 52.4099 21.2204 52.1481 20.9331C51.9101 20.6985 51.5175 20.5167 50.9107 20.4404L48.6501 20.1296C46.9963 19.895 45.7291 19.3496 44.8903 18.4992C44.0218 17.6195 43.5994 16.3762 43.5994 14.7928C43.5994 11.4265 46.1753 8.96338 50.4348 8.96338C53.1178 8.96338 55.1405 9.58503 56.7467 11.1685L53.8555 14.0187C52.8858 13.0569 51.8031 12.9279 50.3039 12.9279C48.6977 12.9279 48.0433 13.8369 48.0433 14.6403C48.0433 14.8749 48.1206 15.2092 48.4121 15.4966C48.6501 15.7311 49.0427 15.9657 49.7031 16.042L51.9637 16.3528C53.6473 16.5874 54.8549 17.1035 55.6461 17.8835C56.6456 18.8394 57.0382 20.2176 57.0382 21.9242C57.0382 25.6834 53.7543 27.7301 49.8101 27.7301L49.8042 27.7243Z" fill="#1D1D1B"/>
<path d="M70.3886 13.1623V27.5716H65.79V13.1623H61.1914V9.12158H74.9931V13.1623H70.3945H70.3886Z" fill="#D52623"/>
<path d="M88.5275 20.0532V27.5658H83.9289V20.0532L78.2773 9.11572H83.2983L86.2431 15.7486L89.1581 9.11572H94.179L88.5275 20.0532Z" fill="#1D1D1B"/>
<path d="M108.9 27.5717L102.903 18.2938V27.5717H98.3047V9.11572H102.326L108.323 18.3935V9.11572H112.921V27.5658H108.9V27.5717Z" fill="#1D1D1B"/>
<path d="M118.945 27.5717V9.11572H131.67V13.1564H123.55V16.2412H130.492V20.2819H123.55V23.5192H131.67V27.5599H118.945V27.5717Z" fill="#1D1D1B"/>
<path d="M146.625 27.5717L143.311 20.7042H141.759V27.5717H137.16V9.11572H144.573C148.725 9.11572 150.962 12.0187 150.962 15.0507C150.962 17.5666 149.385 19.1442 147.91 19.8714L151.955 27.5658H146.619L146.625 27.5717ZM144.364 13.1916H141.759V16.9215H144.364C145.626 16.9215 146.363 16.0125 146.363 15.0566C146.363 14.1006 145.626 13.1916 144.364 13.1916Z" fill="#1D1D1B"/>
<path d="M168.207 25.6541C166.6 27.2844 164.816 27.7301 162.763 27.7301C160.503 27.7301 158.926 27.0322 157.582 25.7068C155.66 23.8126 155.66 21.455 155.66 18.3468C155.66 15.2385 155.66 12.8809 157.582 10.9867C158.92 9.66713 160.503 8.96338 162.763 8.96338C167.576 8.96338 169.622 12.0482 170.075 15.0802H165.446C165.077 13.6785 164.34 13.0041 162.763 13.0041C161.924 13.0041 161.294 13.3677 160.949 13.8075C160.526 14.353 160.265 14.9746 160.265 18.3409C160.265 21.7072 160.526 22.3582 160.949 22.9036C161.288 23.3434 161.919 23.6836 162.763 23.6836C163.739 23.6836 164.393 23.3962 164.816 22.9563C165.339 22.4403 165.524 21.6837 165.524 20.9858V20.7278H162.763V16.9451H170.098V19.5138C170.098 22.493 169.622 24.229 168.207 25.6541Z" fill="#1D1D1B"/>
<path d="M183.348 20.0532V27.5658H178.749V20.0532L173.098 9.11572H178.119L181.063 15.7486L183.978 9.11572H188.999L183.348 20.0532Z" fill="#1D1D1B"/>
<path d="M85.3932 42.7553C84.8399 43.3241 84.2272 43.5001 83.5193 43.5001C82.7637 43.5001 82.2045 43.2538 81.7465 42.8081C81.0861 42.1571 81.0742 41.4182 81.0742 40.169C81.0742 38.9198 81.0861 38.1809 81.7465 37.5299C82.2045 37.0901 82.7637 36.8379 83.5193 36.8379C85.066 36.8379 85.8453 37.829 86.0178 38.9374H84.7091C84.5603 38.3099 84.1796 37.9815 83.5133 37.9815C83.1564 37.9815 82.8768 38.1222 82.6804 38.3334C82.4365 38.609 82.3652 38.9198 82.3652 40.1749C82.3652 41.4299 82.4425 41.7466 82.6804 42.0222C82.8768 42.2333 83.1564 42.3624 83.5133 42.3624C83.9119 42.3624 84.2331 42.2216 84.4354 41.9929C84.6496 41.7524 84.7329 41.4592 84.7329 41.1191V40.8786H83.5133V39.7995H86.0238V40.7555C86.0238 41.7055 85.8751 42.2568 85.3872 42.7494L85.3932 42.7553Z" fill="#9A9998"/>
<path d="M101.981 43.4473L100.684 40.8316H99.75V43.4473H98.4531V36.8965H101.059C102.409 36.8965 103.212 37.8055 103.212 38.9022C103.212 39.8229 102.641 40.3918 101.999 40.6205L103.48 43.4473H101.975H101.981ZM100.975 38.0401H99.756V39.7701H100.975C101.547 39.7701 101.915 39.4124 101.915 38.908C101.915 38.4037 101.541 38.0459 100.975 38.0459V38.0401Z" fill="#9A9998"/>
<path d="M119.566 42.8139C119.12 43.2538 118.56 43.5059 117.793 43.5059C117.025 43.5059 116.46 43.2596 116.008 42.8139C115.348 42.163 115.336 41.424 115.336 40.1748C115.336 38.9257 115.348 38.1867 116.008 37.5358C116.454 37.0959 117.025 36.8438 117.793 36.8438C118.56 36.8438 119.12 37.0901 119.566 37.5358C120.226 38.1867 120.25 38.9257 120.25 40.1748C120.25 41.424 120.232 42.163 119.566 42.8139ZM118.626 38.3334C118.441 38.1222 118.15 37.9815 117.793 37.9815C117.436 37.9815 117.15 38.1222 116.954 38.3334C116.71 38.609 116.639 38.9198 116.639 40.1748C116.639 41.4299 116.716 41.729 116.954 42.0046C117.15 42.2157 117.442 42.3623 117.793 42.3623C118.144 42.3623 118.435 42.2157 118.626 42.0046C118.87 41.729 118.953 41.424 118.953 40.1748C118.953 38.9257 118.87 38.609 118.626 38.3334Z" fill="#9A9998"/>
<path d="M135.008 43.5C133.645 43.5 132.562 42.591 132.562 41.2011V36.8965H133.859V41.1542C133.859 41.9107 134.306 42.3623 135.008 42.3623C135.71 42.3623 136.162 41.9107 136.162 41.1542V36.8965H137.453V41.2011C137.453 42.591 136.37 43.5 135.008 43.5Z" fill="#9A9998"/>
<path d="M152.576 40.9783H151.297V43.4414H150V36.8906H152.576C153.956 36.8906 154.771 37.8172 154.771 38.9315C154.771 40.0458 153.962 40.9724 152.576 40.9724V40.9783ZM152.51 38.0342H151.297V39.8288H152.51C153.099 39.8288 153.474 39.4711 153.474 38.9374C153.474 38.4037 153.099 38.0342 152.51 38.0342Z" fill="#9A9998"/>
</g>
<defs>
<clipPath id="clip0_3003_235">
<rect width="189" height="43.0697" fill="white" transform="translate(0 0.430176)"/>
</clipPath>
</defs>
</svg>
