<svg width="12" height="13" viewBox="0 0 12 13" fill="none" xmlns="http://www.w3.org/2000/svg">
<path d="M11.9993 9.91151V12.2688C11.9994 12.4376 11.9355 12.6002 11.8204 12.7236C11.7053 12.8471 11.5477 12.9224 11.3794 12.9342C11.0881 12.9542 10.8501 12.9648 10.6661 12.9648C4.77507 12.9648 0 8.18951 0 2.29818C0 2.11418 0.00999945 1.87618 0.030665 1.58484C0.0424792 1.41647 0.117714 1.25885 0.241189 1.14378C0.364664 1.02871 0.527186 0.964767 0.695961 0.964844H3.05316C3.13585 0.96476 3.21562 0.995416 3.27697 1.05086C3.33832 1.1063 3.37688 1.18257 3.38515 1.26484C3.40048 1.41818 3.41448 1.54018 3.42781 1.63284C3.56029 2.55746 3.83179 3.45673 4.2331 4.30018C4.29643 4.43351 4.2551 4.59284 4.1351 4.67818L2.69652 5.70618C3.5761 7.75581 5.20941 9.38921 7.25893 10.2688L8.28554 8.83284C8.3275 8.77418 8.38872 8.7321 8.45853 8.71395C8.52833 8.69579 8.6023 8.70272 8.66752 8.73351C9.51081 9.13413 10.4098 9.40496 11.334 9.53684C11.4267 9.55018 11.5487 9.56418 11.7007 9.57951C11.7828 9.58793 11.8589 9.62656 11.9142 9.6879C11.9695 9.74924 11.9994 9.82892 11.9993 9.91151Z" fill="#222222"/>
</svg>
