<svg width="30" height="30" viewBox="0 0 30 30" fill="none" xmlns="http://www.w3.org/2000/svg">
<g clip-path="url(#clip0_510_3537)">
<mask id="mask0_510_3537" style="mask-type:luminance" maskUnits="userSpaceOnUse" x="0" y="0" width="30" height="30">
<path d="M29 29.21V1.20996H1V29.21H29Z" fill="white" stroke="white"/>
</mask>
<g mask="url(#mask0_510_3537)">
<path d="M21.7969 24.8389C21.7969 26.0901 20.7826 27.1045 19.5312 27.1045H10.4688C9.2175 27.1045 8.20312 26.0901 8.20312 24.8389V5.58106C8.20312 4.32981 9.2175 3.31543 10.4688 3.31543H19.5312C20.7826 3.31543 21.7969 4.32981 21.7969 5.58106V24.8389Z" stroke="white" stroke-miterlimit="10" stroke-linecap="round" stroke-linejoin="round"/>
<path d="M16.1328 23.7062H13.8672" stroke="white" stroke-miterlimit="10" stroke-linecap="round" stroke-linejoin="round"/>
<path d="M16.1328 6.71387H13.8672" stroke="white" stroke-miterlimit="10" stroke-linecap="round" stroke-linejoin="round"/>
<path d="M27.5184 10.1123C28.2481 11.4727 28.6504 13.2832 28.6504 15.2092C28.6504 17.1351 28.2481 18.9457 27.5176 20.3076" stroke="white" stroke-miterlimit="10" stroke-linecap="round" stroke-linejoin="round"/>
<path d="M24.6862 11.8115C25.2334 12.7185 25.5352 13.9255 25.5352 15.2095C25.5352 16.4934 25.2334 17.7004 24.6855 18.6084" stroke="white" stroke-miterlimit="10" stroke-linecap="round" stroke-linejoin="round"/>
<path d="M2.48157 10.1123C1.75187 11.4727 1.34961 13.2832 1.34961 15.2092C1.34961 17.1351 1.75187 18.9457 2.48242 20.3076" stroke="white" stroke-miterlimit="10" stroke-linecap="round" stroke-linejoin="round"/>
<path d="M5.31383 11.8115C4.76657 12.7185 4.46484 13.9255 4.46484 15.2095C4.46484 16.4934 4.76657 17.7004 5.31445 18.6084" stroke="white" stroke-miterlimit="10" stroke-linecap="round" stroke-linejoin="round"/>
</g>
</g>
<defs>
<clipPath id="clip0_510_3537">
<rect width="29" height="29" fill="white" transform="translate(0.5 0.710083)"/>
</clipPath>
</defs>
</svg>
