<svg xmlns="http://www.w3.org/2000/svg" width="137" height="20" viewBox="0 0 137 20" fill="none">
  <g clip-path="url(#clip0_805_4254)">
    <path d="M34.18 8.00093V7.35411C34.18 6.30683 33.335 5.45764 32.2929 5.45764H23.918V7.67752H31.3536V8.97117H23.918V14.3371H32.2929C33.335 14.3371 34.18 13.488 34.18 12.4407V11.7939C34.18 10.7466 33.335 9.8974 32.2929 9.8974C33.335 9.8974 34.18 9.04821 34.18 8.00093ZM31.3536 12.2836H26.7011V10.9899H31.3536V12.2836Z" fill="#000106"/>
    <path d="M43.0848 5.45752V12.2834H38.5624V5.45752H35.7793V12.7903C35.7793 13.6443 36.4685 14.337 37.3184 14.337H44.3276C45.1774 14.337 45.8667 13.6443 45.8667 12.7903V5.45752H43.0836H43.0848Z" fill="#000106"/>
    <path d="M55.7124 8.97107H47.4336V9.46689C47.4336 10.2788 48.0888 10.9372 48.8966 10.9372H54.8474V12.487H47.4336C47.4354 13.5093 48.2597 14.337 49.2768 14.337H55.7124C56.7308 14.337 57.5563 13.5074 57.5563 12.484V10.8235C57.5563 9.80009 56.7308 8.97046 55.7124 8.97046V8.97107Z" fill="#000106"/>
    <path d="M55.6929 5.45752H49.6425C48.4227 5.45752 47.4336 6.4516 47.4336 7.6774H57.5563V7.33014C57.5563 6.29571 56.7222 5.45752 55.6929 5.45752Z" fill="#000106"/>
    <path d="M134.49 8.97095H126.211V9.46677C126.211 10.2787 126.866 10.9371 127.674 10.9371H133.625V12.4869H126.211C126.213 13.5091 127.037 14.3369 128.054 14.3369H134.49C135.508 14.3369 136.334 13.5073 136.334 12.4839V10.8234C136.334 9.79996 135.508 8.97034 134.49 8.97034V8.97095Z" fill="#000106"/>
    <path d="M134.47 5.45752H128.42C127.2 5.45752 126.211 6.4516 126.211 7.6774H136.334V7.33014C136.334 6.29571 135.5 5.45752 134.47 5.45752Z" fill="#000106"/>
    <path d="M68.7402 8.97095H65.957V14.3369H68.7402V8.97095Z" fill="#000106"/>
    <path d="M75.5231 5.45752H67.9919C66.8683 5.45752 65.957 6.37335 65.957 7.50255V7.6774H70.3662V13.2182H73.1494V7.6774H74.7754V14.337H77.5586V7.50255C77.5586 6.37335 76.6473 5.45752 75.5237 5.45752H75.5231Z" fill="#000106"/>
    <path d="M89.1433 7.36682C89.1433 6.31221 88.2929 5.45691 87.2429 5.45691H80.8165C79.7671 5.45691 78.916 6.3116 78.916 7.36682V7.67679H86.2927V12.1716H81.7661V8.97044H78.916V12.4271C78.916 13.4817 79.7665 14.337 80.8165 14.337H87.2429C88.2923 14.337 89.1433 13.4823 89.1433 12.4271V7.36682Z" fill="#000106"/>
    <path d="M112.727 7.36682C112.727 6.31221 111.877 5.45691 110.827 5.45691H104.4C103.351 5.45691 102.5 6.3116 102.5 7.36682V7.67679H109.877V12.1716H105.35V8.97044H102.5V12.4271C102.5 13.4817 103.35 14.337 104.4 14.337H110.827C111.876 14.337 112.727 13.4823 112.727 12.4271V7.36682Z" fill="#000106"/>
    <path d="M100.996 5.45752H97.2479H94.4647H90.7168V7.58997H94.4647V14.337H97.2479V7.58997H100.996V5.45752Z" fill="#000106"/>
    <path d="M124.537 9.18931V7.6774C124.537 6.4516 123.547 5.45752 122.328 5.45752H114.318V7.6774H121.754V8.97105H114.318V14.337H117.101V10.9806H119.479L121.841 14.337H124.537L122.194 10.9806H122.755C123.74 10.9806 124.538 10.1785 124.538 9.1887L124.537 9.18931Z" fill="#000106"/>
    <path d="M9.7986 19.472C4.54564 19.472 0.271484 15.1766 0.271484 9.89739C0.271484 4.61823 4.54564 0.322754 9.7986 0.322754C15.0516 0.322754 19.3257 4.61761 19.3257 9.89739C19.3257 15.1772 15.0522 19.472 9.7986 19.472ZM9.7986 0.811848C4.81391 0.811848 0.758151 4.88784 0.758151 9.89739C0.758151 14.9069 4.81391 18.9829 9.7986 18.9829C14.7833 18.9829 18.8391 14.9069 18.8391 9.89739C18.8391 4.88784 14.7833 0.811848 9.7986 0.811848Z" fill="#000106"/>
    <path d="M11.5666 5.06029C11.2539 4.79312 10.7703 4.776 10.381 4.776H6.80884L5.99915 8.25224L5.18945 11.7285H9.33525C10.0312 11.7285 10.6353 11.2467 10.7934 10.5663L11.0489 9.46886C11.2083 8.58177 10.7241 8.25224 10.089 8.25224H10.1449C10.8409 8.25224 11.445 7.77048 11.6031 7.09003C11.6469 6.90295 11.6901 6.71526 11.7339 6.52818C11.8513 6.02319 12.0271 5.45401 11.5666 5.06029ZM9.08036 10.0582H6.13845L6.36232 9.0947H9.30422L9.08036 10.0582ZM9.70329 7.37859H6.76139L6.96579 6.49884H9.90769L9.70329 7.37859Z" fill="#000106"/>
    <path d="M3.56963 11.7292L4.37932 8.25297L5.18901 4.77673H4.65064L3.84094 8.25297L3.03125 11.7292H3.56963Z" fill="#000106"/>
    <path d="M4.66923 11.7291L5.47893 8.25285L6.28862 4.77661H5.75024L4.94055 8.25285L4.13086 11.7291H4.66923Z" fill="#000106"/>
    <path d="M15.2409 8.52124C15.2409 8.52124 11.3165 8.52124 11.3147 8.52124C11.4327 8.6588 11.4649 8.84771 11.4771 9.02317C11.4978 9.31235 11.4601 9.59908 11.4029 9.88214C11.3621 10.0821 11.3122 10.2795 11.2666 10.4776C11.1669 10.9092 11.0671 11.3409 10.9673 11.7725C10.8438 12.3081 10.7197 12.8436 10.5962 13.3786C10.5117 13.7448 10.4271 14.111 10.3426 14.4772C10.3413 14.4839 10.3207 14.5909 10.3164 14.5909H12.2028L13.2194 10.1903H14.158L12.9371 15.4743H14.8236L16.1607 9.6859C16.2982 9.09042 15.8486 8.52185 15.2403 8.52185L15.2409 8.52124Z" fill="#000106"/>
    <path d="M9.33524 12.1051H7.9896L7.21094 15.4744H9.09738L9.89612 12.0183C9.71849 12.0739 9.52991 12.1051 9.33524 12.1051Z" fill="#000106"/>
  </g>
  <defs>
    <clipPath id="clip0_805_4254">
      <rect width="136.061" height="19.1493" fill="white" transform="translate(0.271484 0.322632)"/>
    </clipPath>
  </defs>
</svg>