<svg width="29" height="16" viewBox="0 0 29 16"  xmlns="http://www.w3.org/2000/svg">
<path d="M25.7129 6.68926C26.1253 6.17375 26.4527 5.76012 26.6945 5.44805C28.4358 3.20932 29.1906 1.7792 28.9593 1.1557L28.8685 1.00968C28.8082 0.921968 28.6519 0.841422 28.4005 0.768515C28.1487 0.69566 27.8267 0.684019 27.4343 0.732114L23.0858 0.761773C22.9852 0.752087 22.8838 0.75435 22.7838 0.768515C22.6831 0.783318 22.6178 0.798173 22.5874 0.812343C22.557 0.827199 22.532 0.839104 22.512 0.848797L22.4517 0.892626C22.4014 0.921651 22.3461 0.972908 22.2857 1.04613C22.2253 1.1193 22.1747 1.20411 22.1347 1.30178C21.6616 2.47946 21.1231 3.57465 20.5191 4.58697C20.1466 5.19051 19.8042 5.71408 19.4925 6.15637C19.1805 6.59966 18.9187 6.92563 18.7073 7.1345C18.496 7.34374 18.3046 7.512 18.1336 7.63811C17.9622 7.76512 17.8316 7.81832 17.7412 7.79899C17.6553 7.78088 17.5697 7.76132 17.4845 7.7403C17.3435 7.65296 17.2301 7.53396 17.1448 7.38278C17.0591 7.23227 17.0014 7.04231 16.971 6.81343C16.941 6.58485 16.923 6.38757 16.9184 6.22185C16.913 6.05649 16.9157 5.82307 16.926 5.52096C16.9361 5.21916 16.941 5.01514 16.941 4.90778C16.941 4.53829 16.9487 4.13662 16.9638 3.70334C16.9788 3.27038 16.9915 2.92702 17.0014 2.6739C17.0115 2.42114 17.0164 2.15322 17.0164 1.87081C17.0164 1.58904 16.9988 1.36721 16.9633 1.20638C16.9277 1.04569 16.8747 0.889102 16.805 0.739226C16.7343 0.58867 16.6313 0.471619 16.4952 0.389124C16.3593 0.306261 16.1908 0.240834 15.9895 0.191791C15.4557 0.0747391 14.7763 0.0122095 13.9511 0.00193717C12.0788 -0.0167637 10.8759 0.0999194 10.3424 0.352671C10.131 0.46003 9.93967 0.605739 9.76866 0.790798C9.58731 1.0052 9.56231 1.1222 9.69332 1.1409C10.2974 1.22861 10.7249 1.43816 10.9766 1.76893L11.0673 1.94398C11.1376 2.07099 11.208 2.29477 11.2787 2.61584C11.349 2.93697 11.3944 3.29224 11.4147 3.68169C11.465 4.39222 11.465 5.00028 11.4147 5.50679C11.3643 6.01324 11.3167 6.40722 11.2714 6.689C11.226 6.97141 11.158 7.19998 11.0676 7.37503C10.9769 7.55071 10.9166 7.65776 10.8863 7.69674C10.8559 7.73541 10.8309 7.7599 10.8109 7.76965C10.6808 7.81797 10.5426 7.84267 10.4032 7.8425C10.2622 7.8425 10.0911 7.77412 9.88977 7.63774C9.68837 7.50204 9.47934 7.3144 9.26328 7.07582C9.04657 6.8376 8.80285 6.50394 8.53079 6.07545C8.25906 5.64765 7.97698 5.14115 7.68526 4.55731L7.44387 4.13367C7.29286 3.86159 7.08645 3.46471 6.82474 2.94403C6.56303 2.42336 6.33129 1.9198 6.13027 1.43269C6.04959 1.22861 5.92887 1.07289 5.76789 0.965533L5.69255 0.921704C5.64221 0.882985 5.56153 0.841422 5.45084 0.797857C5.33904 0.753797 5.22253 0.721906 5.10344 0.702772L0.966309 0.731798C0.543569 0.731798 0.256858 0.82467 0.105848 1.00968L0.0454881 1.09707C0.0149811 1.14606 0 1.22408 0 1.3308C0 1.43816 0.0303436 1.56939 0.0907038 1.72479C0.694797 3.09754 1.35162 4.4213 2.06107 5.69601C2.77091 6.97141 3.38737 7.99853 3.91078 8.77712C4.43419 9.55634 4.96763 10.2907 5.51141 10.9819C6.0552 11.6731 6.41491 12.1157 6.59093 12.3102C6.76694 12.5052 6.90531 12.6513 7.00604 12.7483L7.38345 13.099C7.62484 13.3325 7.97992 13.6123 8.44804 13.9386C8.9161 14.2648 9.43423 14.5859 10.0034 14.9019C10.5718 15.2185 11.2339 15.476 11.9887 15.676C12.7435 15.8758 13.4783 15.956 14.1931 15.9167H15.9295C16.2819 15.8877 16.5485 15.781 16.7297 15.5956L16.79 15.5228C16.8299 15.4647 16.868 15.3745 16.9033 15.2529C16.9383 15.1314 16.9564 14.9972 16.9564 14.8515C16.946 14.4331 16.979 14.0552 17.0544 13.7199C17.1297 13.384 17.2154 13.1313 17.3111 12.9604C17.4068 12.7905 17.5148 12.6467 17.6358 12.5297C17.7565 12.4126 17.8418 12.3427 17.8925 12.3182C17.9428 12.2943 17.9833 12.2772 18.0133 12.2669C18.2546 12.1892 18.539 12.2647 18.8664 12.4932C19.1935 12.7225 19.5006 13.0042 19.7876 13.3401C20.0743 13.6761 20.419 14.0529 20.8218 14.4717C21.2242 14.8901 21.5766 15.2016 21.8786 15.406L22.1807 15.5817C22.382 15.6981 22.6434 15.8051 22.9658 15.9028C23.2879 15.9999 23.57 16.0244 23.8113 15.9757L27.6767 15.917C28.0591 15.917 28.3562 15.8564 28.5676 15.7345C28.7789 15.6136 28.9047 15.4789 28.945 15.3332C28.985 15.1871 28.9877 15.0224 28.9527 14.837C28.9174 14.6522 28.8821 14.5233 28.8471 14.4504C28.8118 14.3776 28.779 14.3163 28.7486 14.268C28.2453 13.392 27.284 12.3162 25.8647 11.0411L25.8344 11.0121L25.8194 10.9973L25.8044 10.9831H25.7893C25.1448 10.3892 24.7374 9.9901 24.5664 9.78539C24.2544 9.39662 24.1837 9.00232 24.355 8.60323C24.475 8.30059 24.9278 7.66292 25.7129 6.68926Z"/>
</svg>
