<svg width="20" height="20" viewBox="0 0 20 20" xmlns="http://www.w3.org/2000/svg">
<g clip-path="url(#clip0_439_2920)">
<path fill-rule="evenodd" clip-rule="evenodd" d="M9.9996 0C12.6709 0 15.1821 1.0402 17.0709 2.92906C18.9598 4.81789 20 7.32923 20 10.0004C20 12.6716 18.9598 15.1829 17.0709 17.0717C15.4656 18.6771 13.3409 19.6963 11.0884 19.9415C10.7292 19.9807 10.3691 20 10.0096 20C8.23725 20 6.48143 19.5296 4.95393 18.6369L1.06479 19.679C0.961817 19.7066 0.853408 19.7065 0.75045 19.6789C0.647493 19.6513 0.553614 19.5971 0.478242 19.5217C0.402871 19.4464 0.348662 19.3525 0.32106 19.2495C0.293459 19.1466 0.293438 19.0381 0.320998 18.9352L1.36311 15.046C0.289357 13.2086 -0.173455 11.0411 0.0584589 8.91161C0.303772 6.65903 1.32291 4.53438 2.92827 2.92903C4.8171 1.0402 7.32835 0 9.9996 0ZM5.36686 17.4677C8.84878 19.6323 13.3085 19.1164 16.2121 16.2128C19.6376 12.7873 19.6376 7.21344 16.2121 3.78789C12.7865 0.362344 7.21272 0.362344 3.78709 3.78789C0.883616 6.69141 0.3676 11.1511 2.53233 14.6332C2.57618 14.7038 2.6051 14.7826 2.61729 14.8648C2.62948 14.947 2.62468 15.0308 2.60319 15.111L1.76647 18.2335L4.88901 17.3969C4.96927 17.3754 5.05308 17.3706 5.13527 17.3828C5.21746 17.3949 5.29628 17.4238 5.36686 17.4677ZM13.9452 10.9806L15.0051 12.0405C15.431 12.4664 15.5326 13.1084 15.2582 13.6381C14.7771 14.5669 13.8751 15.177 12.7185 15.3561C12.4776 15.3935 12.231 15.4118 11.9808 15.4118C10.2742 15.4118 8.39451 14.5603 6.91693 13.0827C5.22275 11.3885 4.35162 9.16548 4.64353 7.28114C4.82275 6.12458 5.43283 5.22262 6.36158 4.74145C6.89127 4.467 7.53326 4.56864 7.9592 4.99454L9.01912 6.05446C9.16174 6.19672 9.27129 6.36864 9.33999 6.55801C9.40869 6.74738 9.43485 6.94955 9.41662 7.15017C9.39889 7.35085 9.3372 7.54517 9.23592 7.71932C9.13464 7.89348 8.99626 8.0432 8.83061 8.15786L8.29842 8.52712C8.38772 9.02849 8.64084 10.0003 9.3201 10.6796C9.99908 11.3586 10.9705 11.6118 11.4726 11.7012L11.8418 11.1692C11.9564 11.0035 12.1061 10.8651 12.2803 10.7639C12.4544 10.6626 12.6487 10.6009 12.8494 10.5831C13.05 10.5649 13.2522 10.591 13.4416 10.6597C13.631 10.7284 13.8029 10.838 13.9452 10.9806ZM12.5326 14.1558C13.073 14.0721 13.7974 13.8174 14.1798 13.0794C14.2092 13.0226 14.1955 12.9485 14.1462 12.8993L13.0863 11.8394C13.0421 11.7953 12.9921 11.7896 12.9578 11.7928C12.9235 11.7959 12.8752 11.8103 12.8397 11.8615L12.2587 12.6987C12.1989 12.7847 12.1179 12.8539 12.0236 12.8994C11.9292 12.9449 11.8247 12.9653 11.7201 12.9585C11.6398 12.9533 9.73791 12.8151 8.46119 11.5383C7.18447 10.2616 7.04635 8.35974 7.04107 8.27942C7.03423 8.17487 7.05455 8.07032 7.10007 7.97594C7.14559 7.88156 7.21475 7.80057 7.30084 7.74083L8.13807 7.15989C8.18932 7.12434 8.20369 7.07606 8.20678 7.04177C8.20986 7.00751 8.20424 6.95743 8.16022 6.91333L7.10025 5.85337C7.06838 5.82153 7.02603 5.80454 6.98478 5.80454C6.96236 5.80443 6.94023 5.80969 6.92025 5.81989C6.18221 6.20231 5.92744 6.92669 5.84377 7.46708C5.61361 8.9529 6.37197 10.82 7.77576 12.2238C9.17963 13.6277 11.0468 14.3859 12.5326 14.1558Z" />
</g>
<defs>
<clipPath id="clip0_439_2920">
<rect width="20" height="20" />
</clipPath>
</defs>
</svg>
