<svg width="26" height="19" viewBox="0 0 26 19" xmlns="http://www.w3.org/2000/svg">
<path d="M25.4643 3.6398C25.1647 2.53844 24.2865 1.67025 23.1728 1.37368C21.1382 0.823242 12.9997 0.823242 12.9997 0.823242C12.9997 0.823242 4.86152 0.823242 2.82694 1.35284C1.73465 1.64909 0.835049 2.53864 0.535439 3.6398C0 5.65141 0 9.82328 0 9.82328C0 9.82328 0 14.0161 0.535439 16.0067C0.835333 17.1079 1.71324 17.9761 2.8271 18.2726C4.88293 18.8232 13 18.8232 13 18.8232C13 18.8232 21.1382 18.8232 23.1728 18.2936C24.2866 17.9972 25.1647 17.1291 25.4646 16.0279C25.9999 14.0161 25.9999 9.84441 25.9999 9.84441C25.9999 9.84441 26.0213 5.65137 25.4643 3.6398ZM10.4086 13.6773V5.96911L17.1761 9.8232L10.4086 13.6773Z" />
</svg>
